<svg xmlns="http://www.w3.org/2000/svg" xmlns:xlink="http://www.w3.org/1999/xlink" xmlns:lucid="lucid" width="491" height="800"><g transform="translate(-437 -39)" lucid:page-tab-id="TACQSc2-eHtR"><path d="M728 140c17.67 0 32 17.9 32 40s-14.33 40-32 40h-96c-17.67 0-32-17.9-32-40s14.33-40 32-40z" stroke="#3a414a" stroke-width="4" fill-opacity="0"/><use xlink:href="#a" transform="matrix(1,0,0,1,605,145) translate(48.56444444444447 40.472222222222214)"/><path d="M491.74 260.2a1.3 1.3 0 0 1 1.26-.97h406a.77.77 0 0 1 .74.97l-31.48 118.07a1.3 1.3 0 0 1-1.26.96H461a.77.77 0 0 1-.74-.96z" stroke="#3a414a" stroke-width="4" fill-opacity="0"/><use xlink:href="#b" transform="matrix(1,0,0,1,465,264.23363192038914) translate(85.18500000000013 58.909722222222214)"/><use xlink:href="#c" transform="matrix(1,0,0,1,465,264.23363192038914) translate(134.4650000000001 58.909722222222214)"/><use xlink:href="#d" transform="matrix(1,0,0,1,465,264.23363192038914) translate(182.2338888888889 58.909722222222214)"/><use xlink:href="#e" transform="matrix(1,0,0,1,465,264.23363192038914) translate(268.8294444444444 58.909722222222214)"/><use xlink:href="#f" transform="matrix(1,0,0,1,465,264.23363192038914) translate(290.5716666666666 58.909722222222214)"/><use xlink:href="#g" transform="matrix(1,0,0,1,465,264.23363192038914) translate(328.42055555555544 58.909722222222214)"/><path d="M460 419.47a1 1 0 0 1 1-1h438a1 1 0 0 1 1 1v118a1 1 0 0 1-1 1H461a1 1 0 0 1-1-1z" stroke="#3a414a" stroke-width="4" fill-opacity="0"/><use xlink:href="#h" transform="matrix(1,0,0,1,472,430.4672638407783) translate(38.328888888889026 32.222222222222214)"/><use xlink:href="#i" transform="matrix(1,0,0,1,472,430.4672638407783) translate(128.24888888888896 32.222222222222214)"/><use xlink:href="#j" transform="matrix(1,0,0,1,472,430.4672638407783) translate(209.58222222222224 32.222222222222214)"/><use xlink:href="#k" transform="matrix(1,0,0,1,472,430.4672638407783) translate(36.96888888888901 51.315555555555534)"/><use xlink:href="#l" transform="matrix(1,0,0,1,472,430.4672638407783) translate(176.04444444444448 51.315555555555534)"/><use xlink:href="#m" transform="matrix(1,0,0,1,472,430.4672638407783) translate(101.38666666666676 70.40888888888885)"/><use xlink:href="#n" transform="matrix(1,0,0,1,472,430.4672638407783) translate(181.33333333333337 70.40888888888885)"/><path d="M491.74 580.97A1.3 1.3 0 0 1 493 580h406a.77.77 0 0 1 .74.97l-31.48 118.06a1.3 1.3 0 0 1-1.26.97H461a.77.77 0 0 1-.74-.97z" stroke="#3a414a" stroke-width="4" fill-opacity="0"/><use xlink:href="#o" transform="matrix(1,0,0,1,465,585) translate(38.12944444444459 48.597222222222214)"/><use xlink:href="#p" transform="matrix(1,0,0,1,465,585) translate(120.01388888888897 48.597222222222214)"/><use xlink:href="#q" transform="matrix(1,0,0,1,465,585) translate(163.9072222222223 48.597222222222214)"/><use xlink:href="#r" transform="matrix(1,0,0,1,465,585) translate(302.50277777777774 48.597222222222214)"/><use xlink:href="#s" transform="matrix(1,0,0,1,465,585) translate(29.14722222222236 67.69055555555553)"/><use xlink:href="#f" transform="matrix(1,0,0,1,465,585) translate(186.64055555555558 67.69055555555553)"/><use xlink:href="#m" transform="matrix(1,0,0,1,465,585) translate(224.48944444444444 67.69055555555553)"/><use xlink:href="#t" transform="matrix(1,0,0,1,465,585) translate(304.436111111111 67.69055555555553)"/><path d="M680 224v10.5" stroke="#3a414a" stroke-width="4" fill="none"/><path d="M682 224.05h-4V222h4z" stroke="#3a414a" stroke-width=".05" fill="#3a414a"/><path d="M680 250.76l-4.63-14.26h9.26z" stroke="#3a414a" stroke-width="4" fill="#3a414a"/><path d="M680 383.23v10.5" stroke="#3a414a" stroke-width="4" fill="none"/><path d="M682 383.3h-4v-2.07h4z" stroke="#3a414a" stroke-width=".05" fill="#3a414a"/><path d="M680 410l-4.63-14.27h9.26z" stroke="#3a414a" stroke-width="4" fill="#3a414a"/><path d="M728 741.53c17.67 0 32 17.9 32 40s-14.33 40-32 40h-96c-17.67 0-32-17.9-32-40s14.33-40 32-40z" stroke="#3a414a" stroke-width="4" fill-opacity="0"/><g><use xlink:href="#u" transform="matrix(1,0,0,1,605,746.5327361592217) translate(50.84888888888891 40.472222222222214)"/></g><path d="M680 542.47v12.8" stroke="#3a414a" stroke-width="4" fill="none"/><path d="M682 542.52h-4v-2.05h4z" stroke="#3a414a" stroke-width=".05" fill="#3a414a"/><path d="M680 571.53l-4.63-14.27h9.26z" stroke="#3a414a" stroke-width="4" fill="#3a414a"/><path d="M680 704v12.8" stroke="#3a414a" stroke-width="4" fill="none"/><path d="M682 704.05h-4V702h4z" stroke="#3a414a" stroke-width=".05" fill="#3a414a"/><path d="M680 733.06l-4.63-14.26h9.26z" stroke="#3a414a" stroke-width="4" fill="#3a414a"/><path d="M460 62.5a6 6 0 0 1 6-6h428a6 6 0 0 1 6 6v48a6 6 0 0 1-6 6H466a6 6 0 0 1-6-6z" stroke="#000" stroke-opacity="0" fill="#fff3d9"/><g><use xlink:href="#v" transform="matrix(1,0,0,1,465,61.49806500011934) translate(27.68888888888887 30.27777777777778)"/><use xlink:href="#w" transform="matrix(1,0,0,1,465,61.49806500011934) translate(166.5111111111111 30.27777777777778)"/><use xlink:href="#x" transform="matrix(1,0,0,1,465,61.49806500011934) translate(217.06666666666666 30.27777777777778)"/><use xlink:href="#y" transform="matrix(1,0,0,1,465,61.49806500011934) translate(280.1333333333333 30.27777777777778)"/></g><defs><path fill="#3a414a" d="M371-533c189 0 256 55 239 237-9 91-67 138-157 205C374-33 301-7 236-7 155-7 13-82 18-160c3-44 62-73 96-38 43 44 152 73 218 29 77-51 166-125 156-169 2-44-67-63-119-62-47 1-108 1-155 3C87-393 13-429 1-531c11-87 101-150 165-187 90-52 160-96 290-87 34 2 118 78 115 115-3 35-23 38-55 45-15 4-26-4-33-24-37-64-116-1-164 12-41 11-154 77-154 113 0 15 14 22 41 22 45 0 127-11 165-11" id="z"/><path fill="#3a414a" d="M382-556c-3 158-18 304-18 470 0 31 6 72-21 86-20 35-87 21-104-6-1-188 14-367 23-549 1-24 13-80-17-80-77 0-131 31-210 31-15-10-43-18-33-45 0-82 83-94 148-109 103-23 215-12 315-40 43-12 91-17 142-23 62-8 95 53 77 116-8 28-47 14-75 18-68 9-134 10-195 30-32 11-31 60-32 101" id="A"/><path fill="#3a414a" d="M103-24C79 10-2-14 8-59c42-186 129-353 193-524 23-62 63-135 99-197 39-38 106-10 109 47 27 100 51 209 81 307 8 25 72 24 72 63 0 44-26 46-37 75 12 83 46 156 55 243 7 63-106 47-114 11-13-58-36-170-57-231-3-4-7-8-9-14-69 4-134 40-198 52-53 21-53 108-81 160-4 16-8 29-18 43zm215-551c-16 18-92 195-73 208 46 2 100-12 123-31-5-30-32-162-38-171-2-3-6-5-12-6" id="B"/><path fill="#3a414a" d="M608-642l-20 77c-36 56-69 94-113 138-49 48-58 40-29 81 33 46 69 89 97 147 44 89 52 141 40 147-3 38-20 49-63 52-68 5-97-106-129-160-40-68-56-162-144-164-53-1-27 78-45 121-7 56-12 123-28 170C157-4 113 24 66-1 46-11 40-39 49-87c19-111 19-139 19-313 0-144 1-187-40-242-27-37-13-94 26-108 103-36 250-59 389-41 63 8 182 85 165 149zm-140 11c-10-39-42-58-96-57-53 12-154 21-179 43-5 9-8 31-8 65 0 151 19 135 127 94 94-36 148-79 156-145" id="C"/><g id="a"><use transform="matrix(0.017777777777777764,0,0,0.017777777777777764,0,0)" xlink:href="#z"/><use transform="matrix(0.017777777777777764,0,0,0.017777777777777764,10.133333333333326,0)" xlink:href="#A"/><use transform="matrix(0.017777777777777764,0,0,0.017777777777777764,19.253333333333313,0)" xlink:href="#B"/><use transform="matrix(0.017777777777777764,0,0,0.017777777777777764,29.68888888888886,0)" xlink:href="#C"/><use transform="matrix(0.017777777777777764,0,0,0.017777777777777764,40.67555555555552,0)" xlink:href="#A"/></g><path fill="#3a414a" d="M330-158c82-22 193-18 286-31 38 11 58 81 24 113-25 24-71 25-116 25-135 0-238 34-358 47C61 7 4-52 15-159c12-113 37-213 32-340-2-59 2-121-2-178-2-44 35-62 81-61 104-31 222-52 345-64 68-7 103 34 111 94 2 12-3 22-9 31-33 14-62 15-103 16-100 2-196 10-270 40h-8c-18 23-11 79-15 106-1 13 5 22 16 25 82-10 176-25 264-12 44 7 78 26 71 72-7 49-76 30-125 30-78 0-138 22-210 29-24 1-35 28-36 52-2 41-10 83-8 126-19 84 122 51 181 35" id="D"/><path fill="#3a414a" d="M103-24C79 10-2-14 8-59c42-186 129-353 193-524 23-62 63-135 99-197 39-38 106-10 109 47 27 100 51 209 81 307 8 25 72 24 72 63 0 44-26 46-37 75 12 83 46 156 55 243 7 63-106 47-114 11-13-58-36-170-57-231-3-4-7-8-9-14-69 4-134 40-198 52-53 21-53 108-81 160-4 16-8 29-18 43zm215-551c-16 18-92 195-73 208 46 2 100-12 123-31-5-30-32-162-38-171-2-3-6-5-12-6" id="E"/><path fill="#3a414a" d="M19-91c0-222 71-428 58-668-3-62 121-44 170-33 118 27 229 50 293 128 44 53 63 97 63 217 0 165-189 328-383 400-36 13-62 45-108 45-66 0-93-23-93-89zm185-582c-30 151-43 322-58 489 5 39 27 28 60 14 129-54 276-147 276-304 0-155-106-203-278-199" id="F"/><g id="b"><use transform="matrix(0.017777777777777764,0,0,0.017777777777777764,0,0)" xlink:href="#C"/><use transform="matrix(0.017777777777777764,0,0,0.017777777777777764,10.986666666666657,0)" xlink:href="#D"/><use transform="matrix(0.017777777777777764,0,0,0.017777777777777764,22.826666666666643,0)" xlink:href="#E"/><use transform="matrix(0.017777777777777764,0,0,0.017777777777777764,33.26222222222219,0)" xlink:href="#F"/></g><path fill="#3a414a" d="M593-790c58 0 99 54 77 117-5 13-15 16-35 14-70-7-152-3-229 7-31 20-24 81-26 127-4 138-16 277-16 422 0 32 4 70-21 83-26 36-88 7-103-20 1-182 10-346 21-521 2-27 11-81-18-84-73-7-138 11-206 3-20-18-39-18-32-51-3-78 74-91 145-91 129 0 251 6 369-8 25-3 49 2 74 2" id="G"/><path fill="#3a414a" d="M722-498c18-70 6-160 6-241 0-38 16-57 49-57 55 0 82 64 82 193 1 204-63 347-126 491-54 125-124 110-196 9-30-42-54-91-82-146-27-53-43-79-49-79-8-17-88 136-114 182C269-106 193 9 170-1 96-15 86-47 66-129 33-267 17-480 18-657c0-70 18-105 54-105 39 0 66 36 68 87 4 137-4 277 12 406 12 100 67-12 84-47 47-96 102-197 139-285 18-41 78-38 96-4 52 97 51 251 110 344 50 78 71 31 104-70 17-53 22-108 37-167" id="H"/><path fill="#3a414a" d="M44-443c79-191 208-366 448-366 141 0 239 118 267 253 46 222-61 413-213 490-83 42-221 78-338 30-55-23-106-43-129-82-26-14-80-140-57-202 2-41 8-89 22-123zm103 115c1 136 75 191 208 191 130 0 180-50 241-135 38-53 55-111 55-169 0-109-73-236-179-227-143 12-260 151-311 271-9 24-14 47-14 69" id="I"/><g id="c"><use transform="matrix(0.017777777777777764,0,0,0.017777777777777764,0,0)" xlink:href="#G"/><use transform="matrix(0.017777777777777764,0,0,0.017777777777777764,12.782222222222213,0)" xlink:href="#H"/><use transform="matrix(0.017777777777777764,0,0,0.017777777777777764,28.21333333333331,0)" xlink:href="#I"/></g><path fill="#3a414a" d="M24-128c0-158-18-313-5-472 6-74-11-192 62-191 78 1 88 68 113 130 59 143 102 191 174 297 50 73 81 109 92 109 8 0 12-3 13-9 24-163 3-322-12-477-6-63 62-76 101-37 65 64 45 212 54 340 10 141 7 304-15 413-8 15-20 23-37 23-76 0-203-132-244-200-33-54-79-109-116-169l4 4c-9-20-41-55-54-51-14 102-5 244 6 344 3 30-15 69-41 68-9 0-28-1-56-3-44-28-39-45-39-119" id="J"/><path fill="#3a414a" d="M106-737c41-53 131 12 108 86-42 139-71 285-71 455 0 88 72 66 143 48 49-12 128-35 183-63 38-19 36-69 44-119 17-114 31-247 31-354 0-57 26-85 79-85 37 0 55 27 55 81 0 190-34 397-59 573 4 31 20 93-13 105-8 10-30 7-65-8-16-20-33-38-51-54C397-48 305 0 205 0 79 0 5-43 13-176c13-196 50-391 93-561" id="K"/><path fill="#3a414a" d="M629-645c28 177 9 401 28 582 3 29-18 50-47 50-97 0-67-194-71-306-1-24-4-66-3-92 1-39-15-57-30-33-49 79-88 161-139 243-9 15-21 23-34 23-33 0-70-69-89-115-10-23-57-152-73-152-28 0-27 119-31 162-9 93-16 174-27 265-2 3-35 21-48 20-71-3-50-117-43-176 24-211 38-410 84-595 39-67 121 2 138 59 22 73 63 167 84 249 7 23 13 34 20 34 17 0 54-75 107-225 17-48 42-155 115-96 31 25 52 57 59 103" id="L"/><path fill="#3a414a" d="M68-174c-8-157-1-333-1-488 0-23-21-28-12-60 24-87 141-85 256-77 161 12 317 42 251 258-5 17-40 45-44 60 15 30 85 80 98 123 62 108 25 192-76 258C455-45 341-9 207-4 145-2 19-30 19-85c0-36 51-41 49-89zm137-510c-18 6-26 137-16 192 30 22 66 2 112-6 70-13 158-95 159-132 17-68-169-82-255-54zm-15 330c-15 57-2 155 5 215 6 4 6 12 18 11 101-5 211-32 267-82 52-46 58-91 12-140s-73-73-81-73c-39 14-121 48-173 54-15 2-34 14-48 15" id="M"/><path fill="#3a414a" d="M608-642l-20 77c-36 56-69 94-113 138-49 48-58 40-29 81 33 46 69 89 97 147 44 89 52 141 40 147-3 38-20 49-63 52-68 5-97-106-129-160-40-68-56-162-144-164-53-1-27 78-45 121-7 56-12 123-28 170C157-4 113 24 66-1 46-11 40-39 49-87c19-111 19-139 19-313 0-144 1-187-40-242-27-37-13-94 26-108 103-36 250-59 389-41 63 8 182 85 165 149zm-140 11c-10-39-42-58-96-57-53 12-154 21-179 43-5 9-8 31-8 65 0 151 19 135 127 94 94-36 148-79 156-145" id="N"/><path fill="#3a414a" d="M371-533c189 0 256 55 239 237-9 91-67 138-157 205C374-33 301-7 236-7 155-7 13-82 18-160c3-44 62-73 96-38 43 44 152 73 218 29 77-51 166-125 156-169 2-44-67-63-119-62-47 1-108 1-155 3C87-393 13-429 1-531c11-87 101-150 165-187 90-52 160-96 290-87 34 2 118 78 115 115-3 35-23 38-55 45-15 4-26-4-33-24-37-64-116-1-164 12-41 11-154 77-154 113 0 15 14 22 41 22 45 0 127-11 165-11" id="O"/><g id="d"><use transform="matrix(0.017777777777777764,0,0,0.017777777777777764,0,0)" xlink:href="#J"/><use transform="matrix(0.017777777777777764,0,0,0.017777777777777764,11.395555555555546,0)" xlink:href="#K"/><use transform="matrix(0.017777777777777764,0,0,0.017777777777777764,23.893333333333313,0)" xlink:href="#L"/><use transform="matrix(0.017777777777777764,0,0,0.017777777777777764,35.839999999999975,0)" xlink:href="#M"/><use transform="matrix(0.017777777777777764,0,0,0.017777777777777764,47.271111111111075,0)" xlink:href="#D"/><use transform="matrix(0.017777777777777764,0,0,0.017777777777777764,59.111111111111065,0)" xlink:href="#N"/><use transform="matrix(0.017777777777777764,0,0,0.017777777777777764,70.09777777777772,0)" xlink:href="#O"/></g><path fill="#3a414a" d="M312-705c33-33 39-107-26-103-49 3-81 54-111 81-75 69-115 191-144 308-21 84-23 101-14 176 9 78 64 163 125 214 24 20 92 29 89-18-4-43-67-95-83-129-51-107-29-195 12-325 28-89 89-143 152-204" id="P"/><g id="e"><use transform="matrix(0.017777777777777764,0,0,0.017777777777777764,0,0)" xlink:href="#P"/><use transform="matrix(0.017777777777777764,0,0,0.017777777777777764,6.026666666666662,0)" xlink:href="#E"/></g><g id="f"><use transform="matrix(0.017777777777777764,0,0,0.017777777777777764,0,0)" xlink:href="#E"/><use transform="matrix(0.017777777777777764,0,0,0.017777777777777764,10.435555555555547,0)" xlink:href="#J"/><use transform="matrix(0.017777777777777764,0,0,0.017777777777777764,21.83111111111109,0)" xlink:href="#F"/></g><path fill="#3a414a" d="M281-285c31-114 79-277 15-384-30-51-68-104-118-134-26-16-69-9-66 27 4 51 46 70 66 106 47 87 58 158 22 285-23 82-35 147-91 197C43-130 8-88 8-59 8-15 61 0 89-24c71-61 131-123 171-221 9-21 13-29 21-43v3" id="Q"/><g id="g"><use transform="matrix(0.017777777777777764,0,0,0.017777777777777764,0,0)" xlink:href="#M"/><use transform="matrix(0.017777777777777764,0,0,0.017777777777777764,11.431111111111102,0)" xlink:href="#Q"/></g><path fill="#3a414a" d="M521-275c40-33 108-24 108 34 0 49-75 103-210 183-80 47-247 72-323 10-66-54-95-101-82-218 12-106 41-136 91-224 55-96 145-209 240-278 32-23 68-33 107-33 86 2 108 61 107 158 0 55-15 82-44 82-55 1-25-116-79-110-132 15-229 223-291 334-48 86-31 226 81 218 122-9 217-92 295-156" id="R"/><path fill="#3a414a" d="M23-677c-68-88 127-122 212-122 113 0 253 24 291 82 92 144-48 310-153 365-52 27-102 48-161 69-56 20-53 15-58 80-4 49-8 103-13 153-3 31-19 46-43 46-44 0-65-28-63-81 5-162 8-330 16-486 3-53-4-75-28-106zm415 73c0-44-44-66-132-66-78 0-124 8-135 26-10 16-14 89-14 218 0 44 22 39 57 25 83-34 224-115 224-203" id="S"/><g id="h"><use transform="matrix(0.017777777777777764,0,0,0.017777777777777764,0,0)" xlink:href="#R"/><use transform="matrix(0.017777777777777764,0,0,0.017777777777777764,11.271111111111102,0)" xlink:href="#I"/><use transform="matrix(0.017777777777777764,0,0,0.017777777777777764,25.546666666666646,0)" xlink:href="#L"/><use transform="matrix(0.017777777777777764,0,0,0.017777777777777764,37.493333333333304,0)" xlink:href="#S"/><use transform="matrix(0.017777777777777764,0,0,0.017777777777777764,47.51999999999996,0)" xlink:href="#K"/><use transform="matrix(0.017777777777777764,0,0,0.017777777777777764,60.01777777777773,0)" xlink:href="#G"/><use transform="matrix(0.017777777777777764,0,0,0.017777777777777764,72.79999999999994,0)" xlink:href="#D"/></g><path fill="#3a414a" d="M194-490c84-10 187-18 187 71 0 54-54 28-96 45-79 1-166 17-240 6-17-14-55-67-20-89 39-24 120-27 169-33zm-61 193c94 0 235-47 235 61 0 66-66 50-124 57-28 4-110 7-132 8-50 1-113-51-81-101 17-27 58-14 102-25" id="T"/><path fill="#3a414a" d="M247-706c69-7 55 87 47 144 7 36 7 40 59 43 50 3 122-1 122 59 0 38-26 67-57 68-54 2-108-13-130 27-29 34-30 125-56 158-43 28-93 0-87-69-5-35 30-117-28-110-65 8-119-7-115-66 3-51 46-54 113-53 79 2 72-25 75-84 4-71 5-112 57-117" id="U"/><path fill="#3a414a" d="M39 59C84 43 157-10 157-69c0-34-42-63-77-61-70 4-68 99-68 162 0 18 9 27 27 27" id="V"/><g id="i"><use transform="matrix(0.017777777777777764,0,0,0.017777777777777764,0,0)" xlink:href="#O"/><use transform="matrix(0.017777777777777764,0,0,0.017777777777777764,11.21777777777777,0)" xlink:href="#K"/><use transform="matrix(0.017777777777777764,0,0,0.017777777777777764,23.71555555555554,0)" xlink:href="#L"/><use transform="matrix(0.017777777777777764,0,0,0.017777777777777764,35.6622222222222,0)" xlink:href="#T"/><use transform="matrix(0.017777777777777764,0,0,0.017777777777777764,42.684444444444416,0)" xlink:href="#E"/><use transform="matrix(0.017777777777777764,0,0,0.017777777777777764,53.11999999999996,0)" xlink:href="#U"/><use transform="matrix(0.017777777777777764,0,0,0.017777777777777764,61.67111111111106,0)" xlink:href="#M"/><use transform="matrix(0.017777777777777764,0,0,0.017777777777777764,73.10222222222217,0)" xlink:href="#V"/></g><path fill="#3a414a" d="M292-638c-67 2-113 14-176 21-81 9-112-68-58-103 132-46 304-52 470-66l65 5c50 52 43 111-50 111-45 0-75 15-112 18-18 16-19 83-24 152-7 108-21 214-33 322-5 46 36 20 67 20 54 0 81-10 139-16 43 25 50 62 23 110-151 29-311 50-490 79C58 24-8 22 3-44c14-83 161-45 224-90 22-16 24-69 29-107 17-126 33-258 36-397" id="W"/><path fill="#3a414a" d="M44-228v-78h244v78H44" id="X"/><g id="j"><use transform="matrix(0.017777777777777764,0,0,0.017777777777777764,0,0)" xlink:href="#O"/><use transform="matrix(0.017777777777777764,0,0,0.017777777777777764,11.21777777777777,0)" xlink:href="#K"/><use transform="matrix(0.017777777777777764,0,0,0.017777777777777764,23.71555555555554,0)" xlink:href="#M"/><use transform="matrix(0.017777777777777764,0,0,0.017777777777777764,35.14666666666664,0)" xlink:href="#G"/><use transform="matrix(0.017777777777777764,0,0,0.017777777777777764,47.92888888888885,0)" xlink:href="#N"/><use transform="matrix(0.017777777777777764,0,0,0.017777777777777764,58.91555555555551,0)" xlink:href="#E"/><use transform="matrix(0.017777777777777764,0,0,0.017777777777777764,69.35111111111105,0)" xlink:href="#R"/><use transform="matrix(0.017777777777777764,0,0,0.017777777777777764,80.62222222222215,0)" xlink:href="#G"/><use transform="matrix(0.017777777777777764,0,0,0.017777777777777764,93.40444444444437,0)" xlink:href="#W"/><use transform="matrix(0.017777777777777764,0,0,0.017777777777777764,104.69333333333323,0)" xlink:href="#I"/><use transform="matrix(0.017777777777777764,0,0,0.017777777777777764,118.96888888888878,0)" xlink:href="#J"/><use transform="matrix(0.017777777777777764,0,0,0.017777777777777764,130.36444444444433,0)" xlink:href="#T"/><use transform="matrix(0.017777777777777764,0,0,0.017777777777777764,137.38666666666654,0)" xlink:href="#E"/><use transform="matrix(0.017777777777777764,0,0,0.017777777777777764,147.82222222222208,0)" xlink:href="#X"/><use transform="matrix(0.017777777777777764,0,0,0.017777777777777764,153.7066666666665,0)" xlink:href="#M"/><use transform="matrix(0.017777777777777764,0,0,0.017777777777777764,165.13777777777761,0)" xlink:href="#V"/></g><path fill="#3a414a" d="M109-735c-25-57-110-11-99 37 30 130 91 291 122 410 18 69 44 132 72 190 44 90 75 116 148 73 102-105 149-290 208-441 32-82 48-168 48-261 0-51-15-77-46-77-38 0-59 34-73 100-35 160-89 312-149 454-40 95-58 66-91-37-28-90-54-179-79-263-24-79-42-141-61-185" id="Y"/><path fill="#3a414a" d="M11-110C-14-66 45-13 76-8c17 2 29-20 35-34 46-87 86-151 130-233 80-148 195-281 286-421 44-66-51-145-100-70C284-548 148-351 11-110" id="Z"/><g id="k"><use transform="matrix(0.017777777777777764,0,0,0.017777777777777764,0,0)" xlink:href="#F"/><use transform="matrix(0.017777777777777764,0,0,0.017777777777777764,10.737777777777769,0)" xlink:href="#W"/><use transform="matrix(0.017777777777777764,0,0,0.017777777777777764,22.02666666666665,0)" xlink:href="#Y"/><use transform="matrix(0.017777777777777764,0,0,0.017777777777777764,32.95999999999997,0)" xlink:href="#W"/><use transform="matrix(0.017777777777777764,0,0,0.017777777777777764,44.24888888888886,0)" xlink:href="#O"/><use transform="matrix(0.017777777777777764,0,0,0.017777777777777764,55.466666666666626,0)" xlink:href="#W"/><use transform="matrix(0.017777777777777764,0,0,0.017777777777777764,66.7555555555555,0)" xlink:href="#I"/><use transform="matrix(0.017777777777777764,0,0,0.017777777777777764,81.03111111111104,0)" xlink:href="#J"/><use transform="matrix(0.017777777777777764,0,0,0.017777777777777764,92.42666666666659,0)" xlink:href="#T"/><use transform="matrix(0.017777777777777764,0,0,0.017777777777777764,99.44888888888879,0)" xlink:href="#E"/><use transform="matrix(0.017777777777777764,0,0,0.017777777777777764,109.88444444444436,0)" xlink:href="#Z"/><use transform="matrix(0.017777777777777764,0,0,0.017777777777777764,119.41333333333324,0)" xlink:href="#M"/><use transform="matrix(0.017777777777777764,0,0,0.017777777777777764,130.84444444444435,0)" xlink:href="#V"/></g><path fill="#3a414a" d="M21-302C-7-136 9 24 196-12c147-28 263-93 386-142 57-23 26-120-26-120-111 32-240 115-378 126-13 1-22-26-25-45 30-174 59-350 88-524 10-62-86-124-120-61-39 73-49 196-69 277-19 77-22 145-31 199" id="aa"/><path fill="#3a414a" d="M326-672c47-13 117-11 117-73 0-69-77-55-133-49-71 9-36-80-58-137-21-55-106-22-95 35-4 10 15 48-3 53-23-22-47-62-88-62-20-1-38 17-37 37 2 32 48 80 67 106-10 12-32 12-55 11-79 22-11 125 48 117 33-5 73-11 66 36-8 59 3 111 63 117 42 4 32-88 52-111 15 5 75 36 84 37 20 2 38-22 37-42 6-25-64-61-65-75" id="ab"/><g id="l"><use transform="matrix(0.017777777777777764,0,0,0.017777777777777764,0,0)" xlink:href="#L"/><use transform="matrix(0.017777777777777764,0,0,0.017777777777777764,11.946666666666657,0)" xlink:href="#K"/><use transform="matrix(0.017777777777777764,0,0,0.017777777777777764,24.444444444444425,0)" xlink:href="#aa"/><use transform="matrix(0.017777777777777764,0,0,0.017777777777777764,35.37777777777775,0)" xlink:href="#G"/><use transform="matrix(0.017777777777777764,0,0,0.017777777777777764,48.15999999999997,0)" xlink:href="#W"/><use transform="matrix(0.017777777777777764,0,0,0.017777777777777764,59.448888888888845,0)" xlink:href="#S"/><use transform="matrix(0.017777777777777764,0,0,0.017777777777777764,69.4755555555555,0)" xlink:href="#aa"/><use transform="matrix(0.017777777777777764,0,0,0.017777777777777764,80.40888888888882,0)" xlink:href="#W"/><use transform="matrix(0.017777777777777764,0,0,0.017777777777777764,91.6977777777777,0)" xlink:href="#R"/><use transform="matrix(0.017777777777777764,0,0,0.017777777777777764,102.9688888888888,0)" xlink:href="#E"/><use transform="matrix(0.017777777777777764,0,0,0.017777777777777764,113.40444444444435,0)" xlink:href="#G"/><use transform="matrix(0.017777777777777764,0,0,0.017777777777777764,126.18666666666657,0)" xlink:href="#W"/><use transform="matrix(0.017777777777777764,0,0,0.017777777777777764,137.47555555555545,0)" xlink:href="#I"/><use transform="matrix(0.017777777777777764,0,0,0.017777777777777764,151.751111111111,0)" xlink:href="#J"/><use transform="matrix(0.017777777777777764,0,0,0.017777777777777764,163.14666666666653,0)" xlink:href="#T"/><use transform="matrix(0.017777777777777764,0,0,0.017777777777777764,170.16888888888874,0)" xlink:href="#E"/><use transform="matrix(0.017777777777777764,0,0,0.017777777777777764,180.60444444444428,0)" xlink:href="#ab"/><use transform="matrix(0.017777777777777764,0,0,0.017777777777777764,188.60444444444428,0)" xlink:href="#M"/><use transform="matrix(0.017777777777777764,0,0,0.017777777777777764,200.0355555555554,0)" xlink:href="#V"/></g><g id="m"><use transform="matrix(0.017777777777777764,0,0,0.017777777777777764,0,0)" xlink:href="#L"/><use transform="matrix(0.017777777777777764,0,0,0.017777777777777764,11.946666666666657,0)" xlink:href="#I"/><use transform="matrix(0.017777777777777764,0,0,0.017777777777777764,26.2222222222222,0)" xlink:href="#F"/><use transform="matrix(0.017777777777777764,0,0,0.017777777777777764,36.959999999999965,0)" xlink:href="#K"/><use transform="matrix(0.017777777777777764,0,0,0.017777777777777764,49.457777777777736,0)" xlink:href="#aa"/><use transform="matrix(0.017777777777777764,0,0,0.017777777777777764,60.39111111111106,0)" xlink:href="#I"/></g><path fill="#3a414a" d="M588-670c18-52-65-55-106-44-30 17-27 54-48 88C315-429 210-248 81-61 62-7 120 5 156 17c41-5 64-78 80-107 56-99 115-197 177-288 63-91 136-183 175-292zm37 578c55-80 11-196-103-172-90 19-152 61-180 142-11 90 47 153 144 132C544-3 596-50 625-92zM40-613c-55 80-11 197 104 171 89-20 160-58 178-142 19-87-45-151-143-130-59 13-109 58-139 101zM469-83c-16 0-30-3-28-20 4-37 33-60 72-61 21-1 35 16 30 35-8 30-38 44-74 46zM152-541c-64-14-6-93 44-80 14 0 29 2 30 15-5 38-33 64-74 65" id="ac"/><g id="n"><use transform="matrix(0.017777777777777764,0,0,0.017777777777777764,0,0)" xlink:href="#F"/><use transform="matrix(0.017777777777777764,0,0,0.017777777777777764,10.737777777777769,0)" xlink:href="#W"/><use transform="matrix(0.017777777777777764,0,0,0.017777777777777764,22.02666666666665,0)" xlink:href="#Y"/><use transform="matrix(0.017777777777777764,0,0,0.017777777777777764,32.95999999999997,0)" xlink:href="#W"/><use transform="matrix(0.017777777777777764,0,0,0.017777777777777764,44.24888888888886,0)" xlink:href="#O"/><use transform="matrix(0.017777777777777764,0,0,0.017777777777777764,55.466666666666626,0)" xlink:href="#W"/><use transform="matrix(0.017777777777777764,0,0,0.017777777777777764,66.7555555555555,0)" xlink:href="#I"/><use transform="matrix(0.017777777777777764,0,0,0.017777777777777764,81.03111111111104,0)" xlink:href="#J"/><use transform="matrix(0.017777777777777764,0,0,0.017777777777777764,92.42666666666659,0)" xlink:href="#T"/><use transform="matrix(0.017777777777777764,0,0,0.017777777777777764,99.44888888888879,0)" xlink:href="#E"/><use transform="matrix(0.017777777777777764,0,0,0.017777777777777764,109.88444444444436,0)" xlink:href="#ac"/><use transform="matrix(0.017777777777777764,0,0,0.017777777777777764,121.8488888888888,0)" xlink:href="#M"/></g><path fill="#3a414a" d="M192-85c-3 48 46 100 89 72 52-75 73-232 102-321 46-139 146-233 278-374 22-37 2-105-46-93-81 20-199 174-252 246-53 73-46 65-110 7-63-57-96-136-132-220-11-25-31-37-54-37-36-1-56 32-56 68 32 142 118 264 224 332 15 16 24 24 21 38" id="ad"/><g id="o"><use transform="matrix(0.017777777777777764,0,0,0.017777777777777764,0,0)" xlink:href="#F"/><use transform="matrix(0.017777777777777764,0,0,0.017777777777777764,10.737777777777769,0)" xlink:href="#W"/><use transform="matrix(0.017777777777777764,0,0,0.017777777777777764,22.02666666666665,0)" xlink:href="#O"/><use transform="matrix(0.017777777777777764,0,0,0.017777777777777764,33.24444444444442,0)" xlink:href="#S"/><use transform="matrix(0.017777777777777764,0,0,0.017777777777777764,43.271111111111075,0)" xlink:href="#aa"/><use transform="matrix(0.017777777777777764,0,0,0.017777777777777764,54.204444444444405,0)" xlink:href="#E"/><use transform="matrix(0.017777777777777764,0,0,0.017777777777777764,64.63999999999994,0)" xlink:href="#ad"/></g><g id="p"><use transform="matrix(0.017777777777777764,0,0,0.017777777777777764,0,0)" xlink:href="#O"/><use transform="matrix(0.017777777777777764,0,0,0.017777777777777764,11.21777777777777,0)" xlink:href="#K"/><use transform="matrix(0.017777777777777764,0,0,0.017777777777777764,23.71555555555554,0)" xlink:href="#L"/><use transform="matrix(0.017777777777777764,0,0,0.017777777777777764,35.6622222222222,0)" xlink:href="#V"/></g><g id="q"><use transform="matrix(0.017777777777777764,0,0,0.017777777777777764,0,0)" xlink:href="#O"/><use transform="matrix(0.017777777777777764,0,0,0.017777777777777764,11.21777777777777,0)" xlink:href="#K"/><use transform="matrix(0.017777777777777764,0,0,0.017777777777777764,23.71555555555554,0)" xlink:href="#M"/><use transform="matrix(0.017777777777777764,0,0,0.017777777777777764,35.14666666666664,0)" xlink:href="#G"/><use transform="matrix(0.017777777777777764,0,0,0.017777777777777764,47.92888888888885,0)" xlink:href="#N"/><use transform="matrix(0.017777777777777764,0,0,0.017777777777777764,58.91555555555551,0)" xlink:href="#E"/><use transform="matrix(0.017777777777777764,0,0,0.017777777777777764,69.35111111111105,0)" xlink:href="#R"/><use transform="matrix(0.017777777777777764,0,0,0.017777777777777764,80.62222222222215,0)" xlink:href="#G"/><use transform="matrix(0.017777777777777764,0,0,0.017777777777777764,93.40444444444437,0)" xlink:href="#W"/><use transform="matrix(0.017777777777777764,0,0,0.017777777777777764,104.69333333333323,0)" xlink:href="#I"/><use transform="matrix(0.017777777777777764,0,0,0.017777777777777764,118.96888888888878,0)" xlink:href="#J"/><use transform="matrix(0.017777777777777764,0,0,0.017777777777777764,130.36444444444433,0)" xlink:href="#V"/></g><g id="r"><use transform="matrix(0.017777777777777764,0,0,0.017777777777777764,0,0)" xlink:href="#F"/><use transform="matrix(0.017777777777777764,0,0,0.017777777777777764,10.737777777777769,0)" xlink:href="#W"/><use transform="matrix(0.017777777777777764,0,0,0.017777777777777764,22.02666666666665,0)" xlink:href="#Y"/><use transform="matrix(0.017777777777777764,0,0,0.017777777777777764,32.95999999999997,0)" xlink:href="#W"/><use transform="matrix(0.017777777777777764,0,0,0.017777777777777764,44.24888888888886,0)" xlink:href="#O"/><use transform="matrix(0.017777777777777764,0,0,0.017777777777777764,55.466666666666626,0)" xlink:href="#W"/><use transform="matrix(0.017777777777777764,0,0,0.017777777777777764,66.7555555555555,0)" xlink:href="#I"/><use transform="matrix(0.017777777777777764,0,0,0.017777777777777764,81.03111111111104,0)" xlink:href="#J"/><use transform="matrix(0.017777777777777764,0,0,0.017777777777777764,92.42666666666659,0)" xlink:href="#V"/></g><g id="s"><use transform="matrix(0.017777777777777764,0,0,0.017777777777777764,0,0)" xlink:href="#L"/><use transform="matrix(0.017777777777777764,0,0,0.017777777777777764,11.946666666666657,0)" xlink:href="#K"/><use transform="matrix(0.017777777777777764,0,0,0.017777777777777764,24.444444444444425,0)" xlink:href="#aa"/><use transform="matrix(0.017777777777777764,0,0,0.017777777777777764,35.37777777777775,0)" xlink:href="#G"/><use transform="matrix(0.017777777777777764,0,0,0.017777777777777764,48.15999999999997,0)" xlink:href="#W"/><use transform="matrix(0.017777777777777764,0,0,0.017777777777777764,59.448888888888845,0)" xlink:href="#S"/><use transform="matrix(0.017777777777777764,0,0,0.017777777777777764,69.4755555555555,0)" xlink:href="#W"/><use transform="matrix(0.017777777777777764,0,0,0.017777777777777764,80.76444444444438,0)" xlink:href="#R"/><use transform="matrix(0.017777777777777764,0,0,0.017777777777777764,92.03555555555549,0)" xlink:href="#E"/><use transform="matrix(0.017777777777777764,0,0,0.017777777777777764,102.47111111111103,0)" xlink:href="#G"/><use transform="matrix(0.017777777777777764,0,0,0.017777777777777764,115.25333333333325,0)" xlink:href="#W"/><use transform="matrix(0.017777777777777764,0,0,0.017777777777777764,126.54222222222212,0)" xlink:href="#I"/><use transform="matrix(0.017777777777777764,0,0,0.017777777777777764,140.81777777777768,0)" xlink:href="#J"/></g><g id="t"><use transform="matrix(0.017777777777777764,0,0,0.017777777777777764,0,0)" xlink:href="#F"/><use transform="matrix(0.017777777777777764,0,0,0.017777777777777764,10.737777777777769,0)" xlink:href="#W"/><use transform="matrix(0.017777777777777764,0,0,0.017777777777777764,22.02666666666665,0)" xlink:href="#Y"/><use transform="matrix(0.017777777777777764,0,0,0.017777777777777764,32.95999999999997,0)" xlink:href="#W"/><use transform="matrix(0.017777777777777764,0,0,0.017777777777777764,44.24888888888886,0)" xlink:href="#O"/><use transform="matrix(0.017777777777777764,0,0,0.017777777777777764,55.466666666666626,0)" xlink:href="#W"/><use transform="matrix(0.017777777777777764,0,0,0.017777777777777764,66.7555555555555,0)" xlink:href="#I"/><use transform="matrix(0.017777777777777764,0,0,0.017777777777777764,81.03111111111104,0)" xlink:href="#J"/></g><g id="u"><use transform="matrix(0.017777777777777764,0,0,0.017777777777777764,0,0)" xlink:href="#O"/><use transform="matrix(0.017777777777777764,0,0,0.017777777777777764,11.21777777777777,0)" xlink:href="#G"/><use transform="matrix(0.017777777777777764,0,0,0.017777777777777764,23.999999999999982,0)" xlink:href="#I"/><use transform="matrix(0.017777777777777764,0,0,0.017777777777777764,38.27555555555553,0)" xlink:href="#S"/></g><path fill="#3a414a" d="M247-491c4-58-16-131 34-141 82-16 176-39 255-55 40-8 54-21 55-68 2-89-94-75-175-63-118 17-292 45-359 106-23 21-20 70-5 98 12 11 43 7 43 25 0 45 0 79-2 117-13 22-33 46-32 81 30 86 13 210 13 321 0 45 55 52 97 50 59-25 38-242 50-304 5-22 30-20 56-26 78-17 169-21 238-43 27-8 39-31 39-61 0-46-28-69-84-69-71 0-156 16-210 32h-13" id="ae"/><path fill="#3a414a" d="M50-194C40-28 200 0 338-54c94-37 183-73 272-114 29-13 41-37 41-62 0-44-32-91-71-89-30 3-148 61-190 76l1-1c-45 16-110 45-165 45 1 0 0-5-3-15l1 1-3-11c27-168 60-333 82-502 10-75-103-138-147-64-8 14-17 32-20 54l1-1c-6 17-8 35-12 54l1-2C92-532 60-361 50-194" id="af"/><path fill="#3a414a" d="M776-292c25-58 39-113 39-189 0-186-105-335-289-347-115-8-264 80-335 176-54 72-128 174-130 306-17 72 19 171 60 209C155-80 284-35 371-30c125 8 185-36 261-79 69-40 112-103 145-184zM507-656c91 0 151 106 151 197 0 107-87 221-167 253-29 11-88 21-133 13l1 1c-87-19-148-53-141-159 8-119 91-193 166-254 44-35 86-51 123-51" id="ag"/><path fill="#3a414a" d="M801-816c-117 0-37 170-64 263l1-1c-15 67-25 131-43 194-17 60-32 90-42 90-80-84-72-255-129-356-25-43-100-46-123 6-3 9-10 16-13 25l1-1c-8 20-18 38-27 56h3c-37 81-75 146-113 224-14 27-22 40-25 40-20-121-1-292-18-429-7-54-40-79-81-79-96 0-69 186-67 280 4 147 38 414 86 451 74 56 110 33 172-59 29-43 113-203 127-220 48 94 116 279 229 289 100-11 151-212 184-307 29-83 39-155 39-263 0-135-32-203-97-203" id="ah"/><path fill="#3a414a" d="M603-651c0-97-31-172-120-170-102 1-164 75-214 132-81 91-127 171-181 277-30 59-52 189-20 259C104-74 204-5 336-32c36-8 99-21 126-45 137-73 206-137 206-191 0-71-82-87-131-48-77 62-149 135-266 145-97 8-92-125-54-190 41-69 89-162 136-217 46-53 83-81 115-81 30 22 11 105 74 105 41 0 61-32 61-97" id="ai"/><path fill="#3a414a" d="M211-150c2-56-6-121 2-175-6-57 39-29 77-42l99-9c10 81-7 183-7 268 0 63 24 95 79 97 39 2 67-28 71-64 21-214 34-430 47-645 5-79-45-113-114-95-24 14-42 35-54 58-5 60-4 122-9 186-4 49 4 36-56 43-40 4-81 13-122 10 3-61 9-119 11-180 2-53-31-103-77-103-110 0-98 263-98 399 0 91-21 189-9 280-5 25 0 47 13 66 72 60 142 31 147-94zm10-369c0-2 1 0 1 0h-1" id="aj"/><path fill="#3a414a" d="M70-181C36-106 39-36 121-28c46 4 59-41 69-68 14-40 27-86 43-123 28-31 91-34 132-52 22-9 42-12 57-14 23 70 34 146 54 220 8 29 38 43 83 43 40 0 60-20 60-60 0-87-40-149-50-230 28-18 51-84 14-113-11-9-44-19-50-27-27-105-52-214-82-316-19-65-108-61-136-9-73 134-133 295-189 435-24 59-31 107-56 161zm286-369c8 39 19 86 26 125-22 9-48 16-78 17 14-39 32-102 52-142" id="ak"/><path fill="#3a414a" d="M173-13c102-20 79-163 100-261 0-7 2-19 3-27-8-47 57-27 68-2 40 53 67 131 101 192l-1-1c19 54 59 97 104 92 43-5 70-16 73-58 13-23 7-37-3-71-6-23-15-54-34-88-35-66-68-105-104-161 56-50 105-104 147-170 6-29 17-55 20-85 6-72-103-151-170-159l2 1c-139-21-303 2-392 48-38 20-46 85-18 123 36 48 34 126 35 220 2 188-7 191-22 334-6 57 41 80 92 72zm83-631c46-6 199-69 222 5-8 54-52 92-132 119-94 31-95 61-95-72 0-28 2-45 5-52zm67 321l-3-1c1 1 2 1 3 1" id="al"/><path fill="#3a414a" d="M450-642c81-9 156-10 231-4 26-13 36-35 36-67 0-81-74-112-168-99-140 19-319-7-450 25-32 17-54 46-55 91v-3c-8 40 21 48 42 67 65 10 127-7 202-2-4 181-23 372-21 564 20 34 93 71 130 26 41-30 19-113 21-180 3-100 12-190 18-284l-1 1c5-43-7-105 15-135" id="am"/><g id="v"><use transform="matrix(0.022222222222222223,0,0,0.022222222222222223,0,0)" xlink:href="#ae"/><use transform="matrix(0.022222222222222223,0,0,0.022222222222222223,12.355555555555556,0)" xlink:href="#af"/><use transform="matrix(0.022222222222222223,0,0,0.022222222222222223,26.066666666666666,0)" xlink:href="#ag"/><use transform="matrix(0.022222222222222223,0,0,0.022222222222222223,43.91111111111111,0)" xlink:href="#ah"/><use transform="matrix(0.022222222222222223,0,0,0.022222222222222223,63.22222222222222,0)" xlink:href="#ai"/><use transform="matrix(0.022222222222222223,0,0,0.022222222222222223,77.33333333333334,0)" xlink:href="#aj"/><use transform="matrix(0.022222222222222223,0,0,0.022222222222222223,89.4,0)" xlink:href="#ak"/><use transform="matrix(0.022222222222222223,0,0,0.022222222222222223,102.4888888888889,0)" xlink:href="#al"/><use transform="matrix(0.022222222222222223,0,0,0.022222222222222223,116.24444444444445,0)" xlink:href="#am"/></g><path fill="#3a414a" d="M247-491c4-58-16-131 34-141 82-16 176-39 255-55 40-8 54-21 55-68 2-89-94-75-175-63-118 17-292 45-359 106-23 21-20 70-5 98 12 11 43 7 43 25 0 45 0 79-2 117-13 22-33 46-32 81 30 86 13 210 13 321 0 45 55 52 97 50 59-25 38-242 50-304 5-22 30-20 56-26 78-17 169-21 238-43 27-8 39-31 39-61 0-46-28-69-84-69-71 0-156 16-210 32h-13" id="an"/><g id="w"><use transform="matrix(0.022222222222222223,0,0,0.022222222222222223,0,0)" xlink:href="#an"/><use transform="matrix(0.022222222222222223,0,0,0.022222222222222223,12.355555555555556,0)" xlink:href="#ag"/><use transform="matrix(0.022222222222222223,0,0,0.022222222222222223,30.200000000000003,0)" xlink:href="#al"/></g><path fill="#3a414a" d="M633-32c99 0 53-140 53-231 0-160 17-350-41-466-13-25-59-60-90-60-48-2-72 81-86 122-47 132-74 199-82 202-15-90-57-183-81-259-17-55-61-93-116-93-21 0-40 12-48 39-59 200-67 431-92 658C43-58 89 6 151-27c16-9 25-11 33-23 14-128 27-256 35-392 34 77 71 239 153 252 64-12 80-94 111-139 24-35 42-76 62-112 2 86 2 175 2 264 0 97 29 145 86 145" id="ao"/><path fill="#3a414a" d="M42-70c0 87 115 70 183 54l-1 1c168-29 298-46 412-66 37-61 31-107-28-144-59 12-120 13-178 22 6-108 31-217 31-327 0-55 4-92 13-111 33-5 63-9 97-17 108 2 116-84 54-143-115-14-235 13-335 17-9 1-17 2-25 5l1-1c-26 5-56 8-80 15l1-1c-64 12-112 20-118 81-8 89 119 84 199 63-6 0 1-1 3-1 14-2 24 0 41-3 2 126-16 240-31 354-4 28-1 78-21 91-30 19-88 18-126 30l1-1c-53 5-93 24-93 82" id="ap"/><path fill="#3a414a" d="M216-409c9 8 16 19 19 30-1 9 8 9 10 13 37 63 77 111 116 172 37 57 163 169 227 172 23 0 40-11 52-32 33-170 13-434 6-619-3-83-39-143-107-149-45-4-69 31-66 79 10 146 31 283 13 439-51-61-104-153-152-217-31-42-51-96-76-155l1 1c-28-66-40-134-124-136-97-1-69 150-80 250-17 150 12 295 5 444-2 50 15 62 51 88 19 2 42 3 59 3 35 2 66-46 57-86l1 1c-10-94-14-194-12-298zm39 2c4 1 2 2 0 3v-3zm229 115c0-2 0-3 1-4-1 1-1 3-1 4" id="aq"/><g id="x"><use transform="matrix(0.022222222222222223,0,0,0.022222222222222223,0,0)" xlink:href="#ao"/><use transform="matrix(0.022222222222222223,0,0,0.022222222222222223,14.955555555555556,0)" xlink:href="#ak"/><use transform="matrix(0.022222222222222223,0,0,0.022222222222222223,28.044444444444444,0)" xlink:href="#ap"/><use transform="matrix(0.022222222222222223,0,0,0.022222222222222223,42.2,0)" xlink:href="#aq"/></g><path fill="#3a414a" d="M615-24c62 1 58-78 47-128 24-171 55-356 55-541 0-64-23-96-70-96-71-1-99 44-94 123-15 114-18 275-42 381-6 28-34 35-58 44-76 27-135 58-212 58-42 0-27-72-25-115 4-84 25-172 38-251l-1 1c12-62 61-162-1-204l2 1c-43-49-114-25-124 36-27 163-69 328-78 509-3 62 15 122 50 146 37 26 87 40 150 40 41 0 198-44 262-67 14 13 28 28 43 46 26 11 45 17 58 17" id="ar"/><path fill="#3a414a" d="M134-345c49 1 97-57 97-108 0-47-47-85-91-85-59 0-87 37-87 93s29 99 81 100zm-2 282c73 0 133-118 63-170-59-44-144-14-144 71 0 55 27 99 81 99" id="as"/><g id="y"><use transform="matrix(0.022222222222222223,0,0,0.022222222222222223,0,0)" xlink:href="#an"/><use transform="matrix(0.022222222222222223,0,0,0.022222222222222223,12.355555555555556,0)" xlink:href="#ar"/><use transform="matrix(0.022222222222222223,0,0,0.022222222222222223,27.977777777777785,0)" xlink:href="#aq"/><use transform="matrix(0.022222222222222223,0,0,0.022222222222222223,42.24444444444445,0)" xlink:href="#ai"/><use transform="matrix(0.022222222222222223,0,0,0.022222222222222223,56.355555555555554,0)" xlink:href="#am"/><use transform="matrix(0.022222222222222223,0,0,0.022222222222222223,72.33333333333334,0)" xlink:href="#ap"/><use transform="matrix(0.022222222222222223,0,0,0.022222222222222223,86.4888888888889,0)" xlink:href="#ag"/><use transform="matrix(0.022222222222222223,0,0,0.022222222222222223,104.33333333333334,0)" xlink:href="#aq"/><use transform="matrix(0.022222222222222223,0,0,0.022222222222222223,118.60000000000001,0)" xlink:href="#as"/></g></defs></g></svg>