<svg xmlns="http://www.w3.org/2000/svg" xmlns:xlink="http://www.w3.org/1999/xlink" xmlns:lucid="lucid" width="1078" height="1053"><g transform="translate(0 -26)" lucid:page-tab-id="TACQSc2-eHtR"><path d="M643.24 140c22.54 0 40.8 17.9 40.8 40s-18.26 40-40.8 40H520.8c-22.53 0-40.8-17.9-40.8-40s18.27-40 40.8-40z" stroke="#3a414a" stroke-width="4" fill="#e3fae3"/><use xlink:href="#a" transform="matrix(1,0,0,1,485,145) translate(71.06444444444446 40.472222222222214)"/><path d="M473.45 280.97a1.3 1.3 0 0 1 1.25-.97h241.7a.77.77 0 0 1 .75.97l-26.54 99.55a1.3 1.3 0 0 1-1.25.96h-241.7a.77.77 0 0 1-.75-.96z" stroke="#3a414a" stroke-width="4" fill-opacity="0"/><use xlink:href="#b" transform="matrix(1,0,0,1,451.64186146057773,285) translate(18.845000000000034 40.09722222222222)"/><use xlink:href="#c" transform="matrix(1,0,0,1,451.64186146057773,285) translate(68.12500000000003 40.09722222222222)"/><use xlink:href="#d" transform="matrix(1,0,0,1,451.64186146057773,285) translate(130.4716666666667 40.09722222222222)"/><use xlink:href="#e" transform="matrix(1,0,0,1,451.64186146057773,285) translate(217.0672222222222 40.09722222222222)"/><use xlink:href="#f" transform="matrix(1,0,0,1,451.64186146057773,285) translate(235.73388888888886 40.09722222222222)"/><use xlink:href="#g" transform="matrix(1,0,0,1,451.64186146057773,285) translate(102.94500000000001 61.31203703703704)"/><use xlink:href="#h" transform="matrix(1,0,0,1,451.64186146057773,285) translate(140.7938888888889 61.31203703703704)"/><path d="M355.1 49.2a6 6 0 0 1 6-6h428a6 6 0 0 1 6 6v48a6 6 0 0 1-6 6h-428a6 6 0 0 1-6-6z" stroke="#000" stroke-opacity="0" fill="#fff3d9"/><use xlink:href="#i" transform="matrix(1,0,0,1,360.1033999221161,48.19022682518721) translate(8.907777777777795 32.05555555555556)"/><use xlink:href="#j" transform="matrix(1,0,0,1,360.1033999221161,48.19022682518721) translate(161.61222222222221 32.05555555555556)"/><use xlink:href="#k" transform="matrix(1,0,0,1,360.1033999221161,48.19022682518721) translate(217.22333333333333 32.05555555555556)"/><use xlink:href="#l" transform="matrix(1,0,0,1,360.1033999221161,48.19022682518721) translate(286.5966666666667 32.05555555555556)"/><path d="M660.56 440l100 86.17-100 86.16-100-86.16z" stroke="#3a414a" stroke-width="4" fill-opacity="0"/><use xlink:href="#m" transform="matrix(1,0,0,1,565.5624309249984,445) translate(32.06277777777778 65.15972222222223)"/><use xlink:href="#n" transform="matrix(1,0,0,1,565.5624309249984,445) translate(59.849444444444444 65.15972222222223)"/><use xlink:href="#o" transform="matrix(1,0,0,1,565.5624309249984,445) translate(75.565 65.15972222222223)"/><use xlink:href="#p" transform="matrix(1,0,0,1,565.5624309249984,445) translate(18.916111111111128 84.25305555555556)"/><use xlink:href="#q" transform="matrix(1,0,0,1,565.5624309249984,445) translate(68.42722222222224 84.25305555555556)"/><use xlink:href="#r" transform="matrix(1,0,0,1,565.5624309249984,445) translate(121.8138888888889 84.25305555555556)"/><use xlink:href="#s" transform="matrix(1,0,0,1,565.5624309249984,445) translate(138.525 84.25305555555556)"/><use xlink:href="#t" transform="matrix(1,0,0,1,565.5624309249984,445) translate(83.53833333333334 103.3463888888889)"/><path d="M577.95 385.48v18.94a6 6 0 0 0 6 6h72.4a4.2 4.2 0 0 1 4.2 4.2" stroke="#3a414a" stroke-width="4" fill="none"/><path d="M579.95 385.53h-4v-2.05h4z" stroke="#3a414a" stroke-width=".05" fill="#3a414a"/><path d="M660.56 430.9l-4.63-14.28h9.27z" stroke="#3a414a" stroke-width="4" fill="#3a414a"/><path d="M806.8 580.97a1.3 1.3 0 0 1 1.26-.97H1059a.77.77 0 0 1 .74.97l-26.55 99.55a1.3 1.3 0 0 1-1.26.96H781a.77.77 0 0 1-.74-.96z" stroke="#3a414a" stroke-width="4" fill-opacity="0"/><use xlink:href="#u" transform="matrix(1,0,0,1,785,585) translate(30.95833333333335 51.59722222222222)"/><use xlink:href="#v" transform="matrix(1,0,0,1,785,585) translate(112.84277777777778 51.59722222222222)"/><use xlink:href="#w" transform="matrix(1,0,0,1,785,585) translate(128.55833333333334 51.59722222222222)"/><use xlink:href="#x" transform="matrix(1,0,0,1,785,585) translate(156.345 51.59722222222222)"/><path d="M918.78 525.25l1.07.25 1 .43.95.57.84.7.7.85.58.94.42 1 .26 1.07.08 1.06v27.37h-2v-27.3l-.06-.82-.18-.76-.3-.72-.4-.67-.52-.6-.6-.5-.67-.42-.72-.3-.76-.17-.83-.06H887.1v-2h30.62zm-154.15 1.92v-2h87.4v2z" stroke="#008a0e" stroke-width=".05" fill="#008a0e"/><path d="M764.65 527.17h-2.18l1.16-1-1.16-1h2.18z" fill="#008a0e"/><path d="M764.68 527.2h-2.28l1.2-1.03-1.2-1.03h2.28zm-2.15-2l1.13.97-1.13.97h2.1v-1.95z" stroke="#008a0e" stroke-width=".05" fill="#008a0e"/><path d="M923.68 574.76l-4.63-14.26h9.27z" fill="#008a0e"/><path d="M923.68 578l-6-18.5h12.02zm-3.25-16.5l3.25 10.03 3.26-10.03z" stroke="#008a0e" stroke-width=".05" fill="#008a0e"/><use xlink:href="#y" transform="matrix(1,0,0,1,852.0345196469729,516.619132413928) translate(0 14.222222222222223)"/><path d="M380 560l100 86.17-100 86.16-100-86.16z" stroke="#3a414a" stroke-width="4" fill-opacity="0"/><use xlink:href="#m" transform="matrix(1,0,0,1,285,565) translate(31.56500000000001 75.34722222222223)"/><use xlink:href="#r" transform="matrix(1,0,0,1,285,565) translate(59.351666666666674 75.34722222222223)"/><use xlink:href="#o" transform="matrix(1,0,0,1,285,565) translate(76.06277777777778 75.34722222222223)"/><use xlink:href="#p" transform="matrix(1,0,0,1,285,565) translate(58.78277777777778 94.44055555555556)"/><use xlink:href="#t" transform="matrix(1,0,0,1,285,565) translate(108.29388888888889 94.44055555555556)"/><path d="M440.3 527.17h-54.26l-.82.06-.76.18-.73.3-.67.42-.6.5-.5.6-.4.68-.3.72-.2.76-.06.83v6.66h-2v-6.73l.08-1.06.26-1.07.42-1 .57-.95.72-.84.83-.7.94-.57 1.02-.42 1.06-.25 1.06-.08h54.35zm116.2 0H466v-2h90.5z" stroke="#e81313" stroke-width=".05" fill="#e81313"/><path d="M557.5 526.17l1.16 1h-2.2v-2h2.2z" fill="#e81313"/><path d="M557.54 526.17l1.2 1.02h-2.3v-2.06h2.3zm-1.04-.98v1.94h2.1l-1.14-.97 1.13-.98z" stroke="#e81313" stroke-width=".05" fill="#e81313"/><path d="M380 554.12l-4.63-14.26h9.26z" fill="#e81313"/><path d="M380 557.36l-6-18.5h12zm-3.26-16.5L380 550.9l3.26-10.04z" stroke="#e81313" stroke-width=".05" fill="#e81313"/><use xlink:href="#z" transform="matrix(1,0,0,1,440.3077369716037,516.619132413928) translate(0 14.222222222222223)"/><path d="M506.8 720.97a1.3 1.3 0 0 1 1.26-.97h241.7a.77.77 0 0 1 .75.97l-26.53 99.55a1.3 1.3 0 0 1-1.26.96H481a.77.77 0 0 1-.74-.96z" stroke="#3a414a" stroke-width="4" fill-opacity="0"/><use xlink:href="#u" transform="matrix(1,0,0,1,485,725) translate(25.96055555555558 51.59722222222222)"/><use xlink:href="#A" transform="matrix(1,0,0,1,485,725) translate(107.84500000000001 51.59722222222222)"/><use xlink:href="#w" transform="matrix(1,0,0,1,485,725) translate(124.55611111111112 51.59722222222222)"/><use xlink:href="#x" transform="matrix(1,0,0,1,485,725) translate(152.34277777777777 51.59722222222222)"/><path d="M36.03 710.34a1.3 1.3 0 0 1 1.26-.97H279a.77.77 0 0 1 .74.97L253.2 809.9a1.3 1.3 0 0 1-1.26.96H10.24a.77.77 0 0 1-.75-.97z" stroke="#3a414a" stroke-width="4" fill-opacity="0"/><use xlink:href="#u" transform="matrix(1,0,0,1,14.230769230769283,714.3733140967319) translate(26.040555555555564 51.59722222222222)"/><use xlink:href="#B" transform="matrix(1,0,0,1,14.230769230769283,714.3733140967319) translate(107.925 51.59722222222222)"/><use xlink:href="#w" transform="matrix(1,0,0,1,14.230769230769283,714.3733140967319) translate(124.47611111111111 51.59722222222222)"/><use xlink:href="#x" transform="matrix(1,0,0,1,14.230769230769283,714.3733140967319) translate(152.26277777777779 51.59722222222222)"/><path d="M582.03 224v31.26" stroke="#3a414a" stroke-width="4" fill="none"/><path d="M584.03 224.05h-4V222h4z" stroke="#3a414a" stroke-width=".05" fill="#3a414a"/><path d="M582.03 271.53l-4.64-14.27h9.26z" stroke="#3a414a" stroke-width="4" fill="#3a414a"/><path d="M610.48 645.25l1.07.25 1 .43.95.57.84.7.7.85.58.94.42 1 .26 1.07.1 1.06v47.37h-2v-47.3l-.08-.82-.18-.76-.3-.72-.4-.67-.52-.6-.6-.5-.67-.42-.72-.3-.76-.17-.82-.06h-6.67v-2h6.74zm-126.42 1.92v-2h83.54v2z" stroke="#008a0e" stroke-width=".05" fill="#008a0e"/><path d="M484.1 647.17h-2.2l1.16-1-1.16-1h2.2z" fill="#008a0e"/><path d="M484.1 647.2h-2.26l1.2-1.03-1.2-1.03h2.28zm-2.13-2l1.13.97-1.13.97h2.1v-1.95z" stroke="#008a0e" stroke-width=".05" fill="#008a0e"/><path d="M615.4 714.76l-4.65-14.26h9.27z" fill="#008a0e"/><path d="M615.4 718l-6.03-18.5h12.03zm-3.27-16.5l3.25 10.03 3.26-10.03z" stroke="#008a0e" stroke-width=".05" fill="#008a0e"/><g><use xlink:href="#C" transform="matrix(1,0,0,1,567.6036051729359,636.6191324139281) translate(0 14.222222222222223)"/></g><path d="M167.33 647.17h-16.68l-.82.06-.76.18-.72.3-.67.42-.6.5-.5.6-.42.68-.3.72-.18.76-.06.83v36.67h-2v-36.74l.08-1.06.26-1.07.42-1 .57-.95.7-.84.85-.7.94-.57 1-.42 1.08-.25 1.06-.08h16.75zm108.6 0h-82.9v-2h82.9z" stroke="#e81313" stroke-width=".05" fill="#e81313"/><path d="M276.94 646.17l1.16 1h-2.2v-2h2.2z" fill="#e81313"/><path d="M276.97 646.17l1.2 1.02h-2.3v-2.06h2.3zm-1.04-.98v1.94h2.1l-1.13-.97 1.13-.98z" stroke="#e81313" stroke-width=".05" fill="#e81313"/><path d="M144.62 704.14l-4.64-14.27h9.27z" fill="#e81313"/><path d="M144.62 707.37l-6.02-18.5h12.03zm-3.26-16.5l3.25 10.03 3.27-10.03z" stroke="#e81313" stroke-width=".05" fill="#e81313"/><g><use xlink:href="#z" transform="matrix(1,0,0,1,167.32751555647593,636.6191324139281) translate(0 14.222222222222223)"/></g><path d="M632.16 980c21 0 38.05 17.9 38.05 40s-17.03 40-38.04 40H518.04c-21 0-38.04-17.9-38.04-40s17.03-40 38.04-40z" stroke="#3a414a" stroke-width="4" fill="#fff0f0"/><g><use xlink:href="#D" transform="matrix(1,0,0,1,485,985) translate(60.31111111111111 41.84027777777778)"/></g><path d="M144.62 814.86V1014a6 6 0 0 0 6 6h304.64" stroke="#3a414a" stroke-width="4" fill="none"/><path d="M146.62 814.9h-4v-2.04h4z" stroke="#3a414a" stroke-width=".05" fill="#3a414a"/><path d="M471.53 1020l-14.27 4.63v-9.27z" stroke="#3a414a" stroke-width="4" fill="#3a414a"/><path d="M920 685.48V1014a6 6 0 0 1-6 6H694.95" stroke="#3a414a" stroke-width="4" fill="none"/><path d="M922 685.53h-4v-2.05h4z" stroke="#3a414a" stroke-width=".05" fill="#3a414a"/><path d="M678.68 1020l14.27-4.63v9.26z" stroke="#3a414a" stroke-width="4" fill="#3a414a"/><path d="M615.4 825.48v69.26a6 6 0 0 1-6 6h-28.3a6 6 0 0 0-6 6v48.52" stroke="#3a414a" stroke-width="4" fill="none"/><path d="M617.4 825.53h-4v-2.05h4z" stroke="#3a414a" stroke-width=".05" fill="#3a414a"/><path d="M575.1 971.53l-4.63-14.27h9.27z" stroke="#3a414a" stroke-width="4" fill="#3a414a"/><defs><path d="M371-533c189 0 256 55 239 237-9 91-67 138-157 205C374-33 301-7 236-7 155-7 13-82 18-160c3-44 62-73 96-38 43 44 152 73 218 29 77-51 166-125 156-169 2-44-67-63-119-62-47 1-108 1-155 3C87-393 13-429 1-531c11-87 101-150 165-187 90-52 160-96 290-87 34 2 118 78 115 115-3 35-23 38-55 45-15 4-26-4-33-24-37-64-116-1-164 12-41 11-154 77-154 113 0 15 14 22 41 22 45 0 127-11 165-11" id="E"/><path d="M382-556c-3 158-18 304-18 470 0 31 6 72-21 86-20 35-87 21-104-6-1-188 14-367 23-549 1-24 13-80-17-80-77 0-131 31-210 31-15-10-43-18-33-45 0-82 83-94 148-109 103-23 215-12 315-40 43-12 91-17 142-23 62-8 95 53 77 116-8 28-47 14-75 18-68 9-134 10-195 30-32 11-31 60-32 101" id="F"/><path d="M103-24C79 10-2-14 8-59c42-186 129-353 193-524 23-62 63-135 99-197 39-38 106-10 109 47 27 100 51 209 81 307 8 25 72 24 72 63 0 44-26 46-37 75 12 83 46 156 55 243 7 63-106 47-114 11-13-58-36-170-57-231-3-4-7-8-9-14-69 4-134 40-198 52-53 21-53 108-81 160-4 16-8 29-18 43zm215-551c-16 18-92 195-73 208 46 2 100-12 123-31-5-30-32-162-38-171-2-3-6-5-12-6" id="G"/><path d="M608-642l-20 77c-36 56-69 94-113 138-49 48-58 40-29 81 33 46 69 89 97 147 44 89 52 141 40 147-3 38-20 49-63 52-68 5-97-106-129-160-40-68-56-162-144-164-53-1-27 78-45 121-7 56-12 123-28 170C157-4 113 24 66-1 46-11 40-39 49-87c19-111 19-139 19-313 0-144 1-187-40-242-27-37-13-94 26-108 103-36 250-59 389-41 63 8 182 85 165 149zm-140 11c-10-39-42-58-96-57-53 12-154 21-179 43-5 9-8 31-8 65 0 151 19 135 127 94 94-36 148-79 156-145" id="H"/><g id="a"><use transform="matrix(0.017777777777777764,0,0,0.017777777777777764,0,0)" xlink:href="#E"/><use transform="matrix(0.017777777777777764,0,0,0.017777777777777764,10.133333333333326,0)" xlink:href="#F"/><use transform="matrix(0.017777777777777764,0,0,0.017777777777777764,19.253333333333313,0)" xlink:href="#G"/><use transform="matrix(0.017777777777777764,0,0,0.017777777777777764,29.68888888888886,0)" xlink:href="#H"/><use transform="matrix(0.017777777777777764,0,0,0.017777777777777764,40.67555555555552,0)" xlink:href="#F"/></g><path d="M608-642l-20 77c-36 56-69 94-113 138-49 48-58 40-29 81 33 46 69 89 97 147 44 89 52 141 40 147-3 38-20 49-63 52-68 5-97-106-129-160-40-68-56-162-144-164-53-1-27 78-45 121-7 56-12 123-28 170C157-4 113 24 66-1 46-11 40-39 49-87c19-111 19-139 19-313 0-144 1-187-40-242-27-37-13-94 26-108 103-36 250-59 389-41 63 8 182 85 165 149zm-140 11c-10-39-42-58-96-57-53 12-154 21-179 43-5 9-8 31-8 65 0 151 19 135 127 94 94-36 148-79 156-145" id="I"/><path d="M330-158c82-22 193-18 286-31 38 11 58 81 24 113-25 24-71 25-116 25-135 0-238 34-358 47C61 7 4-52 15-159c12-113 37-213 32-340-2-59 2-121-2-178-2-44 35-62 81-61 104-31 222-52 345-64 68-7 103 34 111 94 2 12-3 22-9 31-33 14-62 15-103 16-100 2-196 10-270 40h-8c-18 23-11 79-15 106-1 13 5 22 16 25 82-10 176-25 264-12 44 7 78 26 71 72-7 49-76 30-125 30-78 0-138 22-210 29-24 1-35 28-36 52-2 41-10 83-8 126-19 84 122 51 181 35" id="J"/><path d="M103-24C79 10-2-14 8-59c42-186 129-353 193-524 23-62 63-135 99-197 39-38 106-10 109 47 27 100 51 209 81 307 8 25 72 24 72 63 0 44-26 46-37 75 12 83 46 156 55 243 7 63-106 47-114 11-13-58-36-170-57-231-3-4-7-8-9-14-69 4-134 40-198 52-53 21-53 108-81 160-4 16-8 29-18 43zm215-551c-16 18-92 195-73 208 46 2 100-12 123-31-5-30-32-162-38-171-2-3-6-5-12-6" id="K"/><path d="M19-91c0-222 71-428 58-668-3-62 121-44 170-33 118 27 229 50 293 128 44 53 63 97 63 217 0 165-189 328-383 400-36 13-62 45-108 45-66 0-93-23-93-89zm185-582c-30 151-43 322-58 489 5 39 27 28 60 14 129-54 276-147 276-304 0-155-106-203-278-199" id="L"/><g id="b"><use transform="matrix(0.017777777777777774,0,0,0.017777777777777774,0,0)" xlink:href="#I"/><use transform="matrix(0.017777777777777774,0,0,0.017777777777777774,10.986666666666665,0)" xlink:href="#J"/><use transform="matrix(0.017777777777777774,0,0,0.017777777777777774,22.82666666666666,0)" xlink:href="#K"/><use transform="matrix(0.017777777777777774,0,0,0.017777777777777774,33.26222222222221,0)" xlink:href="#L"/></g><path d="M593-790c58 0 99 54 77 117-5 13-15 16-35 14-70-7-152-3-229 7-31 20-24 81-26 127-4 138-16 277-16 422 0 32 4 70-21 83-26 36-88 7-103-20 1-182 10-346 21-521 2-27 11-81-18-84-73-7-138 11-206 3-20-18-39-18-32-51-3-78 74-91 145-91 129 0 251 6 369-8 25-3 49 2 74 2" id="M"/><path d="M107-780c100 15 51 176 51 272 0 29 23 25 56 24 33-11 175 4 171-42 9-67 4-153 14-224 12-14 39-57 70-50 51 0 74 34 69 103L490-47c-6 28-25 57-57 56-118-5-54-182-54-299 0-34 3-75-15-85-65 6-127 12-191 19-52 29-23 162-29 239C135-7 87 19 22-30 10-48 7-67 13-88c-16-100 8-215 8-322 0-127-9-364 86-370" id="N"/><g id="c"><use transform="matrix(0.017777777777777774,0,0,0.017777777777777774,0,0)" xlink:href="#M"/><use transform="matrix(0.017777777777777774,0,0,0.017777777777777774,12.78222222222222,0)" xlink:href="#N"/><use transform="matrix(0.017777777777777774,0,0,0.017777777777777774,22.4,0)" xlink:href="#I"/><use transform="matrix(0.017777777777777774,0,0,0.017777777777777774,33.38666666666666,0)" xlink:href="#J"/><use transform="matrix(0.017777777777777774,0,0,0.017777777777777774,45.22666666666666,0)" xlink:href="#J"/></g><path d="M24-128c0-158-18-313-5-472 6-74-11-192 62-191 78 1 88 68 113 130 59 143 102 191 174 297 50 73 81 109 92 109 8 0 12-3 13-9 24-163 3-322-12-477-6-63 62-76 101-37 65 64 45 212 54 340 10 141 7 304-15 413-8 15-20 23-37 23-76 0-203-132-244-200-33-54-79-109-116-169l4 4c-9-20-41-55-54-51-14 102-5 244 6 344 3 30-15 69-41 68-9 0-28-1-56-3-44-28-39-45-39-119" id="O"/><path d="M106-737c41-53 131 12 108 86-42 139-71 285-71 455 0 88 72 66 143 48 49-12 128-35 183-63 38-19 36-69 44-119 17-114 31-247 31-354 0-57 26-85 79-85 37 0 55 27 55 81 0 190-34 397-59 573 4 31 20 93-13 105-8 10-30 7-65-8-16-20-33-38-51-54C397-48 305 0 205 0 79 0 5-43 13-176c13-196 50-391 93-561" id="P"/><path d="M629-645c28 177 9 401 28 582 3 29-18 50-47 50-97 0-67-194-71-306-1-24-4-66-3-92 1-39-15-57-30-33-49 79-88 161-139 243-9 15-21 23-34 23-33 0-70-69-89-115-10-23-57-152-73-152-28 0-27 119-31 162-9 93-16 174-27 265-2 3-35 21-48 20-71-3-50-117-43-176 24-211 38-410 84-595 39-67 121 2 138 59 22 73 63 167 84 249 7 23 13 34 20 34 17 0 54-75 107-225 17-48 42-155 115-96 31 25 52 57 59 103" id="Q"/><path d="M68-174c-8-157-1-333-1-488 0-23-21-28-12-60 24-87 141-85 256-77 161 12 317 42 251 258-5 17-40 45-44 60 15 30 85 80 98 123 62 108 25 192-76 258C455-45 341-9 207-4 145-2 19-30 19-85c0-36 51-41 49-89zm137-510c-18 6-26 137-16 192 30 22 66 2 112-6 70-13 158-95 159-132 17-68-169-82-255-54zm-15 330c-15 57-2 155 5 215 6 4 6 12 18 11 101-5 211-32 267-82 52-46 58-91 12-140s-73-73-81-73c-39 14-121 48-173 54-15 2-34 14-48 15" id="R"/><path d="M371-533c189 0 256 55 239 237-9 91-67 138-157 205C374-33 301-7 236-7 155-7 13-82 18-160c3-44 62-73 96-38 43 44 152 73 218 29 77-51 166-125 156-169 2-44-67-63-119-62-47 1-108 1-155 3C87-393 13-429 1-531c11-87 101-150 165-187 90-52 160-96 290-87 34 2 118 78 115 115-3 35-23 38-55 45-15 4-26-4-33-24-37-64-116-1-164 12-41 11-154 77-154 113 0 15 14 22 41 22 45 0 127-11 165-11" id="S"/><g id="d"><use transform="matrix(0.017777777777777774,0,0,0.017777777777777774,0,0)" xlink:href="#O"/><use transform="matrix(0.017777777777777774,0,0,0.017777777777777774,11.395555555555553,0)" xlink:href="#P"/><use transform="matrix(0.017777777777777774,0,0,0.017777777777777774,23.893333333333334,0)" xlink:href="#Q"/><use transform="matrix(0.017777777777777774,0,0,0.017777777777777774,35.839999999999996,0)" xlink:href="#R"/><use transform="matrix(0.017777777777777774,0,0,0.017777777777777774,47.271111111111104,0)" xlink:href="#J"/><use transform="matrix(0.017777777777777774,0,0,0.017777777777777774,59.1111111111111,0)" xlink:href="#I"/><use transform="matrix(0.017777777777777774,0,0,0.017777777777777774,70.09777777777776,0)" xlink:href="#S"/></g><path d="M39 59C84 43 157-10 157-69c0-34-42-63-77-61-70 4-68 99-68 162 0 18 9 27 27 27" id="T"/><g id="e"><use transform="matrix(0.017777777777777774,0,0,0.017777777777777774,0,0)" xlink:href="#K"/><use transform="matrix(0.017777777777777774,0,0,0.017777777777777774,10.435555555555554,0)" xlink:href="#T"/></g><use transform="matrix(0.017777777777777774,0,0,0.017777777777777774,0,0)" xlink:href="#R" id="f"/><g id="g"><use transform="matrix(0.017777777777777774,0,0,0.017777777777777774,0,0)" xlink:href="#K"/><use transform="matrix(0.017777777777777774,0,0,0.017777777777777774,10.435555555555554,0)" xlink:href="#O"/><use transform="matrix(0.017777777777777774,0,0,0.017777777777777774,21.831111111111106,0)" xlink:href="#L"/></g><path d="M521-275c40-33 108-24 108 34 0 49-75 103-210 183-80 47-247 72-323 10-66-54-95-101-82-218 12-106 41-136 91-224 55-96 145-209 240-278 32-23 68-33 107-33 86 2 108 61 107 158 0 55-15 82-44 82-55 1-25-116-79-110-132 15-229 223-291 334-48 86-31 226 81 218 122-9 217-92 295-156" id="U"/><use transform="matrix(0.017777777777777774,0,0,0.017777777777777774,0,0)" xlink:href="#U" id="h"/><path fill="#3a414a" d="M247-491c4-58-16-131 34-141 82-16 176-39 255-55 40-8 54-21 55-68 2-89-94-75-175-63-118 17-292 45-359 106-23 21-20 70-5 98 12 11 43 7 43 25 0 45 0 79-2 117-13 22-33 46-32 81 30 86 13 210 13 321 0 45 55 52 97 50 59-25 38-242 50-304 5-22 30-20 56-26 78-17 169-21 238-43 27-8 39-31 39-61 0-46-28-69-84-69-71 0-156 16-210 32h-13" id="V"/><path fill="#3a414a" d="M50-194C40-28 200 0 338-54c94-37 183-73 272-114 29-13 41-37 41-62 0-44-32-91-71-89-30 3-148 61-190 76l1-1c-45 16-110 45-165 45 1 0 0-5-3-15l1 1-3-11c27-168 60-333 82-502 10-75-103-138-147-64-8 14-17 32-20 54l1-1c-6 17-8 35-12 54l1-2C92-532 60-361 50-194" id="W"/><path fill="#3a414a" d="M776-292c25-58 39-113 39-189 0-186-105-335-289-347-115-8-264 80-335 176-54 72-128 174-130 306-17 72 19 171 60 209C155-80 284-35 371-30c125 8 185-36 261-79 69-40 112-103 145-184zM507-656c91 0 151 106 151 197 0 107-87 221-167 253-29 11-88 21-133 13l1 1c-87-19-148-53-141-159 8-119 91-193 166-254 44-35 86-51 123-51" id="X"/><path fill="#3a414a" d="M801-816c-117 0-37 170-64 263l1-1c-15 67-25 131-43 194-17 60-32 90-42 90-80-84-72-255-129-356-25-43-100-46-123 6-3 9-10 16-13 25l1-1c-8 20-18 38-27 56h3c-37 81-75 146-113 224-14 27-22 40-25 40-20-121-1-292-18-429-7-54-40-79-81-79-96 0-69 186-67 280 4 147 38 414 86 451 74 56 110 33 172-59 29-43 113-203 127-220 48 94 116 279 229 289 100-11 151-212 184-307 29-83 39-155 39-263 0-135-32-203-97-203" id="Y"/><path fill="#3a414a" d="M603-651c0-97-31-172-120-170-102 1-164 75-214 132-81 91-127 171-181 277-30 59-52 189-20 259C104-74 204-5 336-32c36-8 99-21 126-45 137-73 206-137 206-191 0-71-82-87-131-48-77 62-149 135-266 145-97 8-92-125-54-190 41-69 89-162 136-217 46-53 83-81 115-81 30 22 11 105 74 105 41 0 61-32 61-97" id="Z"/><path fill="#3a414a" d="M211-150c2-56-6-121 2-175-6-57 39-29 77-42l99-9c10 81-7 183-7 268 0 63 24 95 79 97 39 2 67-28 71-64 21-214 34-430 47-645 5-79-45-113-114-95-24 14-42 35-54 58-5 60-4 122-9 186-4 49 4 36-56 43-40 4-81 13-122 10 3-61 9-119 11-180 2-53-31-103-77-103-110 0-98 263-98 399 0 91-21 189-9 280-5 25 0 47 13 66 72 60 142 31 147-94zm10-369c0-2 1 0 1 0h-1" id="aa"/><path fill="#3a414a" d="M70-181C36-106 39-36 121-28c46 4 59-41 69-68 14-40 27-86 43-123 28-31 91-34 132-52 22-9 42-12 57-14 23 70 34 146 54 220 8 29 38 43 83 43 40 0 60-20 60-60 0-87-40-149-50-230 28-18 51-84 14-113-11-9-44-19-50-27-27-105-52-214-82-316-19-65-108-61-136-9-73 134-133 295-189 435-24 59-31 107-56 161zm286-369c8 39 19 86 26 125-22 9-48 16-78 17 14-39 32-102 52-142" id="ab"/><path fill="#3a414a" d="M173-13c102-20 79-163 100-261 0-7 2-19 3-27-8-47 57-27 68-2 40 53 67 131 101 192l-1-1c19 54 59 97 104 92 43-5 70-16 73-58 13-23 7-37-3-71-6-23-15-54-34-88-35-66-68-105-104-161 56-50 105-104 147-170 6-29 17-55 20-85 6-72-103-151-170-159l2 1c-139-21-303 2-392 48-38 20-46 85-18 123 36 48 34 126 35 220 2 188-7 191-22 334-6 57 41 80 92 72zm83-631c46-6 199-69 222 5-8 54-52 92-132 119-94 31-95 61-95-72 0-28 2-45 5-52zm67 321l-3-1c1 1 2 1 3 1" id="ac"/><path fill="#3a414a" d="M450-642c81-9 156-10 231-4 26-13 36-35 36-67 0-81-74-112-168-99-140 19-319-7-450 25-32 17-54 46-55 91v-3c-8 40 21 48 42 67 65 10 127-7 202-2-4 181-23 372-21 564 20 34 93 71 130 26 41-30 19-113 21-180 3-100 12-190 18-284l-1 1c5-43-7-105 15-135" id="ad"/><g id="i"><use transform="matrix(0.024444444444444442,0,0,0.024444444444444442,0,0)" xlink:href="#V"/><use transform="matrix(0.024444444444444442,0,0,0.024444444444444442,13.59111111111111,0)" xlink:href="#W"/><use transform="matrix(0.024444444444444442,0,0,0.024444444444444442,28.673333333333332,0)" xlink:href="#X"/><use transform="matrix(0.024444444444444442,0,0,0.024444444444444442,48.30222222222222,0)" xlink:href="#Y"/><use transform="matrix(0.024444444444444442,0,0,0.024444444444444442,69.54444444444444,0)" xlink:href="#Z"/><use transform="matrix(0.024444444444444442,0,0,0.024444444444444442,85.06666666666666,0)" xlink:href="#aa"/><use transform="matrix(0.024444444444444442,0,0,0.024444444444444442,98.33999999999999,0)" xlink:href="#ab"/><use transform="matrix(0.024444444444444442,0,0,0.024444444444444442,112.73777777777777,0)" xlink:href="#ac"/><use transform="matrix(0.024444444444444442,0,0,0.024444444444444442,127.86888888888888,0)" xlink:href="#ad"/></g><path fill="#3a414a" d="M247-491c4-58-16-131 34-141 82-16 176-39 255-55 40-8 54-21 55-68 2-89-94-75-175-63-118 17-292 45-359 106-23 21-20 70-5 98 12 11 43 7 43 25 0 45 0 79-2 117-13 22-33 46-32 81 30 86 13 210 13 321 0 45 55 52 97 50 59-25 38-242 50-304 5-22 30-20 56-26 78-17 169-21 238-43 27-8 39-31 39-61 0-46-28-69-84-69-71 0-156 16-210 32h-13" id="ae"/><g id="j"><use transform="matrix(0.024444444444444442,0,0,0.024444444444444442,0,0)" xlink:href="#ae"/><use transform="matrix(0.024444444444444442,0,0,0.024444444444444442,13.59111111111111,0)" xlink:href="#X"/><use transform="matrix(0.024444444444444442,0,0,0.024444444444444442,33.22,0)" xlink:href="#ac"/></g><path fill="#3a414a" d="M633-32c99 0 53-140 53-231 0-160 17-350-41-466-13-25-59-60-90-60-48-2-72 81-86 122-47 132-74 199-82 202-15-90-57-183-81-259-17-55-61-93-116-93-21 0-40 12-48 39-59 200-67 431-92 658C43-58 89 6 151-27c16-9 25-11 33-23 14-128 27-256 35-392 34 77 71 239 153 252 64-12 80-94 111-139 24-35 42-76 62-112 2 86 2 175 2 264 0 97 29 145 86 145" id="af"/><path fill="#3a414a" d="M42-70c0 87 115 70 183 54l-1 1c168-29 298-46 412-66 37-61 31-107-28-144-59 12-120 13-178 22 6-108 31-217 31-327 0-55 4-92 13-111 33-5 63-9 97-17 108 2 116-84 54-143-115-14-235 13-335 17-9 1-17 2-25 5l1-1c-26 5-56 8-80 15l1-1c-64 12-112 20-118 81-8 89 119 84 199 63-6 0 1-1 3-1 14-2 24 0 41-3 2 126-16 240-31 354-4 28-1 78-21 91-30 19-88 18-126 30l1-1c-53 5-93 24-93 82" id="ag"/><path fill="#3a414a" d="M216-409c9 8 16 19 19 30-1 9 8 9 10 13 37 63 77 111 116 172 37 57 163 169 227 172 23 0 40-11 52-32 33-170 13-434 6-619-3-83-39-143-107-149-45-4-69 31-66 79 10 146 31 283 13 439-51-61-104-153-152-217-31-42-51-96-76-155l1 1c-28-66-40-134-124-136-97-1-69 150-80 250-17 150 12 295 5 444-2 50 15 62 51 88 19 2 42 3 59 3 35 2 66-46 57-86l1 1c-10-94-14-194-12-298zm39 2c4 1 2 2 0 3v-3zm229 115c0-2 0-3 1-4-1 1-1 3-1 4" id="ah"/><g id="k"><use transform="matrix(0.024444444444444442,0,0,0.024444444444444442,0,0)" xlink:href="#af"/><use transform="matrix(0.024444444444444442,0,0,0.024444444444444442,16.45111111111111,0)" xlink:href="#ab"/><use transform="matrix(0.024444444444444442,0,0,0.024444444444444442,30.848888888888887,0)" xlink:href="#ag"/><use transform="matrix(0.024444444444444442,0,0,0.024444444444444442,46.419999999999995,0)" xlink:href="#ah"/></g><path fill="#3a414a" d="M615-24c62 1 58-78 47-128 24-171 55-356 55-541 0-64-23-96-70-96-71-1-99 44-94 123-15 114-18 275-42 381-6 28-34 35-58 44-76 27-135 58-212 58-42 0-27-72-25-115 4-84 25-172 38-251l-1 1c12-62 61-162-1-204l2 1c-43-49-114-25-124 36-27 163-69 328-78 509-3 62 15 122 50 146 37 26 87 40 150 40 41 0 198-44 262-67 14 13 28 28 43 46 26 11 45 17 58 17" id="ai"/><path fill="#3a414a" d="M134-345c49 1 97-57 97-108 0-47-47-85-91-85-59 0-87 37-87 93s29 99 81 100zm-2 282c73 0 133-118 63-170-59-44-144-14-144 71 0 55 27 99 81 99" id="aj"/><g id="l"><use transform="matrix(0.024444444444444442,0,0,0.024444444444444442,0,0)" xlink:href="#ae"/><use transform="matrix(0.024444444444444442,0,0,0.024444444444444442,13.59111111111111,0)" xlink:href="#ai"/><use transform="matrix(0.024444444444444442,0,0,0.024444444444444442,30.77555555555555,0)" xlink:href="#ah"/><use transform="matrix(0.024444444444444442,0,0,0.024444444444444442,46.468888888888884,0)" xlink:href="#Z"/><use transform="matrix(0.024444444444444442,0,0,0.024444444444444442,61.9911111111111,0)" xlink:href="#ad"/><use transform="matrix(0.024444444444444442,0,0,0.024444444444444442,79.56666666666666,0)" xlink:href="#ag"/><use transform="matrix(0.024444444444444442,0,0,0.024444444444444442,95.13777777777777,0)" xlink:href="#X"/><use transform="matrix(0.024444444444444442,0,0,0.024444444444444442,114.76666666666665,0)" xlink:href="#ah"/><use transform="matrix(0.024444444444444442,0,0,0.024444444444444442,130.45999999999998,0)" xlink:href="#aj"/></g><path fill="#3a414a" d="M292-638c-67 2-113 14-176 21-81 9-112-68-58-103 132-46 304-52 470-66l65 5c50 52 43 111-50 111-45 0-75 15-112 18-18 16-19 83-24 152-7 108-21 214-33 322-5 46 36 20 67 20 54 0 81-10 139-16 43 25 50 62 23 110-151 29-311 50-490 79C58 24-8 22 3-44c14-83 161-45 224-90 22-16 24-69 29-107 17-126 33-258 36-397" id="ak"/><path fill="#3a414a" d="M371-533c189 0 256 55 239 237-9 91-67 138-157 205C374-33 301-7 236-7 155-7 13-82 18-160c3-44 62-73 96-38 43 44 152 73 218 29 77-51 166-125 156-169 2-44-67-63-119-62-47 1-108 1-155 3C87-393 13-429 1-531c11-87 101-150 165-187 90-52 160-96 290-87 34 2 118 78 115 115-3 35-23 38-55 45-15 4-26-4-33-24-37-64-116-1-164 12-41 11-154 77-154 113 0 15 14 22 41 22 45 0 127-11 165-11" id="al"/><g id="m"><use transform="matrix(0.017777777777777774,0,0,0.017777777777777774,0,0)" xlink:href="#ak"/><use transform="matrix(0.017777777777777774,0,0,0.017777777777777774,11.288888888888886,0)" xlink:href="#al"/></g><path fill="#3a414a" d="M103-24C79 10-2-14 8-59c42-186 129-353 193-524 23-62 63-135 99-197 39-38 106-10 109 47 27 100 51 209 81 307 8 25 72 24 72 63 0 44-26 46-37 75 12 83 46 156 55 243 7 63-106 47-114 11-13-58-36-170-57-231-3-4-7-8-9-14-69 4-134 40-198 52-53 21-53 108-81 160-4 16-8 29-18 43zm215-551c-16 18-92 195-73 208 46 2 100-12 123-31-5-30-32-162-38-171-2-3-6-5-12-6" id="am"/><use transform="matrix(0.017777777777777774,0,0,0.017777777777777774,0,0)" xlink:href="#am" id="n"/><path fill="#3a414a" d="M590-683c0-95-64-132-148-103-62 21-113 58-161 92-97 69-165 165-223 275C-45-222 51 11 277-12c154-16 257-81 343-160 63-58 100-126 109-243 12-155-158-93-246-67-61 18-178 69-168 115-2 30 28 68 54 64 69-10 133-52 201-67 9-2 20 9 20 17 0 11-18 38-57 79-85 91-188 136-306 136-55 0-99-68-99-127 0-30 16-69 37-123 25-64 237-288 318-281 25-8 66 40 79 44 19 0 28-19 28-58" id="an"/><path fill="#3a414a" d="M608-642l-20 77c-36 56-69 94-113 138-49 48-58 40-29 81 33 46 69 89 97 147 44 89 52 141 40 147-3 38-20 49-63 52-68 5-97-106-129-160-40-68-56-162-144-164-53-1-27 78-45 121-7 56-12 123-28 170C157-4 113 24 66-1 46-11 40-39 49-87c19-111 19-139 19-313 0-144 1-187-40-242-27-37-13-94 26-108 103-36 250-59 389-41 63 8 182 85 165 149zm-140 11c-10-39-42-58-96-57-53 12-154 21-179 43-5 9-8 31-8 65 0 151 19 135 127 94 94-36 148-79 156-145" id="ao"/><path fill="#3a414a" d="M330-158c82-22 193-18 286-31 38 11 58 81 24 113-25 24-71 25-116 25-135 0-238 34-358 47C61 7 4-52 15-159c12-113 37-213 32-340-2-59 2-121-2-178-2-44 35-62 81-61 104-31 222-52 345-64 68-7 103 34 111 94 2 12-3 22-9 31-33 14-62 15-103 16-100 2-196 10-270 40h-8c-18 23-11 79-15 106-1 13 5 22 16 25 82-10 176-25 264-12 44 7 78 26 71 72-7 49-76 30-125 30-78 0-138 22-210 29-24 1-35 28-36 52-2 41-10 83-8 126-19 84 122 51 181 35" id="ap"/><path fill="#3a414a" d="M593-790c58 0 99 54 77 117-5 13-15 16-35 14-70-7-152-3-229 7-31 20-24 81-26 127-4 138-16 277-16 422 0 32 4 70-21 83-26 36-88 7-103-20 1-182 10-346 21-521 2-27 11-81-18-84-73-7-138 11-206 3-20-18-39-18-32-51-3-78 74-91 145-91 129 0 251 6 369-8 25-3 49 2 74 2" id="aq"/><g id="o"><use transform="matrix(0.017777777777777774,0,0,0.017777777777777774,0,0)" xlink:href="#an"/><use transform="matrix(0.017777777777777774,0,0,0.017777777777777774,13.51111111111111,0)" xlink:href="#ao"/><use transform="matrix(0.017777777777777774,0,0,0.017777777777777774,24.497777777777774,0)" xlink:href="#ap"/><use transform="matrix(0.017777777777777774,0,0,0.017777777777777774,36.337777777777774,0)" xlink:href="#am"/><use transform="matrix(0.017777777777777774,0,0,0.017777777777777774,46.773333333333326,0)" xlink:href="#aq"/><use transform="matrix(0.017777777777777774,0,0,0.017777777777777774,59.55555555555554,0)" xlink:href="#ap"/><use transform="matrix(0.017777777777777774,0,0,0.017777777777777774,71.39555555555555,0)" xlink:href="#ao"/></g><path fill="#3a414a" d="M107-780c100 15 51 176 51 272 0 29 23 25 56 24 33-11 175 4 171-42 9-67 4-153 14-224 12-14 39-57 70-50 51 0 74 34 69 103L490-47c-6 28-25 57-57 56-118-5-54-182-54-299 0-34 3-75-15-85-65 6-127 12-191 19-52 29-23 162-29 239C135-7 87 19 22-30 10-48 7-67 13-88c-16-100 8-215 8-322 0-127-9-364 86-370" id="ar"/><path fill="#3a414a" d="M24-128c0-158-18-313-5-472 6-74-11-192 62-191 78 1 88 68 113 130 59 143 102 191 174 297 50 73 81 109 92 109 8 0 12-3 13-9 24-163 3-322-12-477-6-63 62-76 101-37 65 64 45 212 54 340 10 141 7 304-15 413-8 15-20 23-37 23-76 0-203-132-244-200-33-54-79-109-116-169l4 4c-9-20-41-55-54-51-14 102-5 244 6 344 3 30-15 69-41 68-9 0-28-1-56-3-44-28-39-45-39-119" id="as"/><g id="p"><use transform="matrix(0.017777777777777774,0,0,0.017777777777777774,0,0)" xlink:href="#aq"/><use transform="matrix(0.017777777777777774,0,0,0.017777777777777774,12.78222222222222,0)" xlink:href="#ar"/><use transform="matrix(0.017777777777777774,0,0,0.017777777777777774,22.4,0)" xlink:href="#am"/><use transform="matrix(0.017777777777777774,0,0,0.017777777777777774,32.83555555555555,0)" xlink:href="#as"/></g><path fill="#3a414a" d="M68-174c-8-157-1-333-1-488 0-23-21-28-12-60 24-87 141-85 256-77 161 12 317 42 251 258-5 17-40 45-44 60 15 30 85 80 98 123 62 108 25 192-76 258C455-45 341-9 207-4 145-2 19-30 19-85c0-36 51-41 49-89zm137-510c-18 6-26 137-16 192 30 22 66 2 112-6 70-13 158-95 159-132 17-68-169-82-255-54zm-15 330c-15 57-2 155 5 215 6 4 6 12 18 11 101-5 211-32 267-82 52-46 58-91 12-140s-73-73-81-73c-39 14-121 48-173 54-15 2-34 14-48 15" id="at"/><path fill="#3a414a" d="M44-443c79-191 208-366 448-366 141 0 239 118 267 253 46 222-61 413-213 490-83 42-221 78-338 30-55-23-106-43-129-82-26-14-80-140-57-202 2-41 8-89 22-123zm103 115c1 136 75 191 208 191 130 0 180-50 241-135 38-53 55-111 55-169 0-109-73-236-179-227-143 12-260 151-311 271-9 24-14 47-14 69" id="au"/><g id="q"><use transform="matrix(0.017777777777777774,0,0,0.017777777777777774,0,0)" xlink:href="#at"/><use transform="matrix(0.017777777777777774,0,0,0.017777777777777774,11.43111111111111,0)" xlink:href="#au"/><use transform="matrix(0.017777777777777774,0,0,0.017777777777777774,25.70666666666666,0)" xlink:href="#aq"/><use transform="matrix(0.017777777777777774,0,0,0.017777777777777774,38.48888888888888,0)" xlink:href="#ar"/></g><use transform="matrix(0.017777777777777774,0,0,0.017777777777777774,0,0)" xlink:href="#at" id="r"/><path fill="#3a414a" d="M19-91c0-222 71-428 58-668-3-62 121-44 170-33 118 27 229 50 293 128 44 53 63 97 63 217 0 165-189 328-383 400-36 13-62 45-108 45-66 0-93-23-93-89zm185-582c-30 151-43 322-58 489 5 39 27 28 60 14 129-54 276-147 276-304 0-155-106-203-278-199" id="av"/><g id="s"><use transform="matrix(0.017777777777777774,0,0,0.017777777777777774,0,0)" xlink:href="#am"/><use transform="matrix(0.017777777777777774,0,0,0.017777777777777774,10.435555555555554,0)" xlink:href="#as"/><use transform="matrix(0.017777777777777774,0,0,0.017777777777777774,21.831111111111106,0)" xlink:href="#av"/></g><path fill="#3a414a" d="M521-275c40-33 108-24 108 34 0 49-75 103-210 183-80 47-247 72-323 10-66-54-95-101-82-218 12-106 41-136 91-224 55-96 145-209 240-278 32-23 68-33 107-33 86 2 108 61 107 158 0 55-15 82-44 82-55 1-25-116-79-110-132 15-229 223-291 334-48 86-31 226 81 218 122-9 217-92 295-156" id="aw"/><path fill="#3a414a" d="M103-360c0-112 97-112 179-128 97-18 242-75 249-136 6-48-42-75-151-71-112 4-194 15-276 54-32 15-101 31-94-24 35-105 323-159 505-131 75 11 164 108 120 200-57 118-164 168-297 220-46 18-100 9-130 40-14 46-42 100-66 94-26 0-39-39-39-118zm112 214c60 54-29 135-88 135-48 0-65-33-51-98 18-31 37-56 89-54 19 0 36 5 50 17" id="ax"/><g id="t"><use transform="matrix(0.017777777777777774,0,0,0.017777777777777774,0,0)" xlink:href="#aw"/><use transform="matrix(0.017777777777777774,0,0,0.017777777777777774,11.271111111111109,0)" xlink:href="#ax"/></g><path d="M292-638c-67 2-113 14-176 21-81 9-112-68-58-103 132-46 304-52 470-66l65 5c50 52 43 111-50 111-45 0-75 15-112 18-18 16-19 83-24 152-7 108-21 214-33 322-5 46 36 20 67 20 54 0 81-10 139-16 43 25 50 62 23 110-151 29-311 50-490 79C58 24-8 22 3-44c14-83 161-45 224-90 22-16 24-69 29-107 17-126 33-258 36-397" id="ay"/><path d="M23-677c-68-88 127-122 212-122 113 0 253 24 291 82 92 144-48 310-153 365-52 27-102 48-161 69-56 20-53 15-58 80-4 49-8 103-13 153-3 31-19 46-43 46-44 0-65-28-63-81 5-162 8-330 16-486 3-53-4-75-28-106zm415 73c0-44-44-66-132-66-78 0-124 8-135 26-10 16-14 89-14 218 0 44 22 39 57 25 83-34 224-115 224-203" id="az"/><path d="M21-302C-7-136 9 24 196-12c147-28 263-93 386-142 57-23 26-120-26-120-111 32-240 115-378 126-13 1-22-26-25-45 30-174 59-350 88-524 10-62-86-124-120-61-39 73-49 196-69 277-19 77-22 145-31 199" id="aA"/><path d="M192-85c-3 48 46 100 89 72 52-75 73-232 102-321 46-139 146-233 278-374 22-37 2-105-46-93-81 20-199 174-252 246-53 73-46 65-110 7-63-57-96-136-132-220-11-25-31-37-54-37-36-1-56 32-56 68 32 142 118 264 224 332 15 16 24 24 21 38" id="aB"/><g id="u"><use transform="matrix(0.017777777777777774,0,0,0.017777777777777774,0,0)" xlink:href="#L"/><use transform="matrix(0.017777777777777774,0,0,0.017777777777777774,10.737777777777776,0)" xlink:href="#ay"/><use transform="matrix(0.017777777777777774,0,0,0.017777777777777774,22.026666666666664,0)" xlink:href="#S"/><use transform="matrix(0.017777777777777774,0,0,0.017777777777777774,33.24444444444444,0)" xlink:href="#az"/><use transform="matrix(0.017777777777777774,0,0,0.017777777777777774,43.271111111111104,0)" xlink:href="#aA"/><use transform="matrix(0.017777777777777774,0,0,0.017777777777777774,54.204444444444434,0)" xlink:href="#K"/><use transform="matrix(0.017777777777777774,0,0,0.017777777777777774,64.63999999999999,0)" xlink:href="#aB"/></g><use transform="matrix(0.017777777777777774,0,0,0.017777777777777774,0,0)" xlink:href="#K" id="v"/><g id="w"><use transform="matrix(0.017777777777777774,0,0,0.017777777777777774,0,0)" xlink:href="#ay"/><use transform="matrix(0.017777777777777774,0,0,0.017777777777777774,11.288888888888886,0)" xlink:href="#S"/></g><path d="M590-683c0-95-64-132-148-103-62 21-113 58-161 92-97 69-165 165-223 275C-45-222 51 11 277-12c154-16 257-81 343-160 63-58 100-126 109-243 12-155-158-93-246-67-61 18-178 69-168 115-2 30 28 68 54 64 69-10 133-52 201-67 9-2 20 9 20 17 0 11-18 38-57 79-85 91-188 136-306 136-55 0-99-68-99-127 0-30 16-69 37-123 25-64 237-288 318-281 25-8 66 40 79 44 19 0 28-19 28-58" id="aC"/><g id="x"><use transform="matrix(0.017777777777777774,0,0,0.017777777777777774,0,0)" xlink:href="#aA"/><use transform="matrix(0.017777777777777774,0,0,0.017777777777777774,10.933333333333332,0)" xlink:href="#K"/><use transform="matrix(0.017777777777777774,0,0,0.017777777777777774,21.368888888888886,0)" xlink:href="#I"/><use transform="matrix(0.017777777777777774,0,0,0.017777777777777774,32.355555555555554,0)" xlink:href="#aC"/><use transform="matrix(0.017777777777777774,0,0,0.017777777777777774,45.86666666666666,0)" xlink:href="#J"/><use transform="matrix(0.017777777777777774,0,0,0.017777777777777774,57.706666666666656,0)" xlink:href="#S"/><use transform="matrix(0.017777777777777774,0,0,0.017777777777777774,68.92444444444443,0)" xlink:href="#M"/></g><path fill="#333" d="M221-124c-5 68 57 122 114 88 56-69 74-227 103-315 43-131 137-218 258-350 11-10 13-24 13-44 0-51-23-76-70-76-24 0-64 28-115 76-59 54-122 144-170 207-38-22-100-93-118-140l2 2c-5-9-14-22-18-32l2 3c-24-42-35-120-100-120-46 0-72 39-72 84 30 138 114 263 217 331 10 7 14 13 14 18" id="aD"/><path fill="#333" d="M562-231c-119 0-201 32-308 40-14 1-42-3-40-14 7-43 5-108 16-155 15-24 58-17 92-28 55-18 122-10 191-10 29 0 63-18 62-50l-1 1c9-54-30-90-85-89l2 1c-79-20-172-1-247 10 3-27 1-57 6-86 80-35 193-36 303-41 17-1 37-7 58-16 38-58-8-126-51-147l1 1c-50-22-116-3-173 4-55 6-120 24-173 38l1-1c-58 17-141 13-134 97 6 67 3 142 3 213 0 107-34 195-34 299 0 91 55 147 155 140 120-8 214-45 346-45 28 0 55-3 82-5h-6c53-8 92-74 55-130-9-16-23-28-41-35-26 5-52 8-80 8zM242-525v-1 1" id="aE"/><path fill="#333" d="M57-191C48-107 192-27 280-27c97 0 254-99 310-169 39-50 65-83 62-166-5-159-71-204-245-204-43 0-128 16-175 9 33-54 156-102 224-125 50-17 39 63 85 49 7-1 26-9 26-8 27 1 48-28 46-55-5-57-86-138-163-130-107 11-177 44-249 89-64 40-151 103-160 192 11 108 88 147 219 147 67 0 156-12 208 7 20 7 30 17 30 30 0 34-38 77-114 130 1-1 0-1 1-1-43 46-146 46-193 1-15-15-43-32-65-30-41 4-67 29-70 70" id="aF"/><g id="y"><use transform="matrix(0.017777777777777778,0,0,0.017777777777777778,0,0)" xlink:href="#aD"/><use transform="matrix(0.017777777777777778,0,0,0.017777777777777778,11.982222222222223,0)" xlink:href="#aE"/><use transform="matrix(0.017777777777777778,0,0,0.017777777777777778,23.840000000000003,0)" xlink:href="#aF"/></g><path fill="#333" d="M216-409c9 8 16 19 19 30-1 9 8 9 10 13 37 63 77 111 116 172 37 57 163 169 227 172 23 0 40-11 52-32 33-170 13-434 6-619-3-83-39-143-107-149-45-4-69 31-66 79 10 146 31 283 13 439-51-61-104-153-152-217-31-42-51-96-76-155l1 1c-28-66-40-134-124-136-97-1-69 150-80 250-17 150 12 295 5 444-2 50 15 62 51 88 19 2 42 3 59 3 35 2 66-46 57-86l1 1c-10-94-14-194-12-298zm39 2c4 1 2 2 0 3v-3zm229 115c0-2 0-3 1-4-1 1-1 3-1 4" id="aG"/><path fill="#333" d="M776-292c25-58 39-113 39-189 0-186-105-335-289-347-115-8-264 80-335 176-54 72-128 174-130 306-17 72 19 171 60 209C155-80 284-35 371-30c125 8 185-36 261-79 69-40 112-103 145-184zM507-656c91 0 151 106 151 197 0 107-87 221-167 253-29 11-88 21-133 13l1 1c-87-19-148-53-141-159 8-119 91-193 166-254 44-35 86-51 123-51" id="aH"/><g id="z"><use transform="matrix(0.017777777777777778,0,0,0.017777777777777778,0,0)" xlink:href="#aG"/><use transform="matrix(0.017777777777777778,0,0,0.017777777777777778,11.413333333333334,0)" xlink:href="#aH"/></g><use transform="matrix(0.017777777777777774,0,0,0.017777777777777774,0,0)" xlink:href="#R" id="A"/><use transform="matrix(0.017777777777777774,0,0,0.017777777777777774,0,0)" xlink:href="#U" id="B"/><g id="C"><use transform="matrix(0.017777777777777778,0,0,0.017777777777777778,0,0)" xlink:href="#aD"/><use transform="matrix(0.017777777777777778,0,0,0.017777777777777778,11.982222222222223,0)" xlink:href="#aE"/><use transform="matrix(0.017777777777777778,0,0,0.017777777777777778,23.840000000000003,0)" xlink:href="#aF"/></g><path fill="#3a414a" d="M23-677c-68-88 127-122 212-122 113 0 253 24 291 82 92 144-48 310-153 365-52 27-102 48-161 69-56 20-53 15-58 80-4 49-8 103-13 153-3 31-19 46-43 46-44 0-65-28-63-81 5-162 8-330 16-486 3-53-4-75-28-106zm415 73c0-44-44-66-132-66-78 0-124 8-135 26-10 16-14 89-14 218 0 44 22 39 57 25 83-34 224-115 224-203" id="aI"/><g id="D"><use transform="matrix(0.022222222222222223,0,0,0.022222222222222223,0,0)" xlink:href="#al"/><use transform="matrix(0.022222222222222223,0,0,0.022222222222222223,14.022222222222222,0)" xlink:href="#aq"/><use transform="matrix(0.022222222222222223,0,0,0.022222222222222223,30,0)" xlink:href="#au"/><use transform="matrix(0.022222222222222223,0,0,0.022222222222222223,47.84444444444445,0)" xlink:href="#aI"/></g></defs></g></svg>