<svg xmlns="http://www.w3.org/2000/svg" xmlns:xlink="http://www.w3.org/1999/xlink" xmlns:lucid="lucid" width="772" height="723"><g transform="translate(-196 -31)" lucid:page-tab-id="TACQSc2-eHtR"><path d="M643.24 140c22.54 0 40.8 17.9 40.8 40s-18.26 40-40.8 40H520.8c-22.53 0-40.8-17.9-40.8-40s18.27-40 40.8-40z" stroke="#3a414a" stroke-width="4" fill="#e3fae3"/><use xlink:href="#a" transform="matrix(1,0,0,1,485,145) translate(71.06444444444446 40.472222222222214)"/><path d="M473.45 280.97a1.3 1.3 0 0 1 1.25-.97h241.7a.77.77 0 0 1 .75.97l-26.54 99.55a1.3 1.3 0 0 1-1.25.96h-241.7a.77.77 0 0 1-.75-.96z" stroke="#3a414a" stroke-width="4" fill-opacity="0"/><use xlink:href="#b" transform="matrix(1,0,0,1,451.64186146057773,285) translate(62.45833333333335 51.59722222222222)"/><use xlink:href="#c" transform="matrix(1,0,0,1,451.64186146057773,285) translate(111.73833333333334 51.59722222222222)"/><use xlink:href="#d" transform="matrix(1,0,0,1,451.64186146057773,285) translate(127.45388888888888 51.59722222222222)"/><path d="M380 49.2a6 6 0 0 1 6-6h428a6 6 0 0 1 6 6v48a6 6 0 0 1-6 6H386a6 6 0 0 1-6-6z" stroke="#000" stroke-opacity="0" fill="#fff3d9"/><use xlink:href="#e" transform="matrix(1,0,0,1,385,48.19022682518721) translate(8.907777777777795 32.05555555555556)"/><use xlink:href="#f" transform="matrix(1,0,0,1,385,48.19022682518721) translate(161.61222222222221 32.05555555555556)"/><use xlink:href="#g" transform="matrix(1,0,0,1,385,48.19022682518721) translate(217.22333333333333 32.05555555555556)"/><use xlink:href="#h" transform="matrix(1,0,0,1,385,48.19022682518721) translate(286.5966666666667 32.05555555555556)"/><path d="M582.03 224v31.26" stroke="#3a414a" stroke-width="4" fill="none"/><path d="M584.03 224.05h-4V222h4z" stroke="#3a414a" stroke-width=".05" fill="#3a414a"/><path d="M582.03 271.53l-4.64-14.27h9.26z" stroke="#3a414a" stroke-width="4" fill="#3a414a"/><path d="M577.1 423.42a8.65 8.65 0 0 1 9.86 0l92.16 63.9a4.16 4.16 0 0 1 0 6.84l-92.16 63.9a8.65 8.65 0 0 1-9.86 0l-92.17-63.9a4.16 4.16 0 0 1 0-6.84z" stroke="#3a414a" stroke-width="4" fill-opacity="0"/><use xlink:href="#i" transform="matrix(1,0,0,1,485,425) translate(82.93833333333333 50.77777777777778)"/><use xlink:href="#j" transform="matrix(1,0,0,1,485,425) translate(29.971666666666675 74.64444444444445)"/><use xlink:href="#k" transform="matrix(1,0,0,1,485,425) translate(146.48277777777778 74.64444444444445)"/><use xlink:href="#l" transform="matrix(1,0,0,1,485,425) translate(86.57166666666666 98.51111111111112)"/><path d="M710.86 522.93a1.3 1.3 0 0 1 1.25-.96h241.72a.77.77 0 0 1 .75.96l-26.55 99.56a1.3 1.3 0 0 1-1.26.95h-241.7a.77.77 0 0 1-.75-.96z" stroke="#3a414a" stroke-width="4" fill-opacity="0"/><use xlink:href="#m" transform="matrix(1,0,0,1,689.0529536903862,526.9691988406589) translate(71.18722222222225 51.59722222222222)"/><use xlink:href="#n" transform="matrix(1,0,0,1,689.0529536903862,526.9691988406589) translate(153.07166666666666 51.59722222222222)"/><path d="M236.03 522.93a1.3 1.3 0 0 1 1.26-.96H479a.77.77 0 0 1 .74.96L453.2 622.5a1.3 1.3 0 0 1-1.26.95h-241.7a.77.77 0 0 1-.75-.96z" stroke="#3a414a" stroke-width="4" fill-opacity="0"/><use xlink:href="#m" transform="matrix(1,0,0,1,214.23076923076928,526.9691988406589) translate(66.05833333333335 51.59722222222222)"/><use xlink:href="#o" transform="matrix(1,0,0,1,214.23076923076928,526.9691988406589) translate(147.9427777777778 51.59722222222222)"/><path d="M814.7 488.83l1.2.3 1.17.48 1.07.66.96.82.8.96.67 1.07.48 1.17.3 1.22.1 1.16v.57h-4v-.4l-.07-.7-.14-.62-.24-.57-.33-.54-.4-.48-.5-.4-.52-.34-.58-.24-.6-.14-.7-.06h-30.04v-4h30.2zm-129.78 3.9v-4h63.34v4z" stroke="#008a0e" stroke-width=".05" fill="#008a0e"/><path d="M684.97 492.74h-2.4l.24-.82.12-1.18-.1-1.18-.26-.82h2.4z" fill="#008a0e"/><path d="M685 492.77h-2.47l.25-.85.12-1.18-.12-1.18-.25-.84H685zm-2.4-4l.23.78.12 1.2-.12 1.18-.23.8h2.35v-3.96z" stroke="#008a0e" stroke-width=".05" fill="#008a0e"/><path d="M819.44 513.5l-4.64-14.27h9.27z" fill="#008a0e"/><path d="M819.44 519.97l-7.4-22.74h14.8zm-1.9-18.74l1.9 5.8 1.88-5.8z" stroke="#008a0e" stroke-width=".05" fill="#008a0e"/><use xlink:href="#p" transform="matrix(1,0,0,1,748.2554751912811,481.19489785425026) translate(0 14.222222222222223)"/><path d="M385.42 491.74h-34.77l-.82.07-.76.2-.72.3-.67.4-.6.5-.5.6-.42.67-.3.73-.18.76-.06.82v4.7h-2v-4.78l.08-1.05.25-1.07.43-1.02.57-.94.7-.83.85-.72.94-.58 1-.42 1.08-.25 1.06-.1h34.84zm94.7 0H411.1v-2h69.03z" stroke="#e81313" stroke-width=".05" fill="#e81313"/><path d="M481.13 490.74l.1 1h-1.12v-2h1.13z" fill="#e81313"/><path d="M481.16 490.74l.1 1.03h-1.18v-2.05h1.18zm-1.03-.97v1.95h1.07l-.1-.98.1-.97z" stroke="#e81313" stroke-width=".05" fill="#e81313"/><path d="M344.6 516.73L340 502.47h9.27z" fill="#e81313"/><path d="M344.6 519.97l-6-18.5h12.03zm-3.24-16.5l3.25 10.03 3.27-10.03z" stroke="#e81313" stroke-width=".05" fill="#e81313"/><use xlink:href="#q" transform="matrix(1,0,0,1,385.4152558089226,481.19489785425026) translate(0 14.222222222222223)"/><path d="M582.03 385.48v11.65" stroke="#3a414a" stroke-width="4" fill="none"/><path d="M584.03 385.53h-4v-2.05h4z" stroke="#3a414a" stroke-width=".05" fill="#3a414a"/><path d="M582.03 413.4l-4.64-14.27h9.26z" stroke="#3a414a" stroke-width="4" fill="#3a414a"/><path d="M643.24 660c22.54 0 40.8 17.9 40.8 40s-18.26 40-40.8 40H520.8c-22.53 0-40.8-17.9-40.8-40s18.27-40 40.8-40z" stroke="#3a414a" stroke-width="4" fill="#fff0f0"/><g><use xlink:href="#r" transform="matrix(1,0,0,1,485,665) translate(73.34888888888891 40.472222222222214)"/></g><path d="M819.44 627.45V694a6 6 0 0 1-6 6H708.8" stroke="#3a414a" stroke-width="4" fill="none"/><path d="M821.44 627.5h-4v-2.05h4z" stroke="#3a414a" stroke-width=".05" fill="#3a414a"/><path d="M692.53 700l14.26-4.63v9.26z" stroke="#3a414a" stroke-width="4" fill="#3a414a"/><path d="M344.6 627.45V694a6 6 0 0 0 6 6h104.66" stroke="#3a414a" stroke-width="4" fill="none"/><path d="M346.6 627.5h-4v-2.05h4z" stroke="#3a414a" stroke-width=".05" fill="#3a414a"/><path d="M471.52 700l-14.26 4.63v-9.26z" stroke="#3a414a" stroke-width="4" fill="#3a414a"/><defs><path d="M371-533c189 0 256 55 239 237-9 91-67 138-157 205C374-33 301-7 236-7 155-7 13-82 18-160c3-44 62-73 96-38 43 44 152 73 218 29 77-51 166-125 156-169 2-44-67-63-119-62-47 1-108 1-155 3C87-393 13-429 1-531c11-87 101-150 165-187 90-52 160-96 290-87 34 2 118 78 115 115-3 35-23 38-55 45-15 4-26-4-33-24-37-64-116-1-164 12-41 11-154 77-154 113 0 15 14 22 41 22 45 0 127-11 165-11" id="s"/><path d="M382-556c-3 158-18 304-18 470 0 31 6 72-21 86-20 35-87 21-104-6-1-188 14-367 23-549 1-24 13-80-17-80-77 0-131 31-210 31-15-10-43-18-33-45 0-82 83-94 148-109 103-23 215-12 315-40 43-12 91-17 142-23 62-8 95 53 77 116-8 28-47 14-75 18-68 9-134 10-195 30-32 11-31 60-32 101" id="t"/><path d="M103-24C79 10-2-14 8-59c42-186 129-353 193-524 23-62 63-135 99-197 39-38 106-10 109 47 27 100 51 209 81 307 8 25 72 24 72 63 0 44-26 46-37 75 12 83 46 156 55 243 7 63-106 47-114 11-13-58-36-170-57-231-3-4-7-8-9-14-69 4-134 40-198 52-53 21-53 108-81 160-4 16-8 29-18 43zm215-551c-16 18-92 195-73 208 46 2 100-12 123-31-5-30-32-162-38-171-2-3-6-5-12-6" id="u"/><path d="M608-642l-20 77c-36 56-69 94-113 138-49 48-58 40-29 81 33 46 69 89 97 147 44 89 52 141 40 147-3 38-20 49-63 52-68 5-97-106-129-160-40-68-56-162-144-164-53-1-27 78-45 121-7 56-12 123-28 170C157-4 113 24 66-1 46-11 40-39 49-87c19-111 19-139 19-313 0-144 1-187-40-242-27-37-13-94 26-108 103-36 250-59 389-41 63 8 182 85 165 149zm-140 11c-10-39-42-58-96-57-53 12-154 21-179 43-5 9-8 31-8 65 0 151 19 135 127 94 94-36 148-79 156-145" id="v"/><g id="a"><use transform="matrix(0.017777777777777764,0,0,0.017777777777777764,0,0)" xlink:href="#s"/><use transform="matrix(0.017777777777777764,0,0,0.017777777777777764,10.133333333333326,0)" xlink:href="#t"/><use transform="matrix(0.017777777777777764,0,0,0.017777777777777764,19.253333333333313,0)" xlink:href="#u"/><use transform="matrix(0.017777777777777764,0,0,0.017777777777777764,29.68888888888886,0)" xlink:href="#v"/><use transform="matrix(0.017777777777777764,0,0,0.017777777777777764,40.67555555555552,0)" xlink:href="#t"/></g><path d="M608-642l-20 77c-36 56-69 94-113 138-49 48-58 40-29 81 33 46 69 89 97 147 44 89 52 141 40 147-3 38-20 49-63 52-68 5-97-106-129-160-40-68-56-162-144-164-53-1-27 78-45 121-7 56-12 123-28 170C157-4 113 24 66-1 46-11 40-39 49-87c19-111 19-139 19-313 0-144 1-187-40-242-27-37-13-94 26-108 103-36 250-59 389-41 63 8 182 85 165 149zm-140 11c-10-39-42-58-96-57-53 12-154 21-179 43-5 9-8 31-8 65 0 151 19 135 127 94 94-36 148-79 156-145" id="w"/><path d="M330-158c82-22 193-18 286-31 38 11 58 81 24 113-25 24-71 25-116 25-135 0-238 34-358 47C61 7 4-52 15-159c12-113 37-213 32-340-2-59 2-121-2-178-2-44 35-62 81-61 104-31 222-52 345-64 68-7 103 34 111 94 2 12-3 22-9 31-33 14-62 15-103 16-100 2-196 10-270 40h-8c-18 23-11 79-15 106-1 13 5 22 16 25 82-10 176-25 264-12 44 7 78 26 71 72-7 49-76 30-125 30-78 0-138 22-210 29-24 1-35 28-36 52-2 41-10 83-8 126-19 84 122 51 181 35" id="x"/><path d="M103-24C79 10-2-14 8-59c42-186 129-353 193-524 23-62 63-135 99-197 39-38 106-10 109 47 27 100 51 209 81 307 8 25 72 24 72 63 0 44-26 46-37 75 12 83 46 156 55 243 7 63-106 47-114 11-13-58-36-170-57-231-3-4-7-8-9-14-69 4-134 40-198 52-53 21-53 108-81 160-4 16-8 29-18 43zm215-551c-16 18-92 195-73 208 46 2 100-12 123-31-5-30-32-162-38-171-2-3-6-5-12-6" id="y"/><path d="M19-91c0-222 71-428 58-668-3-62 121-44 170-33 118 27 229 50 293 128 44 53 63 97 63 217 0 165-189 328-383 400-36 13-62 45-108 45-66 0-93-23-93-89zm185-582c-30 151-43 322-58 489 5 39 27 28 60 14 129-54 276-147 276-304 0-155-106-203-278-199" id="z"/><g id="b"><use transform="matrix(0.017777777777777774,0,0,0.017777777777777774,0,0)" xlink:href="#w"/><use transform="matrix(0.017777777777777774,0,0,0.017777777777777774,10.986666666666665,0)" xlink:href="#x"/><use transform="matrix(0.017777777777777774,0,0,0.017777777777777774,22.82666666666666,0)" xlink:href="#y"/><use transform="matrix(0.017777777777777774,0,0,0.017777777777777774,33.26222222222221,0)" xlink:href="#z"/></g><use transform="matrix(0.017777777777777774,0,0,0.017777777777777774,0,0)" xlink:href="#y" id="c"/><path d="M24-128c0-158-18-313-5-472 6-74-11-192 62-191 78 1 88 68 113 130 59 143 102 191 174 297 50 73 81 109 92 109 8 0 12-3 13-9 24-163 3-322-12-477-6-63 62-76 101-37 65 64 45 212 54 340 10 141 7 304-15 413-8 15-20 23-37 23-76 0-203-132-244-200-33-54-79-109-116-169l4 4c-9-20-41-55-54-51-14 102-5 244 6 344 3 30-15 69-41 68-9 0-28-1-56-3-44-28-39-45-39-119" id="A"/><path d="M106-737c41-53 131 12 108 86-42 139-71 285-71 455 0 88 72 66 143 48 49-12 128-35 183-63 38-19 36-69 44-119 17-114 31-247 31-354 0-57 26-85 79-85 37 0 55 27 55 81 0 190-34 397-59 573 4 31 20 93-13 105-8 10-30 7-65-8-16-20-33-38-51-54C397-48 305 0 205 0 79 0 5-43 13-176c13-196 50-391 93-561" id="B"/><path d="M629-645c28 177 9 401 28 582 3 29-18 50-47 50-97 0-67-194-71-306-1-24-4-66-3-92 1-39-15-57-30-33-49 79-88 161-139 243-9 15-21 23-34 23-33 0-70-69-89-115-10-23-57-152-73-152-28 0-27 119-31 162-9 93-16 174-27 265-2 3-35 21-48 20-71-3-50-117-43-176 24-211 38-410 84-595 39-67 121 2 138 59 22 73 63 167 84 249 7 23 13 34 20 34 17 0 54-75 107-225 17-48 42-155 115-96 31 25 52 57 59 103" id="C"/><path d="M68-174c-8-157-1-333-1-488 0-23-21-28-12-60 24-87 141-85 256-77 161 12 317 42 251 258-5 17-40 45-44 60 15 30 85 80 98 123 62 108 25 192-76 258C455-45 341-9 207-4 145-2 19-30 19-85c0-36 51-41 49-89zm137-510c-18 6-26 137-16 192 30 22 66 2 112-6 70-13 158-95 159-132 17-68-169-82-255-54zm-15 330c-15 57-2 155 5 215 6 4 6 12 18 11 101-5 211-32 267-82 52-46 58-91 12-140s-73-73-81-73c-39 14-121 48-173 54-15 2-34 14-48 15" id="D"/><g id="d"><use transform="matrix(0.017777777777777774,0,0,0.017777777777777774,0,0)" xlink:href="#A"/><use transform="matrix(0.017777777777777774,0,0,0.017777777777777774,11.395555555555553,0)" xlink:href="#B"/><use transform="matrix(0.017777777777777774,0,0,0.017777777777777774,23.893333333333334,0)" xlink:href="#C"/><use transform="matrix(0.017777777777777774,0,0,0.017777777777777774,35.839999999999996,0)" xlink:href="#D"/><use transform="matrix(0.017777777777777774,0,0,0.017777777777777774,47.271111111111104,0)" xlink:href="#x"/><use transform="matrix(0.017777777777777774,0,0,0.017777777777777774,59.1111111111111,0)" xlink:href="#w"/></g><path fill="#3a414a" d="M247-491c4-58-16-131 34-141 82-16 176-39 255-55 40-8 54-21 55-68 2-89-94-75-175-63-118 17-292 45-359 106-23 21-20 70-5 98 12 11 43 7 43 25 0 45 0 79-2 117-13 22-33 46-32 81 30 86 13 210 13 321 0 45 55 52 97 50 59-25 38-242 50-304 5-22 30-20 56-26 78-17 169-21 238-43 27-8 39-31 39-61 0-46-28-69-84-69-71 0-156 16-210 32h-13" id="E"/><path fill="#3a414a" d="M50-194C40-28 200 0 338-54c94-37 183-73 272-114 29-13 41-37 41-62 0-44-32-91-71-89-30 3-148 61-190 76l1-1c-45 16-110 45-165 45 1 0 0-5-3-15l1 1-3-11c27-168 60-333 82-502 10-75-103-138-147-64-8 14-17 32-20 54l1-1c-6 17-8 35-12 54l1-2C92-532 60-361 50-194" id="F"/><path fill="#3a414a" d="M776-292c25-58 39-113 39-189 0-186-105-335-289-347-115-8-264 80-335 176-54 72-128 174-130 306-17 72 19 171 60 209C155-80 284-35 371-30c125 8 185-36 261-79 69-40 112-103 145-184zM507-656c91 0 151 106 151 197 0 107-87 221-167 253-29 11-88 21-133 13l1 1c-87-19-148-53-141-159 8-119 91-193 166-254 44-35 86-51 123-51" id="G"/><path fill="#3a414a" d="M801-816c-117 0-37 170-64 263l1-1c-15 67-25 131-43 194-17 60-32 90-42 90-80-84-72-255-129-356-25-43-100-46-123 6-3 9-10 16-13 25l1-1c-8 20-18 38-27 56h3c-37 81-75 146-113 224-14 27-22 40-25 40-20-121-1-292-18-429-7-54-40-79-81-79-96 0-69 186-67 280 4 147 38 414 86 451 74 56 110 33 172-59 29-43 113-203 127-220 48 94 116 279 229 289 100-11 151-212 184-307 29-83 39-155 39-263 0-135-32-203-97-203" id="H"/><path fill="#3a414a" d="M603-651c0-97-31-172-120-170-102 1-164 75-214 132-81 91-127 171-181 277-30 59-52 189-20 259C104-74 204-5 336-32c36-8 99-21 126-45 137-73 206-137 206-191 0-71-82-87-131-48-77 62-149 135-266 145-97 8-92-125-54-190 41-69 89-162 136-217 46-53 83-81 115-81 30 22 11 105 74 105 41 0 61-32 61-97" id="I"/><path fill="#3a414a" d="M211-150c2-56-6-121 2-175-6-57 39-29 77-42l99-9c10 81-7 183-7 268 0 63 24 95 79 97 39 2 67-28 71-64 21-214 34-430 47-645 5-79-45-113-114-95-24 14-42 35-54 58-5 60-4 122-9 186-4 49 4 36-56 43-40 4-81 13-122 10 3-61 9-119 11-180 2-53-31-103-77-103-110 0-98 263-98 399 0 91-21 189-9 280-5 25 0 47 13 66 72 60 142 31 147-94zm10-369c0-2 1 0 1 0h-1" id="J"/><path fill="#3a414a" d="M70-181C36-106 39-36 121-28c46 4 59-41 69-68 14-40 27-86 43-123 28-31 91-34 132-52 22-9 42-12 57-14 23 70 34 146 54 220 8 29 38 43 83 43 40 0 60-20 60-60 0-87-40-149-50-230 28-18 51-84 14-113-11-9-44-19-50-27-27-105-52-214-82-316-19-65-108-61-136-9-73 134-133 295-189 435-24 59-31 107-56 161zm286-369c8 39 19 86 26 125-22 9-48 16-78 17 14-39 32-102 52-142" id="K"/><path fill="#3a414a" d="M173-13c102-20 79-163 100-261 0-7 2-19 3-27-8-47 57-27 68-2 40 53 67 131 101 192l-1-1c19 54 59 97 104 92 43-5 70-16 73-58 13-23 7-37-3-71-6-23-15-54-34-88-35-66-68-105-104-161 56-50 105-104 147-170 6-29 17-55 20-85 6-72-103-151-170-159l2 1c-139-21-303 2-392 48-38 20-46 85-18 123 36 48 34 126 35 220 2 188-7 191-22 334-6 57 41 80 92 72zm83-631c46-6 199-69 222 5-8 54-52 92-132 119-94 31-95 61-95-72 0-28 2-45 5-52zm67 321l-3-1c1 1 2 1 3 1" id="L"/><path fill="#3a414a" d="M450-642c81-9 156-10 231-4 26-13 36-35 36-67 0-81-74-112-168-99-140 19-319-7-450 25-32 17-54 46-55 91v-3c-8 40 21 48 42 67 65 10 127-7 202-2-4 181-23 372-21 564 20 34 93 71 130 26 41-30 19-113 21-180 3-100 12-190 18-284l-1 1c5-43-7-105 15-135" id="M"/><g id="e"><use transform="matrix(0.024444444444444442,0,0,0.024444444444444442,0,0)" xlink:href="#E"/><use transform="matrix(0.024444444444444442,0,0,0.024444444444444442,13.59111111111111,0)" xlink:href="#F"/><use transform="matrix(0.024444444444444442,0,0,0.024444444444444442,28.673333333333332,0)" xlink:href="#G"/><use transform="matrix(0.024444444444444442,0,0,0.024444444444444442,48.30222222222222,0)" xlink:href="#H"/><use transform="matrix(0.024444444444444442,0,0,0.024444444444444442,69.54444444444444,0)" xlink:href="#I"/><use transform="matrix(0.024444444444444442,0,0,0.024444444444444442,85.06666666666666,0)" xlink:href="#J"/><use transform="matrix(0.024444444444444442,0,0,0.024444444444444442,98.33999999999999,0)" xlink:href="#K"/><use transform="matrix(0.024444444444444442,0,0,0.024444444444444442,112.73777777777777,0)" xlink:href="#L"/><use transform="matrix(0.024444444444444442,0,0,0.024444444444444442,127.86888888888888,0)" xlink:href="#M"/></g><path fill="#3a414a" d="M247-491c4-58-16-131 34-141 82-16 176-39 255-55 40-8 54-21 55-68 2-89-94-75-175-63-118 17-292 45-359 106-23 21-20 70-5 98 12 11 43 7 43 25 0 45 0 79-2 117-13 22-33 46-32 81 30 86 13 210 13 321 0 45 55 52 97 50 59-25 38-242 50-304 5-22 30-20 56-26 78-17 169-21 238-43 27-8 39-31 39-61 0-46-28-69-84-69-71 0-156 16-210 32h-13" id="N"/><g id="f"><use transform="matrix(0.024444444444444442,0,0,0.024444444444444442,0,0)" xlink:href="#N"/><use transform="matrix(0.024444444444444442,0,0,0.024444444444444442,13.59111111111111,0)" xlink:href="#G"/><use transform="matrix(0.024444444444444442,0,0,0.024444444444444442,33.22,0)" xlink:href="#L"/></g><path fill="#3a414a" d="M633-32c99 0 53-140 53-231 0-160 17-350-41-466-13-25-59-60-90-60-48-2-72 81-86 122-47 132-74 199-82 202-15-90-57-183-81-259-17-55-61-93-116-93-21 0-40 12-48 39-59 200-67 431-92 658C43-58 89 6 151-27c16-9 25-11 33-23 14-128 27-256 35-392 34 77 71 239 153 252 64-12 80-94 111-139 24-35 42-76 62-112 2 86 2 175 2 264 0 97 29 145 86 145" id="O"/><path fill="#3a414a" d="M42-70c0 87 115 70 183 54l-1 1c168-29 298-46 412-66 37-61 31-107-28-144-59 12-120 13-178 22 6-108 31-217 31-327 0-55 4-92 13-111 33-5 63-9 97-17 108 2 116-84 54-143-115-14-235 13-335 17-9 1-17 2-25 5l1-1c-26 5-56 8-80 15l1-1c-64 12-112 20-118 81-8 89 119 84 199 63-6 0 1-1 3-1 14-2 24 0 41-3 2 126-16 240-31 354-4 28-1 78-21 91-30 19-88 18-126 30l1-1c-53 5-93 24-93 82" id="P"/><path fill="#3a414a" d="M216-409c9 8 16 19 19 30-1 9 8 9 10 13 37 63 77 111 116 172 37 57 163 169 227 172 23 0 40-11 52-32 33-170 13-434 6-619-3-83-39-143-107-149-45-4-69 31-66 79 10 146 31 283 13 439-51-61-104-153-152-217-31-42-51-96-76-155l1 1c-28-66-40-134-124-136-97-1-69 150-80 250-17 150 12 295 5 444-2 50 15 62 51 88 19 2 42 3 59 3 35 2 66-46 57-86l1 1c-10-94-14-194-12-298zm39 2c4 1 2 2 0 3v-3zm229 115c0-2 0-3 1-4-1 1-1 3-1 4" id="Q"/><g id="g"><use transform="matrix(0.024444444444444442,0,0,0.024444444444444442,0,0)" xlink:href="#O"/><use transform="matrix(0.024444444444444442,0,0,0.024444444444444442,16.45111111111111,0)" xlink:href="#K"/><use transform="matrix(0.024444444444444442,0,0,0.024444444444444442,30.848888888888887,0)" xlink:href="#P"/><use transform="matrix(0.024444444444444442,0,0,0.024444444444444442,46.419999999999995,0)" xlink:href="#Q"/></g><path fill="#3a414a" d="M615-24c62 1 58-78 47-128 24-171 55-356 55-541 0-64-23-96-70-96-71-1-99 44-94 123-15 114-18 275-42 381-6 28-34 35-58 44-76 27-135 58-212 58-42 0-27-72-25-115 4-84 25-172 38-251l-1 1c12-62 61-162-1-204l2 1c-43-49-114-25-124 36-27 163-69 328-78 509-3 62 15 122 50 146 37 26 87 40 150 40 41 0 198-44 262-67 14 13 28 28 43 46 26 11 45 17 58 17" id="R"/><path fill="#3a414a" d="M134-345c49 1 97-57 97-108 0-47-47-85-91-85-59 0-87 37-87 93s29 99 81 100zm-2 282c73 0 133-118 63-170-59-44-144-14-144 71 0 55 27 99 81 99" id="S"/><g id="h"><use transform="matrix(0.024444444444444442,0,0,0.024444444444444442,0,0)" xlink:href="#N"/><use transform="matrix(0.024444444444444442,0,0,0.024444444444444442,13.59111111111111,0)" xlink:href="#R"/><use transform="matrix(0.024444444444444442,0,0,0.024444444444444442,30.77555555555555,0)" xlink:href="#Q"/><use transform="matrix(0.024444444444444442,0,0,0.024444444444444442,46.468888888888884,0)" xlink:href="#I"/><use transform="matrix(0.024444444444444442,0,0,0.024444444444444442,61.9911111111111,0)" xlink:href="#M"/><use transform="matrix(0.024444444444444442,0,0,0.024444444444444442,79.56666666666666,0)" xlink:href="#P"/><use transform="matrix(0.024444444444444442,0,0,0.024444444444444442,95.13777777777777,0)" xlink:href="#G"/><use transform="matrix(0.024444444444444442,0,0,0.024444444444444442,114.76666666666665,0)" xlink:href="#Q"/><use transform="matrix(0.024444444444444442,0,0,0.024444444444444442,130.45999999999998,0)" xlink:href="#S"/></g><path fill="#3a414a" d="M292-638c-67 2-113 14-176 21-81 9-112-68-58-103 132-46 304-52 470-66l65 5c50 52 43 111-50 111-45 0-75 15-112 18-18 16-19 83-24 152-7 108-21 214-33 322-5 46 36 20 67 20 54 0 81-10 139-16 43 25 50 62 23 110-151 29-311 50-490 79C58 24-8 22 3-44c14-83 161-45 224-90 22-16 24-69 29-107 17-126 33-258 36-397" id="T"/><path fill="#3a414a" d="M371-533c189 0 256 55 239 237-9 91-67 138-157 205C374-33 301-7 236-7 155-7 13-82 18-160c3-44 62-73 96-38 43 44 152 73 218 29 77-51 166-125 156-169 2-44-67-63-119-62-47 1-108 1-155 3C87-393 13-429 1-531c11-87 101-150 165-187 90-52 160-96 290-87 34 2 118 78 115 115-3 35-23 38-55 45-15 4-26-4-33-24-37-64-116-1-164 12-41 11-154 77-154 113 0 15 14 22 41 22 45 0 127-11 165-11" id="U"/><g id="i"><use transform="matrix(0.022222222222222223,0,0,0.022222222222222223,0,0)" xlink:href="#T"/><use transform="matrix(0.022222222222222223,0,0,0.022222222222222223,14.111111111111112,0)" xlink:href="#U"/></g><path fill="#3a414a" d="M24-128c0-158-18-313-5-472 6-74-11-192 62-191 78 1 88 68 113 130 59 143 102 191 174 297 50 73 81 109 92 109 8 0 12-3 13-9 24-163 3-322-12-477-6-63 62-76 101-37 65 64 45 212 54 340 10 141 7 304-15 413-8 15-20 23-37 23-76 0-203-132-244-200-33-54-79-109-116-169l4 4c-9-20-41-55-54-51-14 102-5 244 6 344 3 30-15 69-41 68-9 0-28-1-56-3-44-28-39-45-39-119" id="V"/><path fill="#3a414a" d="M106-737c41-53 131 12 108 86-42 139-71 285-71 455 0 88 72 66 143 48 49-12 128-35 183-63 38-19 36-69 44-119 17-114 31-247 31-354 0-57 26-85 79-85 37 0 55 27 55 81 0 190-34 397-59 573 4 31 20 93-13 105-8 10-30 7-65-8-16-20-33-38-51-54C397-48 305 0 205 0 79 0 5-43 13-176c13-196 50-391 93-561" id="W"/><path fill="#3a414a" d="M629-645c28 177 9 401 28 582 3 29-18 50-47 50-97 0-67-194-71-306-1-24-4-66-3-92 1-39-15-57-30-33-49 79-88 161-139 243-9 15-21 23-34 23-33 0-70-69-89-115-10-23-57-152-73-152-28 0-27 119-31 162-9 93-16 174-27 265-2 3-35 21-48 20-71-3-50-117-43-176 24-211 38-410 84-595 39-67 121 2 138 59 22 73 63 167 84 249 7 23 13 34 20 34 17 0 54-75 107-225 17-48 42-155 115-96 31 25 52 57 59 103" id="X"/><path fill="#3a414a" d="M68-174c-8-157-1-333-1-488 0-23-21-28-12-60 24-87 141-85 256-77 161 12 317 42 251 258-5 17-40 45-44 60 15 30 85 80 98 123 62 108 25 192-76 258C455-45 341-9 207-4 145-2 19-30 19-85c0-36 51-41 49-89zm137-510c-18 6-26 137-16 192 30 22 66 2 112-6 70-13 158-95 159-132 17-68-169-82-255-54zm-15 330c-15 57-2 155 5 215 6 4 6 12 18 11 101-5 211-32 267-82 52-46 58-91 12-140s-73-73-81-73c-39 14-121 48-173 54-15 2-34 14-48 15" id="Y"/><path fill="#3a414a" d="M330-158c82-22 193-18 286-31 38 11 58 81 24 113-25 24-71 25-116 25-135 0-238 34-358 47C61 7 4-52 15-159c12-113 37-213 32-340-2-59 2-121-2-178-2-44 35-62 81-61 104-31 222-52 345-64 68-7 103 34 111 94 2 12-3 22-9 31-33 14-62 15-103 16-100 2-196 10-270 40h-8c-18 23-11 79-15 106-1 13 5 22 16 25 82-10 176-25 264-12 44 7 78 26 71 72-7 49-76 30-125 30-78 0-138 22-210 29-24 1-35 28-36 52-2 41-10 83-8 126-19 84 122 51 181 35" id="Z"/><path fill="#3a414a" d="M608-642l-20 77c-36 56-69 94-113 138-49 48-58 40-29 81 33 46 69 89 97 147 44 89 52 141 40 147-3 38-20 49-63 52-68 5-97-106-129-160-40-68-56-162-144-164-53-1-27 78-45 121-7 56-12 123-28 170C157-4 113 24 66-1 46-11 40-39 49-87c19-111 19-139 19-313 0-144 1-187-40-242-27-37-13-94 26-108 103-36 250-59 389-41 63 8 182 85 165 149zm-140 11c-10-39-42-58-96-57-53 12-154 21-179 43-5 9-8 31-8 65 0 151 19 135 127 94 94-36 148-79 156-145" id="aa"/><path fill="#3a414a" d="M124-263c-35 66-34 145 48 148 123 4 181-83 228-164 25-43 39-112 56-175 10-38 71-24 112-19-3-2 3-3 17-5 16-1 53-13 81-13 27 0 41 24 41 71 0 40-36 55-84 52-85-6-79 38-97 92-26 76-77 141-127 193S273-8 178-8C75-7 2-90 2-198c0-60 26-138 68-183 14-25 55-61 38-86-33-82-14-184 44-240 46-44 96-77 175-89 71 14 93 9 145 63 26 27 36 56 36 81 1 14-14 22-27 22-22 6-81-90-114-79-79 2-182 98-182 157 0 80 86 1 126-4 45-5 79 65 39 91-44 28-96 45-129 81-25 28-73 76-97 121" id="ab"/><path fill="#3a414a" d="M49-77C44-40 70-4 106-4c52 0 58-115 69-176 33-185 88-339 106-531 5-55-37-120-88-84-58 41-108 94-156 139-9 8-27 43-27 58-1 28 35 54 60 54 15-1 48-23 43 15" id="ac"/><g id="j"><use transform="matrix(0.022222222222222223,0,0,0.022222222222222223,0,0)" xlink:href="#V"/><use transform="matrix(0.022222222222222223,0,0,0.022222222222222223,14.244444444444445,0)" xlink:href="#W"/><use transform="matrix(0.022222222222222223,0,0,0.022222222222222223,29.866666666666667,0)" xlink:href="#X"/><use transform="matrix(0.022222222222222223,0,0,0.022222222222222223,44.8,0)" xlink:href="#Y"/><use transform="matrix(0.022222222222222223,0,0,0.022222222222222223,59.08888888888889,0)" xlink:href="#Z"/><use transform="matrix(0.022222222222222223,0,0,0.022222222222222223,73.88888888888889,0)" xlink:href="#aa"/><use transform="matrix(0.022222222222222223,0,0,0.022222222222222223,87.62222222222222,0)" xlink:href="#ab"/><use transform="matrix(0.022222222222222223,0,0,0.022222222222222223,103.62222222222222,0)" xlink:href="#ac"/></g><path fill="#3a414a" d="M194-490c84-10 187-18 187 71 0 54-54 28-96 45-79 1-166 17-240 6-17-14-55-67-20-89 39-24 120-27 169-33zm-61 193c94 0 235-47 235 61 0 66-66 50-124 57-28 4-110 7-132 8-50 1-113-51-81-101 17-27 58-14 102-25" id="ad"/><g id="k"><use transform="matrix(0.022222222222222223,0,0,0.022222222222222223,0,0)" xlink:href="#ad"/><use transform="matrix(0.022222222222222223,0,0,0.022222222222222223,8.777777777777779,0)" xlink:href="#ad"/></g><path fill="#3a414a" d="M103-360c0-112 97-112 179-128 97-18 242-75 249-136 6-48-42-75-151-71-112 4-194 15-276 54-32 15-101 31-94-24 35-105 323-159 505-131 75 11 164 108 120 200-57 118-164 168-297 220-46 18-100 9-130 40-14 46-42 100-66 94-26 0-39-39-39-118zm112 214c60 54-29 135-88 135-48 0-65-33-51-98 18-31 37-56 89-54 19 0 36 5 50 17" id="ae"/><g id="l"><use transform="matrix(0.022222222222222223,0,0,0.022222222222222223,0,0)" xlink:href="#ac"/><use transform="matrix(0.022222222222222223,0,0,0.022222222222222223,6.288888888888889,0)" xlink:href="#ae"/></g><path d="M292-638c-67 2-113 14-176 21-81 9-112-68-58-103 132-46 304-52 470-66l65 5c50 52 43 111-50 111-45 0-75 15-112 18-18 16-19 83-24 152-7 108-21 214-33 322-5 46 36 20 67 20 54 0 81-10 139-16 43 25 50 62 23 110-151 29-311 50-490 79C58 24-8 22 3-44c14-83 161-45 224-90 22-16 24-69 29-107 17-126 33-258 36-397" id="af"/><path d="M371-533c189 0 256 55 239 237-9 91-67 138-157 205C374-33 301-7 236-7 155-7 13-82 18-160c3-44 62-73 96-38 43 44 152 73 218 29 77-51 166-125 156-169 2-44-67-63-119-62-47 1-108 1-155 3C87-393 13-429 1-531c11-87 101-150 165-187 90-52 160-96 290-87 34 2 118 78 115 115-3 35-23 38-55 45-15 4-26-4-33-24-37-64-116-1-164 12-41 11-154 77-154 113 0 15 14 22 41 22 45 0 127-11 165-11" id="ag"/><path d="M23-677c-68-88 127-122 212-122 113 0 253 24 291 82 92 144-48 310-153 365-52 27-102 48-161 69-56 20-53 15-58 80-4 49-8 103-13 153-3 31-19 46-43 46-44 0-65-28-63-81 5-162 8-330 16-486 3-53-4-75-28-106zm415 73c0-44-44-66-132-66-78 0-124 8-135 26-10 16-14 89-14 218 0 44 22 39 57 25 83-34 224-115 224-203" id="ah"/><path d="M21-302C-7-136 9 24 196-12c147-28 263-93 386-142 57-23 26-120-26-120-111 32-240 115-378 126-13 1-22-26-25-45 30-174 59-350 88-524 10-62-86-124-120-61-39 73-49 196-69 277-19 77-22 145-31 199" id="ai"/><path d="M192-85c-3 48 46 100 89 72 52-75 73-232 102-321 46-139 146-233 278-374 22-37 2-105-46-93-81 20-199 174-252 246-53 73-46 65-110 7-63-57-96-136-132-220-11-25-31-37-54-37-36-1-56 32-56 68 32 142 118 264 224 332 15 16 24 24 21 38" id="aj"/><g id="m"><use transform="matrix(0.017777777777777774,0,0,0.017777777777777774,0,0)" xlink:href="#z"/><use transform="matrix(0.017777777777777774,0,0,0.017777777777777774,10.737777777777776,0)" xlink:href="#af"/><use transform="matrix(0.017777777777777774,0,0,0.017777777777777774,22.026666666666664,0)" xlink:href="#ag"/><use transform="matrix(0.017777777777777774,0,0,0.017777777777777774,33.24444444444444,0)" xlink:href="#ah"/><use transform="matrix(0.017777777777777774,0,0,0.017777777777777774,43.271111111111104,0)" xlink:href="#ai"/><use transform="matrix(0.017777777777777774,0,0,0.017777777777777774,54.204444444444434,0)" xlink:href="#y"/><use transform="matrix(0.017777777777777774,0,0,0.017777777777777774,64.63999999999999,0)" xlink:href="#aj"/></g><path d="M44-443c79-191 208-366 448-366 141 0 239 118 267 253 46 222-61 413-213 490-83 42-221 78-338 30-55-23-106-43-129-82-26-14-80-140-57-202 2-41 8-89 22-123zm103 115c1 136 75 191 208 191 130 0 180-50 241-135 38-53 55-111 55-169 0-109-73-236-179-227-143 12-260 151-311 271-9 24-14 47-14 69" id="ak"/><g id="n"><use transform="matrix(0.017777777777777774,0,0,0.017777777777777774,0,0)" xlink:href="#ak"/><use transform="matrix(0.017777777777777774,0,0,0.017777777777777774,14.275555555555552,0)" xlink:href="#z"/><use transform="matrix(0.017777777777777774,0,0,0.017777777777777774,25.01333333333333,0)" xlink:href="#z"/></g><path d="M109-735c-25-57-110-11-99 37 30 130 91 291 122 410 18 69 44 132 72 190 44 90 75 116 148 73 102-105 149-290 208-441 32-82 48-168 48-261 0-51-15-77-46-77-38 0-59 34-73 100-35 160-89 312-149 454-40 95-58 66-91-37-28-90-54-179-79-263-24-79-42-141-61-185" id="al"/><g id="o"><use transform="matrix(0.017777777777777774,0,0,0.017777777777777774,0,0)" xlink:href="#x"/><use transform="matrix(0.017777777777777774,0,0,0.017777777777777774,11.839999999999998,0)" xlink:href="#al"/><use transform="matrix(0.017777777777777774,0,0,0.017777777777777774,22.77333333333333,0)" xlink:href="#x"/><use transform="matrix(0.017777777777777774,0,0,0.017777777777777774,34.61333333333333,0)" xlink:href="#A"/></g><path fill="#333" d="M221-124c-5 68 57 122 114 88 56-69 74-227 103-315 43-131 137-218 258-350 11-10 13-24 13-44 0-51-23-76-70-76-24 0-64 28-115 76-59 54-122 144-170 207-38-22-100-93-118-140l2 2c-5-9-14-22-18-32l2 3c-24-42-35-120-100-120-46 0-72 39-72 84 30 138 114 263 217 331 10 7 14 13 14 18" id="am"/><path fill="#333" d="M562-231c-119 0-201 32-308 40-14 1-42-3-40-14 7-43 5-108 16-155 15-24 58-17 92-28 55-18 122-10 191-10 29 0 63-18 62-50l-1 1c9-54-30-90-85-89l2 1c-79-20-172-1-247 10 3-27 1-57 6-86 80-35 193-36 303-41 17-1 37-7 58-16 38-58-8-126-51-147l1 1c-50-22-116-3-173 4-55 6-120 24-173 38l1-1c-58 17-141 13-134 97 6 67 3 142 3 213 0 107-34 195-34 299 0 91 55 147 155 140 120-8 214-45 346-45 28 0 55-3 82-5h-6c53-8 92-74 55-130-9-16-23-28-41-35-26 5-52 8-80 8zM242-525v-1 1" id="an"/><path fill="#333" d="M57-191C48-107 192-27 280-27c97 0 254-99 310-169 39-50 65-83 62-166-5-159-71-204-245-204-43 0-128 16-175 9 33-54 156-102 224-125 50-17 39 63 85 49 7-1 26-9 26-8 27 1 48-28 46-55-5-57-86-138-163-130-107 11-177 44-249 89-64 40-151 103-160 192 11 108 88 147 219 147 67 0 156-12 208 7 20 7 30 17 30 30 0 34-38 77-114 130 1-1 0-1 1-1-43 46-146 46-193 1-15-15-43-32-65-30-41 4-67 29-70 70" id="ao"/><g id="p"><use transform="matrix(0.017777777777777778,0,0,0.017777777777777778,0,0)" xlink:href="#am"/><use transform="matrix(0.017777777777777778,0,0,0.017777777777777778,11.982222222222223,0)" xlink:href="#an"/><use transform="matrix(0.017777777777777778,0,0,0.017777777777777778,23.840000000000003,0)" xlink:href="#ao"/></g><path fill="#333" d="M216-409c9 8 16 19 19 30-1 9 8 9 10 13 37 63 77 111 116 172 37 57 163 169 227 172 23 0 40-11 52-32 33-170 13-434 6-619-3-83-39-143-107-149-45-4-69 31-66 79 10 146 31 283 13 439-51-61-104-153-152-217-31-42-51-96-76-155l1 1c-28-66-40-134-124-136-97-1-69 150-80 250-17 150 12 295 5 444-2 50 15 62 51 88 19 2 42 3 59 3 35 2 66-46 57-86l1 1c-10-94-14-194-12-298zm39 2c4 1 2 2 0 3v-3zm229 115c0-2 0-3 1-4-1 1-1 3-1 4" id="ap"/><path fill="#333" d="M776-292c25-58 39-113 39-189 0-186-105-335-289-347-115-8-264 80-335 176-54 72-128 174-130 306-17 72 19 171 60 209C155-80 284-35 371-30c125 8 185-36 261-79 69-40 112-103 145-184zM507-656c91 0 151 106 151 197 0 107-87 221-167 253-29 11-88 21-133 13l1 1c-87-19-148-53-141-159 8-119 91-193 166-254 44-35 86-51 123-51" id="aq"/><g id="q"><use transform="matrix(0.017777777777777778,0,0,0.017777777777777778,0,0)" xlink:href="#ap"/><use transform="matrix(0.017777777777777778,0,0,0.017777777777777778,11.413333333333334,0)" xlink:href="#aq"/></g><path d="M593-790c58 0 99 54 77 117-5 13-15 16-35 14-70-7-152-3-229 7-31 20-24 81-26 127-4 138-16 277-16 422 0 32 4 70-21 83-26 36-88 7-103-20 1-182 10-346 21-521 2-27 11-81-18-84-73-7-138 11-206 3-20-18-39-18-32-51-3-78 74-91 145-91 129 0 251 6 369-8 25-3 49 2 74 2" id="ar"/><g id="r"><use transform="matrix(0.017777777777777764,0,0,0.017777777777777764,0,0)" xlink:href="#ag"/><use transform="matrix(0.017777777777777764,0,0,0.017777777777777764,11.21777777777777,0)" xlink:href="#ar"/><use transform="matrix(0.017777777777777764,0,0,0.017777777777777764,23.999999999999982,0)" xlink:href="#ak"/><use transform="matrix(0.017777777777777764,0,0,0.017777777777777764,38.27555555555553,0)" xlink:href="#ah"/></g></defs></g></svg>