<svg xmlns="http://www.w3.org/2000/svg" xmlns:xlink="http://www.w3.org/1999/xlink" xmlns:lucid="lucid" width="469" height="847"><g transform="translate(-364 -27)" lucid:page-tab-id="TACQSc2-eHtR"><path d="M628 140c17.67 0 32 17.9 32 40s-14.33 40-32 40h-96c-17.67 0-32-17.9-32-40s14.33-40 32-40z" stroke="#000" stroke-width="4" fill="#e3fae3"/><use xlink:href="#a" transform="matrix(1,0,0,1,505,145) translate(48.56444444444447 40.472222222222214)"/><path d="M473.45 280.97a1.3 1.3 0 0 1 1.25-.97h241.7a.77.77 0 0 1 .75.97l-26.54 99.55a1.3 1.3 0 0 1-1.25.96h-241.7a.77.77 0 0 1-.75-.96z" stroke="#000" stroke-width="4" fill-opacity="0"/><use xlink:href="#b" transform="matrix(1,0,0,1,451.64186146057773,285) translate(33.5338888888889 51.59722222222222)"/><use xlink:href="#c" transform="matrix(1,0,0,1,451.64186146057773,285) translate(82.8138888888889 51.59722222222222)"/><use xlink:href="#d" transform="matrix(1,0,0,1,451.64186146057773,285) translate(145.16055555555556 51.59722222222222)"/><path d="M380 49.2a6 6 0 0 1 6-6h428a6 6 0 0 1 6 6v48a6 6 0 0 1-6 6H386a6 6 0 0 1-6-6z" stroke="#000" stroke-opacity="0" fill="#fff3d9"/><use xlink:href="#e" transform="matrix(1,0,0,1,385,48.19022682518721) translate(8.907777777777795 32.05555555555556)"/><use xlink:href="#f" transform="matrix(1,0,0,1,385,48.19022682518721) translate(161.61222222222221 32.05555555555556)"/><use xlink:href="#g" transform="matrix(1,0,0,1,385,48.19022682518721) translate(217.22333333333333 32.05555555555556)"/><use xlink:href="#h" transform="matrix(1,0,0,1,385,48.19022682518721) translate(286.5966666666667 32.05555555555556)"/><path d="M446.64 441.48H717.4v120H446.65z" stroke="#000" stroke-width="4" fill-opacity="0"/><use xlink:href="#i" transform="matrix(1,0,0,1,458.6418614613573,453.4831290754064) translate(5.002222222222244 23.22222222222222)"/><use xlink:href="#j" transform="matrix(1,0,0,1,458.6418614613573,453.4831290754064) translate(94.92222222222223 23.22222222222222)"/><use xlink:href="#k" transform="matrix(1,0,0,1,458.6418614613573,453.4831290754064) translate(167.70444444444445 23.22222222222222)"/><use xlink:href="#l" transform="matrix(1,0,0,1,458.6418614613573,453.4831290754064) translate(208.5044444444444 23.22222222222222)"/><use xlink:href="#m" transform="matrix(1,0,0,1,458.6418614613573,453.4831290754064) translate(239.04666666666662 23.22222222222222)"/><use xlink:href="#n" transform="matrix(1,0,0,1,458.6418614613573,453.4831290754064) translate(18.30000000000001 42.315555555555555)"/><use xlink:href="#o" transform="matrix(1,0,0,1,458.6418614613573,453.4831290754064) translate(64.98444444444445 42.315555555555555)"/><use xlink:href="#p" transform="matrix(1,0,0,1,458.6418614613573,453.4831290754064) translate(110.49555555555555 42.315555555555555)"/><use xlink:href="#q" transform="matrix(1,0,0,1,458.6418614613573,453.4831290754064) translate(173.9622222222222 42.315555555555555)"/><use xlink:href="#r" transform="matrix(1,0,0,1,458.6418614613573,453.4831290754064) translate(51.87333333333335 61.40888888888889)"/><use xlink:href="#s" transform="matrix(1,0,0,1,458.6418614613573,453.4831290754064) translate(89.72222222222223 61.40888888888889)"/><use xlink:href="#q" transform="matrix(1,0,0,1,458.6418614613573,453.4831290754064) translate(140.38888888888889 61.40888888888889)"/><use xlink:href="#t" transform="matrix(1,0,0,1,458.6418614613573,453.4831290754064) translate(64.2377777777778 80.50222222222223)"/><path d="M628 782.97c17.67 0 32 17.9 32 40s-14.33 40-32 40h-96c-17.67 0-32-17.9-32-40s14.33-40 32-40z" stroke="#000" stroke-width="4" fill="#fff0f0"/><g><use xlink:href="#u" transform="matrix(1,0,0,1,505,787.9662581508128) translate(50.848888888888894 40.47222222222222)"/></g><path d="M582.03 385.48V416.74" stroke="#000" stroke-width="4" fill="none"/><path d="M584.03 385.53h-4v-2.05h4z" stroke="#000" stroke-width=".05"/><path d="M582.03 433l-4.64-14.26h9.26z" stroke="#000" stroke-width="4"/><path d="M473.45 622.45a1.3 1.3 0 0 1 1.25-.97h241.7a.77.77 0 0 1 .75.97L690.6 722a1.3 1.3 0 0 1-1.25.97h-241.7a.77.77 0 0 1-.75-.97z" stroke="#000" stroke-width="4" fill-opacity="0"/><g><use xlink:href="#v" transform="matrix(1,0,0,1,451.6418614613573,626.4831290754064) translate(48.325000000000024 51.59722222222222)"/><use xlink:href="#w" transform="matrix(1,0,0,1,451.6418614613573,626.4831290754064) translate(130.20944444444444 51.59722222222222)"/></g><path d="M582.03 565.48v31.26" stroke="#3a414a" stroke-width="4" fill="none"/><path d="M584.03 565.53h-4v-2.05h4z" stroke="#3a414a" stroke-width=".05" fill="#3a414a"/><path d="M582.03 613l-4.64-14.25h9.26z" stroke="#3a414a" stroke-width="4" fill="#3a414a"/><path d="M582.03 726.97v31.26" stroke="#3a414a" stroke-width="4" fill="none"/><path d="M584.03 727.02h-4v-2.05h4z" stroke="#3a414a" stroke-width=".05" fill="#3a414a"/><path d="M582.03 774.5l-4.64-14.27h9.26z" stroke="#3a414a" stroke-width="4" fill="#3a414a"/><path d="M580 224v31.26" stroke="#3a414a" stroke-width="4" fill="none"/><path d="M582 224.05h-4V222h4z" stroke="#3a414a" stroke-width=".05" fill="#3a414a"/><path d="M580 271.53l-4.63-14.27h9.26z" stroke="#3a414a" stroke-width="4" fill="#3a414a"/><defs><path d="M371-533c189 0 256 55 239 237-9 91-67 138-157 205C374-33 301-7 236-7 155-7 13-82 18-160c3-44 62-73 96-38 43 44 152 73 218 29 77-51 166-125 156-169 2-44-67-63-119-62-47 1-108 1-155 3C87-393 13-429 1-531c11-87 101-150 165-187 90-52 160-96 290-87 34 2 118 78 115 115-3 35-23 38-55 45-15 4-26-4-33-24-37-64-116-1-164 12-41 11-154 77-154 113 0 15 14 22 41 22 45 0 127-11 165-11" id="x"/><path d="M382-556c-3 158-18 304-18 470 0 31 6 72-21 86-20 35-87 21-104-6-1-188 14-367 23-549 1-24 13-80-17-80-77 0-131 31-210 31-15-10-43-18-33-45 0-82 83-94 148-109 103-23 215-12 315-40 43-12 91-17 142-23 62-8 95 53 77 116-8 28-47 14-75 18-68 9-134 10-195 30-32 11-31 60-32 101" id="y"/><path d="M103-24C79 10-2-14 8-59c42-186 129-353 193-524 23-62 63-135 99-197 39-38 106-10 109 47 27 100 51 209 81 307 8 25 72 24 72 63 0 44-26 46-37 75 12 83 46 156 55 243 7 63-106 47-114 11-13-58-36-170-57-231-3-4-7-8-9-14-69 4-134 40-198 52-53 21-53 108-81 160-4 16-8 29-18 43zm215-551c-16 18-92 195-73 208 46 2 100-12 123-31-5-30-32-162-38-171-2-3-6-5-12-6" id="z"/><path d="M608-642l-20 77c-36 56-69 94-113 138-49 48-58 40-29 81 33 46 69 89 97 147 44 89 52 141 40 147-3 38-20 49-63 52-68 5-97-106-129-160-40-68-56-162-144-164-53-1-27 78-45 121-7 56-12 123-28 170C157-4 113 24 66-1 46-11 40-39 49-87c19-111 19-139 19-313 0-144 1-187-40-242-27-37-13-94 26-108 103-36 250-59 389-41 63 8 182 85 165 149zm-140 11c-10-39-42-58-96-57-53 12-154 21-179 43-5 9-8 31-8 65 0 151 19 135 127 94 94-36 148-79 156-145" id="A"/><g id="a"><use transform="matrix(0.017777777777777764,0,0,0.017777777777777764,0,0)" xlink:href="#x"/><use transform="matrix(0.017777777777777764,0,0,0.017777777777777764,10.133333333333326,0)" xlink:href="#y"/><use transform="matrix(0.017777777777777764,0,0,0.017777777777777764,19.253333333333313,0)" xlink:href="#z"/><use transform="matrix(0.017777777777777764,0,0,0.017777777777777764,29.68888888888886,0)" xlink:href="#A"/><use transform="matrix(0.017777777777777764,0,0,0.017777777777777764,40.67555555555552,0)" xlink:href="#y"/></g><path d="M608-642l-20 77c-36 56-69 94-113 138-49 48-58 40-29 81 33 46 69 89 97 147 44 89 52 141 40 147-3 38-20 49-63 52-68 5-97-106-129-160-40-68-56-162-144-164-53-1-27 78-45 121-7 56-12 123-28 170C157-4 113 24 66-1 46-11 40-39 49-87c19-111 19-139 19-313 0-144 1-187-40-242-27-37-13-94 26-108 103-36 250-59 389-41 63 8 182 85 165 149zm-140 11c-10-39-42-58-96-57-53 12-154 21-179 43-5 9-8 31-8 65 0 151 19 135 127 94 94-36 148-79 156-145" id="B"/><path d="M330-158c82-22 193-18 286-31 38 11 58 81 24 113-25 24-71 25-116 25-135 0-238 34-358 47C61 7 4-52 15-159c12-113 37-213 32-340-2-59 2-121-2-178-2-44 35-62 81-61 104-31 222-52 345-64 68-7 103 34 111 94 2 12-3 22-9 31-33 14-62 15-103 16-100 2-196 10-270 40h-8c-18 23-11 79-15 106-1 13 5 22 16 25 82-10 176-25 264-12 44 7 78 26 71 72-7 49-76 30-125 30-78 0-138 22-210 29-24 1-35 28-36 52-2 41-10 83-8 126-19 84 122 51 181 35" id="C"/><path d="M103-24C79 10-2-14 8-59c42-186 129-353 193-524 23-62 63-135 99-197 39-38 106-10 109 47 27 100 51 209 81 307 8 25 72 24 72 63 0 44-26 46-37 75 12 83 46 156 55 243 7 63-106 47-114 11-13-58-36-170-57-231-3-4-7-8-9-14-69 4-134 40-198 52-53 21-53 108-81 160-4 16-8 29-18 43zm215-551c-16 18-92 195-73 208 46 2 100-12 123-31-5-30-32-162-38-171-2-3-6-5-12-6" id="D"/><path d="M19-91c0-222 71-428 58-668-3-62 121-44 170-33 118 27 229 50 293 128 44 53 63 97 63 217 0 165-189 328-383 400-36 13-62 45-108 45-66 0-93-23-93-89zm185-582c-30 151-43 322-58 489 5 39 27 28 60 14 129-54 276-147 276-304 0-155-106-203-278-199" id="E"/><g id="b"><use transform="matrix(0.017777777777777774,0,0,0.017777777777777774,0,0)" xlink:href="#B"/><use transform="matrix(0.017777777777777774,0,0,0.017777777777777774,10.986666666666665,0)" xlink:href="#C"/><use transform="matrix(0.017777777777777774,0,0,0.017777777777777774,22.82666666666666,0)" xlink:href="#D"/><use transform="matrix(0.017777777777777774,0,0,0.017777777777777774,33.26222222222221,0)" xlink:href="#E"/></g><path d="M593-790c58 0 99 54 77 117-5 13-15 16-35 14-70-7-152-3-229 7-31 20-24 81-26 127-4 138-16 277-16 422 0 32 4 70-21 83-26 36-88 7-103-20 1-182 10-346 21-521 2-27 11-81-18-84-73-7-138 11-206 3-20-18-39-18-32-51-3-78 74-91 145-91 129 0 251 6 369-8 25-3 49 2 74 2" id="F"/><path d="M107-780c100 15 51 176 51 272 0 29 23 25 56 24 33-11 175 4 171-42 9-67 4-153 14-224 12-14 39-57 70-50 51 0 74 34 69 103L490-47c-6 28-25 57-57 56-118-5-54-182-54-299 0-34 3-75-15-85-65 6-127 12-191 19-52 29-23 162-29 239C135-7 87 19 22-30 10-48 7-67 13-88c-16-100 8-215 8-322 0-127-9-364 86-370" id="G"/><g id="c"><use transform="matrix(0.017777777777777774,0,0,0.017777777777777774,0,0)" xlink:href="#F"/><use transform="matrix(0.017777777777777774,0,0,0.017777777777777774,12.78222222222222,0)" xlink:href="#G"/><use transform="matrix(0.017777777777777774,0,0,0.017777777777777774,22.4,0)" xlink:href="#B"/><use transform="matrix(0.017777777777777774,0,0,0.017777777777777774,33.38666666666666,0)" xlink:href="#C"/><use transform="matrix(0.017777777777777774,0,0,0.017777777777777774,45.22666666666666,0)" xlink:href="#C"/></g><path d="M24-128c0-158-18-313-5-472 6-74-11-192 62-191 78 1 88 68 113 130 59 143 102 191 174 297 50 73 81 109 92 109 8 0 12-3 13-9 24-163 3-322-12-477-6-63 62-76 101-37 65 64 45 212 54 340 10 141 7 304-15 413-8 15-20 23-37 23-76 0-203-132-244-200-33-54-79-109-116-169l4 4c-9-20-41-55-54-51-14 102-5 244 6 344 3 30-15 69-41 68-9 0-28-1-56-3-44-28-39-45-39-119" id="H"/><path d="M106-737c41-53 131 12 108 86-42 139-71 285-71 455 0 88 72 66 143 48 49-12 128-35 183-63 38-19 36-69 44-119 17-114 31-247 31-354 0-57 26-85 79-85 37 0 55 27 55 81 0 190-34 397-59 573 4 31 20 93-13 105-8 10-30 7-65-8-16-20-33-38-51-54C397-48 305 0 205 0 79 0 5-43 13-176c13-196 50-391 93-561" id="I"/><path d="M629-645c28 177 9 401 28 582 3 29-18 50-47 50-97 0-67-194-71-306-1-24-4-66-3-92 1-39-15-57-30-33-49 79-88 161-139 243-9 15-21 23-34 23-33 0-70-69-89-115-10-23-57-152-73-152-28 0-27 119-31 162-9 93-16 174-27 265-2 3-35 21-48 20-71-3-50-117-43-176 24-211 38-410 84-595 39-67 121 2 138 59 22 73 63 167 84 249 7 23 13 34 20 34 17 0 54-75 107-225 17-48 42-155 115-96 31 25 52 57 59 103" id="J"/><path d="M68-174c-8-157-1-333-1-488 0-23-21-28-12-60 24-87 141-85 256-77 161 12 317 42 251 258-5 17-40 45-44 60 15 30 85 80 98 123 62 108 25 192-76 258C455-45 341-9 207-4 145-2 19-30 19-85c0-36 51-41 49-89zm137-510c-18 6-26 137-16 192 30 22 66 2 112-6 70-13 158-95 159-132 17-68-169-82-255-54zm-15 330c-15 57-2 155 5 215 6 4 6 12 18 11 101-5 211-32 267-82 52-46 58-91 12-140s-73-73-81-73c-39 14-121 48-173 54-15 2-34 14-48 15" id="K"/><path d="M371-533c189 0 256 55 239 237-9 91-67 138-157 205C374-33 301-7 236-7 155-7 13-82 18-160c3-44 62-73 96-38 43 44 152 73 218 29 77-51 166-125 156-169 2-44-67-63-119-62-47 1-108 1-155 3C87-393 13-429 1-531c11-87 101-150 165-187 90-52 160-96 290-87 34 2 118 78 115 115-3 35-23 38-55 45-15 4-26-4-33-24-37-64-116-1-164 12-41 11-154 77-154 113 0 15 14 22 41 22 45 0 127-11 165-11" id="L"/><g id="d"><use transform="matrix(0.017777777777777774,0,0,0.017777777777777774,0,0)" xlink:href="#H"/><use transform="matrix(0.017777777777777774,0,0,0.017777777777777774,11.395555555555553,0)" xlink:href="#I"/><use transform="matrix(0.017777777777777774,0,0,0.017777777777777774,23.893333333333334,0)" xlink:href="#J"/><use transform="matrix(0.017777777777777774,0,0,0.017777777777777774,35.839999999999996,0)" xlink:href="#K"/><use transform="matrix(0.017777777777777774,0,0,0.017777777777777774,47.271111111111104,0)" xlink:href="#C"/><use transform="matrix(0.017777777777777774,0,0,0.017777777777777774,59.1111111111111,0)" xlink:href="#B"/><use transform="matrix(0.017777777777777774,0,0,0.017777777777777774,70.09777777777776,0)" xlink:href="#L"/></g><path fill="#3a414a" d="M247-491c4-58-16-131 34-141 82-16 176-39 255-55 40-8 54-21 55-68 2-89-94-75-175-63-118 17-292 45-359 106-23 21-20 70-5 98 12 11 43 7 43 25 0 45 0 79-2 117-13 22-33 46-32 81 30 86 13 210 13 321 0 45 55 52 97 50 59-25 38-242 50-304 5-22 30-20 56-26 78-17 169-21 238-43 27-8 39-31 39-61 0-46-28-69-84-69-71 0-156 16-210 32h-13" id="M"/><path fill="#3a414a" d="M50-194C40-28 200 0 338-54c94-37 183-73 272-114 29-13 41-37 41-62 0-44-32-91-71-89-30 3-148 61-190 76l1-1c-45 16-110 45-165 45 1 0 0-5-3-15l1 1-3-11c27-168 60-333 82-502 10-75-103-138-147-64-8 14-17 32-20 54l1-1c-6 17-8 35-12 54l1-2C92-532 60-361 50-194" id="N"/><path fill="#3a414a" d="M776-292c25-58 39-113 39-189 0-186-105-335-289-347-115-8-264 80-335 176-54 72-128 174-130 306-17 72 19 171 60 209C155-80 284-35 371-30c125 8 185-36 261-79 69-40 112-103 145-184zM507-656c91 0 151 106 151 197 0 107-87 221-167 253-29 11-88 21-133 13l1 1c-87-19-148-53-141-159 8-119 91-193 166-254 44-35 86-51 123-51" id="O"/><path fill="#3a414a" d="M801-816c-117 0-37 170-64 263l1-1c-15 67-25 131-43 194-17 60-32 90-42 90-80-84-72-255-129-356-25-43-100-46-123 6-3 9-10 16-13 25l1-1c-8 20-18 38-27 56h3c-37 81-75 146-113 224-14 27-22 40-25 40-20-121-1-292-18-429-7-54-40-79-81-79-96 0-69 186-67 280 4 147 38 414 86 451 74 56 110 33 172-59 29-43 113-203 127-220 48 94 116 279 229 289 100-11 151-212 184-307 29-83 39-155 39-263 0-135-32-203-97-203" id="P"/><path fill="#3a414a" d="M603-651c0-97-31-172-120-170-102 1-164 75-214 132-81 91-127 171-181 277-30 59-52 189-20 259C104-74 204-5 336-32c36-8 99-21 126-45 137-73 206-137 206-191 0-71-82-87-131-48-77 62-149 135-266 145-97 8-92-125-54-190 41-69 89-162 136-217 46-53 83-81 115-81 30 22 11 105 74 105 41 0 61-32 61-97" id="Q"/><path fill="#3a414a" d="M211-150c2-56-6-121 2-175-6-57 39-29 77-42l99-9c10 81-7 183-7 268 0 63 24 95 79 97 39 2 67-28 71-64 21-214 34-430 47-645 5-79-45-113-114-95-24 14-42 35-54 58-5 60-4 122-9 186-4 49 4 36-56 43-40 4-81 13-122 10 3-61 9-119 11-180 2-53-31-103-77-103-110 0-98 263-98 399 0 91-21 189-9 280-5 25 0 47 13 66 72 60 142 31 147-94zm10-369c0-2 1 0 1 0h-1" id="R"/><path fill="#3a414a" d="M70-181C36-106 39-36 121-28c46 4 59-41 69-68 14-40 27-86 43-123 28-31 91-34 132-52 22-9 42-12 57-14 23 70 34 146 54 220 8 29 38 43 83 43 40 0 60-20 60-60 0-87-40-149-50-230 28-18 51-84 14-113-11-9-44-19-50-27-27-105-52-214-82-316-19-65-108-61-136-9-73 134-133 295-189 435-24 59-31 107-56 161zm286-369c8 39 19 86 26 125-22 9-48 16-78 17 14-39 32-102 52-142" id="S"/><path fill="#3a414a" d="M173-13c102-20 79-163 100-261 0-7 2-19 3-27-8-47 57-27 68-2 40 53 67 131 101 192l-1-1c19 54 59 97 104 92 43-5 70-16 73-58 13-23 7-37-3-71-6-23-15-54-34-88-35-66-68-105-104-161 56-50 105-104 147-170 6-29 17-55 20-85 6-72-103-151-170-159l2 1c-139-21-303 2-392 48-38 20-46 85-18 123 36 48 34 126 35 220 2 188-7 191-22 334-6 57 41 80 92 72zm83-631c46-6 199-69 222 5-8 54-52 92-132 119-94 31-95 61-95-72 0-28 2-45 5-52zm67 321l-3-1c1 1 2 1 3 1" id="T"/><path fill="#3a414a" d="M450-642c81-9 156-10 231-4 26-13 36-35 36-67 0-81-74-112-168-99-140 19-319-7-450 25-32 17-54 46-55 91v-3c-8 40 21 48 42 67 65 10 127-7 202-2-4 181-23 372-21 564 20 34 93 71 130 26 41-30 19-113 21-180 3-100 12-190 18-284l-1 1c5-43-7-105 15-135" id="U"/><g id="e"><use transform="matrix(0.024444444444444442,0,0,0.024444444444444442,0,0)" xlink:href="#M"/><use transform="matrix(0.024444444444444442,0,0,0.024444444444444442,13.59111111111111,0)" xlink:href="#N"/><use transform="matrix(0.024444444444444442,0,0,0.024444444444444442,28.673333333333332,0)" xlink:href="#O"/><use transform="matrix(0.024444444444444442,0,0,0.024444444444444442,48.30222222222222,0)" xlink:href="#P"/><use transform="matrix(0.024444444444444442,0,0,0.024444444444444442,69.54444444444444,0)" xlink:href="#Q"/><use transform="matrix(0.024444444444444442,0,0,0.024444444444444442,85.06666666666666,0)" xlink:href="#R"/><use transform="matrix(0.024444444444444442,0,0,0.024444444444444442,98.33999999999999,0)" xlink:href="#S"/><use transform="matrix(0.024444444444444442,0,0,0.024444444444444442,112.73777777777777,0)" xlink:href="#T"/><use transform="matrix(0.024444444444444442,0,0,0.024444444444444442,127.86888888888888,0)" xlink:href="#U"/></g><path fill="#3a414a" d="M247-491c4-58-16-131 34-141 82-16 176-39 255-55 40-8 54-21 55-68 2-89-94-75-175-63-118 17-292 45-359 106-23 21-20 70-5 98 12 11 43 7 43 25 0 45 0 79-2 117-13 22-33 46-32 81 30 86 13 210 13 321 0 45 55 52 97 50 59-25 38-242 50-304 5-22 30-20 56-26 78-17 169-21 238-43 27-8 39-31 39-61 0-46-28-69-84-69-71 0-156 16-210 32h-13" id="V"/><g id="f"><use transform="matrix(0.024444444444444442,0,0,0.024444444444444442,0,0)" xlink:href="#V"/><use transform="matrix(0.024444444444444442,0,0,0.024444444444444442,13.59111111111111,0)" xlink:href="#O"/><use transform="matrix(0.024444444444444442,0,0,0.024444444444444442,33.22,0)" xlink:href="#T"/></g><path fill="#3a414a" d="M633-32c99 0 53-140 53-231 0-160 17-350-41-466-13-25-59-60-90-60-48-2-72 81-86 122-47 132-74 199-82 202-15-90-57-183-81-259-17-55-61-93-116-93-21 0-40 12-48 39-59 200-67 431-92 658C43-58 89 6 151-27c16-9 25-11 33-23 14-128 27-256 35-392 34 77 71 239 153 252 64-12 80-94 111-139 24-35 42-76 62-112 2 86 2 175 2 264 0 97 29 145 86 145" id="W"/><path fill="#3a414a" d="M42-70c0 87 115 70 183 54l-1 1c168-29 298-46 412-66 37-61 31-107-28-144-59 12-120 13-178 22 6-108 31-217 31-327 0-55 4-92 13-111 33-5 63-9 97-17 108 2 116-84 54-143-115-14-235 13-335 17-9 1-17 2-25 5l1-1c-26 5-56 8-80 15l1-1c-64 12-112 20-118 81-8 89 119 84 199 63-6 0 1-1 3-1 14-2 24 0 41-3 2 126-16 240-31 354-4 28-1 78-21 91-30 19-88 18-126 30l1-1c-53 5-93 24-93 82" id="X"/><path fill="#3a414a" d="M216-409c9 8 16 19 19 30-1 9 8 9 10 13 37 63 77 111 116 172 37 57 163 169 227 172 23 0 40-11 52-32 33-170 13-434 6-619-3-83-39-143-107-149-45-4-69 31-66 79 10 146 31 283 13 439-51-61-104-153-152-217-31-42-51-96-76-155l1 1c-28-66-40-134-124-136-97-1-69 150-80 250-17 150 12 295 5 444-2 50 15 62 51 88 19 2 42 3 59 3 35 2 66-46 57-86l1 1c-10-94-14-194-12-298zm39 2c4 1 2 2 0 3v-3zm229 115c0-2 0-3 1-4-1 1-1 3-1 4" id="Y"/><g id="g"><use transform="matrix(0.024444444444444442,0,0,0.024444444444444442,0,0)" xlink:href="#W"/><use transform="matrix(0.024444444444444442,0,0,0.024444444444444442,16.45111111111111,0)" xlink:href="#S"/><use transform="matrix(0.024444444444444442,0,0,0.024444444444444442,30.848888888888887,0)" xlink:href="#X"/><use transform="matrix(0.024444444444444442,0,0,0.024444444444444442,46.419999999999995,0)" xlink:href="#Y"/></g><path fill="#3a414a" d="M615-24c62 1 58-78 47-128 24-171 55-356 55-541 0-64-23-96-70-96-71-1-99 44-94 123-15 114-18 275-42 381-6 28-34 35-58 44-76 27-135 58-212 58-42 0-27-72-25-115 4-84 25-172 38-251l-1 1c12-62 61-162-1-204l2 1c-43-49-114-25-124 36-27 163-69 328-78 509-3 62 15 122 50 146 37 26 87 40 150 40 41 0 198-44 262-67 14 13 28 28 43 46 26 11 45 17 58 17" id="Z"/><path fill="#3a414a" d="M134-345c49 1 97-57 97-108 0-47-47-85-91-85-59 0-87 37-87 93s29 99 81 100zm-2 282c73 0 133-118 63-170-59-44-144-14-144 71 0 55 27 99 81 99" id="aa"/><g id="h"><use transform="matrix(0.024444444444444442,0,0,0.024444444444444442,0,0)" xlink:href="#V"/><use transform="matrix(0.024444444444444442,0,0,0.024444444444444442,13.59111111111111,0)" xlink:href="#Z"/><use transform="matrix(0.024444444444444442,0,0,0.024444444444444442,30.77555555555555,0)" xlink:href="#Y"/><use transform="matrix(0.024444444444444442,0,0,0.024444444444444442,46.468888888888884,0)" xlink:href="#Q"/><use transform="matrix(0.024444444444444442,0,0,0.024444444444444442,61.9911111111111,0)" xlink:href="#U"/><use transform="matrix(0.024444444444444442,0,0,0.024444444444444442,79.56666666666666,0)" xlink:href="#X"/><use transform="matrix(0.024444444444444442,0,0,0.024444444444444442,95.13777777777777,0)" xlink:href="#O"/><use transform="matrix(0.024444444444444442,0,0,0.024444444444444442,114.76666666666665,0)" xlink:href="#Y"/><use transform="matrix(0.024444444444444442,0,0,0.024444444444444442,130.45999999999998,0)" xlink:href="#aa"/></g><path fill="#3a414a" d="M521-275c40-33 108-24 108 34 0 49-75 103-210 183-80 47-247 72-323 10-66-54-95-101-82-218 12-106 41-136 91-224 55-96 145-209 240-278 32-23 68-33 107-33 86 2 108 61 107 158 0 55-15 82-44 82-55 1-25-116-79-110-132 15-229 223-291 334-48 86-31 226 81 218 122-9 217-92 295-156" id="ab"/><path fill="#3a414a" d="M44-443c79-191 208-366 448-366 141 0 239 118 267 253 46 222-61 413-213 490-83 42-221 78-338 30-55-23-106-43-129-82-26-14-80-140-57-202 2-41 8-89 22-123zm103 115c1 136 75 191 208 191 130 0 180-50 241-135 38-53 55-111 55-169 0-109-73-236-179-227-143 12-260 151-311 271-9 24-14 47-14 69" id="ac"/><path fill="#3a414a" d="M629-645c28 177 9 401 28 582 3 29-18 50-47 50-97 0-67-194-71-306-1-24-4-66-3-92 1-39-15-57-30-33-49 79-88 161-139 243-9 15-21 23-34 23-33 0-70-69-89-115-10-23-57-152-73-152-28 0-27 119-31 162-9 93-16 174-27 265-2 3-35 21-48 20-71-3-50-117-43-176 24-211 38-410 84-595 39-67 121 2 138 59 22 73 63 167 84 249 7 23 13 34 20 34 17 0 54-75 107-225 17-48 42-155 115-96 31 25 52 57 59 103" id="ad"/><path fill="#3a414a" d="M23-677c-68-88 127-122 212-122 113 0 253 24 291 82 92 144-48 310-153 365-52 27-102 48-161 69-56 20-53 15-58 80-4 49-8 103-13 153-3 31-19 46-43 46-44 0-65-28-63-81 5-162 8-330 16-486 3-53-4-75-28-106zm415 73c0-44-44-66-132-66-78 0-124 8-135 26-10 16-14 89-14 218 0 44 22 39 57 25 83-34 224-115 224-203" id="ae"/><path fill="#3a414a" d="M106-737c41-53 131 12 108 86-42 139-71 285-71 455 0 88 72 66 143 48 49-12 128-35 183-63 38-19 36-69 44-119 17-114 31-247 31-354 0-57 26-85 79-85 37 0 55 27 55 81 0 190-34 397-59 573 4 31 20 93-13 105-8 10-30 7-65-8-16-20-33-38-51-54C397-48 305 0 205 0 79 0 5-43 13-176c13-196 50-391 93-561" id="af"/><path fill="#3a414a" d="M593-790c58 0 99 54 77 117-5 13-15 16-35 14-70-7-152-3-229 7-31 20-24 81-26 127-4 138-16 277-16 422 0 32 4 70-21 83-26 36-88 7-103-20 1-182 10-346 21-521 2-27 11-81-18-84-73-7-138 11-206 3-20-18-39-18-32-51-3-78 74-91 145-91 129 0 251 6 369-8 25-3 49 2 74 2" id="ag"/><path fill="#3a414a" d="M330-158c82-22 193-18 286-31 38 11 58 81 24 113-25 24-71 25-116 25-135 0-238 34-358 47C61 7 4-52 15-159c12-113 37-213 32-340-2-59 2-121-2-178-2-44 35-62 81-61 104-31 222-52 345-64 68-7 103 34 111 94 2 12-3 22-9 31-33 14-62 15-103 16-100 2-196 10-270 40h-8c-18 23-11 79-15 106-1 13 5 22 16 25 82-10 176-25 264-12 44 7 78 26 71 72-7 49-76 30-125 30-78 0-138 22-210 29-24 1-35 28-36 52-2 41-10 83-8 126-19 84 122 51 181 35" id="ah"/><g id="i"><use transform="matrix(0.017777777777777774,0,0,0.017777777777777774,0,0)" xlink:href="#ab"/><use transform="matrix(0.017777777777777774,0,0,0.017777777777777774,11.271111111111109,0)" xlink:href="#ac"/><use transform="matrix(0.017777777777777774,0,0,0.017777777777777774,25.546666666666663,0)" xlink:href="#ad"/><use transform="matrix(0.017777777777777774,0,0,0.017777777777777774,37.493333333333325,0)" xlink:href="#ae"/><use transform="matrix(0.017777777777777774,0,0,0.017777777777777774,47.51999999999999,0)" xlink:href="#af"/><use transform="matrix(0.017777777777777774,0,0,0.017777777777777774,60.017777777777766,0)" xlink:href="#ag"/><use transform="matrix(0.017777777777777774,0,0,0.017777777777777774,72.79999999999998,0)" xlink:href="#ah"/></g><path fill="#3a414a" d="M68-174c-8-157-1-333-1-488 0-23-21-28-12-60 24-87 141-85 256-77 161 12 317 42 251 258-5 17-40 45-44 60 15 30 85 80 98 123 62 108 25 192-76 258C455-45 341-9 207-4 145-2 19-30 19-85c0-36 51-41 49-89zm137-510c-18 6-26 137-16 192 30 22 66 2 112-6 70-13 158-95 159-132 17-68-169-82-255-54zm-15 330c-15 57-2 155 5 215 6 4 6 12 18 11 101-5 211-32 267-82 52-46 58-91 12-140s-73-73-81-73c-39 14-121 48-173 54-15 2-34 14-48 15" id="ai"/><path fill="#3a414a" d="M292-638c-67 2-113 14-176 21-81 9-112-68-58-103 132-46 304-52 470-66l65 5c50 52 43 111-50 111-45 0-75 15-112 18-18 16-19 83-24 152-7 108-21 214-33 322-5 46 36 20 67 20 54 0 81-10 139-16 43 25 50 62 23 110-151 29-311 50-490 79C58 24-8 22 3-44c14-83 161-45 224-90 22-16 24-69 29-107 17-126 33-258 36-397" id="aj"/><path fill="#3a414a" d="M24-128c0-158-18-313-5-472 6-74-11-192 62-191 78 1 88 68 113 130 59 143 102 191 174 297 50 73 81 109 92 109 8 0 12-3 13-9 24-163 3-322-12-477-6-63 62-76 101-37 65 64 45 212 54 340 10 141 7 304-15 413-8 15-20 23-37 23-76 0-203-132-244-200-33-54-79-109-116-169l4 4c-9-20-41-55-54-51-14 102-5 244 6 344 3 30-15 69-41 68-9 0-28-1-56-3-44-28-39-45-39-119" id="ak"/><path fill="#3a414a" d="M103-24C79 10-2-14 8-59c42-186 129-353 193-524 23-62 63-135 99-197 39-38 106-10 109 47 27 100 51 209 81 307 8 25 72 24 72 63 0 44-26 46-37 75 12 83 46 156 55 243 7 63-106 47-114 11-13-58-36-170-57-231-3-4-7-8-9-14-69 4-134 40-198 52-53 21-53 108-81 160-4 16-8 29-18 43zm215-551c-16 18-92 195-73 208 46 2 100-12 123-31-5-30-32-162-38-171-2-3-6-5-12-6" id="al"/><path fill="#3a414a" d="M608-642l-20 77c-36 56-69 94-113 138-49 48-58 40-29 81 33 46 69 89 97 147 44 89 52 141 40 147-3 38-20 49-63 52-68 5-97-106-129-160-40-68-56-162-144-164-53-1-27 78-45 121-7 56-12 123-28 170C157-4 113 24 66-1 46-11 40-39 49-87c19-111 19-139 19-313 0-144 1-187-40-242-27-37-13-94 26-108 103-36 250-59 389-41 63 8 182 85 165 149zm-140 11c-10-39-42-58-96-57-53 12-154 21-179 43-5 9-8 31-8 65 0 151 19 135 127 94 94-36 148-79 156-145" id="am"/><path fill="#3a414a" d="M192-85c-3 48 46 100 89 72 52-75 73-232 102-321 46-139 146-233 278-374 22-37 2-105-46-93-81 20-199 174-252 246-53 73-46 65-110 7-63-57-96-136-132-220-11-25-31-37-54-37-36-1-56 32-56 68 32 142 118 264 224 332 15 16 24 24 21 38" id="an"/><g id="j"><use transform="matrix(0.017777777777777774,0,0,0.017777777777777774,0,0)" xlink:href="#ai"/><use transform="matrix(0.017777777777777774,0,0,0.017777777777777774,11.43111111111111,0)" xlink:href="#aj"/><use transform="matrix(0.017777777777777774,0,0,0.017777777777777774,22.719999999999995,0)" xlink:href="#ak"/><use transform="matrix(0.017777777777777774,0,0,0.017777777777777774,34.115555555555545,0)" xlink:href="#al"/><use transform="matrix(0.017777777777777774,0,0,0.017777777777777774,44.5511111111111,0)" xlink:href="#am"/><use transform="matrix(0.017777777777777774,0,0,0.017777777777777774,55.537777777777755,0)" xlink:href="#an"/></g><path fill="#3a414a" d="M19-91c0-222 71-428 58-668-3-62 121-44 170-33 118 27 229 50 293 128 44 53 63 97 63 217 0 165-189 328-383 400-36 13-62 45-108 45-66 0-93-23-93-89zm185-582c-30 151-43 322-58 489 5 39 27 28 60 14 129-54 276-147 276-304 0-155-106-203-278-199" id="ao"/><path fill="#3a414a" d="M39 59C84 43 157-10 157-69c0-34-42-63-77-61-70 4-68 99-68 162 0 18 9 27 27 27" id="ap"/><g id="k"><use transform="matrix(0.017777777777777774,0,0,0.017777777777777774,0,0)" xlink:href="#al"/><use transform="matrix(0.017777777777777774,0,0,0.017777777777777774,10.435555555555554,0)" xlink:href="#ak"/><use transform="matrix(0.017777777777777774,0,0,0.017777777777777774,21.831111111111106,0)" xlink:href="#ao"/><use transform="matrix(0.017777777777777774,0,0,0.017777777777777774,32.56888888888888,0)" xlink:href="#ap"/></g><g id="l"><use transform="matrix(0.017777777777777774,0,0,0.017777777777777774,0,0)" xlink:href="#ac"/><use transform="matrix(0.017777777777777774,0,0,0.017777777777777774,14.275555555555552,0)" xlink:href="#am"/></g><use transform="matrix(0.017777777777777774,0,0,0.017777777777777774,0,0)" xlink:href="#ap" id="m"/><g id="n"><use transform="matrix(0.017777777777777774,0,0,0.017777777777777774,0,0)" xlink:href="#ak"/><use transform="matrix(0.017777777777777774,0,0,0.017777777777777774,11.395555555555553,0)" xlink:href="#ac"/><use transform="matrix(0.017777777777777774,0,0,0.017777777777777774,25.671111111111106,0)" xlink:href="#ag"/><use transform="matrix(0.017777777777777774,0,0,0.017777777777777774,38.453333333333326,0)" xlink:href="#ap"/></g><path fill="#3a414a" d="M635-31c28-53 7-115-31-143-7-19-67-63-88-82-39-36-80-78-117-115 1-16 41-65 118-148l-10 11c30-36 53-67 85-95 54-48 78-89 78-117s-20-70-52-70c-36 0-116 78-245 230-22 26-38 59-67 71-30 12-85-104-102-151-13-36-72-158-75-157-34-47-96-35-89 35 8 88 69 162 101 236 14 20 74 122 77 140-20 61-139 209-182 265-18 23-24 44-24 60C11-36 45 1 69 0c45-2 96-97 124-134 67-89 109-132 124-131 48 2 103 85 141 115 20 16 39 33 56 52 49 58 88 82 121 67" id="aq"/><g id="o"><use transform="matrix(0.017777777777777774,0,0,0.017777777777777774,0,0)" xlink:href="#aq"/><use transform="matrix(0.017777777777777774,0,0,0.017777777777777774,12.017777777777775,0)" xlink:href="#ac"/><use transform="matrix(0.017777777777777774,0,0,0.017777777777777774,26.29333333333333,0)" xlink:href="#am"/><use transform="matrix(0.017777777777777774,0,0,0.017777777777777774,37.279999999999994,0)" xlink:href="#ap"/></g><path fill="#3a414a" d="M590-683c0-95-64-132-148-103-62 21-113 58-161 92-97 69-165 165-223 275C-45-222 51 11 277-12c154-16 257-81 343-160 63-58 100-126 109-243 12-155-158-93-246-67-61 18-178 69-168 115-2 30 28 68 54 64 69-10 133-52 201-67 9-2 20 9 20 17 0 11-18 38-57 79-85 91-188 136-306 136-55 0-99-68-99-127 0-30 16-69 37-123 25-64 237-288 318-281 25-8 66 40 79 44 19 0 28-19 28-58" id="ar"/><path fill="#3a414a" d="M107-780c100 15 51 176 51 272 0 29 23 25 56 24 33-11 175 4 171-42 9-67 4-153 14-224 12-14 39-57 70-50 51 0 74 34 69 103L490-47c-6 28-25 57-57 56-118-5-54-182-54-299 0-34 3-75-15-85-65 6-127 12-191 19-52 29-23 162-29 239C135-7 87 19 22-30 10-48 7-67 13-88c-16-100 8-215 8-322 0-127-9-364 86-370" id="as"/><g id="p"><use transform="matrix(0.017777777777777774,0,0,0.017777777777777774,0,0)" xlink:href="#am"/><use transform="matrix(0.017777777777777774,0,0,0.017777777777777774,10.986666666666665,0)" xlink:href="#aj"/><use transform="matrix(0.017777777777777774,0,0,0.017777777777777774,22.27555555555555,0)" xlink:href="#ar"/><use transform="matrix(0.017777777777777774,0,0,0.017777777777777774,35.78666666666666,0)" xlink:href="#as"/><use transform="matrix(0.017777777777777774,0,0,0.017777777777777774,45.40444444444444,0)" xlink:href="#ag"/></g><path fill="#3a414a" d="M371-533c189 0 256 55 239 237-9 91-67 138-157 205C374-33 301-7 236-7 155-7 13-82 18-160c3-44 62-73 96-38 43 44 152 73 218 29 77-51 166-125 156-169 2-44-67-63-119-62-47 1-108 1-155 3C87-393 13-429 1-531c11-87 101-150 165-187 90-52 160-96 290-87 34 2 118 78 115 115-3 35-23 38-55 45-15 4-26-4-33-24-37-64-116-1-164 12-41 11-154 77-154 113 0 15 14 22 41 22 45 0 127-11 165-11" id="at"/><path fill="#3a414a" d="M39-49c-7-93 9-204-6-289-18-30-12-41 1-77 37-27 19-97 25-162 2-23-27-37-49-40-11-18-14-56 0-71 17-39 273-99 376-109 72-7 163-32 165 45 1 65-62 51-115 66-63 18-176 24-229 55-41 23-20 107-25 176 83-2 166-25 259-33 74-6 91 70 44 97-80 23-228 35-304 57-18 6-27 18-27 35-9 45 6 274-42 299-35 2-92-5-73-49" id="au"/><g id="q"><use transform="matrix(0.017777777777777774,0,0,0.017777777777777774,0,0)" xlink:href="#at"/><use transform="matrix(0.017777777777777774,0,0,0.017777777777777774,11.217777777777776,0)" xlink:href="#as"/><use transform="matrix(0.017777777777777774,0,0,0.017777777777777774,20.83555555555555,0)" xlink:href="#aj"/><use transform="matrix(0.017777777777777774,0,0,0.017777777777777774,32.124444444444435,0)" xlink:href="#au"/><use transform="matrix(0.017777777777777774,0,0,0.017777777777777774,41.95555555555555,0)" xlink:href="#ag"/></g><g id="r"><use transform="matrix(0.017777777777777774,0,0,0.017777777777777774,0,0)" xlink:href="#al"/><use transform="matrix(0.017777777777777774,0,0,0.017777777777777774,10.435555555555554,0)" xlink:href="#ak"/><use transform="matrix(0.017777777777777774,0,0,0.017777777777777774,21.831111111111106,0)" xlink:href="#ao"/></g><path fill="#3a414a" d="M21-302C-7-136 9 24 196-12c147-28 263-93 386-142 57-23 26-120-26-120-111 32-240 115-378 126-13 1-22-26-25-45 30-174 59-350 88-524 10-62-86-124-120-61-39 73-49 196-69 277-19 77-22 145-31 199" id="av"/><g id="s"><use transform="matrix(0.017777777777777774,0,0,0.017777777777777774,0,0)" xlink:href="#av"/><use transform="matrix(0.017777777777777774,0,0,0.017777777777777774,10.933333333333332,0)" xlink:href="#ah"/><use transform="matrix(0.017777777777777774,0,0,0.017777777777777774,22.77333333333333,0)" xlink:href="#au"/><use transform="matrix(0.017777777777777774,0,0,0.017777777777777774,32.60444444444444,0)" xlink:href="#ag"/></g><g id="t"><use transform="matrix(0.017777777777777774,0,0,0.017777777777777774,0,0)" xlink:href="#ac"/><use transform="matrix(0.017777777777777774,0,0,0.017777777777777774,14.275555555555552,0)" xlink:href="#ae"/><use transform="matrix(0.017777777777777774,0,0,0.017777777777777774,24.30222222222222,0)" xlink:href="#ah"/><use transform="matrix(0.017777777777777774,0,0,0.017777777777777774,36.142222222222216,0)" xlink:href="#am"/><use transform="matrix(0.017777777777777774,0,0,0.017777777777777774,47.12888888888888,0)" xlink:href="#al"/><use transform="matrix(0.017777777777777774,0,0,0.017777777777777774,57.56444444444443,0)" xlink:href="#ag"/><use transform="matrix(0.017777777777777774,0,0,0.017777777777777774,70.34666666666665,0)" xlink:href="#aj"/><use transform="matrix(0.017777777777777774,0,0,0.017777777777777774,81.63555555555554,0)" xlink:href="#ac"/><use transform="matrix(0.017777777777777774,0,0,0.017777777777777774,95.9111111111111,0)" xlink:href="#ak"/><use transform="matrix(0.017777777777777774,0,0,0.017777777777777774,107.30666666666664,0)" xlink:href="#at"/></g><g id="u"><use transform="matrix(0.017777777777777774,0,0,0.017777777777777774,0,0)" xlink:href="#at"/><use transform="matrix(0.017777777777777774,0,0,0.017777777777777774,11.217777777777776,0)" xlink:href="#ag"/><use transform="matrix(0.017777777777777774,0,0,0.017777777777777774,23.999999999999996,0)" xlink:href="#ac"/><use transform="matrix(0.017777777777777774,0,0,0.017777777777777774,38.27555555555555,0)" xlink:href="#ae"/></g><path d="M292-638c-67 2-113 14-176 21-81 9-112-68-58-103 132-46 304-52 470-66l65 5c50 52 43 111-50 111-45 0-75 15-112 18-18 16-19 83-24 152-7 108-21 214-33 322-5 46 36 20 67 20 54 0 81-10 139-16 43 25 50 62 23 110-151 29-311 50-490 79C58 24-8 22 3-44c14-83 161-45 224-90 22-16 24-69 29-107 17-126 33-258 36-397" id="aw"/><path d="M23-677c-68-88 127-122 212-122 113 0 253 24 291 82 92 144-48 310-153 365-52 27-102 48-161 69-56 20-53 15-58 80-4 49-8 103-13 153-3 31-19 46-43 46-44 0-65-28-63-81 5-162 8-330 16-486 3-53-4-75-28-106zm415 73c0-44-44-66-132-66-78 0-124 8-135 26-10 16-14 89-14 218 0 44 22 39 57 25 83-34 224-115 224-203" id="ax"/><path d="M21-302C-7-136 9 24 196-12c147-28 263-93 386-142 57-23 26-120-26-120-111 32-240 115-378 126-13 1-22-26-25-45 30-174 59-350 88-524 10-62-86-124-120-61-39 73-49 196-69 277-19 77-22 145-31 199" id="ay"/><path d="M192-85c-3 48 46 100 89 72 52-75 73-232 102-321 46-139 146-233 278-374 22-37 2-105-46-93-81 20-199 174-252 246-53 73-46 65-110 7-63-57-96-136-132-220-11-25-31-37-54-37-36-1-56 32-56 68 32 142 118 264 224 332 15 16 24 24 21 38" id="az"/><g id="v"><use transform="matrix(0.017777777777777774,0,0,0.017777777777777774,0,0)" xlink:href="#E"/><use transform="matrix(0.017777777777777774,0,0,0.017777777777777774,10.737777777777776,0)" xlink:href="#aw"/><use transform="matrix(0.017777777777777774,0,0,0.017777777777777774,22.026666666666664,0)" xlink:href="#L"/><use transform="matrix(0.017777777777777774,0,0,0.017777777777777774,33.24444444444444,0)" xlink:href="#ax"/><use transform="matrix(0.017777777777777774,0,0,0.017777777777777774,43.271111111111104,0)" xlink:href="#ay"/><use transform="matrix(0.017777777777777774,0,0,0.017777777777777774,54.204444444444434,0)" xlink:href="#D"/><use transform="matrix(0.017777777777777774,0,0,0.017777777777777774,64.63999999999999,0)" xlink:href="#az"/></g><g id="w"><use transform="matrix(0.017777777777777774,0,0,0.017777777777777774,0,0)" xlink:href="#B"/><use transform="matrix(0.017777777777777774,0,0,0.017777777777777774,10.986666666666665,0)" xlink:href="#C"/><use transform="matrix(0.017777777777777774,0,0,0.017777777777777774,22.82666666666666,0)" xlink:href="#L"/><use transform="matrix(0.017777777777777774,0,0,0.017777777777777774,34.04444444444444,0)" xlink:href="#I"/><use transform="matrix(0.017777777777777774,0,0,0.017777777777777774,46.542222222222215,0)" xlink:href="#ay"/><use transform="matrix(0.017777777777777774,0,0,0.017777777777777774,57.475555555555545,0)" xlink:href="#F"/><use transform="matrix(0.017777777777777774,0,0,0.017777777777777774,70.25777777777776,0)" xlink:href="#L"/></g></defs></g></svg>