<svg xmlns="http://www.w3.org/2000/svg" xmlns:xlink="http://www.w3.org/1999/xlink" xmlns:lucid="lucid" width="733" height="1153"><g transform="translate(-216 -34)" lucid:page-tab-id="TACQSc2-eHtR"><path d="M628 140c17.67 0 32 16.4 32 36.6 0 20.22-14.33 36.6-32 36.6h-96c-17.67 0-32-16.38-32-36.6 0-20.2 14.33-36.6 32-36.6z" stroke="#000" stroke-width="4" fill="#e3fae3"/><use xlink:href="#a" transform="matrix(1,0,0,1,505,145) translate(48.56444444444447 38.222222222222214)"/><path d="M461.66 251a1.3 1.3 0 0 1 1.26-.98h251.46a.77.77 0 0 1 .75.97l-16.8 62.95a1.3 1.3 0 0 1-1.25.97H445.6a.77.77 0 0 1-.73-.97z" stroke="#000" stroke-width="4" fill-opacity="0"/><use xlink:href="#b" transform="matrix(1,0,0,1,449.61538461538464,255.02037013372183) translate(62.95833333333335 31.40972222222222)"/><use xlink:href="#c" transform="matrix(1,0,0,1,449.61538461538464,255.02037013372183) translate(112.23833333333334 31.40972222222222)"/><use xlink:href="#d" transform="matrix(1,0,0,1,449.61538461538464,255.02037013372183) translate(127.95388888888888 31.40972222222222)"/><path d="M380 49.2a6 6 0 0 1 6-6h428a6 6 0 0 1 6 6v48a6 6 0 0 1-6 6H386a6 6 0 0 1-6-6z" stroke="#000" stroke-opacity="0" fill="#fff3d9"/><use xlink:href="#e" transform="matrix(1,0,0,1,385,48.19022682518721) translate(8.907777777777795 32.05555555555556)"/><use xlink:href="#f" transform="matrix(1,0,0,1,385,48.19022682518721) translate(161.61222222222221 32.05555555555556)"/><use xlink:href="#g" transform="matrix(1,0,0,1,385,48.19022682518721) translate(217.22333333333333 32.05555555555556)"/><use xlink:href="#h" transform="matrix(1,0,0,1,385,48.19022682518721) translate(286.5966666666667 32.05555555555556)"/><path d="M628 1100c17.67 0 32 16.4 32 36.6 0 20.22-14.33 36.6-32 36.6h-96c-17.67 0-32-16.38-32-36.6 0-20.2 14.33-36.6 32-36.6z" stroke="#000" stroke-width="4" fill="#fff0f0"/><use xlink:href="#i" transform="matrix(1,0,0,1,505,1105) translate(50.848888888888894 38.22222222222222)"/><path d="M580 217.2v8.08" stroke="#000" stroke-width="4" fill="none"/><path d="M582 217.26h-4v-2.05h4z" stroke="#000" stroke-width=".05"/><path d="M580 241.55l-4.63-14.27h9.26z" stroke="#000" stroke-width="4"/><path d="M580 351.73l80 60-80 60-80-60z" stroke="#000" stroke-width="4" fill-opacity="0"/><use xlink:href="#j" transform="matrix(1,0,0,1,505,356.7255538916663) translate(63.75166666666667 31.40972222222222)"/><use xlink:href="#k" transform="matrix(1,0,0,1,505,356.7255538916663) translate(39.95611111111111 50.503055555555555)"/><use xlink:href="#l" transform="matrix(1,0,0,1,505,356.7255538916663) translate(24.525000000000002 69.5963888888889)"/><use xlink:href="#m" transform="matrix(1,0,0,1,505,356.7255538916663) translate(49.35166666666667 88.68972222222223)"/><use xlink:href="#n" transform="matrix(1,0,0,1,505,356.7255538916663) translate(78.02722222222222 88.68972222222223)"/><path d="M580 318.92v7.57" stroke="#000" stroke-width="4" fill="none"/><path d="M582 318.97h-4v-2.05h4z" stroke="#000" stroke-width=".05"/><path d="M580 342.75l-4.63-14.26h9.26z" stroke="#000" stroke-width="4"/><path d="M246.28 458.04a1.3 1.3 0 0 1 1.26-.97H499a.77.77 0 0 1 .74.97L482.94 521a1.3 1.3 0 0 1-1.25.97H230.22a.77.77 0 0 1-.74-.97z" stroke="#000" stroke-width="4" fill-opacity="0"/><use xlink:href="#o" transform="matrix(1,0,0,1,234.23076923076928,462.0737882575272) translate(61.047222222222224 31.40972222222222)"/><use xlink:href="#p" transform="matrix(1,0,0,1,234.23076923076928,462.0737882575272) translate(136.425 31.40972222222222)"/><use xlink:href="#q" transform="matrix(1,0,0,1,234.23076923076928,462.0737882575272) translate(164.21166666666664 31.40972222222222)"/><path d="M677.05 458.04a1.3 1.3 0 0 1 1.25-.97h251.47a.77.77 0 0 1 .74.97L913.73 521a1.3 1.3 0 0 1-1.26.97H661a.77.77 0 0 1-.74-.97z" stroke="#000" stroke-width="4" fill-opacity="0"/><use xlink:href="#o" transform="matrix(1,0,0,1,665,462.0737882575272) translate(55.918333333333344 31.40972222222222)"/><use xlink:href="#p" transform="matrix(1,0,0,1,665,462.0737882575272) translate(131.29611111111112 31.40972222222222)"/><use xlink:href="#r" transform="matrix(1,0,0,1,665,462.0737882575272) translate(159.08277777777778 31.40972222222222)"/><path d="M790.64 409.82l1.22.3 1.16.47 1.07.65.95.8.8.97.67 1.07.48 1.15.3 1.22.1 1.18v14.7h-4V417.8l-.07-.7-.15-.6-.24-.6-.32-.52-.4-.48-.5-.4-.52-.33-.58-.24-.6-.15-.7-.05h-20.75v-4h20.9zm-125.3 3.9v-4h68.15v4z" stroke="#008a0e" stroke-width=".05" fill="#008a0e"/><path d="M665.4 413.73h-4.73l2.66-2-2.66-2h4.72z" fill="#008a0e"/><path d="M665.4 413.75h-4.8l2.7-2.02-2.7-2.03h4.8zm-4.66-4l2.63 1.98-2.63 1.97h4.62v-3.95z" stroke="#008a0e" stroke-width=".05" fill="#008a0e"/><path d="M795.4 448.6l-4.65-14.26h9.27z" fill="#008a0e"/><path d="M795.4 455.07l-7.4-22.73h14.77zm-1.9-18.73l1.88 5.8 1.9-5.8z" stroke="#008a0e" stroke-width=".05" fill="#008a0e"/><use xlink:href="#s" transform="matrix(1,0,0,1,733.4953335372752,402.17888722499964) translate(0 14.222222222222223)"/><path d="M396.12 412.73h-25.47l-.82.06-.76.17-.72.3-.67.4-.6.52-.5.6-.42.66-.3.72-.18.76-.06.82v18.8h-2V417.7l.08-1.07.25-1.07.43-1 .57-.95.7-.83.85-.7.94-.58 1-.44 1.08-.25 1.06-.07h25.54zm99.55 0H421.8v-2h73.87z" stroke="#e81313" stroke-width=".05" fill="#e81313"/><path d="M496.67 411.73l1.33 1h-2.36v-2H498z" fill="#e81313"/><path d="M496.7 411.73l1.38 1.02h-2.46v-2.05h2.45zm-1.03-.98v1.95h2.25l-1.3-.97 1.3-.98z" stroke="#e81313" stroke-width=".05" fill="#e81313"/><path d="M364.6 451.84L360 437.57h9.27z" fill="#e81313"/><path d="M364.6 455.07l-6-18.5h12.03zm-3.24-16.5l3.25 10.03 3.27-10.03z" stroke="#e81313" stroke-width=".05" fill="#e81313"/><use xlink:href="#t" transform="matrix(1,0,0,1,396.12244424050255,402.17888722499964) translate(0 14.222222222222223)"/><path d="M600 554.33c0 11.06-8.95 20.03-20 20.03s-20-8.97-20-20.03 8.95-20.03 20-20.03 20 8.97 20 20.03z" stroke="#000" stroke-width="4" fill-opacity="0"/><path d="M364.6 525.97v22.36a6 6 0 0 0 6 6h164.66" stroke="#000" stroke-width="4" fill="none"/><path d="M366.6 526.02h-4v-2.05h4z" stroke="#000" stroke-width=".05"/><path d="M551.53 554.33l-14.27 4.64v-9.27z" stroke="#000" stroke-width="4"/><path d="M795.4 525.97v22.36a6 6 0 0 1-6 6H624.73" stroke="#000" stroke-width="4" fill="none"/><path d="M797.4 526.02h-4v-2.05h4z" stroke="#000" stroke-width=".05"/><path d="M608.47 554.33l14.27-4.63v9.27z" stroke="#000" stroke-width="4"/><path d="M580 606.4l80 60-80 60-80-60z" stroke="#000" stroke-width="4" fill-opacity="0"/><use xlink:href="#j" transform="matrix(1,0,0,1,505,611.3963092056078) translate(63.75166666666667 31.40972222222222)"/><use xlink:href="#k" transform="matrix(1,0,0,1,505,611.3963092056078) translate(39.95611111111111 50.503055555555555)"/><use xlink:href="#l" transform="matrix(1,0,0,1,505,611.3963092056078) translate(24.525000000000002 69.5963888888889)"/><use xlink:href="#m" transform="matrix(1,0,0,1,505,611.3963092056078) translate(49.35166666666667 88.68972222222223)"/><use xlink:href="#n" transform="matrix(1,0,0,1,505,611.3963092056078) translate(78.02722222222222 88.68972222222223)"/><path d="M580 578.37v2.8" stroke="#000" stroke-width="4" fill="none"/><path d="M579.9 576.37l1.8-.07.3-.05v2.17h-4v-2.3z" stroke="#000" stroke-width=".05"/><path d="M580 597.42l-4.63-14.26h9.26z" stroke="#000" stroke-width="4"/><path d="M677.05 712.6a1.3 1.3 0 0 1 1.25-.97h251.47a.77.77 0 0 1 .74.96l-16.78 62.96a1.3 1.3 0 0 1-1.26.96H661a.77.77 0 0 1-.74-.96z" stroke="#000" stroke-width="4" fill-opacity="0"/><use xlink:href="#o" transform="matrix(1,0,0,1,665,716.6276992556732) translate(55.918333333333344 31.40972222222222)"/><use xlink:href="#p" transform="matrix(1,0,0,1,665,716.6276992556732) translate(131.29611111111112 31.40972222222222)"/><use xlink:href="#r" transform="matrix(1,0,0,1,665,716.6276992556732) translate(159.08277777777778 31.40972222222222)"/><path d="M790.64 664.5l1.22.28 1.16.48 1.07.66.95.82.8.95.67 1.06.48 1.16.3 1.22.1 1.18v14.57h-4v-14.42l-.07-.7-.15-.62-.24-.58-.32-.53-.4-.48-.5-.4-.52-.33-.58-.24-.6-.15-.7-.05h-20.8v-4h20.94zm-125.3 3.9v-4h68.1v4z" stroke="#008a0e" stroke-width=".05" fill="#008a0e"/><path d="M665.4 668.4h-4.73l2.66-2-2.66-2h4.72z" fill="#008a0e"/><path d="M665.4 668.42h-4.8l2.7-2.02-2.7-2.03h4.8zm-4.66-4l2.63 1.98-2.63 1.97h4.62v-3.95z" stroke="#008a0e" stroke-width=".05" fill="#008a0e"/><path d="M795.4 703.16l-4.65-14.27h9.27z" fill="#008a0e"/><path d="M795.4 709.63L788 686.9h14.77zm-1.9-18.74l1.88 5.78 1.9-5.8z" stroke="#008a0e" stroke-width=".05" fill="#008a0e"/><use xlink:href="#s" transform="matrix(1,0,0,1,733.4369113793775,656.8496425389412) translate(0 14.222222222222223)"/><path d="M600 818.33c0 11.06-8.95 20.03-20 20.03s-20-8.97-20-20.03c0-11.07 8.95-20.04 20-20.04s20 8.96 20 20.03z" stroke="#000" stroke-width="4" fill-opacity="0"/><path d="M795.4 780.52v31.8a6 6 0 0 1-6 6H624.73" stroke="#000" stroke-width="4" fill="none"/><path d="M797.4 780.57h-4v-2.05h4z" stroke="#000" stroke-width=".05"/><path d="M608.47 818.33l14.27-4.64v9.26z" stroke="#000" stroke-width="4"/><path d="M457.67 812.3l.06.8.18.77.3.72.42.66.5.6.6.5.68.42.72.3.76.18.83.07h76.8v2h-76.87l-1.06-.1-1.07-.24-1-.43-.95-.58-.84-.72-.7-.84-.57-.94-.42-1-.25-1.08-.08-1.05v-29.8h2zm38-144.9H462.7l-.8.06-.78.18-.72.3-.67.4-.6.52-.5.6-.42.67-.3.72-.17.76-.06.84v91.04h-2v-91.12l.08-1.06.26-1.07.43-1 .57-.95.7-.84.85-.7.94-.58 1-.42 1.07-.26 1.06-.08h33.04z" stroke="#e81313" stroke-width=".05" fill="#e81313"/><path d="M496.67 666.4l1.33 1h-2.36v-2H498z" fill="#e81313"/><path d="M496.7 666.4l1.38 1.02h-2.46v-2.05h2.45zm-1.03-.98v1.95h2.25l-1.3-.97 1.3-.98z" stroke="#e81313" stroke-width=".05" fill="#e81313"/><path d="M554.76 818.33l-14.26 4.63v-9.27z" fill="#e81313"/><path d="M558 818.33l-18.5 6v-12.02zm-16.5 3.25l10.03-3.25-10.03-3.26z" stroke="#e81313" stroke-width=".05" fill="#e81313"/><use xlink:href="#t" transform="matrix(1,0,0,1,443.82222222222225,763.4801045823383) translate(0 14.222222222222223)"/><path d="M580 871.16l90 61.3-90 61.3-90-61.3z" stroke="#000" stroke-width="4" fill-opacity="0"/><use xlink:href="#u" transform="matrix(1,0,0,1,495,876.1624678777443) translate(36.06277777777779 42.47222222222222)"/><use xlink:href="#k" transform="matrix(1,0,0,1,495,876.1624678777443) translate(63.84944444444445 42.47222222222222)"/><use xlink:href="#v" transform="matrix(1,0,0,1,495,876.1624678777443) translate(12.65833333333334 61.565555555555555)"/><use xlink:href="#l" transform="matrix(1,0,0,1,495,876.1624678777443) translate(56.391666666666666 61.565555555555555)"/><use xlink:href="#m" transform="matrix(1,0,0,1,495,876.1624678777443) translate(59.35166666666667 80.6588888888889)"/><use xlink:href="#n" transform="matrix(1,0,0,1,495,876.1624678777443) translate(88.02722222222222 80.6588888888889)"/><path d="M580 842.36V846" stroke="#000" stroke-width="4" fill="none"/><path d="M579.9 840.36l1.8-.07.3-.06v2.17h-4v-2.28z" stroke="#000" stroke-width=".05"/><path d="M580 862.27L575.37 848h9.26z" stroke="#000" stroke-width="4"/><path d="M677.05 960.97a1.3 1.3 0 0 1 1.25-.97h251.47a.77.77 0 0 1 .74.97l-16.78 62.96a1.3 1.3 0 0 1-1.26.97H661a.77.77 0 0 1-.74-.97z" stroke="#000" stroke-width="4" fill-opacity="0"/><g><use xlink:href="#o" transform="matrix(1,0,0,1,665,965) translate(61.047222222222224 31.40972222222222)"/><use xlink:href="#p" transform="matrix(1,0,0,1,665,965) translate(136.425 31.40972222222222)"/><use xlink:href="#q" transform="matrix(1,0,0,1,665,965) translate(164.21166666666664 31.40972222222222)"/></g><path d="M793.34 930.52l.73.17.7.28.64.4.58.5.5.56.4.64.28.7.17.73.05.6-4 .32v-.28l-.04-.12-.05-.12-.07-.1-.08-.1-.1-.08-.1-.06-.12-.05-.12-.02h-27.93v-4h27.9zm-117.8 3.95v-4h54.16v4z" stroke="#008a0e" stroke-width=".05" fill="#008a0e"/><path d="M675.6 934.47h-4.98l2.93-2-2.93-2h4.98z" fill="#008a0e"/><path d="M675.63 934.5h-5.1l2.98-2.03-2.97-2.03h5.1zm-4.93-4l2.9 1.97-2.9 1.97h4.88v-3.95z" stroke="#008a0e" stroke-width=".05" fill="#008a0e"/><path d="M795.4 951.53l-4.65-14.27h9.27z" fill="#008a0e"/><path d="M795.4 958l-7.4-22.74h14.77zm-1.9-18.74l1.88 5.8 1.9-5.8z" stroke="#008a0e" stroke-width=".05" fill="#008a0e"/><g><use xlink:href="#s" transform="matrix(1,0,0,1,729.6985843392963,922.917968320734) translate(0 14.222222222222223)"/></g><path d="M600 1044.93c0 11.06-8.95 20.03-20 20.03s-20-8.97-20-20.03c0-11.07 8.95-20.04 20-20.04s20 8.96 20 20.03z" stroke="#000" stroke-width="4" fill-opacity="0"/><path d="M447.45 1038.9l.06.8.2.77.3.72.4.66.5.6.6.5.68.42.72.3.77.18.82.07h87v2h-87.1l-1.05-.1-1.07-.24-1-.43-.95-.58-.83-.72-.72-.84-.57-.93-.4-1-.27-1.08-.08-1.05v-4.95h2zm38-105.44H452.5l-.83.07-.77.18-.72.3-.67.42-.6.5-.5.6-.4.68-.3.72-.2.76-.05.82v76.42h-2v-76.5l.08-1.05.26-1.07.4-1 .58-.95.72-.84.83-.7.94-.57 1-.43 1.08-.25 1.06-.08h33.05z" stroke="#e81313" stroke-width=".05" fill="#e81313"/><path d="M486.45 932.47l1.47 1h-2.5v-2h2.5z" fill="#e81313"/><path d="M486.5 932.47l1.5 1.02h-2.6v-2.06h2.6zm-1.05-.98v1.94h2.38l-1.43-.98 1.43-.97z" stroke="#e81313" stroke-width=".05" fill="#e81313"/><path d="M554.76 1044.93l-14.26 4.63v-9.27z" fill="#e81313"/><path d="M558 1044.93l-18.5 6v-12.02zm-16.5 3.26l10.03-3.27-10.03-3.26z" stroke="#e81313" stroke-width=".05" fill="#e81313"/><g><use xlink:href="#t" transform="matrix(1,0,0,1,433.6028511952076,1014.9246488403032) translate(0 14.222222222222223)"/></g><path d="M795.4 1028.9v10.03a6 6 0 0 1-6 6H624.73" stroke="#000" stroke-width="4" fill="none"/><path d="M797.4 1028.95h-4v-2.06h4z" stroke="#000" stroke-width=".05"/><path d="M608.47 1044.93l14.27-4.64v9.26z" stroke="#000" stroke-width="4"/><path d="M580 1068.96v6.3" stroke="#000" stroke-width="4" fill="none"/><path d="M579.9 1066.96l1.8-.06.3-.06v2.17h-4v-2.28z" stroke="#000" stroke-width=".05"/><path d="M580 1091.53l-4.63-14.27h9.26z" stroke="#000" stroke-width="4"/><defs><path d="M371-533c189 0 256 55 239 237-9 91-67 138-157 205C374-33 301-7 236-7 155-7 13-82 18-160c3-44 62-73 96-38 43 44 152 73 218 29 77-51 166-125 156-169 2-44-67-63-119-62-47 1-108 1-155 3C87-393 13-429 1-531c11-87 101-150 165-187 90-52 160-96 290-87 34 2 118 78 115 115-3 35-23 38-55 45-15 4-26-4-33-24-37-64-116-1-164 12-41 11-154 77-154 113 0 15 14 22 41 22 45 0 127-11 165-11" id="w"/><path d="M382-556c-3 158-18 304-18 470 0 31 6 72-21 86-20 35-87 21-104-6-1-188 14-367 23-549 1-24 13-80-17-80-77 0-131 31-210 31-15-10-43-18-33-45 0-82 83-94 148-109 103-23 215-12 315-40 43-12 91-17 142-23 62-8 95 53 77 116-8 28-47 14-75 18-68 9-134 10-195 30-32 11-31 60-32 101" id="x"/><path d="M103-24C79 10-2-14 8-59c42-186 129-353 193-524 23-62 63-135 99-197 39-38 106-10 109 47 27 100 51 209 81 307 8 25 72 24 72 63 0 44-26 46-37 75 12 83 46 156 55 243 7 63-106 47-114 11-13-58-36-170-57-231-3-4-7-8-9-14-69 4-134 40-198 52-53 21-53 108-81 160-4 16-8 29-18 43zm215-551c-16 18-92 195-73 208 46 2 100-12 123-31-5-30-32-162-38-171-2-3-6-5-12-6" id="y"/><path d="M608-642l-20 77c-36 56-69 94-113 138-49 48-58 40-29 81 33 46 69 89 97 147 44 89 52 141 40 147-3 38-20 49-63 52-68 5-97-106-129-160-40-68-56-162-144-164-53-1-27 78-45 121-7 56-12 123-28 170C157-4 113 24 66-1 46-11 40-39 49-87c19-111 19-139 19-313 0-144 1-187-40-242-27-37-13-94 26-108 103-36 250-59 389-41 63 8 182 85 165 149zm-140 11c-10-39-42-58-96-57-53 12-154 21-179 43-5 9-8 31-8 65 0 151 19 135 127 94 94-36 148-79 156-145" id="z"/><g id="a"><use transform="matrix(0.017777777777777764,0,0,0.017777777777777764,0,0)" xlink:href="#w"/><use transform="matrix(0.017777777777777764,0,0,0.017777777777777764,10.133333333333326,0)" xlink:href="#x"/><use transform="matrix(0.017777777777777764,0,0,0.017777777777777764,19.253333333333313,0)" xlink:href="#y"/><use transform="matrix(0.017777777777777764,0,0,0.017777777777777764,29.68888888888886,0)" xlink:href="#z"/><use transform="matrix(0.017777777777777764,0,0,0.017777777777777764,40.67555555555552,0)" xlink:href="#x"/></g><path d="M608-642l-20 77c-36 56-69 94-113 138-49 48-58 40-29 81 33 46 69 89 97 147 44 89 52 141 40 147-3 38-20 49-63 52-68 5-97-106-129-160-40-68-56-162-144-164-53-1-27 78-45 121-7 56-12 123-28 170C157-4 113 24 66-1 46-11 40-39 49-87c19-111 19-139 19-313 0-144 1-187-40-242-27-37-13-94 26-108 103-36 250-59 389-41 63 8 182 85 165 149zm-140 11c-10-39-42-58-96-57-53 12-154 21-179 43-5 9-8 31-8 65 0 151 19 135 127 94 94-36 148-79 156-145" id="A"/><path d="M330-158c82-22 193-18 286-31 38 11 58 81 24 113-25 24-71 25-116 25-135 0-238 34-358 47C61 7 4-52 15-159c12-113 37-213 32-340-2-59 2-121-2-178-2-44 35-62 81-61 104-31 222-52 345-64 68-7 103 34 111 94 2 12-3 22-9 31-33 14-62 15-103 16-100 2-196 10-270 40h-8c-18 23-11 79-15 106-1 13 5 22 16 25 82-10 176-25 264-12 44 7 78 26 71 72-7 49-76 30-125 30-78 0-138 22-210 29-24 1-35 28-36 52-2 41-10 83-8 126-19 84 122 51 181 35" id="B"/><path d="M103-24C79 10-2-14 8-59c42-186 129-353 193-524 23-62 63-135 99-197 39-38 106-10 109 47 27 100 51 209 81 307 8 25 72 24 72 63 0 44-26 46-37 75 12 83 46 156 55 243 7 63-106 47-114 11-13-58-36-170-57-231-3-4-7-8-9-14-69 4-134 40-198 52-53 21-53 108-81 160-4 16-8 29-18 43zm215-551c-16 18-92 195-73 208 46 2 100-12 123-31-5-30-32-162-38-171-2-3-6-5-12-6" id="C"/><path d="M19-91c0-222 71-428 58-668-3-62 121-44 170-33 118 27 229 50 293 128 44 53 63 97 63 217 0 165-189 328-383 400-36 13-62 45-108 45-66 0-93-23-93-89zm185-582c-30 151-43 322-58 489 5 39 27 28 60 14 129-54 276-147 276-304 0-155-106-203-278-199" id="D"/><g id="b"><use transform="matrix(0.017777777777777774,0,0,0.017777777777777774,0,0)" xlink:href="#A"/><use transform="matrix(0.017777777777777774,0,0,0.017777777777777774,10.986666666666665,0)" xlink:href="#B"/><use transform="matrix(0.017777777777777774,0,0,0.017777777777777774,22.82666666666666,0)" xlink:href="#C"/><use transform="matrix(0.017777777777777774,0,0,0.017777777777777774,33.26222222222221,0)" xlink:href="#D"/></g><use transform="matrix(0.017777777777777774,0,0,0.017777777777777774,0,0)" xlink:href="#C" id="c"/><path d="M24-128c0-158-18-313-5-472 6-74-11-192 62-191 78 1 88 68 113 130 59 143 102 191 174 297 50 73 81 109 92 109 8 0 12-3 13-9 24-163 3-322-12-477-6-63 62-76 101-37 65 64 45 212 54 340 10 141 7 304-15 413-8 15-20 23-37 23-76 0-203-132-244-200-33-54-79-109-116-169l4 4c-9-20-41-55-54-51-14 102-5 244 6 344 3 30-15 69-41 68-9 0-28-1-56-3-44-28-39-45-39-119" id="E"/><path d="M106-737c41-53 131 12 108 86-42 139-71 285-71 455 0 88 72 66 143 48 49-12 128-35 183-63 38-19 36-69 44-119 17-114 31-247 31-354 0-57 26-85 79-85 37 0 55 27 55 81 0 190-34 397-59 573 4 31 20 93-13 105-8 10-30 7-65-8-16-20-33-38-51-54C397-48 305 0 205 0 79 0 5-43 13-176c13-196 50-391 93-561" id="F"/><path d="M629-645c28 177 9 401 28 582 3 29-18 50-47 50-97 0-67-194-71-306-1-24-4-66-3-92 1-39-15-57-30-33-49 79-88 161-139 243-9 15-21 23-34 23-33 0-70-69-89-115-10-23-57-152-73-152-28 0-27 119-31 162-9 93-16 174-27 265-2 3-35 21-48 20-71-3-50-117-43-176 24-211 38-410 84-595 39-67 121 2 138 59 22 73 63 167 84 249 7 23 13 34 20 34 17 0 54-75 107-225 17-48 42-155 115-96 31 25 52 57 59 103" id="G"/><path d="M68-174c-8-157-1-333-1-488 0-23-21-28-12-60 24-87 141-85 256-77 161 12 317 42 251 258-5 17-40 45-44 60 15 30 85 80 98 123 62 108 25 192-76 258C455-45 341-9 207-4 145-2 19-30 19-85c0-36 51-41 49-89zm137-510c-18 6-26 137-16 192 30 22 66 2 112-6 70-13 158-95 159-132 17-68-169-82-255-54zm-15 330c-15 57-2 155 5 215 6 4 6 12 18 11 101-5 211-32 267-82 52-46 58-91 12-140s-73-73-81-73c-39 14-121 48-173 54-15 2-34 14-48 15" id="H"/><g id="d"><use transform="matrix(0.017777777777777774,0,0,0.017777777777777774,0,0)" xlink:href="#E"/><use transform="matrix(0.017777777777777774,0,0,0.017777777777777774,11.395555555555553,0)" xlink:href="#F"/><use transform="matrix(0.017777777777777774,0,0,0.017777777777777774,23.893333333333334,0)" xlink:href="#G"/><use transform="matrix(0.017777777777777774,0,0,0.017777777777777774,35.839999999999996,0)" xlink:href="#H"/><use transform="matrix(0.017777777777777774,0,0,0.017777777777777774,47.271111111111104,0)" xlink:href="#B"/><use transform="matrix(0.017777777777777774,0,0,0.017777777777777774,59.1111111111111,0)" xlink:href="#A"/></g><path fill="#3a414a" d="M247-491c4-58-16-131 34-141 82-16 176-39 255-55 40-8 54-21 55-68 2-89-94-75-175-63-118 17-292 45-359 106-23 21-20 70-5 98 12 11 43 7 43 25 0 45 0 79-2 117-13 22-33 46-32 81 30 86 13 210 13 321 0 45 55 52 97 50 59-25 38-242 50-304 5-22 30-20 56-26 78-17 169-21 238-43 27-8 39-31 39-61 0-46-28-69-84-69-71 0-156 16-210 32h-13" id="I"/><path fill="#3a414a" d="M50-194C40-28 200 0 338-54c94-37 183-73 272-114 29-13 41-37 41-62 0-44-32-91-71-89-30 3-148 61-190 76l1-1c-45 16-110 45-165 45 1 0 0-5-3-15l1 1-3-11c27-168 60-333 82-502 10-75-103-138-147-64-8 14-17 32-20 54l1-1c-6 17-8 35-12 54l1-2C92-532 60-361 50-194" id="J"/><path fill="#3a414a" d="M776-292c25-58 39-113 39-189 0-186-105-335-289-347-115-8-264 80-335 176-54 72-128 174-130 306-17 72 19 171 60 209C155-80 284-35 371-30c125 8 185-36 261-79 69-40 112-103 145-184zM507-656c91 0 151 106 151 197 0 107-87 221-167 253-29 11-88 21-133 13l1 1c-87-19-148-53-141-159 8-119 91-193 166-254 44-35 86-51 123-51" id="K"/><path fill="#3a414a" d="M801-816c-117 0-37 170-64 263l1-1c-15 67-25 131-43 194-17 60-32 90-42 90-80-84-72-255-129-356-25-43-100-46-123 6-3 9-10 16-13 25l1-1c-8 20-18 38-27 56h3c-37 81-75 146-113 224-14 27-22 40-25 40-20-121-1-292-18-429-7-54-40-79-81-79-96 0-69 186-67 280 4 147 38 414 86 451 74 56 110 33 172-59 29-43 113-203 127-220 48 94 116 279 229 289 100-11 151-212 184-307 29-83 39-155 39-263 0-135-32-203-97-203" id="L"/><path fill="#3a414a" d="M603-651c0-97-31-172-120-170-102 1-164 75-214 132-81 91-127 171-181 277-30 59-52 189-20 259C104-74 204-5 336-32c36-8 99-21 126-45 137-73 206-137 206-191 0-71-82-87-131-48-77 62-149 135-266 145-97 8-92-125-54-190 41-69 89-162 136-217 46-53 83-81 115-81 30 22 11 105 74 105 41 0 61-32 61-97" id="M"/><path fill="#3a414a" d="M211-150c2-56-6-121 2-175-6-57 39-29 77-42l99-9c10 81-7 183-7 268 0 63 24 95 79 97 39 2 67-28 71-64 21-214 34-430 47-645 5-79-45-113-114-95-24 14-42 35-54 58-5 60-4 122-9 186-4 49 4 36-56 43-40 4-81 13-122 10 3-61 9-119 11-180 2-53-31-103-77-103-110 0-98 263-98 399 0 91-21 189-9 280-5 25 0 47 13 66 72 60 142 31 147-94zm10-369c0-2 1 0 1 0h-1" id="N"/><path fill="#3a414a" d="M70-181C36-106 39-36 121-28c46 4 59-41 69-68 14-40 27-86 43-123 28-31 91-34 132-52 22-9 42-12 57-14 23 70 34 146 54 220 8 29 38 43 83 43 40 0 60-20 60-60 0-87-40-149-50-230 28-18 51-84 14-113-11-9-44-19-50-27-27-105-52-214-82-316-19-65-108-61-136-9-73 134-133 295-189 435-24 59-31 107-56 161zm286-369c8 39 19 86 26 125-22 9-48 16-78 17 14-39 32-102 52-142" id="O"/><path fill="#3a414a" d="M173-13c102-20 79-163 100-261 0-7 2-19 3-27-8-47 57-27 68-2 40 53 67 131 101 192l-1-1c19 54 59 97 104 92 43-5 70-16 73-58 13-23 7-37-3-71-6-23-15-54-34-88-35-66-68-105-104-161 56-50 105-104 147-170 6-29 17-55 20-85 6-72-103-151-170-159l2 1c-139-21-303 2-392 48-38 20-46 85-18 123 36 48 34 126 35 220 2 188-7 191-22 334-6 57 41 80 92 72zm83-631c46-6 199-69 222 5-8 54-52 92-132 119-94 31-95 61-95-72 0-28 2-45 5-52zm67 321l-3-1c1 1 2 1 3 1" id="P"/><path fill="#3a414a" d="M450-642c81-9 156-10 231-4 26-13 36-35 36-67 0-81-74-112-168-99-140 19-319-7-450 25-32 17-54 46-55 91v-3c-8 40 21 48 42 67 65 10 127-7 202-2-4 181-23 372-21 564 20 34 93 71 130 26 41-30 19-113 21-180 3-100 12-190 18-284l-1 1c5-43-7-105 15-135" id="Q"/><g id="e"><use transform="matrix(0.024444444444444442,0,0,0.024444444444444442,0,0)" xlink:href="#I"/><use transform="matrix(0.024444444444444442,0,0,0.024444444444444442,13.59111111111111,0)" xlink:href="#J"/><use transform="matrix(0.024444444444444442,0,0,0.024444444444444442,28.673333333333332,0)" xlink:href="#K"/><use transform="matrix(0.024444444444444442,0,0,0.024444444444444442,48.30222222222222,0)" xlink:href="#L"/><use transform="matrix(0.024444444444444442,0,0,0.024444444444444442,69.54444444444444,0)" xlink:href="#M"/><use transform="matrix(0.024444444444444442,0,0,0.024444444444444442,85.06666666666666,0)" xlink:href="#N"/><use transform="matrix(0.024444444444444442,0,0,0.024444444444444442,98.33999999999999,0)" xlink:href="#O"/><use transform="matrix(0.024444444444444442,0,0,0.024444444444444442,112.73777777777777,0)" xlink:href="#P"/><use transform="matrix(0.024444444444444442,0,0,0.024444444444444442,127.86888888888888,0)" xlink:href="#Q"/></g><path fill="#3a414a" d="M247-491c4-58-16-131 34-141 82-16 176-39 255-55 40-8 54-21 55-68 2-89-94-75-175-63-118 17-292 45-359 106-23 21-20 70-5 98 12 11 43 7 43 25 0 45 0 79-2 117-13 22-33 46-32 81 30 86 13 210 13 321 0 45 55 52 97 50 59-25 38-242 50-304 5-22 30-20 56-26 78-17 169-21 238-43 27-8 39-31 39-61 0-46-28-69-84-69-71 0-156 16-210 32h-13" id="R"/><g id="f"><use transform="matrix(0.024444444444444442,0,0,0.024444444444444442,0,0)" xlink:href="#R"/><use transform="matrix(0.024444444444444442,0,0,0.024444444444444442,13.59111111111111,0)" xlink:href="#K"/><use transform="matrix(0.024444444444444442,0,0,0.024444444444444442,33.22,0)" xlink:href="#P"/></g><path fill="#3a414a" d="M633-32c99 0 53-140 53-231 0-160 17-350-41-466-13-25-59-60-90-60-48-2-72 81-86 122-47 132-74 199-82 202-15-90-57-183-81-259-17-55-61-93-116-93-21 0-40 12-48 39-59 200-67 431-92 658C43-58 89 6 151-27c16-9 25-11 33-23 14-128 27-256 35-392 34 77 71 239 153 252 64-12 80-94 111-139 24-35 42-76 62-112 2 86 2 175 2 264 0 97 29 145 86 145" id="S"/><path fill="#3a414a" d="M42-70c0 87 115 70 183 54l-1 1c168-29 298-46 412-66 37-61 31-107-28-144-59 12-120 13-178 22 6-108 31-217 31-327 0-55 4-92 13-111 33-5 63-9 97-17 108 2 116-84 54-143-115-14-235 13-335 17-9 1-17 2-25 5l1-1c-26 5-56 8-80 15l1-1c-64 12-112 20-118 81-8 89 119 84 199 63-6 0 1-1 3-1 14-2 24 0 41-3 2 126-16 240-31 354-4 28-1 78-21 91-30 19-88 18-126 30l1-1c-53 5-93 24-93 82" id="T"/><path fill="#3a414a" d="M216-409c9 8 16 19 19 30-1 9 8 9 10 13 37 63 77 111 116 172 37 57 163 169 227 172 23 0 40-11 52-32 33-170 13-434 6-619-3-83-39-143-107-149-45-4-69 31-66 79 10 146 31 283 13 439-51-61-104-153-152-217-31-42-51-96-76-155l1 1c-28-66-40-134-124-136-97-1-69 150-80 250-17 150 12 295 5 444-2 50 15 62 51 88 19 2 42 3 59 3 35 2 66-46 57-86l1 1c-10-94-14-194-12-298zm39 2c4 1 2 2 0 3v-3zm229 115c0-2 0-3 1-4-1 1-1 3-1 4" id="U"/><g id="g"><use transform="matrix(0.024444444444444442,0,0,0.024444444444444442,0,0)" xlink:href="#S"/><use transform="matrix(0.024444444444444442,0,0,0.024444444444444442,16.45111111111111,0)" xlink:href="#O"/><use transform="matrix(0.024444444444444442,0,0,0.024444444444444442,30.848888888888887,0)" xlink:href="#T"/><use transform="matrix(0.024444444444444442,0,0,0.024444444444444442,46.419999999999995,0)" xlink:href="#U"/></g><path fill="#3a414a" d="M615-24c62 1 58-78 47-128 24-171 55-356 55-541 0-64-23-96-70-96-71-1-99 44-94 123-15 114-18 275-42 381-6 28-34 35-58 44-76 27-135 58-212 58-42 0-27-72-25-115 4-84 25-172 38-251l-1 1c12-62 61-162-1-204l2 1c-43-49-114-25-124 36-27 163-69 328-78 509-3 62 15 122 50 146 37 26 87 40 150 40 41 0 198-44 262-67 14 13 28 28 43 46 26 11 45 17 58 17" id="V"/><path fill="#3a414a" d="M134-345c49 1 97-57 97-108 0-47-47-85-91-85-59 0-87 37-87 93s29 99 81 100zm-2 282c73 0 133-118 63-170-59-44-144-14-144 71 0 55 27 99 81 99" id="W"/><g id="h"><use transform="matrix(0.024444444444444442,0,0,0.024444444444444442,0,0)" xlink:href="#R"/><use transform="matrix(0.024444444444444442,0,0,0.024444444444444442,13.59111111111111,0)" xlink:href="#V"/><use transform="matrix(0.024444444444444442,0,0,0.024444444444444442,30.77555555555555,0)" xlink:href="#U"/><use transform="matrix(0.024444444444444442,0,0,0.024444444444444442,46.468888888888884,0)" xlink:href="#M"/><use transform="matrix(0.024444444444444442,0,0,0.024444444444444442,61.9911111111111,0)" xlink:href="#Q"/><use transform="matrix(0.024444444444444442,0,0,0.024444444444444442,79.56666666666666,0)" xlink:href="#T"/><use transform="matrix(0.024444444444444442,0,0,0.024444444444444442,95.13777777777777,0)" xlink:href="#K"/><use transform="matrix(0.024444444444444442,0,0,0.024444444444444442,114.76666666666665,0)" xlink:href="#U"/><use transform="matrix(0.024444444444444442,0,0,0.024444444444444442,130.45999999999998,0)" xlink:href="#W"/></g><path fill="#3a414a" d="M371-533c189 0 256 55 239 237-9 91-67 138-157 205C374-33 301-7 236-7 155-7 13-82 18-160c3-44 62-73 96-38 43 44 152 73 218 29 77-51 166-125 156-169 2-44-67-63-119-62-47 1-108 1-155 3C87-393 13-429 1-531c11-87 101-150 165-187 90-52 160-96 290-87 34 2 118 78 115 115-3 35-23 38-55 45-15 4-26-4-33-24-37-64-116-1-164 12-41 11-154 77-154 113 0 15 14 22 41 22 45 0 127-11 165-11" id="X"/><path fill="#3a414a" d="M593-790c58 0 99 54 77 117-5 13-15 16-35 14-70-7-152-3-229 7-31 20-24 81-26 127-4 138-16 277-16 422 0 32 4 70-21 83-26 36-88 7-103-20 1-182 10-346 21-521 2-27 11-81-18-84-73-7-138 11-206 3-20-18-39-18-32-51-3-78 74-91 145-91 129 0 251 6 369-8 25-3 49 2 74 2" id="Y"/><path fill="#3a414a" d="M44-443c79-191 208-366 448-366 141 0 239 118 267 253 46 222-61 413-213 490-83 42-221 78-338 30-55-23-106-43-129-82-26-14-80-140-57-202 2-41 8-89 22-123zm103 115c1 136 75 191 208 191 130 0 180-50 241-135 38-53 55-111 55-169 0-109-73-236-179-227-143 12-260 151-311 271-9 24-14 47-14 69" id="Z"/><path fill="#3a414a" d="M23-677c-68-88 127-122 212-122 113 0 253 24 291 82 92 144-48 310-153 365-52 27-102 48-161 69-56 20-53 15-58 80-4 49-8 103-13 153-3 31-19 46-43 46-44 0-65-28-63-81 5-162 8-330 16-486 3-53-4-75-28-106zm415 73c0-44-44-66-132-66-78 0-124 8-135 26-10 16-14 89-14 218 0 44 22 39 57 25 83-34 224-115 224-203" id="aa"/><g id="i"><use transform="matrix(0.017777777777777774,0,0,0.017777777777777774,0,0)" xlink:href="#X"/><use transform="matrix(0.017777777777777774,0,0,0.017777777777777774,11.217777777777776,0)" xlink:href="#Y"/><use transform="matrix(0.017777777777777774,0,0,0.017777777777777774,23.999999999999996,0)" xlink:href="#Z"/><use transform="matrix(0.017777777777777774,0,0,0.017777777777777774,38.27555555555555,0)" xlink:href="#aa"/></g><path d="M292-638c-67 2-113 14-176 21-81 9-112-68-58-103 132-46 304-52 470-66l65 5c50 52 43 111-50 111-45 0-75 15-112 18-18 16-19 83-24 152-7 108-21 214-33 322-5 46 36 20 67 20 54 0 81-10 139-16 43 25 50 62 23 110-151 29-311 50-490 79C58 24-8 22 3-44c14-83 161-45 224-90 22-16 24-69 29-107 17-126 33-258 36-397" id="ab"/><path d="M371-533c189 0 256 55 239 237-9 91-67 138-157 205C374-33 301-7 236-7 155-7 13-82 18-160c3-44 62-73 96-38 43 44 152 73 218 29 77-51 166-125 156-169 2-44-67-63-119-62-47 1-108 1-155 3C87-393 13-429 1-531c11-87 101-150 165-187 90-52 160-96 290-87 34 2 118 78 115 115-3 35-23 38-55 45-15 4-26-4-33-24-37-64-116-1-164 12-41 11-154 77-154 113 0 15 14 22 41 22 45 0 127-11 165-11" id="ac"/><g id="j"><use transform="matrix(0.017777777777777774,0,0,0.017777777777777774,0,0)" xlink:href="#ab"/><use transform="matrix(0.017777777777777774,0,0,0.017777777777777774,11.288888888888886,0)" xlink:href="#ac"/></g><g id="k"><use transform="matrix(0.017777777777777774,0,0,0.017777777777777774,0,0)" xlink:href="#E"/><use transform="matrix(0.017777777777777774,0,0,0.017777777777777774,11.395555555555553,0)" xlink:href="#F"/><use transform="matrix(0.017777777777777774,0,0,0.017777777777777774,23.893333333333334,0)" xlink:href="#G"/><use transform="matrix(0.017777777777777774,0,0,0.017777777777777774,35.839999999999996,0)" xlink:href="#H"/><use transform="matrix(0.017777777777777774,0,0,0.017777777777777774,47.271111111111104,0)" xlink:href="#B"/><use transform="matrix(0.017777777777777774,0,0,0.017777777777777774,59.1111111111111,0)" xlink:href="#A"/></g><path d="M109-735c-25-57-110-11-99 37 30 130 91 291 122 410 18 69 44 132 72 190 44 90 75 116 148 73 102-105 149-290 208-441 32-82 48-168 48-261 0-51-15-77-46-77-38 0-59 34-73 100-35 160-89 312-149 454-40 95-58 66-91-37-28-90-54-179-79-263-24-79-42-141-61-185" id="ad"/><path d="M21-302C-7-136 9 24 196-12c147-28 263-93 386-142 57-23 26-120-26-120-111 32-240 115-378 126-13 1-22-26-25-45 30-174 59-350 88-524 10-62-86-124-120-61-39 73-49 196-69 277-19 77-22 145-31 199" id="ae"/><g id="l"><use transform="matrix(0.017777777777777774,0,0,0.017777777777777774,0,0)" xlink:href="#D"/><use transform="matrix(0.017777777777777774,0,0,0.017777777777777774,10.737777777777776,0)" xlink:href="#ab"/><use transform="matrix(0.017777777777777774,0,0,0.017777777777777774,22.026666666666664,0)" xlink:href="#ad"/><use transform="matrix(0.017777777777777774,0,0,0.017777777777777774,32.959999999999994,0)" xlink:href="#ab"/><use transform="matrix(0.017777777777777774,0,0,0.017777777777777774,44.24888888888888,0)" xlink:href="#ac"/><use transform="matrix(0.017777777777777774,0,0,0.017777777777777774,55.466666666666654,0)" xlink:href="#ab"/><use transform="matrix(0.017777777777777774,0,0,0.017777777777777774,66.75555555555555,0)" xlink:href="#H"/><use transform="matrix(0.017777777777777774,0,0,0.017777777777777774,78.18666666666665,0)" xlink:href="#ae"/><use transform="matrix(0.017777777777777774,0,0,0.017777777777777774,89.11999999999998,0)" xlink:href="#B"/></g><path d="M192-85c-3 48 46 100 89 72 52-75 73-232 102-321 46-139 146-233 278-374 22-37 2-105-46-93-81 20-199 174-252 246-53 73-46 65-110 7-63-57-96-136-132-220-11-25-31-37-54-37-36-1-56 32-56 68 32 142 118 264 224 332 15 16 24 24 21 38" id="af"/><g id="m"><use transform="matrix(0.017777777777777774,0,0,0.017777777777777774,0,0)" xlink:href="#H"/><use transform="matrix(0.017777777777777774,0,0,0.017777777777777774,11.43111111111111,0)" xlink:href="#af"/></g><path d="M489-785c107 0 154 111 116 214-29 79-213 255-300 345-26 27-38 39-16 63 95 2 204-5 287 7 22 4 49 51 49 77 0 63-95 31-141 31H320C244-52 124 2 73 14 50 19-1-26 3-53c6-51 111-140 150-182 94-98 182-189 275-285 55-57 80-102 80-129 1-31-28-24-56-21-120 11-265 81-296 145-13 26-15 67-56 65s-51-21-51-66c0-144 158-200 287-235 61-16 112-24 153-24" id="ag"/><path d="M103-360c0-112 97-112 179-128 97-18 242-75 249-136 6-48-42-75-151-71-112 4-194 15-276 54-32 15-101 31-94-24 35-105 323-159 505-131 75 11 164 108 120 200-57 118-164 168-297 220-46 18-100 9-130 40-14 46-42 100-66 94-26 0-39-39-39-118zm112 214c60 54-29 135-88 135-48 0-65-33-51-98 18-31 37-56 89-54 19 0 36 5 50 17" id="ah"/><g id="n"><use transform="matrix(0.017777777777777774,0,0,0.017777777777777774,0,0)" xlink:href="#ag"/><use transform="matrix(0.017777777777777774,0,0,0.017777777777777774,10.968888888888888,0)" xlink:href="#ah"/></g><g id="o"><use transform="matrix(0.017777777777777774,0,0,0.017777777777777774,0,0)" xlink:href="#E"/><use transform="matrix(0.017777777777777774,0,0,0.017777777777777774,11.395555555555553,0)" xlink:href="#F"/><use transform="matrix(0.017777777777777774,0,0,0.017777777777777774,23.893333333333334,0)" xlink:href="#G"/><use transform="matrix(0.017777777777777774,0,0,0.017777777777777774,35.839999999999996,0)" xlink:href="#H"/><use transform="matrix(0.017777777777777774,0,0,0.017777777777777774,47.271111111111104,0)" xlink:href="#B"/><use transform="matrix(0.017777777777777774,0,0,0.017777777777777774,59.1111111111111,0)" xlink:href="#A"/></g><g id="p"><use transform="matrix(0.017777777777777774,0,0,0.017777777777777774,0,0)" xlink:href="#ab"/><use transform="matrix(0.017777777777777774,0,0,0.017777777777777774,11.288888888888886,0)" xlink:href="#ac"/></g><path d="M44-443c79-191 208-366 448-366 141 0 239 118 267 253 46 222-61 413-213 490-83 42-221 78-338 30-55-23-106-43-129-82-26-14-80-140-57-202 2-41 8-89 22-123zm103 115c1 136 75 191 208 191 130 0 180-50 241-135 38-53 55-111 55-169 0-109-73-236-179-227-143 12-260 151-311 271-9 24-14 47-14 69" id="ai"/><g id="q"><use transform="matrix(0.017777777777777774,0,0,0.017777777777777774,0,0)" xlink:href="#ai"/><use transform="matrix(0.017777777777777774,0,0,0.017777777777777774,14.275555555555552,0)" xlink:href="#D"/><use transform="matrix(0.017777777777777774,0,0,0.017777777777777774,25.01333333333333,0)" xlink:href="#D"/></g><g id="r"><use transform="matrix(0.017777777777777774,0,0,0.017777777777777774,0,0)" xlink:href="#B"/><use transform="matrix(0.017777777777777774,0,0,0.017777777777777774,11.839999999999998,0)" xlink:href="#ad"/><use transform="matrix(0.017777777777777774,0,0,0.017777777777777774,22.77333333333333,0)" xlink:href="#B"/><use transform="matrix(0.017777777777777774,0,0,0.017777777777777774,34.61333333333333,0)" xlink:href="#E"/></g><path fill="#333" d="M221-124c-5 68 57 122 114 88 56-69 74-227 103-315 43-131 137-218 258-350 11-10 13-24 13-44 0-51-23-76-70-76-24 0-64 28-115 76-59 54-122 144-170 207-38-22-100-93-118-140l2 2c-5-9-14-22-18-32l2 3c-24-42-35-120-100-120-46 0-72 39-72 84 30 138 114 263 217 331 10 7 14 13 14 18" id="aj"/><path fill="#333" d="M562-231c-119 0-201 32-308 40-14 1-42-3-40-14 7-43 5-108 16-155 15-24 58-17 92-28 55-18 122-10 191-10 29 0 63-18 62-50l-1 1c9-54-30-90-85-89l2 1c-79-20-172-1-247 10 3-27 1-57 6-86 80-35 193-36 303-41 17-1 37-7 58-16 38-58-8-126-51-147l1 1c-50-22-116-3-173 4-55 6-120 24-173 38l1-1c-58 17-141 13-134 97 6 67 3 142 3 213 0 107-34 195-34 299 0 91 55 147 155 140 120-8 214-45 346-45 28 0 55-3 82-5h-6c53-8 92-74 55-130-9-16-23-28-41-35-26 5-52 8-80 8zM242-525v-1 1" id="ak"/><path fill="#333" d="M57-191C48-107 192-27 280-27c97 0 254-99 310-169 39-50 65-83 62-166-5-159-71-204-245-204-43 0-128 16-175 9 33-54 156-102 224-125 50-17 39 63 85 49 7-1 26-9 26-8 27 1 48-28 46-55-5-57-86-138-163-130-107 11-177 44-249 89-64 40-151 103-160 192 11 108 88 147 219 147 67 0 156-12 208 7 20 7 30 17 30 30 0 34-38 77-114 130 1-1 0-1 1-1-43 46-146 46-193 1-15-15-43-32-65-30-41 4-67 29-70 70" id="al"/><g id="s"><use transform="matrix(0.017777777777777778,0,0,0.017777777777777778,0,0)" xlink:href="#aj"/><use transform="matrix(0.017777777777777778,0,0,0.017777777777777778,11.982222222222223,0)" xlink:href="#ak"/><use transform="matrix(0.017777777777777778,0,0,0.017777777777777778,23.840000000000003,0)" xlink:href="#al"/></g><path fill="#333" d="M216-409c9 8 16 19 19 30-1 9 8 9 10 13 37 63 77 111 116 172 37 57 163 169 227 172 23 0 40-11 52-32 33-170 13-434 6-619-3-83-39-143-107-149-45-4-69 31-66 79 10 146 31 283 13 439-51-61-104-153-152-217-31-42-51-96-76-155l1 1c-28-66-40-134-124-136-97-1-69 150-80 250-17 150 12 295 5 444-2 50 15 62 51 88 19 2 42 3 59 3 35 2 66-46 57-86l1 1c-10-94-14-194-12-298zm39 2c4 1 2 2 0 3v-3zm229 115c0-2 0-3 1-4-1 1-1 3-1 4" id="am"/><path fill="#333" d="M776-292c25-58 39-113 39-189 0-186-105-335-289-347-115-8-264 80-335 176-54 72-128 174-130 306-17 72 19 171 60 209C155-80 284-35 371-30c125 8 185-36 261-79 69-40 112-103 145-184zM507-656c91 0 151 106 151 197 0 107-87 221-167 253-29 11-88 21-133 13l1 1c-87-19-148-53-141-159 8-119 91-193 166-254 44-35 86-51 123-51" id="an"/><g id="t"><use transform="matrix(0.017777777777777778,0,0,0.017777777777777778,0,0)" xlink:href="#am"/><use transform="matrix(0.017777777777777778,0,0,0.017777777777777778,11.413333333333334,0)" xlink:href="#an"/></g><g id="u"><use transform="matrix(0.017777777777777774,0,0,0.017777777777777774,0,0)" xlink:href="#ab"/><use transform="matrix(0.017777777777777774,0,0,0.017777777777777774,11.288888888888886,0)" xlink:href="#ac"/></g><path d="M593-790c58 0 99 54 77 117-5 13-15 16-35 14-70-7-152-3-229 7-31 20-24 81-26 127-4 138-16 277-16 422 0 32 4 70-21 83-26 36-88 7-103-20 1-182 10-346 21-521 2-27 11-81-18-84-73-7-138 11-206 3-20-18-39-18-32-51-3-78 74-91 145-91 129 0 251 6 369-8 25-3 49 2 74 2" id="ao"/><g id="v"><use transform="matrix(0.017777777777777774,0,0,0.017777777777777774,0,0)" xlink:href="#E"/><use transform="matrix(0.017777777777777774,0,0,0.017777777777777774,11.395555555555553,0)" xlink:href="#ai"/><use transform="matrix(0.017777777777777774,0,0,0.017777777777777774,25.671111111111106,0)" xlink:href="#ao"/></g></defs></g></svg>