<svg xmlns="http://www.w3.org/2000/svg" xmlns:xlink="http://www.w3.org/1999/xlink" xmlns:lucid="lucid" width="984" height="1221"><g transform="translate(-143 -15)" lucid:page-tab-id="TACQSc2-eHtR"><path d="M788 136.2c17.67 0 32 13.44 32 30 0 16.58-14.33 30-32 30h-96c-17.67 0-32-13.42-32-30 0-16.56 14.33-30 32-30z" stroke="#000" stroke-width="4" fill="#e3fae3"/><use xlink:href="#a" transform="matrix(1,0,0,1,665,141.21059695875647) translate(48.56444444444447 29.847222222222214)"/><path d="M621.66 234a1.3 1.3 0 0 1 1.26-.98H874.4a.77.77 0 0 1 .73.97l-16.8 62.95a1.3 1.3 0 0 1-1.25.97H605.6a.77.77 0 0 1-.73-.97z" stroke="#000" stroke-width="4" fill-opacity="0"/><use xlink:href="#b" transform="matrix(1,0,0,1,609.6153846153846,238.02037013356926) translate(63.61611111111112 31.40972222222222)"/><use xlink:href="#c" transform="matrix(1,0,0,1,609.6153846153846,238.02037013356926) translate(112.89611111111111 31.40972222222222)"/><use xlink:href="#d" transform="matrix(1,0,0,1,609.6153846153846,238.02037013356926) translate(131.56277777777777 31.40972222222222)"/><use xlink:href="#e" transform="matrix(1,0,0,1,609.6153846153846,238.02037013356926) translate(148.27388888888888 31.40972222222222)"/><use xlink:href="#f" transform="matrix(1,0,0,1,609.6153846153846,238.02037013356926) translate(186.12277777777777 31.40972222222222)"/><path d="M540 32.2a6 6 0 0 1 6-6h428a6 6 0 0 1 6 6v48a6 6 0 0 1-6 6H546a6 6 0 0 1-6-6z" stroke="#000" stroke-opacity="0" fill="#fff3d9"/><use xlink:href="#g" transform="matrix(1,0,0,1,545,31.190226825034635) translate(8.907777777777795 32.05555555555556)"/><use xlink:href="#h" transform="matrix(1,0,0,1,545,31.190226825034635) translate(161.61222222222221 32.05555555555556)"/><use xlink:href="#i" transform="matrix(1,0,0,1,545,31.190226825034635) translate(217.22333333333333 32.05555555555556)"/><use xlink:href="#j" transform="matrix(1,0,0,1,545,31.190226825034635) translate(286.5966666666667 32.05555555555556)"/><path d="M740 200.2v8.08" stroke="#000" stroke-width="4" fill="none"/><path d="M742 200.26h-4v-2.05h4z" stroke="#000" stroke-width=".05"/><path d="M740 224.55l-4.63-14.27h9.26z" stroke="#000" stroke-width="4"/><path d="M740 563l90 65.86-90 65.87-90-65.87z" stroke="#000" stroke-width="4" fill-opacity="0"/><use xlink:href="#k" transform="matrix(1,0,0,1,655,567.9999999998474) translate(65.74277777777777 44.72222222222222)"/><use xlink:href="#l" transform="matrix(1,0,0,1,655,567.9999999998474) translate(93.52944444444444 44.72222222222222)"/><use xlink:href="#m" transform="matrix(1,0,0,1,655,567.9999999998474) translate(19.058333333333344 63.815555555555555)"/><use xlink:href="#n" transform="matrix(1,0,0,1,655,567.9999999998474) translate(106.72055555555556 63.815555555555555)"/><use xlink:href="#o" transform="matrix(1,0,0,1,655,567.9999999998474) translate(54.685 82.9088888888889)"/><path d="M857.82 780.96a1.3 1.3 0 0 1 1.25-.96h251.47a.77.77 0 0 1 .74.96l-16.8 62.96a1.3 1.3 0 0 1-1.25.97H841.77a.77.77 0 0 1-.74-.98z" stroke="#000" stroke-width="4" fill-opacity="0"/><use xlink:href="#p" transform="matrix(1,0,0,1,845.7692307510694,784.9960564084033) translate(47.76722222222224 31.40972222222222)"/><use xlink:href="#q" transform="matrix(1,0,0,1,845.7692307510694,784.9960564084033) translate(129.65166666666667 31.40972222222222)"/><use xlink:href="#e" transform="matrix(1,0,0,1,845.7692307510694,784.9960564084033) translate(151.98055555555555 31.40972222222222)"/><use xlink:href="#r" transform="matrix(1,0,0,1,845.7692307510694,784.9960564084033) translate(189.82944444444445 31.40972222222222)"/><path d="M612.3 483h255.4v40H612.3z" stroke="#000" stroke-width="4" fill-opacity="0"/><use xlink:href="#s" transform="matrix(1,0,0,1,624.3076922713694,494.99999999984743) translate(27.444444444444457 17.777777777777775)"/><use xlink:href="#t" transform="matrix(1,0,0,1,624.3076922713694,494.99999999984743) translate(117.36444444444444 17.777777777777775)"/><use xlink:href="#u" transform="matrix(1,0,0,1,624.3076922713694,494.99999999984743) translate(133.38222222222223 17.777777777777775)"/><use xlink:href="#v" transform="matrix(1,0,0,1,624.3076922713694,494.99999999984743) translate(145.68444444444444 17.777777777777775)"/><path d="M740 334.73l90 65.86-90 65.85-90-65.86z" stroke="#000" stroke-width="4" fill-opacity="0"/><use xlink:href="#k" transform="matrix(1,0,0,1,655,339.72555389151375) translate(44.02722222222223 44.72222222222222)"/><use xlink:href="#w" transform="matrix(1,0,0,1,655,339.72555389151375) translate(71.8138888888889 44.72222222222222)"/><use xlink:href="#x" transform="matrix(1,0,0,1,655,339.72555389151375) translate(87.52944444444445 44.72222222222222)"/><use xlink:href="#y" transform="matrix(1,0,0,1,655,339.72555389151375) translate(38.80055555555556 63.815555555555555)"/><use xlink:href="#z" transform="matrix(1,0,0,1,655,339.72555389151375) translate(104.15166666666667 63.815555555555555)"/><use xlink:href="#o" transform="matrix(1,0,0,1,655,339.72555389151375) translate(54.685 82.9088888888889)"/><path d="M740 301.92v7.6" stroke="#000" stroke-width="4" fill="none"/><path d="M742 301.97h-4v-2.05h4z" stroke="#000" stroke-width=".05"/><path d="M740 325.77l-4.63-14.26h9.26z" stroke="#000" stroke-width="4"/><path d="M911.7 497.08l-.1 1.17-.3 1.22-.47 1.16-.66 1.08-.82.96-.95.82-1.07.65-1.16.48-1.22.3-1.18.1h-11.34v-4h11.18l.72-.06.6-.14.6-.24.52-.33.48-.4.4-.48.33-.54.24-.57.14-.6.05-.7v-53.74h4zm-6.75-98.4l1.22.3 1.16.47 1.07.66.95.83.82.95.66 1.07.48 1.16.3 1.24.1 1.17v17.6h-4v-17.43l-.06-.7-.15-.62-.25-.58-.33-.53-.4-.48-.48-.4-.53-.33-.57-.24-.6-.16-.72-.05h-68.2v-4h68.37z" stroke="#008a0e" stroke-width=".05" fill="#008a0e"/><path d="M835.44 402.6h-4.8l2.75-2-2.75-2h4.8z" fill="#008a0e"/><path d="M835.46 402.6h-4.88l2.76-2-2.76-2.04h4.88zm-4.73-4l2.7 2-2.7 1.96h4.68v-3.95z" stroke="#008a0e" stroke-width=".05" fill="#008a0e"/><path d="M890.43 507.63L876.16 503l14.27-4.63z" fill="#008a0e"/><path d="M892.43 510.4L869.7 503l22.73-7.4zm-9.8-7.4l5.8 1.88v-3.76z" stroke="#008a0e" stroke-width=".05" fill="#008a0e"/><use xlink:href="#A" transform="matrix(1,0,0,1,892.1545294935916,424.09464385193473) translate(0 14.222222222222223)"/><path d="M740 527v12.12" stroke="#000" stroke-width="4" fill="none"/><path d="M742 527.05h-4V525h4z" stroke="#000" stroke-width=".05"/><path d="M739.46 554.62l-4.14-14.42 9.27.32z" stroke="#000" stroke-width="4"/><path d="M840.77 673.8h270.77v64.9H840.77z" stroke="#000" stroke-width="4" fill-opacity="0"/><use xlink:href="#s" transform="matrix(1,0,0,1,852.7692307510694,685.7943659221876) translate(10.492222222222267 15.999999999999993)"/><use xlink:href="#B" transform="matrix(1,0,0,1,852.7692307510694,685.7943659221876) translate(100.41222222222225 15.999999999999993)"/><use xlink:href="#u" transform="matrix(1,0,0,1,852.7692307510694,685.7943659221876) translate(122.74111111111114 15.999999999999993)"/><use xlink:href="#C" transform="matrix(1,0,0,1,852.7692307510694,685.7943659221876) translate(135.04333333333335 15.999999999999993)"/><use xlink:href="#D" transform="matrix(1,0,0,1,852.7692307510694,685.7943659221876) translate(199.86777777777777 15.999999999999993)"/><use xlink:href="#E" transform="matrix(1,0,0,1,852.7692307510694,685.7943659221876) translate(214.67666666666665 15.999999999999993)"/><use xlink:href="#F" transform="matrix(1,0,0,1,852.7692307510694,685.7943659221876) translate(8.643333333333374 37.47999999999998)"/><use xlink:href="#G" transform="matrix(1,0,0,1,852.7692307510694,685.7943659221876) translate(98.56333333333336 37.47999999999998)"/><use xlink:href="#u" transform="matrix(1,0,0,1,852.7692307510694,685.7943659221876) translate(127.25666666666669 37.47999999999998)"/><use xlink:href="#H" transform="matrix(1,0,0,1,852.7692307510694,685.7943659221876) translate(139.5588888888889 37.47999999999998)"/><use xlink:href="#D" transform="matrix(1,0,0,1,852.7692307510694,685.7943659221876) translate(201.71666666666664 37.47999999999998)"/><use xlink:href="#I" transform="matrix(1,0,0,1,852.7692307510694,685.7943659221876) translate(216.5255555555555 37.47999999999998)"/><path d="M971.4 626.96l1.23.3 1.16.47 1.06.66.96.8.8.96.67 1.07.47 1.16.3 1.2.08 1.18v14.28h-4v-14.12l-.05-.7-.15-.6-.24-.6-.32-.52-.4-.48-.48-.4-.53-.34-.58-.24-.62-.14-.7-.06h-26.3v-4h26.45zm-136 3.9v-4h73.3v4z" stroke="#008a0e" stroke-width=".05" fill="#008a0e"/><path d="M835.44 630.86h-4.8l2.75-2-2.75-2h4.8z" fill="#008a0e"/><path d="M835.46 630.9h-4.88l2.76-2.04-2.76-2.02h4.88zm-4.73-4l2.7 1.96-2.7 1.98h4.68v-3.95z" stroke="#008a0e" stroke-width=".05" fill="#008a0e"/><path d="M976.15 665.32l-4.63-14.26h9.27z" fill="#008a0e"/><path d="M976.15 671.8l-7.38-22.74h14.77zm-1.88-18.74l1.88 5.8 1.9-5.8z" stroke="#008a0e" stroke-width=".05" fill="#008a0e"/><use xlink:href="#A" transform="matrix(1,0,0,1,908.6982384904975,619.3161103025235) translate(0 14.222222222222223)"/><path d="M976.15 742.7v12.56" stroke="#000" stroke-width="4" fill="none"/><path d="M978.15 742.74h-4v-2.05h4z" stroke="#000" stroke-width=".05"/><path d="M976.15 771.52l-4.63-14.26h9.27z" stroke="#000" stroke-width="4"/><path d="M450 673.8l90 65.86-90 65.86-90-65.86z" stroke="#000" stroke-width="4" fill-opacity="0"/><use xlink:href="#k" transform="matrix(1,0,0,1,365,678.7975559471033) translate(33.06722222222224 56.15972222222222)"/><use xlink:href="#t" transform="matrix(1,0,0,1,365,678.7975559471033) translate(60.8538888888889 56.15972222222222)"/><use xlink:href="#J" transform="matrix(1,0,0,1,365,678.7975559471033) translate(76.87166666666667 56.15972222222222)"/><use xlink:href="#K" transform="matrix(1,0,0,1,365,678.7975559471033) translate(38.516111111111115 75.25305555555556)"/><use xlink:href="#o" transform="matrix(1,0,0,1,365,678.7975559471033) translate(70.85388888888889 75.25305555555556)"/><path d="M514.23 629.86h-58.2l-.8.07-.77.18-.73.3-.67.42-.6.5-.5.6-.4.67-.3.72-.2.76-.06.82v17.92h-2v-18l.08-1.05.26-1.07.42-1.02.57-.93.72-.84.83-.7.94-.58 1.02-.42 1.06-.25 1.06-.1h58.27zm131.38 0H539.93v-2h105.7z" stroke="#e81313" stroke-width=".05" fill="#e81313"/><path d="M646.6 628.86l1.38 1h-2.4v-2h2.4z" fill="#e81313"/><path d="M646.66 628.86l1.4 1.03h-2.5v-2.06h2.5zm-1.05-.97v1.94h2.3l-1.33-.98 1.33-.97z" stroke="#e81313" stroke-width=".05" fill="#e81313"/><path d="M450 668.08l-4.63-14.26h9.26z" fill="#e81313"/><path d="M450 671.32l-6-18.5h12zm-3.26-16.5l3.26 10.03 3.26-10.03z" stroke="#e81313" stroke-width=".05" fill="#e81313"/><use xlink:href="#L" transform="matrix(1,0,0,1,514.2340379829808,619.3161103025235) translate(0 14.222222222222223)"/><path d="M540 780h270.77v64.9H540z" stroke="#000" stroke-width="4" fill-opacity="0"/><use xlink:href="#s" transform="matrix(1,0,0,1,552,791.9960564084033) translate(37.526666666666685 24.47222222222222)"/><use xlink:href="#B" transform="matrix(1,0,0,1,552,791.9960564084033) translate(127.44666666666667 24.47222222222222)"/><use xlink:href="#u" transform="matrix(1,0,0,1,552,791.9960564084033) translate(149.77555555555557 24.47222222222222)"/><use xlink:href="#M" transform="matrix(1,0,0,1,552,791.9960564084033) translate(162.07777777777778 24.47222222222222)"/><path d="M670.64 737.75l1.22.3 1.16.48 1.07.65.95.82.8.95.67 1.08.48 1.16.3 1.2.1 1.18v9.68h-4v-9.52l-.07-.7-.15-.6-.24-.6-.32-.53-.4-.46-.5-.4-.52-.34-.58-.24-.6-.14-.7-.06h-23.23v-4h23.36zm-125.25 3.9v-4H611v4z" stroke="#008a0e" stroke-width=".05" fill="#008a0e"/><path d="M545.44 741.66h-4.8l2.75-2-2.75-2h4.8z" fill="#008a0e"/><path d="M545.46 741.68h-4.88l2.76-2.02-2.76-2.02h4.88zm-4.73-4l2.7 1.98-2.7 1.98h4.68v-3.96z" stroke="#008a0e" stroke-width=".05" fill="#008a0e"/><path d="M675.4 771.52l-4.65-14.26h9.27z" fill="#008a0e"/><path d="M675.4 778l-7.4-22.74h14.77zm-1.9-18.74l1.88 5.8 1.9-5.8z" stroke="#008a0e" stroke-width=".05" fill="#008a0e"/><use xlink:href="#A" transform="matrix(1,0,0,1,611.0156903844427,730.1136662497794) translate(0 14.222222222222223)"/><path d="M557.05 883.97a1.3 1.3 0 0 1 1.25-.97h251.47a.77.77 0 0 1 .74.97l-16.78 62.96a1.3 1.3 0 0 1-1.26.97H541a.77.77 0 0 1-.74-.97z" stroke="#000" stroke-width="4" fill-opacity="0"/><use xlink:href="#p" transform="matrix(1,0,0,1,544.9999999999999,887.9999999998475) translate(47.76722222222224 31.40972222222222)"/><use xlink:href="#q" transform="matrix(1,0,0,1,544.9999999999999,887.9999999998475) translate(129.65166666666667 31.40972222222222)"/><use xlink:href="#e" transform="matrix(1,0,0,1,544.9999999999999,887.9999999998475) translate(151.98055555555555 31.40972222222222)"/><use xlink:href="#r" transform="matrix(1,0,0,1,544.9999999999999,887.9999999998475) translate(189.82944444444445 31.40972222222222)"/><path d="M675.4 848.9v9.36" stroke="#000" stroke-width="4" fill="none"/><path d="M677.4 848.94h-4v-2.05h4z" stroke="#000" stroke-width=".05"/><path d="M675.4 874.53l-4.65-14.27h9.27z" stroke="#000" stroke-width="4"/><path d="M200 858.75h300V943H200z" stroke="#000" stroke-width="4" fill-opacity="0"/><g><use xlink:href="#s" transform="matrix(1,0,0,1,212,870.7543719580799) translate(13.697777777777802 25.65972222222222)"/><use xlink:href="#N" transform="matrix(1,0,0,1,212,870.7543719580799) translate(103.61777777777779 25.65972222222222)"/><use xlink:href="#O" transform="matrix(1,0,0,1,212,870.7543719580799) translate(153.0933333333333 25.65972222222222)"/><use xlink:href="#u" transform="matrix(1,0,0,1,212,870.7543719580799) translate(202.60444444444443 25.65972222222222)"/><use xlink:href="#P" transform="matrix(1,0,0,1,212,870.7543719580799) translate(214.90666666666664 25.65972222222222)"/><use xlink:href="#Q" transform="matrix(1,0,0,1,212,870.7543719580799) translate(1.4568888888889262 46.886388888888874)"/><use xlink:href="#R" transform="matrix(1,0,0,1,212,870.7543719580799) translate(39.305777777777806 46.886388888888874)"/><use xlink:href="#O" transform="matrix(1,0,0,1,212,870.7543719580799) translate(147.83911111111112 46.886388888888874)"/><use xlink:href="#u" transform="matrix(1,0,0,1,212,870.7543719580799) translate(197.35022222222224 46.886388888888874)"/><use xlink:href="#S" transform="matrix(1,0,0,1,212,870.7543719580799) translate(209.65244444444446 46.886388888888874)"/></g><path d="M351 838.25h-2v-33.8h2zm4.7-97.6l-.8.07-.7.17-.68.27-.62.37-.55.47-.47.56-.37.62-.27.67-.17.7-.06.76v40.05h-2v-40.12l.08-1 .24-1 .4-.96.54-.88.68-.8.78-.68.9-.54.95-.4 1-.24.97-.08z" stroke="#e81313" stroke-width=".05" fill="#e81313"/><path d="M356.6 739.66l1.38 1h-2.4v-2h2.4z" fill="#e81313"/><path d="M356.66 739.66l1.4 1.02h-2.5v-2.04h2.5zm-1.05-.98v1.96h2.3l-1.33-.98 1.33-.98z" stroke="#e81313" stroke-width=".05" fill="#e81313"/><path d="M350 853.52l-4.63-14.27h9.26z" fill="#e81313"/><path d="M350 856.75l-6-18.5h12zm-3.26-16.5l3.26 10.03 3.26-10.03z" stroke="#e81313" stroke-width=".05" fill="#e81313"/><g><use xlink:href="#L" transform="matrix(1,0,0,1,337.15555555555557,785.3539844945306) translate(0 14.222222222222223)"/></g><path d="M233.43 980.65a1.3 1.3 0 0 1 1.26-.96h249.7a.77.77 0 0 1 .73.95l-18.56 69.6a1.3 1.3 0 0 1-1.26.96H215.6a.77.77 0 0 1-.73-.96z" stroke="#000" stroke-width="4" fill-opacity="0"/><g><use xlink:href="#T" transform="matrix(1,0,0,1,219.61538461538464,984.6862238099318) translate(44.41166666666668 16.319444444444443)"/><use xlink:href="#U" transform="matrix(1,0,0,1,219.61538461538464,984.6862238099318) translate(116.06055555555557 16.319444444444443)"/><use xlink:href="#V" transform="matrix(1,0,0,1,219.61538461538464,984.6862238099318) translate(219.11611111111108 16.319444444444443)"/><use xlink:href="#W" transform="matrix(1,0,0,1,219.61538461538464,984.6862238099318) translate(47.111666666666686 34.8824074074074)"/><use xlink:href="#X" transform="matrix(1,0,0,1,219.61538461538464,984.6862238099318) translate(142.07833333333332 34.8824074074074)"/><use xlink:href="#Y" transform="matrix(1,0,0,1,219.61538461538464,984.6862238099318) translate(185.40055555555554 34.8824074074074)"/><use xlink:href="#Z" transform="matrix(1,0,0,1,219.61538461538464,984.6862238099318) translate(6.403888888888924 53.44537037037036)"/></g><path d="M350 947v7.95" stroke="#000" stroke-width="4" fill="none"/><path d="M352 947.05h-4V945h4z" stroke="#000" stroke-width=".05"/><path d="M350 971.2l-4.63-14.25h9.26z" stroke="#000" stroke-width="4"/><path d="M700 1075.6c0 13.48-11.2 24.4-25 24.4s-25-10.92-25-24.4c0-13.47 11.2-24.4 25-24.4s25 10.93 25 24.4z" stroke="#000" stroke-width="4" fill-opacity="0"/><path d="M675.4 951.9v74.6" stroke="#000" stroke-width="4" fill="none"/><path d="M677.4 951.95h-4v-2.06h4z" stroke="#000" stroke-width=".05"/><path d="M675.4 1042.77l-4.65-14.27h9.27z" stroke="#000" stroke-width="4"/><path d="M350 1055.2v14.4a6 6 0 0 0 6 6h269.25" stroke="#000" stroke-width="4" fill="none"/><path d="M352 1055.26h-4v-2.05h4z" stroke="#000" stroke-width=".05"/><path d="M641.52 1075.6l-14.26 4.64v-9.27z" stroke="#000" stroke-width="4"/><path d="M976.15 848.9v220.7a6 6 0 0 1-6 6h-245.4" stroke="#000" stroke-width="4" fill="none"/><path d="M978.15 848.94h-4v-2.05h4z" stroke="#000" stroke-width=".05"/><path d="M708.48 1075.6l14.26-4.63v9.27z" stroke="#000" stroke-width="4"/><path d="M788 1160c17.67 0 32 13.43 32 30s-14.33 30-32 30h-96c-17.67 0-32-13.43-32-30s14.33-30 32-30z" stroke="#000" stroke-width="4" fill="#fff0f0"/><g><use xlink:href="#aa" transform="matrix(1,0,0,1,665,1165) translate(50.84888888888891 29.847222222222214)"/></g><path d="M675 1104v20a6 6 0 0 0 6 6h44.73a5.26 5.26 0 0 1 5.26 5.26" stroke="#000" stroke-width="4" fill="none"/><path d="M675 1102l2-.16v2.22h-4v-2.25z" stroke="#000" stroke-width=".05"/><path d="M731 1151.53l-4.64-14.27h9.27z" stroke="#000" stroke-width="4"/><path d="M317.05 480.97a1.3 1.3 0 0 1 1.25-.97h251.47a.77.77 0 0 1 .74.97l-16.78 62.96a1.3 1.3 0 0 1-1.26.97H301a.77.77 0 0 1-.74-.97z" stroke="#000" stroke-width="4" fill-opacity="0"/><g><use xlink:href="#p" transform="matrix(1,0,0,1,305,485) translate(13.611666666666702 21.09722222222222)"/><use xlink:href="#ab" transform="matrix(1,0,0,1,305,485) translate(95.49611111111113 21.09722222222222)"/><use xlink:href="#ac" transform="matrix(1,0,0,1,305,485) translate(187.1583333333333 21.09722222222222)"/><use xlink:href="#ad" transform="matrix(1,0,0,1,305,485) translate(214.945 21.09722222222222)"/><use xlink:href="#ae" transform="matrix(1,0,0,1,305,485) translate(75.105 42.31203703703704)"/></g><path d="M489.45 401.6h-48.03l-.82.05-.76.2-.72.3-.67.4-.6.5-.5.6-.42.67-.3.72-.18.77-.06.83v52.87h-2v-52.95l.07-1.06.25-1.08.42-1 .58-.95.7-.83.85-.72.94-.57 1.02-.42 1.07-.26 1.05-.08h48.1zm156.16 0H515.15v-2H645.6z" stroke="#e81313" stroke-width=".05" fill="#e81313"/><path d="M646.6 400.6l1.38 1h-2.4v-2h2.4z" fill="#e81313"/><path d="M646.66 400.6l1.4 1h-2.5v-2.04h2.5zm-1.05-1v1.96h2.3l-1.33-.97 1.33-1z" stroke="#e81313" stroke-width=".05" fill="#e81313"/><path d="M435.4 474.76l-4.65-14.26h9.27z" fill="#e81313"/><path d="M435.4 478l-6.03-18.5h12.03zm-3.27-16.5l3.25 10.03 3.26-10.03z" stroke="#e81313" stroke-width=".05" fill="#e81313"/><g><use xlink:href="#L" transform="matrix(1,0,0,1,489.448710181209,391.04166419418976) translate(0 14.222222222222223)"/></g><path d="M304.58 514.45h-138.5l-.7.05-.6.15-.6.24-.53.32-.47.4-.4.48-.34.53-.24.58-.14.62-.06.7v665.4l.06.7.14.6.24.6.33.53.4.47.48.4.54.34.57.24.6.14.7.06h469.2v4H165.9l-1.17-.1-1.22-.3-1.16-.47-1.08-.65-.96-.82-.82-.95-.65-1.07-.48-1.16-.3-1.22-.1-1.17v-665.7l.1-1.18.3-1.23.47-1.16.65-1.06.82-.95.95-.83 1.06-.66 1.17-.47 1.22-.3 1.17-.08h138.66z" stroke="#000" stroke-width=".05"/><path d="M306.05 514.45h-1.52v-4h2.6z"/><path d="M306.07 514.47h-1.56v-4.05h2.65zm-1.5-4v3.95h1.46l1.05-3.95z" stroke="#000" stroke-width=".05"/><path d="M651.53 1190l-14.27 4.63v-9.27z"/><path d="M658 1190l-22.74 7.4v-14.8zm-18.74 1.88l5.8-1.88-5.8-1.88z" stroke="#000" stroke-width=".05"/><defs><path d="M371-533c189 0 256 55 239 237-9 91-67 138-157 205C374-33 301-7 236-7 155-7 13-82 18-160c3-44 62-73 96-38 43 44 152 73 218 29 77-51 166-125 156-169 2-44-67-63-119-62-47 1-108 1-155 3C87-393 13-429 1-531c11-87 101-150 165-187 90-52 160-96 290-87 34 2 118 78 115 115-3 35-23 38-55 45-15 4-26-4-33-24-37-64-116-1-164 12-41 11-154 77-154 113 0 15 14 22 41 22 45 0 127-11 165-11" id="af"/><path d="M382-556c-3 158-18 304-18 470 0 31 6 72-21 86-20 35-87 21-104-6-1-188 14-367 23-549 1-24 13-80-17-80-77 0-131 31-210 31-15-10-43-18-33-45 0-82 83-94 148-109 103-23 215-12 315-40 43-12 91-17 142-23 62-8 95 53 77 116-8 28-47 14-75 18-68 9-134 10-195 30-32 11-31 60-32 101" id="ag"/><path d="M103-24C79 10-2-14 8-59c42-186 129-353 193-524 23-62 63-135 99-197 39-38 106-10 109 47 27 100 51 209 81 307 8 25 72 24 72 63 0 44-26 46-37 75 12 83 46 156 55 243 7 63-106 47-114 11-13-58-36-170-57-231-3-4-7-8-9-14-69 4-134 40-198 52-53 21-53 108-81 160-4 16-8 29-18 43zm215-551c-16 18-92 195-73 208 46 2 100-12 123-31-5-30-32-162-38-171-2-3-6-5-12-6" id="ah"/><path d="M608-642l-20 77c-36 56-69 94-113 138-49 48-58 40-29 81 33 46 69 89 97 147 44 89 52 141 40 147-3 38-20 49-63 52-68 5-97-106-129-160-40-68-56-162-144-164-53-1-27 78-45 121-7 56-12 123-28 170C157-4 113 24 66-1 46-11 40-39 49-87c19-111 19-139 19-313 0-144 1-187-40-242-27-37-13-94 26-108 103-36 250-59 389-41 63 8 182 85 165 149zm-140 11c-10-39-42-58-96-57-53 12-154 21-179 43-5 9-8 31-8 65 0 151 19 135 127 94 94-36 148-79 156-145" id="ai"/><g id="a"><use transform="matrix(0.017777777777777764,0,0,0.017777777777777764,0,0)" xlink:href="#af"/><use transform="matrix(0.017777777777777764,0,0,0.017777777777777764,10.133333333333326,0)" xlink:href="#ag"/><use transform="matrix(0.017777777777777764,0,0,0.017777777777777764,19.253333333333313,0)" xlink:href="#ah"/><use transform="matrix(0.017777777777777764,0,0,0.017777777777777764,29.68888888888886,0)" xlink:href="#ai"/><use transform="matrix(0.017777777777777764,0,0,0.017777777777777764,40.67555555555552,0)" xlink:href="#ag"/></g><path d="M608-642l-20 77c-36 56-69 94-113 138-49 48-58 40-29 81 33 46 69 89 97 147 44 89 52 141 40 147-3 38-20 49-63 52-68 5-97-106-129-160-40-68-56-162-144-164-53-1-27 78-45 121-7 56-12 123-28 170C157-4 113 24 66-1 46-11 40-39 49-87c19-111 19-139 19-313 0-144 1-187-40-242-27-37-13-94 26-108 103-36 250-59 389-41 63 8 182 85 165 149zm-140 11c-10-39-42-58-96-57-53 12-154 21-179 43-5 9-8 31-8 65 0 151 19 135 127 94 94-36 148-79 156-145" id="aj"/><path d="M330-158c82-22 193-18 286-31 38 11 58 81 24 113-25 24-71 25-116 25-135 0-238 34-358 47C61 7 4-52 15-159c12-113 37-213 32-340-2-59 2-121-2-178-2-44 35-62 81-61 104-31 222-52 345-64 68-7 103 34 111 94 2 12-3 22-9 31-33 14-62 15-103 16-100 2-196 10-270 40h-8c-18 23-11 79-15 106-1 13 5 22 16 25 82-10 176-25 264-12 44 7 78 26 71 72-7 49-76 30-125 30-78 0-138 22-210 29-24 1-35 28-36 52-2 41-10 83-8 126-19 84 122 51 181 35" id="ak"/><path d="M103-24C79 10-2-14 8-59c42-186 129-353 193-524 23-62 63-135 99-197 39-38 106-10 109 47 27 100 51 209 81 307 8 25 72 24 72 63 0 44-26 46-37 75 12 83 46 156 55 243 7 63-106 47-114 11-13-58-36-170-57-231-3-4-7-8-9-14-69 4-134 40-198 52-53 21-53 108-81 160-4 16-8 29-18 43zm215-551c-16 18-92 195-73 208 46 2 100-12 123-31-5-30-32-162-38-171-2-3-6-5-12-6" id="al"/><path d="M19-91c0-222 71-428 58-668-3-62 121-44 170-33 118 27 229 50 293 128 44 53 63 97 63 217 0 165-189 328-383 400-36 13-62 45-108 45-66 0-93-23-93-89zm185-582c-30 151-43 322-58 489 5 39 27 28 60 14 129-54 276-147 276-304 0-155-106-203-278-199" id="am"/><g id="b"><use transform="matrix(0.017777777777777774,0,0,0.017777777777777774,0,0)" xlink:href="#aj"/><use transform="matrix(0.017777777777777774,0,0,0.017777777777777774,10.986666666666665,0)" xlink:href="#ak"/><use transform="matrix(0.017777777777777774,0,0,0.017777777777777774,22.82666666666666,0)" xlink:href="#al"/><use transform="matrix(0.017777777777777774,0,0,0.017777777777777774,33.26222222222221,0)" xlink:href="#am"/></g><path d="M39 59C84 43 157-10 157-69c0-34-42-63-77-61-70 4-68 99-68 162 0 18 9 27 27 27" id="an"/><g id="c"><use transform="matrix(0.017777777777777774,0,0,0.017777777777777774,0,0)" xlink:href="#al"/><use transform="matrix(0.017777777777777774,0,0,0.017777777777777774,10.435555555555554,0)" xlink:href="#an"/></g><path d="M68-174c-8-157-1-333-1-488 0-23-21-28-12-60 24-87 141-85 256-77 161 12 317 42 251 258-5 17-40 45-44 60 15 30 85 80 98 123 62 108 25 192-76 258C455-45 341-9 207-4 145-2 19-30 19-85c0-36 51-41 49-89zm137-510c-18 6-26 137-16 192 30 22 66 2 112-6 70-13 158-95 159-132 17-68-169-82-255-54zm-15 330c-15 57-2 155 5 215 6 4 6 12 18 11 101-5 211-32 267-82 52-46 58-91 12-140s-73-73-81-73c-39 14-121 48-173 54-15 2-34 14-48 15" id="ao"/><use transform="matrix(0.017777777777777774,0,0,0.017777777777777774,0,0)" xlink:href="#ao" id="d"/><path d="M24-128c0-158-18-313-5-472 6-74-11-192 62-191 78 1 88 68 113 130 59 143 102 191 174 297 50 73 81 109 92 109 8 0 12-3 13-9 24-163 3-322-12-477-6-63 62-76 101-37 65 64 45 212 54 340 10 141 7 304-15 413-8 15-20 23-37 23-76 0-203-132-244-200-33-54-79-109-116-169l4 4c-9-20-41-55-54-51-14 102-5 244 6 344 3 30-15 69-41 68-9 0-28-1-56-3-44-28-39-45-39-119" id="ap"/><g id="e"><use transform="matrix(0.017777777777777774,0,0,0.017777777777777774,0,0)" xlink:href="#al"/><use transform="matrix(0.017777777777777774,0,0,0.017777777777777774,10.435555555555554,0)" xlink:href="#ap"/><use transform="matrix(0.017777777777777774,0,0,0.017777777777777774,21.831111111111106,0)" xlink:href="#am"/></g><path d="M521-275c40-33 108-24 108 34 0 49-75 103-210 183-80 47-247 72-323 10-66-54-95-101-82-218 12-106 41-136 91-224 55-96 145-209 240-278 32-23 68-33 107-33 86 2 108 61 107 158 0 55-15 82-44 82-55 1-25-116-79-110-132 15-229 223-291 334-48 86-31 226 81 218 122-9 217-92 295-156" id="aq"/><use transform="matrix(0.017777777777777774,0,0,0.017777777777777774,0,0)" xlink:href="#aq" id="f"/><path d="M247-491c4-58-16-131 34-141 82-16 176-39 255-55 40-8 54-21 55-68 2-89-94-75-175-63-118 17-292 45-359 106-23 21-20 70-5 98 12 11 43 7 43 25 0 45 0 79-2 117-13 22-33 46-32 81 30 86 13 210 13 321 0 45 55 52 97 50 59-25 38-242 50-304 5-22 30-20 56-26 78-17 169-21 238-43 27-8 39-31 39-61 0-46-28-69-84-69-71 0-156 16-210 32h-13" id="ar"/><path d="M50-194C40-28 200 0 338-54c94-37 183-73 272-114 29-13 41-37 41-62 0-44-32-91-71-89-30 3-148 61-190 76l1-1c-45 16-110 45-165 45 1 0 0-5-3-15l1 1-3-11c27-168 60-333 82-502 10-75-103-138-147-64-8 14-17 32-20 54l1-1c-6 17-8 35-12 54l1-2C92-532 60-361 50-194" id="as"/><path d="M776-292c25-58 39-113 39-189 0-186-105-335-289-347-115-8-264 80-335 176-54 72-128 174-130 306-17 72 19 171 60 209C155-80 284-35 371-30c125 8 185-36 261-79 69-40 112-103 145-184zM507-656c91 0 151 106 151 197 0 107-87 221-167 253-29 11-88 21-133 13l1 1c-87-19-148-53-141-159 8-119 91-193 166-254 44-35 86-51 123-51" id="at"/><path d="M801-816c-117 0-37 170-64 263l1-1c-15 67-25 131-43 194-17 60-32 90-42 90-80-84-72-255-129-356-25-43-100-46-123 6-3 9-10 16-13 25l1-1c-8 20-18 38-27 56h3c-37 81-75 146-113 224-14 27-22 40-25 40-20-121-1-292-18-429-7-54-40-79-81-79-96 0-69 186-67 280 4 147 38 414 86 451 74 56 110 33 172-59 29-43 113-203 127-220 48 94 116 279 229 289 100-11 151-212 184-307 29-83 39-155 39-263 0-135-32-203-97-203" id="au"/><path d="M603-651c0-97-31-172-120-170-102 1-164 75-214 132-81 91-127 171-181 277-30 59-52 189-20 259C104-74 204-5 336-32c36-8 99-21 126-45 137-73 206-137 206-191 0-71-82-87-131-48-77 62-149 135-266 145-97 8-92-125-54-190 41-69 89-162 136-217 46-53 83-81 115-81 30 22 11 105 74 105 41 0 61-32 61-97" id="av"/><path d="M211-150c2-56-6-121 2-175-6-57 39-29 77-42l99-9c10 81-7 183-7 268 0 63 24 95 79 97 39 2 67-28 71-64 21-214 34-430 47-645 5-79-45-113-114-95-24 14-42 35-54 58-5 60-4 122-9 186-4 49 4 36-56 43-40 4-81 13-122 10 3-61 9-119 11-180 2-53-31-103-77-103-110 0-98 263-98 399 0 91-21 189-9 280-5 25 0 47 13 66 72 60 142 31 147-94zm10-369c0-2 1 0 1 0h-1" id="aw"/><path d="M70-181C36-106 39-36 121-28c46 4 59-41 69-68 14-40 27-86 43-123 28-31 91-34 132-52 22-9 42-12 57-14 23 70 34 146 54 220 8 29 38 43 83 43 40 0 60-20 60-60 0-87-40-149-50-230 28-18 51-84 14-113-11-9-44-19-50-27-27-105-52-214-82-316-19-65-108-61-136-9-73 134-133 295-189 435-24 59-31 107-56 161zm286-369c8 39 19 86 26 125-22 9-48 16-78 17 14-39 32-102 52-142" id="ax"/><path d="M173-13c102-20 79-163 100-261 0-7 2-19 3-27-8-47 57-27 68-2 40 53 67 131 101 192l-1-1c19 54 59 97 104 92 43-5 70-16 73-58 13-23 7-37-3-71-6-23-15-54-34-88-35-66-68-105-104-161 56-50 105-104 147-170 6-29 17-55 20-85 6-72-103-151-170-159l2 1c-139-21-303 2-392 48-38 20-46 85-18 123 36 48 34 126 35 220 2 188-7 191-22 334-6 57 41 80 92 72zm83-631c46-6 199-69 222 5-8 54-52 92-132 119-94 31-95 61-95-72 0-28 2-45 5-52zm67 321l-3-1c1 1 2 1 3 1" id="ay"/><path d="M450-642c81-9 156-10 231-4 26-13 36-35 36-67 0-81-74-112-168-99-140 19-319-7-450 25-32 17-54 46-55 91v-3c-8 40 21 48 42 67 65 10 127-7 202-2-4 181-23 372-21 564 20 34 93 71 130 26 41-30 19-113 21-180 3-100 12-190 18-284l-1 1c5-43-7-105 15-135" id="az"/><g id="g"><use transform="matrix(0.024444444444444442,0,0,0.024444444444444442,0,0)" xlink:href="#ar"/><use transform="matrix(0.024444444444444442,0,0,0.024444444444444442,13.59111111111111,0)" xlink:href="#as"/><use transform="matrix(0.024444444444444442,0,0,0.024444444444444442,28.673333333333332,0)" xlink:href="#at"/><use transform="matrix(0.024444444444444442,0,0,0.024444444444444442,48.30222222222222,0)" xlink:href="#au"/><use transform="matrix(0.024444444444444442,0,0,0.024444444444444442,69.54444444444444,0)" xlink:href="#av"/><use transform="matrix(0.024444444444444442,0,0,0.024444444444444442,85.06666666666666,0)" xlink:href="#aw"/><use transform="matrix(0.024444444444444442,0,0,0.024444444444444442,98.33999999999999,0)" xlink:href="#ax"/><use transform="matrix(0.024444444444444442,0,0,0.024444444444444442,112.73777777777777,0)" xlink:href="#ay"/><use transform="matrix(0.024444444444444442,0,0,0.024444444444444442,127.86888888888888,0)" xlink:href="#az"/></g><path d="M247-491c4-58-16-131 34-141 82-16 176-39 255-55 40-8 54-21 55-68 2-89-94-75-175-63-118 17-292 45-359 106-23 21-20 70-5 98 12 11 43 7 43 25 0 45 0 79-2 117-13 22-33 46-32 81 30 86 13 210 13 321 0 45 55 52 97 50 59-25 38-242 50-304 5-22 30-20 56-26 78-17 169-21 238-43 27-8 39-31 39-61 0-46-28-69-84-69-71 0-156 16-210 32h-13" id="aA"/><g id="h"><use transform="matrix(0.024444444444444442,0,0,0.024444444444444442,0,0)" xlink:href="#aA"/><use transform="matrix(0.024444444444444442,0,0,0.024444444444444442,13.59111111111111,0)" xlink:href="#at"/><use transform="matrix(0.024444444444444442,0,0,0.024444444444444442,33.22,0)" xlink:href="#ay"/></g><path d="M633-32c99 0 53-140 53-231 0-160 17-350-41-466-13-25-59-60-90-60-48-2-72 81-86 122-47 132-74 199-82 202-15-90-57-183-81-259-17-55-61-93-116-93-21 0-40 12-48 39-59 200-67 431-92 658C43-58 89 6 151-27c16-9 25-11 33-23 14-128 27-256 35-392 34 77 71 239 153 252 64-12 80-94 111-139 24-35 42-76 62-112 2 86 2 175 2 264 0 97 29 145 86 145" id="aB"/><path d="M42-70c0 87 115 70 183 54l-1 1c168-29 298-46 412-66 37-61 31-107-28-144-59 12-120 13-178 22 6-108 31-217 31-327 0-55 4-92 13-111 33-5 63-9 97-17 108 2 116-84 54-143-115-14-235 13-335 17-9 1-17 2-25 5l1-1c-26 5-56 8-80 15l1-1c-64 12-112 20-118 81-8 89 119 84 199 63-6 0 1-1 3-1 14-2 24 0 41-3 2 126-16 240-31 354-4 28-1 78-21 91-30 19-88 18-126 30l1-1c-53 5-93 24-93 82" id="aC"/><path d="M216-409c9 8 16 19 19 30-1 9 8 9 10 13 37 63 77 111 116 172 37 57 163 169 227 172 23 0 40-11 52-32 33-170 13-434 6-619-3-83-39-143-107-149-45-4-69 31-66 79 10 146 31 283 13 439-51-61-104-153-152-217-31-42-51-96-76-155l1 1c-28-66-40-134-124-136-97-1-69 150-80 250-17 150 12 295 5 444-2 50 15 62 51 88 19 2 42 3 59 3 35 2 66-46 57-86l1 1c-10-94-14-194-12-298zm39 2c4 1 2 2 0 3v-3zm229 115c0-2 0-3 1-4-1 1-1 3-1 4" id="aD"/><g id="i"><use transform="matrix(0.024444444444444442,0,0,0.024444444444444442,0,0)" xlink:href="#aB"/><use transform="matrix(0.024444444444444442,0,0,0.024444444444444442,16.45111111111111,0)" xlink:href="#ax"/><use transform="matrix(0.024444444444444442,0,0,0.024444444444444442,30.848888888888887,0)" xlink:href="#aC"/><use transform="matrix(0.024444444444444442,0,0,0.024444444444444442,46.419999999999995,0)" xlink:href="#aD"/></g><path d="M615-24c62 1 58-78 47-128 24-171 55-356 55-541 0-64-23-96-70-96-71-1-99 44-94 123-15 114-18 275-42 381-6 28-34 35-58 44-76 27-135 58-212 58-42 0-27-72-25-115 4-84 25-172 38-251l-1 1c12-62 61-162-1-204l2 1c-43-49-114-25-124 36-27 163-69 328-78 509-3 62 15 122 50 146 37 26 87 40 150 40 41 0 198-44 262-67 14 13 28 28 43 46 26 11 45 17 58 17" id="aE"/><path d="M134-345c49 1 97-57 97-108 0-47-47-85-91-85-59 0-87 37-87 93s29 99 81 100zm-2 282c73 0 133-118 63-170-59-44-144-14-144 71 0 55 27 99 81 99" id="aF"/><g id="j"><use transform="matrix(0.024444444444444442,0,0,0.024444444444444442,0,0)" xlink:href="#aA"/><use transform="matrix(0.024444444444444442,0,0,0.024444444444444442,13.59111111111111,0)" xlink:href="#aE"/><use transform="matrix(0.024444444444444442,0,0,0.024444444444444442,30.77555555555555,0)" xlink:href="#aD"/><use transform="matrix(0.024444444444444442,0,0,0.024444444444444442,46.468888888888884,0)" xlink:href="#av"/><use transform="matrix(0.024444444444444442,0,0,0.024444444444444442,61.9911111111111,0)" xlink:href="#az"/><use transform="matrix(0.024444444444444442,0,0,0.024444444444444442,79.56666666666666,0)" xlink:href="#aC"/><use transform="matrix(0.024444444444444442,0,0,0.024444444444444442,95.13777777777777,0)" xlink:href="#at"/><use transform="matrix(0.024444444444444442,0,0,0.024444444444444442,114.76666666666665,0)" xlink:href="#aD"/><use transform="matrix(0.024444444444444442,0,0,0.024444444444444442,130.45999999999998,0)" xlink:href="#aF"/></g><path d="M292-638c-67 2-113 14-176 21-81 9-112-68-58-103 132-46 304-52 470-66l65 5c50 52 43 111-50 111-45 0-75 15-112 18-18 16-19 83-24 152-7 108-21 214-33 322-5 46 36 20 67 20 54 0 81-10 139-16 43 25 50 62 23 110-151 29-311 50-490 79C58 24-8 22 3-44c14-83 161-45 224-90 22-16 24-69 29-107 17-126 33-258 36-397" id="aG"/><path d="M371-533c189 0 256 55 239 237-9 91-67 138-157 205C374-33 301-7 236-7 155-7 13-82 18-160c3-44 62-73 96-38 43 44 152 73 218 29 77-51 166-125 156-169 2-44-67-63-119-62-47 1-108 1-155 3C87-393 13-429 1-531c11-87 101-150 165-187 90-52 160-96 290-87 34 2 118 78 115 115-3 35-23 38-55 45-15 4-26-4-33-24-37-64-116-1-164 12-41 11-154 77-154 113 0 15 14 22 41 22 45 0 127-11 165-11" id="aH"/><g id="k"><use transform="matrix(0.017777777777777774,0,0,0.017777777777777774,0,0)" xlink:href="#aG"/><use transform="matrix(0.017777777777777774,0,0,0.017777777777777774,11.288888888888886,0)" xlink:href="#aH"/></g><use transform="matrix(0.017777777777777774,0,0,0.017777777777777774,0,0)" xlink:href="#am" id="l"/><path d="M590-683c0-95-64-132-148-103-62 21-113 58-161 92-97 69-165 165-223 275C-45-222 51 11 277-12c154-16 257-81 343-160 63-58 100-126 109-243 12-155-158-93-246-67-61 18-178 69-168 115-2 30 28 68 54 64 69-10 133-52 201-67 9-2 20 9 20 17 0 11-18 38-57 79-85 91-188 136-306 136-55 0-99-68-99-127 0-30 16-69 37-123 25-64 237-288 318-281 25-8 66 40 79 44 19 0 28-19 28-58" id="aI"/><path d="M593-790c58 0 99 54 77 117-5 13-15 16-35 14-70-7-152-3-229 7-31 20-24 81-26 127-4 138-16 277-16 422 0 32 4 70-21 83-26 36-88 7-103-20 1-182 10-346 21-521 2-27 11-81-18-84-73-7-138 11-206 3-20-18-39-18-32-51-3-78 74-91 145-91 129 0 251 6 369-8 25-3 49 2 74 2" id="aJ"/><g id="m"><use transform="matrix(0.017777777777777774,0,0,0.017777777777777774,0,0)" xlink:href="#aI"/><use transform="matrix(0.017777777777777774,0,0,0.017777777777777774,13.51111111111111,0)" xlink:href="#aj"/><use transform="matrix(0.017777777777777774,0,0,0.017777777777777774,24.497777777777774,0)" xlink:href="#ak"/><use transform="matrix(0.017777777777777774,0,0,0.017777777777777774,36.337777777777774,0)" xlink:href="#al"/><use transform="matrix(0.017777777777777774,0,0,0.017777777777777774,46.773333333333326,0)" xlink:href="#aJ"/><use transform="matrix(0.017777777777777774,0,0,0.017777777777777774,59.55555555555554,0)" xlink:href="#ak"/><use transform="matrix(0.017777777777777774,0,0,0.017777777777777774,71.39555555555555,0)" xlink:href="#aj"/></g><path d="M107-780c100 15 51 176 51 272 0 29 23 25 56 24 33-11 175 4 171-42 9-67 4-153 14-224 12-14 39-57 70-50 51 0 74 34 69 103L490-47c-6 28-25 57-57 56-118-5-54-182-54-299 0-34 3-75-15-85-65 6-127 12-191 19-52 29-23 162-29 239C135-7 87 19 22-30 10-48 7-67 13-88c-16-100 8-215 8-322 0-127-9-364 86-370" id="aK"/><g id="n"><use transform="matrix(0.017777777777777774,0,0,0.017777777777777774,0,0)" xlink:href="#aJ"/><use transform="matrix(0.017777777777777774,0,0,0.017777777777777774,12.78222222222222,0)" xlink:href="#aK"/><use transform="matrix(0.017777777777777774,0,0,0.017777777777777774,22.4,0)" xlink:href="#al"/><use transform="matrix(0.017777777777777774,0,0,0.017777777777777774,32.83555555555555,0)" xlink:href="#ap"/></g><path d="M3-81C3-44 54-2 90-8c84-15 229-66 336-66 66 0 138-5 200-16 15-7 26-21 25-46 0-56-22-86-66-81l-355 42c-45-14 13-69 26-93 78-144 236-280 334-415 19-26 27-45 27-56-4-55-57-67-130-64-142 6-306 4-411 45-29 11-41 39-41 70 0 43 17 64 50 64 66-16 156-53 230-57 24-1 92-12 93 11 0 9-27 41-80 96C228-469 138-318 58-193 23-137 3-101 3-81" id="aL"/><path d="M44-443c79-191 208-366 448-366 141 0 239 118 267 253 46 222-61 413-213 490-83 42-221 78-338 30-55-23-106-43-129-82-26-14-80-140-57-202 2-41 8-89 22-123zm103 115c1 136 75 191 208 191 130 0 180-50 241-135 38-53 55-111 55-169 0-109-73-236-179-227-143 12-260 151-311 271-9 24-14 47-14 69" id="aM"/><path d="M103-360c0-112 97-112 179-128 97-18 242-75 249-136 6-48-42-75-151-71-112 4-194 15-276 54-32 15-101 31-94-24 35-105 323-159 505-131 75 11 164 108 120 200-57 118-164 168-297 220-46 18-100 9-130 40-14 46-42 100-66 94-26 0-39-39-39-118zm112 214c60 54-29 135-88 135-48 0-65-33-51-98 18-31 37-56 89-54 19 0 36 5 50 17" id="aN"/><g id="o"><use transform="matrix(0.017777777777777774,0,0,0.017777777777777774,0,0)" xlink:href="#aL"/><use transform="matrix(0.017777777777777774,0,0,0.017777777777777774,11.875555555555554,0)" xlink:href="#ak"/><use transform="matrix(0.017777777777777774,0,0,0.017777777777777774,23.715555555555554,0)" xlink:href="#aj"/><use transform="matrix(0.017777777777777774,0,0,0.017777777777777774,34.70222222222222,0)" xlink:href="#aM"/><use transform="matrix(0.017777777777777774,0,0,0.017777777777777774,48.977777777777774,0)" xlink:href="#aN"/></g><path d="M23-677c-68-88 127-122 212-122 113 0 253 24 291 82 92 144-48 310-153 365-52 27-102 48-161 69-56 20-53 15-58 80-4 49-8 103-13 153-3 31-19 46-43 46-44 0-65-28-63-81 5-162 8-330 16-486 3-53-4-75-28-106zm415 73c0-44-44-66-132-66-78 0-124 8-135 26-10 16-14 89-14 218 0 44 22 39 57 25 83-34 224-115 224-203" id="aO"/><path d="M21-302C-7-136 9 24 196-12c147-28 263-93 386-142 57-23 26-120-26-120-111 32-240 115-378 126-13 1-22-26-25-45 30-174 59-350 88-524 10-62-86-124-120-61-39 73-49 196-69 277-19 77-22 145-31 199" id="aP"/><path d="M192-85c-3 48 46 100 89 72 52-75 73-232 102-321 46-139 146-233 278-374 22-37 2-105-46-93-81 20-199 174-252 246-53 73-46 65-110 7-63-57-96-136-132-220-11-25-31-37-54-37-36-1-56 32-56 68 32 142 118 264 224 332 15 16 24 24 21 38" id="aQ"/><g id="p"><use transform="matrix(0.017777777777777774,0,0,0.017777777777777774,0,0)" xlink:href="#am"/><use transform="matrix(0.017777777777777774,0,0,0.017777777777777774,10.737777777777776,0)" xlink:href="#aG"/><use transform="matrix(0.017777777777777774,0,0,0.017777777777777774,22.026666666666664,0)" xlink:href="#aH"/><use transform="matrix(0.017777777777777774,0,0,0.017777777777777774,33.24444444444444,0)" xlink:href="#aO"/><use transform="matrix(0.017777777777777774,0,0,0.017777777777777774,43.271111111111104,0)" xlink:href="#aP"/><use transform="matrix(0.017777777777777774,0,0,0.017777777777777774,54.204444444444434,0)" xlink:href="#al"/><use transform="matrix(0.017777777777777774,0,0,0.017777777777777774,64.63999999999999,0)" xlink:href="#aQ"/></g><path d="M635-31c28-53 7-115-31-143-7-19-67-63-88-82-39-36-80-78-117-115 1-16 41-65 118-148l-10 11c30-36 53-67 85-95 54-48 78-89 78-117s-20-70-52-70c-36 0-116 78-245 230-22 26-38 59-67 71-30 12-85-104-102-151-13-36-72-158-75-157-34-47-96-35-89 35 8 88 69 162 101 236 14 20 74 122 77 140-20 61-139 209-182 265-18 23-24 44-24 60C11-36 45 1 69 0c45-2 96-97 124-134 67-89 109-132 124-131 48 2 103 85 141 115 20 16 39 33 56 52 49 58 88 82 121 67" id="aR"/><path d="M49-77C44-40 70-4 106-4c52 0 58-115 69-176 33-185 88-339 106-531 5-55-37-120-88-84-58 41-108 94-156 139-9 8-27 43-27 58-1 28 35 54 60 54 15-1 48-23 43 15" id="aS"/><g id="q"><use transform="matrix(0.017777777777777774,0,0,0.017777777777777774,0,0)" xlink:href="#aR"/><use transform="matrix(0.017777777777777774,0,0,0.017777777777777774,12.017777777777775,0)" xlink:href="#aS"/></g><path d="M489-785c107 0 154 111 116 214-29 79-213 255-300 345-26 27-38 39-16 63 95 2 204-5 287 7 22 4 49 51 49 77 0 63-95 31-141 31H320C244-52 124 2 73 14 50 19-1-26 3-53c6-51 111-140 150-182 94-98 182-189 275-285 55-57 80-102 80-129 1-31-28-24-56-21-120 11-265 81-296 145-13 26-15 67-56 65s-51-21-51-66c0-144 158-200 287-235 61-16 112-24 153-24" id="aT"/><g id="r"><use transform="matrix(0.017777777777777774,0,0,0.017777777777777774,0,0)" xlink:href="#aR"/><use transform="matrix(0.017777777777777774,0,0,0.017777777777777774,12.017777777777775,0)" xlink:href="#aT"/></g><path d="M629-645c28 177 9 401 28 582 3 29-18 50-47 50-97 0-67-194-71-306-1-24-4-66-3-92 1-39-15-57-30-33-49 79-88 161-139 243-9 15-21 23-34 23-33 0-70-69-89-115-10-23-57-152-73-152-28 0-27 119-31 162-9 93-16 174-27 265-2 3-35 21-48 20-71-3-50-117-43-176 24-211 38-410 84-595 39-67 121 2 138 59 22 73 63 167 84 249 7 23 13 34 20 34 17 0 54-75 107-225 17-48 42-155 115-96 31 25 52 57 59 103" id="aU"/><path d="M106-737c41-53 131 12 108 86-42 139-71 285-71 455 0 88 72 66 143 48 49-12 128-35 183-63 38-19 36-69 44-119 17-114 31-247 31-354 0-57 26-85 79-85 37 0 55 27 55 81 0 190-34 397-59 573 4 31 20 93-13 105-8 10-30 7-65-8-16-20-33-38-51-54C397-48 305 0 205 0 79 0 5-43 13-176c13-196 50-391 93-561" id="aV"/><g id="s"><use transform="matrix(0.017777777777777774,0,0,0.017777777777777774,0,0)" xlink:href="#aq"/><use transform="matrix(0.017777777777777774,0,0,0.017777777777777774,11.271111111111109,0)" xlink:href="#aM"/><use transform="matrix(0.017777777777777774,0,0,0.017777777777777774,25.546666666666663,0)" xlink:href="#aU"/><use transform="matrix(0.017777777777777774,0,0,0.017777777777777774,37.493333333333325,0)" xlink:href="#aO"/><use transform="matrix(0.017777777777777774,0,0,0.017777777777777774,47.51999999999999,0)" xlink:href="#aV"/><use transform="matrix(0.017777777777777774,0,0,0.017777777777777774,60.017777777777766,0)" xlink:href="#aJ"/><use transform="matrix(0.017777777777777774,0,0,0.017777777777777774,72.79999999999998,0)" xlink:href="#ak"/></g><use transform="matrix(0.017777777777777774,0,0,0.017777777777777774,0,0)" xlink:href="#am" id="t"/><path d="M194-490c84-10 187-18 187 71 0 54-54 28-96 45-79 1-166 17-240 6-17-14-55-67-20-89 39-24 120-27 169-33zm-61 193c94 0 235-47 235 61 0 66-66 50-124 57-28 4-110 7-132 8-50 1-113-51-81-101 17-27 58-14 102-25" id="aW"/><use transform="matrix(0.017777777777777774,0,0,0.017777777777777774,0,0)" xlink:href="#aW" id="u"/><path d="M308-581c0 139-161 150-211 250h217v56H22l-3-50c42-111 194-125 222-250-3-42-25-69-72-67-47 0-75 25-81 69l-64-6c14-72 61-117 147-117 83 0 136 39 136 114" id="aX"/><path d="M44-228v-78h244v78H44" id="aY"/><path d="M507-712c85 21 58 156 75 252 15 28 37 66 16 97-49 73-23 203-39 323-4 28-48 49-75 23-22-21-25-21-31-66-9-66 6-122 8-189 2-76-65-30-115-24-69 8-187 40-227 40-73 0-140-72-111-150 27-73 71-119 103-192 19-43 54-103 78-153 18-39 24-47 54-51 29-4 54 45 50 73-11 77-60 137-90 200-39 83-63 123-63 125 3 35 44 12 70 11 65-16 127-28 196-43 38-8 57-22 57-42 2-69-19-156 5-210 7-17 22-24 39-24" id="aZ"/><g id="v"><use transform="matrix(0.017777777777777774,0,0,0.017777777777777774,0,0)" xlink:href="#ao"/><use transform="matrix(0.02222222222222222,0,0,0.02222222222222222,11.43111111111111,0)" xlink:href="#aX"/><use transform="matrix(0.02222222222222222,0,0,0.02222222222222222,18.78666666666666,0)" xlink:href="#aY"/><use transform="matrix(0.01777777777777777,0,0,0.01777777777777777,26.142222222222216,0)" xlink:href="#aZ"/><use transform="matrix(0.01777777777777777,0,0,0.01777777777777777,37.164444444444435,0)" xlink:href="#al"/><use transform="matrix(0.01777777777777777,0,0,0.01777777777777777,47.59999999999999,0)" xlink:href="#aq"/></g><use transform="matrix(0.017777777777777774,0,0,0.017777777777777774,0,0)" xlink:href="#al" id="w"/><g id="x"><use transform="matrix(0.017777777777777774,0,0,0.017777777777777774,0,0)" xlink:href="#ap"/><use transform="matrix(0.017777777777777774,0,0,0.017777777777777774,11.395555555555553,0)" xlink:href="#aM"/><use transform="matrix(0.017777777777777774,0,0,0.017777777777777774,25.671111111111106,0)" xlink:href="#aJ"/></g><path d="M697 1c1 28-21 55-50 54-21 0-46-18-77-52-32-35-51-52-56-52C390 2 288 19 176-28 69-73 12-126 13-276c0-184 157-386 282-467 76-50 243-89 339-27 58 37 109 80 135 146 29 74 35 147 3 242-27 79-64 141-111 199-18 23-27 38-27 44 0 19 74 109 63 140zM448-200c12-68-47-222 52-222 51 0 64 41 70 89 9 80 60-19 72-41 20-37 29-84 29-134 1-93-48-165-140-161-161 7-233 84-316 209-53 79-80 143-80 192-1 114 135 154 246 114 40-14 63-27 67-46" id="ba"/><g id="y"><use transform="matrix(0.017777777777777774,0,0,0.017777777777777774,0,0)" xlink:href="#ak"/><use transform="matrix(0.017777777777777774,0,0,0.017777777777777774,11.839999999999998,0)" xlink:href="#ba"/><use transform="matrix(0.017777777777777774,0,0,0.017777777777777774,26.20444444444444,0)" xlink:href="#aV"/><use transform="matrix(0.017777777777777774,0,0,0.017777777777777774,38.70222222222221,0)" xlink:href="#al"/><use transform="matrix(0.017777777777777774,0,0,0.017777777777777774,49.13777777777777,0)" xlink:href="#aP"/></g><g id="z"><use transform="matrix(0.017777777777777774,0,0,0.017777777777777774,0,0)" xlink:href="#aJ"/><use transform="matrix(0.017777777777777774,0,0,0.017777777777777774,12.78222222222222,0)" xlink:href="#aM"/></g><path d="M221-124c-5 68 57 122 114 88 56-69 74-227 103-315 43-131 137-218 258-350 11-10 13-24 13-44 0-51-23-76-70-76-24 0-64 28-115 76-59 54-122 144-170 207-38-22-100-93-118-140l2 2c-5-9-14-22-18-32l2 3c-24-42-35-120-100-120-46 0-72 39-72 84 30 138 114 263 217 331 10 7 14 13 14 18" id="bb"/><path d="M562-231c-119 0-201 32-308 40-14 1-42-3-40-14 7-43 5-108 16-155 15-24 58-17 92-28 55-18 122-10 191-10 29 0 63-18 62-50l-1 1c9-54-30-90-85-89l2 1c-79-20-172-1-247 10 3-27 1-57 6-86 80-35 193-36 303-41 17-1 37-7 58-16 38-58-8-126-51-147l1 1c-50-22-116-3-173 4-55 6-120 24-173 38l1-1c-58 17-141 13-134 97 6 67 3 142 3 213 0 107-34 195-34 299 0 91 55 147 155 140 120-8 214-45 346-45 28 0 55-3 82-5h-6c53-8 92-74 55-130-9-16-23-28-41-35-26 5-52 8-80 8zM242-525v-1 1" id="bc"/><path d="M57-191C48-107 192-27 280-27c97 0 254-99 310-169 39-50 65-83 62-166-5-159-71-204-245-204-43 0-128 16-175 9 33-54 156-102 224-125 50-17 39 63 85 49 7-1 26-9 26-8 27 1 48-28 46-55-5-57-86-138-163-130-107 11-177 44-249 89-64 40-151 103-160 192 11 108 88 147 219 147 67 0 156-12 208 7 20 7 30 17 30 30 0 34-38 77-114 130 1-1 0-1 1-1-43 46-146 46-193 1-15-15-43-32-65-30-41 4-67 29-70 70" id="bd"/><g id="A"><use transform="matrix(0.017777777777777778,0,0,0.017777777777777778,0,0)" xlink:href="#bb"/><use transform="matrix(0.017777777777777778,0,0,0.017777777777777778,11.982222222222223,0)" xlink:href="#bc"/><use transform="matrix(0.017777777777777778,0,0,0.017777777777777778,23.840000000000003,0)" xlink:href="#bd"/></g><g id="B"><use transform="matrix(0.017777777777777774,0,0,0.017777777777777774,0,0)" xlink:href="#aR"/><use transform="matrix(0.017777777777777774,0,0,0.017777777777777774,12.017777777777775,0)" xlink:href="#aS"/></g><path d="M312-705c33-33 39-107-26-103-49 3-81 54-111 81-75 69-115 191-144 308-21 84-23 101-14 176 9 78 64 163 125 214 24 20 92 29 89-18-4-43-67-95-83-129-51-107-29-195 12-325 28-89 89-143 152-204" id="be"/><path d="M247-706c69-7 55 87 47 144 7 36 7 40 59 43 50 3 122-1 122 59 0 38-26 67-57 68-54 2-108-13-130 27-29 34-30 125-56 158-43 28-93 0-87-69-5-35 30-117-28-110-65 8-119-7-115-66 3-51 46-54 113-53 79 2 72-25 75-84 4-71 5-112 57-117" id="bf"/><path d="M303 6h-50L114-380H25v-56h131l119 336 211-692h61" id="bg"/><path d="M281-285c31-114 79-277 15-384-30-51-68-104-118-134-26-16-69-9-66 27 4 51 46 70 66 106 47 87 58 158 22 285-23 82-35 147-91 197C43-130 8-88 8-59 8-15 61 0 89-24c71-61 131-123 171-221 9-21 13-29 21-43v3" id="bh"/><g id="C"><use transform="matrix(0.017777777777777774,0,0,0.017777777777777774,0,0)" xlink:href="#aY"/><use transform="matrix(0.017777777777777774,0,0,0.017777777777777774,5.884444444444443,0)" xlink:href="#be"/><use transform="matrix(0.017777777777777774,0,0,0.017777777777777774,11.91111111111111,0)" xlink:href="#ao"/><use transform="matrix(0.017777777777777774,0,0,0.017777777777777774,23.34222222222222,0)" xlink:href="#bf"/><use transform="matrix(0.01999999999999999,0,0,0.01999999999999999,31.89333333333333,0)" xlink:href="#bg"/><use transform="matrix(0.017777777777777767,0,0,0.017777777777777767,42.833333333333336,0)" xlink:href="#am"/><use transform="matrix(0.017777777777777767,0,0,0.017777777777777767,53.5711111111111,0)" xlink:href="#bh"/></g><path d="M11-110C-14-66 45-13 76-8c17 2 29-20 35-34 46-87 86-151 130-233 80-148 195-281 286-421 44-66-51-145-100-70C284-548 148-351 11-110" id="bi"/><use transform="matrix(0.017777777777777767,0,0,0.017777777777777767,0,0)" xlink:href="#bi" id="D"/><g id="E"><use transform="matrix(0.017777777777777767,0,0,0.017777777777777767,0,0)" xlink:href="#aT"/><use transform="matrix(0.017777777777777767,0,0,0.017777777777777767,11.395555555555548,0)" xlink:href="#al"/></g><g id="F"><use transform="matrix(0.017777777777777774,0,0,0.017777777777777774,0,0)" xlink:href="#aq"/><use transform="matrix(0.017777777777777774,0,0,0.017777777777777774,11.271111111111109,0)" xlink:href="#aM"/><use transform="matrix(0.017777777777777774,0,0,0.017777777777777774,25.546666666666663,0)" xlink:href="#aU"/><use transform="matrix(0.017777777777777774,0,0,0.017777777777777774,37.493333333333325,0)" xlink:href="#aO"/><use transform="matrix(0.017777777777777774,0,0,0.017777777777777774,47.51999999999999,0)" xlink:href="#aV"/><use transform="matrix(0.017777777777777774,0,0,0.017777777777777774,60.017777777777766,0)" xlink:href="#aJ"/><use transform="matrix(0.017777777777777774,0,0,0.017777777777777774,72.79999999999998,0)" xlink:href="#ak"/></g><g id="G"><use transform="matrix(0.017777777777777774,0,0,0.017777777777777774,0,0)" xlink:href="#aR"/><use transform="matrix(0.017777777777777774,0,0,0.017777777777777774,12.017777777777775,0)" xlink:href="#aT"/></g><g id="H"><use transform="matrix(0.017777777777777774,0,0,0.017777777777777774,0,0)" xlink:href="#aY"/><use transform="matrix(0.017777777777777774,0,0,0.017777777777777774,5.884444444444443,0)" xlink:href="#be"/><use transform="matrix(0.017777777777777774,0,0,0.017777777777777774,11.91111111111111,0)" xlink:href="#ao"/><use transform="matrix(0.017777777777777774,0,0,0.017777777777777774,23.34222222222222,0)" xlink:href="#aY"/><use transform="matrix(0.01999999999999999,0,0,0.01999999999999999,29.226666666666663,0)" xlink:href="#bg"/><use transform="matrix(0.017777777777777767,0,0,0.017777777777777767,40.16666666666666,0)" xlink:href="#am"/><use transform="matrix(0.017777777777777767,0,0,0.017777777777777767,50.90444444444443,0)" xlink:href="#bh"/></g><g id="I"><use transform="matrix(0.017777777777777767,0,0,0.017777777777777767,0,0)" xlink:href="#aT"/><use transform="matrix(0.017777777777777767,0,0,0.017777777777777767,11.395555555555548,0)" xlink:href="#al"/></g><g id="J"><use transform="matrix(0.017777777777777774,0,0,0.017777777777777774,0,0)" xlink:href="#ak"/><use transform="matrix(0.017777777777777774,0,0,0.017777777777777774,11.839999999999998,0)" xlink:href="#ba"/><use transform="matrix(0.017777777777777774,0,0,0.017777777777777774,26.20444444444444,0)" xlink:href="#aV"/><use transform="matrix(0.017777777777777774,0,0,0.017777777777777774,38.70222222222221,0)" xlink:href="#al"/><use transform="matrix(0.017777777777777774,0,0,0.017777777777777774,49.13777777777777,0)" xlink:href="#aP"/></g><g id="K"><use transform="matrix(0.017777777777777774,0,0,0.017777777777777774,0,0)" xlink:href="#aJ"/><use transform="matrix(0.017777777777777774,0,0,0.017777777777777774,12.78222222222222,0)" xlink:href="#aM"/></g><path d="M216-409c9 8 16 19 19 30-1 9 8 9 10 13 37 63 77 111 116 172 37 57 163 169 227 172 23 0 40-11 52-32 33-170 13-434 6-619-3-83-39-143-107-149-45-4-69 31-66 79 10 146 31 283 13 439-51-61-104-153-152-217-31-42-51-96-76-155l1 1c-28-66-40-134-124-136-97-1-69 150-80 250-17 150 12 295 5 444-2 50 15 62 51 88 19 2 42 3 59 3 35 2 66-46 57-86l1 1c-10-94-14-194-12-298zm39 2c4 1 2 2 0 3v-3zm229 115c0-2 0-3 1-4-1 1-1 3-1 4" id="bj"/><g id="L"><use transform="matrix(0.017777777777777778,0,0,0.017777777777777778,0,0)" xlink:href="#bj"/><use transform="matrix(0.017777777777777778,0,0,0.017777777777777778,11.413333333333334,0)" xlink:href="#at"/></g><g id="M"><use transform="matrix(0.017777777777777774,0,0,0.017777777777777774,0,0)" xlink:href="#aY"/><use transform="matrix(0.017777777777777774,0,0,0.017777777777777774,5.884444444444443,0)" xlink:href="#ao"/><use transform="matrix(0.017777777777777774,0,0,0.017777777777777774,17.31555555555555,0)" xlink:href="#bi"/><use transform="matrix(0.017777777777777774,0,0,0.017777777777777774,25.564444444444437,0)" xlink:href="#aT"/><use transform="matrix(0.017777777777777774,0,0,0.017777777777777774,36.959999999999994,0)" xlink:href="#al"/></g><g id="N"><use transform="matrix(0.017777777777777774,0,0,0.017777777777777774,0,0)" xlink:href="#aj"/><use transform="matrix(0.017777777777777774,0,0,0.017777777777777774,10.986666666666665,0)" xlink:href="#ak"/><use transform="matrix(0.017777777777777774,0,0,0.017777777777777774,22.82666666666666,0)" xlink:href="#al"/><use transform="matrix(0.017777777777777774,0,0,0.017777777777777774,33.26222222222221,0)" xlink:href="#aP"/></g><g id="O"><use transform="matrix(0.017777777777777774,0,0,0.017777777777777774,0,0)" xlink:href="#aO"/><use transform="matrix(0.017777777777777774,0,0,0.017777777777777774,10.026666666666666,0)" xlink:href="#al"/><use transform="matrix(0.017777777777777774,0,0,0.017777777777777774,20.46222222222222,0)" xlink:href="#aj"/><use transform="matrix(0.017777777777777774,0,0,0.017777777777777774,31.448888888888884,0)" xlink:href="#aJ"/></g><g id="P"><use transform="matrix(0.017777777777777774,0,0,0.017777777777777774,0,0)" xlink:href="#aY"/><use transform="matrix(0.017777777777777774,0,0,0.017777777777777774,5.884444444444443,0)" xlink:href="#ao"/><use transform="matrix(0.017777777777777774,0,0,0.017777777777777774,17.31555555555555,0)" xlink:href="#bi"/><use transform="matrix(0.017777777777777774,0,0,0.017777777777777774,25.564444444444437,0)" xlink:href="#aT"/><use transform="matrix(0.017777777777777774,0,0,0.017777777777777774,36.959999999999994,0)" xlink:href="#al"/></g><g id="Q"><use transform="matrix(0.017777777777777774,0,0,0.017777777777777774,0,0)" xlink:href="#al"/><use transform="matrix(0.017777777777777774,0,0,0.017777777777777774,10.435555555555554,0)" xlink:href="#ap"/><use transform="matrix(0.017777777777777774,0,0,0.017777777777777774,21.831111111111106,0)" xlink:href="#am"/></g><g id="R"><use transform="matrix(0.017777777777777774,0,0,0.017777777777777774,0,0)" xlink:href="#aG"/><use transform="matrix(0.017777777777777774,0,0,0.017777777777777774,11.288888888888886,0)" xlink:href="#aU"/><use transform="matrix(0.017777777777777774,0,0,0.017777777777777774,23.23555555555555,0)" xlink:href="#al"/><use transform="matrix(0.017777777777777774,0,0,0.017777777777777774,33.6711111111111,0)" xlink:href="#aI"/><use transform="matrix(0.017777777777777774,0,0,0.017777777777777774,47.18222222222221,0)" xlink:href="#aG"/><use transform="matrix(0.017777777777777774,0,0,0.017777777777777774,58.47111111111109,0)" xlink:href="#ap"/><use transform="matrix(0.017777777777777774,0,0,0.017777777777777774,69.86666666666665,0)" xlink:href="#al"/><use transform="matrix(0.017777777777777774,0,0,0.017777777777777774,80.30222222222221,0)" xlink:href="#aj"/><use transform="matrix(0.017777777777777774,0,0,0.017777777777777774,91.28888888888888,0)" xlink:href="#aQ"/></g><g id="S"><use transform="matrix(0.02044444444444443,0,0,0.02044444444444443,0,0)" xlink:href="#bg"/><use transform="matrix(0.02044444444444443,0,0,0.02044444444444443,11.183111111111103,0)" xlink:href="#aY"/><use transform="matrix(0.02044444444444443,0,0,0.02044444444444443,17.95022222222221,0)" xlink:href="#am"/><use transform="matrix(0.02044444444444443,0,0,0.02044444444444443,30.298666666666644,0)" xlink:href="#bi"/><use transform="matrix(0.02044444444444443,0,0,0.02044444444444443,39.78488888888886,0)" xlink:href="#aT"/><use transform="matrix(0.02044444444444443,0,0,0.02044444444444443,52.88977777777774,0)" xlink:href="#al"/></g><g id="T"><use transform="matrix(0.015555555555555552,0,0,0.015555555555555552,0,0)" xlink:href="#am"/><use transform="matrix(0.015555555555555552,0,0,0.015555555555555552,9.395555555555553,0)" xlink:href="#aG"/><use transform="matrix(0.015555555555555552,0,0,0.015555555555555552,19.273333333333326,0)" xlink:href="#aH"/><use transform="matrix(0.015555555555555552,0,0,0.015555555555555552,29.08888888888888,0)" xlink:href="#aO"/><use transform="matrix(0.015555555555555552,0,0,0.015555555555555552,37.862222222222215,0)" xlink:href="#aP"/><use transform="matrix(0.015555555555555552,0,0,0.015555555555555552,47.42888888888888,0)" xlink:href="#al"/><use transform="matrix(0.015555555555555552,0,0,0.015555555555555552,56.55999999999999,0)" xlink:href="#aQ"/></g><g id="U"><use transform="matrix(0.015555555555555552,0,0,0.015555555555555552,0,0)" xlink:href="#aR"/><use transform="matrix(0.015555555555555552,0,0,0.015555555555555552,10.515555555555553,0)" xlink:href="#aS"/><use transform="matrix(0.015555555555555552,0,0,0.015555555555555552,14.917777777777774,0)" xlink:href="#aW"/><use transform="matrix(0.015555555555555552,0,0,0.015555555555555552,21.062222222222218,0)" xlink:href="#aj"/><use transform="matrix(0.015555555555555552,0,0,0.015555555555555552,30.675555555555547,0)" xlink:href="#ak"/><use transform="matrix(0.015555555555555552,0,0,0.015555555555555552,41.03555555555555,0)" xlink:href="#al"/><use transform="matrix(0.015555555555555552,0,0,0.015555555555555552,50.16666666666666,0)" xlink:href="#aP"/><use transform="matrix(0.015555555555555552,0,0,0.015555555555555552,59.73333333333332,0)" xlink:href="#aO"/><use transform="matrix(0.015555555555555552,0,0,0.015555555555555552,68.50666666666665,0)" xlink:href="#al"/><use transform="matrix(0.015555555555555552,0,0,0.015555555555555552,77.63777777777776,0)" xlink:href="#aj"/><use transform="matrix(0.015555555555555552,0,0,0.015555555555555552,87.25111111111109,0)" xlink:href="#aJ"/></g><use transform="matrix(0.015555555555555552,0,0,0.015555555555555552,0,0)" xlink:href="#bf" id="V"/><g id="W"><use transform="matrix(0.015555555555555552,0,0,0.015555555555555552,0,0)" xlink:href="#aG"/><use transform="matrix(0.015555555555555552,0,0,0.015555555555555552,9.877777777777775,0)" xlink:href="#aU"/><use transform="matrix(0.015555555555555552,0,0,0.015555555555555552,20.331111111111106,0)" xlink:href="#al"/><use transform="matrix(0.015555555555555552,0,0,0.015555555555555552,29.462222222222216,0)" xlink:href="#aI"/><use transform="matrix(0.015555555555555552,0,0,0.015555555555555552,41.28444444444443,0)" xlink:href="#aG"/><use transform="matrix(0.015555555555555552,0,0,0.015555555555555552,51.162222222222205,0)" xlink:href="#ap"/><use transform="matrix(0.015555555555555552,0,0,0.015555555555555552,61.13333333333331,0)" xlink:href="#al"/><use transform="matrix(0.015555555555555552,0,0,0.015555555555555552,70.26444444444442,0)" xlink:href="#aj"/><use transform="matrix(0.015555555555555552,0,0,0.015555555555555552,79.87777777777775,0)" xlink:href="#aQ"/></g><g id="X"><use transform="matrix(0.015555555555555552,0,0,0.015555555555555552,0,0)" xlink:href="#aO"/><use transform="matrix(0.015555555555555552,0,0,0.015555555555555552,8.773333333333332,0)" xlink:href="#al"/><use transform="matrix(0.015555555555555552,0,0,0.015555555555555552,17.90444444444444,0)" xlink:href="#aj"/><use transform="matrix(0.015555555555555552,0,0,0.015555555555555552,27.517777777777773,0)" xlink:href="#aJ"/></g><g id="Y"><use transform="matrix(0.015555555555555552,0,0,0.015555555555555552,0,0)" xlink:href="#al"/><use transform="matrix(0.015555555555555552,0,0,0.015555555555555552,9.131111111111109,0)" xlink:href="#ap"/><use transform="matrix(0.015555555555555552,0,0,0.015555555555555552,19.102222222222217,0)" xlink:href="#am"/></g><g id="Z"><use transform="matrix(0.015555555555555552,0,0,0.015555555555555552,0,0)" xlink:href="#aR"/><use transform="matrix(0.015555555555555552,0,0,0.015555555555555552,10.515555555555553,0)" xlink:href="#aT"/><use transform="matrix(0.015555555555555552,0,0,0.015555555555555552,20.48666666666666,0)" xlink:href="#aW"/><use transform="matrix(0.015555555555555552,0,0,0.015555555555555552,26.631111111111103,0)" xlink:href="#aj"/><use transform="matrix(0.015555555555555552,0,0,0.015555555555555552,36.24444444444443,0)" xlink:href="#ak"/><use transform="matrix(0.015555555555555552,0,0,0.015555555555555552,46.60444444444443,0)" xlink:href="#al"/><use transform="matrix(0.015555555555555552,0,0,0.015555555555555552,55.73555555555554,0)" xlink:href="#aP"/><use transform="matrix(0.015555555555555552,0,0,0.015555555555555552,65.30222222222221,0)" xlink:href="#aO"/><use transform="matrix(0.015555555555555552,0,0,0.015555555555555552,74.07555555555554,0)" xlink:href="#al"/><use transform="matrix(0.015555555555555552,0,0,0.015555555555555552,83.20666666666665,0)" xlink:href="#aj"/><use transform="matrix(0.015555555555555552,0,0,0.015555555555555552,92.81999999999998,0)" xlink:href="#aJ"/><use transform="matrix(0.015555555555555552,0,0,0.015555555555555552,104.00444444444442,0)" xlink:href="#aY"/><use transform="matrix(0.015555555555555552,0,0,0.015555555555555552,109.15333333333331,0)" xlink:href="#aG"/><use transform="matrix(0.015555555555555552,0,0,0.015555555555555552,119.03111111111109,0)" xlink:href="#aU"/><use transform="matrix(0.015555555555555552,0,0,0.015555555555555552,129.48444444444442,0)" xlink:href="#al"/><use transform="matrix(0.015555555555555552,0,0,0.015555555555555552,138.61555555555552,0)" xlink:href="#aI"/><use transform="matrix(0.015555555555555552,0,0,0.015555555555555552,150.43777777777774,0)" xlink:href="#aG"/><use transform="matrix(0.015555555555555552,0,0,0.015555555555555552,160.3155555555555,0)" xlink:href="#ap"/><use transform="matrix(0.015555555555555552,0,0,0.015555555555555552,170.2866666666666,0)" xlink:href="#al"/><use transform="matrix(0.015555555555555552,0,0,0.015555555555555552,179.4177777777777,0)" xlink:href="#aj"/><use transform="matrix(0.015555555555555552,0,0,0.015555555555555552,189.03111111111104,0)" xlink:href="#aQ"/><use transform="matrix(0.015555555555555552,0,0,0.015555555555555552,199.49999999999994,0)" xlink:href="#aO"/><use transform="matrix(0.015555555555555552,0,0,0.015555555555555552,208.27333333333328,0)" xlink:href="#al"/><use transform="matrix(0.015555555555555552,0,0,0.015555555555555552,217.40444444444438,0)" xlink:href="#aj"/><use transform="matrix(0.015555555555555552,0,0,0.015555555555555552,227.01777777777772,0)" xlink:href="#aJ"/></g><g id="aa"><use transform="matrix(0.017777777777777764,0,0,0.017777777777777764,0,0)" xlink:href="#aH"/><use transform="matrix(0.017777777777777764,0,0,0.017777777777777764,11.21777777777777,0)" xlink:href="#aJ"/><use transform="matrix(0.017777777777777764,0,0,0.017777777777777764,23.999999999999982,0)" xlink:href="#aM"/><use transform="matrix(0.017777777777777764,0,0,0.017777777777777764,38.27555555555553,0)" xlink:href="#aO"/></g><g id="ab"><use transform="matrix(0.017777777777777774,0,0,0.017777777777777774,0,0)" xlink:href="#ak"/><use transform="matrix(0.017777777777777774,0,0,0.017777777777777774,11.839999999999998,0)" xlink:href="#ba"/><use transform="matrix(0.017777777777777774,0,0,0.017777777777777774,26.20444444444444,0)" xlink:href="#al"/><use transform="matrix(0.017777777777777774,0,0,0.017777777777777774,36.63999999999999,0)" xlink:href="#aJ"/><use transform="matrix(0.017777777777777774,0,0,0.017777777777777774,49.42222222222222,0)" xlink:href="#aG"/><use transform="matrix(0.017777777777777774,0,0,0.017777777777777774,60.7111111111111,0)" xlink:href="#aM"/><use transform="matrix(0.017777777777777774,0,0,0.017777777777777774,74.98666666666665,0)" xlink:href="#ap"/></g><g id="ac"><use transform="matrix(0.017777777777777774,0,0,0.017777777777777774,0,0)" xlink:href="#aG"/><use transform="matrix(0.017777777777777774,0,0,0.017777777777777774,11.288888888888886,0)" xlink:href="#aH"/></g><g id="ad"><use transform="matrix(0.017777777777777774,0,0,0.017777777777777774,0,0)" xlink:href="#ap"/><use transform="matrix(0.017777777777777774,0,0,0.017777777777777774,11.395555555555553,0)" xlink:href="#aM"/><use transform="matrix(0.017777777777777774,0,0,0.017777777777777774,25.671111111111106,0)" xlink:href="#aJ"/></g><g id="ae"><use transform="matrix(0.017777777777777774,0,0,0.017777777777777774,0,0)" xlink:href="#ba"/><use transform="matrix(0.017777777777777774,0,0,0.017777777777777774,14.364444444444441,0)" xlink:href="#aV"/><use transform="matrix(0.017777777777777774,0,0,0.017777777777777774,26.86222222222221,0)" xlink:href="#al"/><use transform="matrix(0.017777777777777774,0,0,0.017777777777777774,37.29777777777777,0)" xlink:href="#am"/><use transform="matrix(0.017777777777777774,0,0,0.017777777777777774,48.03555555555555,0)" xlink:href="#aj"/><use transform="matrix(0.017777777777777774,0,0,0.017777777777777774,59.02222222222221,0)" xlink:href="#al"/><use transform="matrix(0.017777777777777774,0,0,0.017777777777777774,69.45777777777776,0)" xlink:href="#aJ"/><use transform="matrix(0.017777777777777774,0,0,0.017777777777777774,82.23999999999998,0)" xlink:href="#aG"/><use transform="matrix(0.017777777777777774,0,0,0.017777777777777774,93.52888888888887,0)" xlink:href="#aq"/></g></defs></g></svg>