<svg xmlns="http://www.w3.org/2000/svg" xmlns:xlink="http://www.w3.org/1999/xlink" xmlns:lucid="lucid" width="1005" height="1141"><g transform="translate(-153 -14)" lucid:page-tab-id="TACQSc2-eHtR"><path d="M788 136.2c17.67 0 32 13.44 32 30 0 16.58-14.33 30-32 30h-96c-17.67 0-32-13.42-32-30 0-16.56 14.33-30 32-30z" stroke="#000" stroke-width="4" fill="#e3fae3"/><use xlink:href="#a" transform="matrix(1,0,0,1,665,141.21059695875647) translate(48.25333333333333 29.84722222222222)"/><path d="M621.66 234a1.3 1.3 0 0 1 1.26-.98H874.4a.77.77 0 0 1 .73.97l-16.8 62.95a1.3 1.3 0 0 1-1.25.97H605.6a.77.77 0 0 1-.73-.97z" stroke="#000" stroke-width="4" fill-opacity="0"/><use xlink:href="#b" transform="matrix(1,0,0,1,609.6153846153846,238.02037013356926) translate(11.269444444444455 24.53472222222222)"/><use xlink:href="#c" transform="matrix(1,0,0,1,609.6153846153846,238.02037013356926) translate(63.82055555555556 24.53472222222222)"/><use xlink:href="#d" transform="matrix(1,0,0,1,609.6153846153846,238.02037013356926) translate(115.64277777777778 24.53472222222222)"/><use xlink:href="#e" transform="matrix(1,0,0,1,609.6153846153846,238.02037013356926) translate(181.385 24.53472222222222)"/><use xlink:href="#f" transform="matrix(1,0,0,1,609.6153846153846,238.02037013356926) translate(215.625 24.53472222222222)"/><use xlink:href="#g" transform="matrix(1,0,0,1,609.6153846153846,238.02037013356926) translate(87.36277777777778 44.28780864197531)"/><path d="M540 32.2a6 6 0 0 1 6-6h428a6 6 0 0 1 6 6v48a6 6 0 0 1-6 6H546a6 6 0 0 1-6-6z" stroke="#000" stroke-opacity="0" fill="#fff3d9"/><use xlink:href="#h" transform="matrix(1,0,0,1,545,31.190226825034635) translate(8.907777777777795 32.05555555555556)"/><use xlink:href="#i" transform="matrix(1,0,0,1,545,31.190226825034635) translate(161.61222222222221 32.05555555555556)"/><use xlink:href="#j" transform="matrix(1,0,0,1,545,31.190226825034635) translate(217.22333333333333 32.05555555555556)"/><use xlink:href="#k" transform="matrix(1,0,0,1,545,31.190226825034635) translate(286.5966666666667 32.05555555555556)"/><path d="M740 200.2v8.08" stroke="#000" stroke-width="4" fill="none"/><path d="M742 200.26h-4v-2.05h4z" stroke="#000" stroke-width=".05"/><path d="M740 224.55l-4.63-14.27h9.26z" stroke="#000" stroke-width="4"/><path d="M840 436.38h304.6l.02 66.22H840z" stroke="#000" stroke-width="4" fill-opacity="0"/><use xlink:href="#l" transform="matrix(1,0,0,1,852,448.37924701466363) translate(39.78888888888889 27.65972222222222)"/><use xlink:href="#m" transform="matrix(1,0,0,1,852,448.37924701466363) translate(80.39333333333333 27.65972222222222)"/><use xlink:href="#n" transform="matrix(1,0,0,1,852,448.37924701466363) translate(144.78444444444443 27.65972222222222)"/><use xlink:href="#o" transform="matrix(1,0,0,1,852,448.37924701466363) translate(169.94 27.65972222222222)"/><path d="M740 334.73l90 65.86-90 65.85-90-65.86z" stroke="#000" stroke-width="4" fill-opacity="0"/><use xlink:href="#p" transform="matrix(1,0,0,1,655,339.72555389151375) translate(37.165000000000006 48.53472222222222)"/><use xlink:href="#q" transform="matrix(1,0,0,1,655,339.72555389151375) translate(58.69388888888889 48.53472222222222)"/><use xlink:href="#r" transform="matrix(1,0,0,1,655,339.72555389151375) translate(101.84055555555555 48.53472222222222)"/><use xlink:href="#s" transform="matrix(1,0,0,1,655,339.72555389151375) translate(22.071666666666665 66.3125)"/><use xlink:href="#t" transform="matrix(1,0,0,1,655,339.72555389151375) translate(61.85833333333333 66.3125)"/><use xlink:href="#u" transform="matrix(1,0,0,1,655,339.72555389151375) translate(83.93833333333333 66.3125)"/><use xlink:href="#v" transform="matrix(1,0,0,1,655,339.72555389151375) translate(132.3827777777778 66.3125)"/><use xlink:href="#w" transform="matrix(1,0,0,1,655,339.72555389151375) translate(65.60055555555556 84.09027777777779)"/><path d="M740 301.92v7.6" stroke="#000" stroke-width="4" fill="none"/><path d="M742 301.97h-4v-2.05h4z" stroke="#000" stroke-width=".05"/><path d="M740 325.77l-4.63-14.26h9.26z" stroke="#000" stroke-width="4"/><path d="M987.56 398.68l1.22.3 1.16.47 1.07.66.97.83.8.95.67 1.07.48 1.16.3 1.24.1 1.17v5.14h-4v-4.97l-.07-.7-.14-.62-.23-.58-.33-.53-.4-.48-.5-.4-.52-.33-.58-.24-.6-.16-.7-.05h-41.97v-4h42.12zm-152.17 3.9v-4h79.82v4z" stroke="#008a0e" stroke-width=".05" fill="#008a0e"/><path d="M835.44 402.6h-4.8l2.75-2-2.75-2h4.8z" fill="#008a0e"/><path d="M835.46 402.6h-4.88l2.76-2-2.76-2.04h4.88zm-4.73-4l2.7 2-2.7 1.96h4.68v-3.95z" stroke="#008a0e" stroke-width=".05" fill="#008a0e"/><path d="M992.3 427.9l-4.63-14.26h9.27z" fill="#008a0e"/><path d="M992.3 434.38l-7.38-22.74h14.78zm-1.88-18.74l1.9 5.8 1.87-5.8z" stroke="#008a0e" stroke-width=".05" fill="#008a0e"/><use xlink:href="#x" transform="matrix(1,0,0,1,915.2181585102394,391.69944197196753) translate(0 14.222222222222223)"/><path d="M575 401.6h-8.96l-.82.05-.76.2-.73.3-.67.4-.6.5-.5.6-.4.67-.3.72-.2.77-.06.83v8.77h-2v-8.85l.08-1.06.26-1.08.42-1 .57-.95.72-.83.83-.72.94-.57 1.02-.42 1.06-.26 1.06-.08H575zm70.6 0h-47.3v-2h47.3z" stroke="#e81313" stroke-width=".05" fill="#e81313"/><path d="M646.6 400.6l1.38 1h-2.4v-2h2.4z" fill="#e81313"/><path d="M646.66 400.6l1.4 1h-2.5v-2.04h2.5zm-1.05-1v1.96h2.3l-1.33-.97 1.33-1z" stroke="#e81313" stroke-width=".05" fill="#e81313"/><path d="M560 430.67l-4.63-14.27h9.26z" fill="#e81313"/><path d="M560 433.9l-6-18.5h12zm-3.26-16.5l3.26 10.03 3.26-10.03z" stroke="#e81313" stroke-width=".05" fill="#e81313"/><use xlink:href="#y" transform="matrix(1,0,0,1,575.0059693950338,391.69944197196753) translate(0 14.222222222222223)"/><path d="M560 436.38l90 65.86-90 65.87-90-65.86z" stroke="#000" stroke-width="4" fill-opacity="0"/><use xlink:href="#p" transform="matrix(1,0,0,1,475,441.37924701466363) translate(37.165000000000006 48.53472222222222)"/><use xlink:href="#q" transform="matrix(1,0,0,1,475,441.37924701466363) translate(58.69388888888889 48.53472222222222)"/><use xlink:href="#r" transform="matrix(1,0,0,1,475,441.37924701466363) translate(101.84055555555555 48.53472222222222)"/><use xlink:href="#s" transform="matrix(1,0,0,1,475,441.37924701466363) translate(22.071666666666665 66.3125)"/><use xlink:href="#t" transform="matrix(1,0,0,1,475,441.37924701466363) translate(61.85833333333333 66.3125)"/><use xlink:href="#u" transform="matrix(1,0,0,1,475,441.37924701466363) translate(83.93833333333333 66.3125)"/><use xlink:href="#v" transform="matrix(1,0,0,1,475,441.37924701466363) translate(132.3827777777778 66.3125)"/><use xlink:href="#w" transform="matrix(1,0,0,1,475,441.37924701466363) translate(65.60055555555556 84.09027777777779)"/><path d="M650 541.85h304.6v87.65H650z" stroke="#000" stroke-width="4" fill-opacity="0"/><use xlink:href="#l" transform="matrix(1,0,0,1,662,553.848557064485) translate(43.75333333333333 30.22222222222222)"/><use xlink:href="#m" transform="matrix(1,0,0,1,662,553.848557064485) translate(84.35777777777777 30.22222222222222)"/><use xlink:href="#n" transform="matrix(1,0,0,1,662,553.848557064485) translate(148.74888888888887 30.22222222222222)"/><use xlink:href="#z" transform="matrix(1,0,0,1,662,553.848557064485) translate(173.90444444444444 30.22222222222222)"/><use xlink:href="#l" transform="matrix(1,0,0,1,662,553.848557064485) translate(15.52222222222224 48)"/><use xlink:href="#m" transform="matrix(1,0,0,1,662,553.848557064485) translate(56.12666666666668 48)"/><use xlink:href="#n" transform="matrix(1,0,0,1,662,553.848557064485) translate(120.5177777777778 48)"/><use xlink:href="#A" transform="matrix(1,0,0,1,662,553.848557064485) translate(145.67333333333335 48)"/><path d="M165.38 538.08H470v87.65H165.4z" stroke="#000" stroke-width="4" fill-opacity="0"/><use xlink:href="#l" transform="matrix(1,0,0,1,177.38461538461524,550.0746770894201) translate(43.75333333333333 18.22222222222222)"/><use xlink:href="#m" transform="matrix(1,0,0,1,177.38461538461524,550.0746770894201) translate(84.35777777777777 18.22222222222222)"/><use xlink:href="#n" transform="matrix(1,0,0,1,177.38461538461524,550.0746770894201) translate(148.74888888888887 18.22222222222222)"/><use xlink:href="#z" transform="matrix(1,0,0,1,177.38461538461524,550.0746770894201) translate(173.90444444444444 18.22222222222222)"/><use xlink:href="#l" transform="matrix(1,0,0,1,177.38461538461524,550.0746770894201) translate(43.75333333333333 36)"/><use xlink:href="#m" transform="matrix(1,0,0,1,177.38461538461524,550.0746770894201) translate(84.35777777777777 36)"/><use xlink:href="#n" transform="matrix(1,0,0,1,177.38461538461524,550.0746770894201) translate(148.74888888888887 36)"/><use xlink:href="#B" transform="matrix(1,0,0,1,177.38461538461524,550.0746770894201) translate(173.90444444444444 36)"/><use xlink:href="#l" transform="matrix(1,0,0,1,177.38461538461524,550.0746770894201) translate(32.10000000000001 53.77777777777778)"/><use xlink:href="#m" transform="matrix(1,0,0,1,177.38461538461524,550.0746770894201) translate(72.70444444444445 53.77777777777778)"/><use xlink:href="#n" transform="matrix(1,0,0,1,177.38461538461524,550.0746770894201) translate(137.09555555555556 53.77777777777778)"/><use xlink:href="#C" transform="matrix(1,0,0,1,177.38461538461524,550.0746770894201) translate(162.25111111111113 53.77777777777778)"/><path d="M797.56 500.33l1.22.3 1.16.48 1.07.66.97.82.8.96.67 1.07.48 1.17.3 1.22.1 1.16v8.95h-4v-8.78l-.07-.7-.14-.6-.23-.6-.33-.53-.4-.48-.5-.4-.52-.34-.58-.24-.6-.14-.7-.06h-32.05v-4h32.2zm-142.17 3.9v-4h73.7v4z" stroke="#008a0e" stroke-width=".05" fill="#008a0e"/><path d="M655.44 504.24h-4.8l2.75-2-2.75-2h4.8z" fill="#008a0e"/><path d="M655.46 504.27h-4.88l2.76-2.03-2.76-2.02h4.88zm-4.73-4l2.7 1.97-2.7 1.98h4.68v-3.95z" stroke="#008a0e" stroke-width=".05" fill="#008a0e"/><path d="M802.3 533.38l-4.63-14.27h9.27z" fill="#008a0e"/><path d="M802.3 539.85l-7.38-22.74h14.78zm-1.88-18.74l1.9 5.8 1.87-5.8z" stroke="#008a0e" stroke-width=".05" fill="#008a0e"/><use xlink:href="#D" transform="matrix(1,0,0,1,729.1126336402419,492.6953573173396) translate(0 14.222222222222223)"/><path d="M362.4 503.24h-38.67l-.82.07-.75.2-.73.3-.67.4-.6.5-.5.6-.4.67-.3.73-.2.76-.06.82v9.3h-2v-9.38l.07-1.05.26-1.07.42-1.02.58-.93.7-.84.85-.72.93-.58 1.03-.42 1.07-.25 1.05-.1h38.74zm103.2 0H388.1v-2h77.53z" stroke="#e81313" stroke-width=".05" fill="#e81313"/><path d="M466.6 502.24l1.38 1h-2.4v-2h2.4z" fill="#e81313"/><path d="M466.66 502.24l1.4 1.03h-2.5v-2.05h2.5zm-1.05-.97v1.95h2.3l-1.33-.98 1.33-.97z" stroke="#e81313" stroke-width=".05" fill="#e81313"/><path d="M317.7 532.84l-4.64-14.27h9.27z" fill="#e81313"/><path d="M317.7 536.08l-6.02-18.5h12.02zm-3.27-16.5l3.26 10.02 3.25-10.03z" stroke="#e81313" stroke-width=".05" fill="#e81313"/><g><use xlink:href="#E" transform="matrix(1,0,0,1,362.3920841250683,492.6953573173396) translate(0 14.222222222222223)"/></g><path d="M740 785.33l90 65.87-90 65.86-90-65.86z" stroke="#000" stroke-width="4" fill-opacity="0"/><g><use xlink:href="#p" transform="matrix(1,0,0,1,654.9999992212279,790.3325797666877) translate(56.4538888888889 48.53472222222222)"/><use xlink:href="#F" transform="matrix(1,0,0,1,654.9999992212279,790.3325797666877) translate(77.98277777777778 48.53472222222222)"/><use xlink:href="#m" transform="matrix(1,0,0,1,654.9999992212279,790.3325797666877) translate(23.333888888888886 66.3125)"/><use xlink:href="#G" transform="matrix(1,0,0,1,654.9999992212279,790.3325797666877) translate(87.72500000000001 66.3125)"/><use xlink:href="#s" transform="matrix(1,0,0,1,654.9999992212279,790.3325797666877) translate(45.70722222222223 84.09027777777779)"/><use xlink:href="#H" transform="matrix(1,0,0,1,654.9999992212279,790.3325797666877) translate(85.49388888888889 84.09027777777779)"/></g><path d="M762.3 722.4c0 12.35-9.98 22.38-22.3 22.38s-22.3-10.03-22.3-22.4c0-12.36 9.98-22.38 22.3-22.38s22.3 10.02 22.3 22.4z" stroke="#000" stroke-width="4" fill-opacity="0"/><path d="M802.3 633.5v25.25a6 6 0 0 1-6 6H746a6 6 0 0 0-6 6v4.5" stroke="#000" stroke-width="4" fill="none"/><path d="M804.3 633.55h-4v-2.05h4z" stroke="#000" stroke-width=".05"/><path d="M740 691.53l-4.63-14.27h9.26z" stroke="#000" stroke-width="4"/><path d="M317.7 629.73v86.66a6 6 0 0 0 6 6h369.25" stroke="#000" stroke-width="4" fill="none"/><path d="M319.7 629.78h-4v-2.05h4z" stroke="#000" stroke-width=".05"/><path d="M709.22 722.4L694.95 727v-9.27z" stroke="#000" stroke-width="4"/><path d="M994.3 716.47l-.08 1.17-.3 1.22-.48 1.16-.66 1.07-.8.95-.97.82-1.06.65-1.16.48-1.22.3-1.17.1H787.04v-4h199.18l.7-.07.6-.14.6-.25.52-.33.48-.4.4-.5.34-.52.24-.58.15-.6.06-.7V506.6h4z" stroke="#000" stroke-width=".05"/><path d="M994.3 506.65h-4v-2.05h4z"/><path d="M994.33 506.68h-4.05v-2.1h4.05zm-4-2.05v2h3.95v-2z" stroke="#000" stroke-width=".05"/><path d="M785.05 727.02l-14.27-4.63 14.27-4.65z"/><path d="M787.05 729.78l-22.74-7.4 22.75-7.38zm-9.8-7.4l5.8 1.9v-3.77z" stroke="#000" stroke-width=".05"/><path d="M740 748.77v11.35" stroke="#000" stroke-width="4" fill="none"/><path d="M739.9 746.78h.4l1.7-.2v2.25h-4v-2.27z" stroke="#000" stroke-width=".05"/><path d="M740 776.38l-4.63-14.26h9.26z" stroke="#000" stroke-width="4"/><path d="M830 888.1h310v66.2H830z" stroke="#000" stroke-width="4" fill-opacity="0"/><g><use xlink:href="#l" transform="matrix(1,0,0,1,841.9999992212279,900.0914669918038) translate(0.3777777777777942 27.65972222222222)"/><use xlink:href="#m" transform="matrix(1,0,0,1,841.9999992212279,900.0914669918038) translate(40.982222222222234 27.65972222222222)"/><use xlink:href="#n" transform="matrix(1,0,0,1,841.9999992212279,900.0914669918038) translate(105.37333333333335 27.65972222222222)"/><use xlink:href="#I" transform="matrix(1,0,0,1,841.9999992212279,900.0914669918038) translate(130.5288888888889 27.65972222222222)"/><use xlink:href="#J" transform="matrix(1,0,0,1,841.9999992212279,900.0914669918038) translate(177.0888888888889 27.65972222222222)"/></g><path d="M980.25 849.3l1.22.28 1.16.48 1.08.66.96.8.82.97.65 1.06.48 1.16.3 1.22.1 1.18v6.23h-4v-6.08l-.05-.7-.15-.6-.24-.6-.33-.52-.4-.48-.48-.4-.54-.33-.57-.24-.6-.15-.7-.05h-34.75v-4h34.9zm-144.86 3.9v-4h73.7v4z" stroke="#008a0e" stroke-width=".05" fill="#008a0e"/><path d="M835.44 853.2h-4.8l2.75-2-2.75-2h4.8z" fill="#008a0e"/><path d="M835.46 853.22h-4.88l2.76-2.02-2.76-2.03h4.88zm-4.73-4l2.7 1.98-2.7 1.97h4.68v-3.95z" stroke="#008a0e" stroke-width=".05" fill="#008a0e"/><path d="M985 879.62l-4.63-14.27h9.26z" fill="#008a0e"/><path d="M985 886.1l-7.4-22.75h14.8zm-1.88-18.75l1.88 5.8 1.88-5.8z" stroke="#008a0e" stroke-width=".05" fill="#008a0e"/><g><use xlink:href="#D" transform="matrix(1,0,0,1,909.1035752952711,841.6486900693637) translate(0 14.222222222222223)"/></g><path d="M788 1080c17.67 0 32 13.43 32 30s-14.33 30-32 30h-96c-17.67 0-32-13.43-32-30s14.33-30 32-30z" stroke="#000" stroke-width="4" fill="#e3fae3"/><g><use xlink:href="#a" transform="matrix(1,0,0,1,664.9999992212279,1085) translate(48.25333333333333 29.84722222222222)"/></g><path d="M586 980h324l-16 60H570z" stroke="#000" stroke-width="4" fill-opacity="0"/><g><use xlink:href="#K" transform="matrix(1,0,0,1,575,985) translate(35.96722222222227 20.472222222222218)"/><use xlink:href="#L" transform="matrix(1,0,0,1,575,985) translate(113.01611111111113 20.472222222222218)"/><use xlink:href="#M" transform="matrix(1,0,0,1,575,985) translate(153.62055555555557 20.472222222222218)"/><use xlink:href="#N" transform="matrix(1,0,0,1,575,985) translate(218.01166666666666 20.472222222222218)"/><use xlink:href="#O" transform="matrix(1,0,0,1,575,985) translate(252.25166666666664 20.472222222222218)"/><use xlink:href="#P" transform="matrix(1,0,0,1,575,985) translate(132.64944444444444 38.249999999999986)"/></g><path d="M536.93 1003.96l.07.82.18.76.3.73.4.67.52.6.6.5.66.4.73.3.75.2.82.06h15.46v2H541.9l-1.06-.08-1.07-.26-1.02-.42-.94-.57-.82-.72-.72-.83-.57-.94-.43-1.02-.26-1.06-.07-1.06V904.8h2zM645.6 852.2H541.98l-.82.06-.76.18-.74.3-.67.4-.6.52-.5.6-.42.67-.3.72-.18.76-.07.84v28.47h-2v-28.54l.08-1.06.27-1.07.42-1 .56-.95.72-.84.83-.7.95-.58 1.02-.43 1.07-.25 1.05-.08h103.7z" stroke="#e81313" stroke-width=".05" fill="#e81313"/><path d="M646.6 851.2l1.38 1h-2.4v-2h2.4z" fill="#e81313"/><path d="M646.66 851.2l1.4 1.02h-2.5v-2.05h2.5zm-1.05-.98v1.95h2.3l-1.33-.97 1.33-.98z" stroke="#e81313" stroke-width=".05" fill="#e81313"/><path d="M572.7 1010l-14.27 4.63v-9.26z" fill="#e81313"/><path d="M575.93 1010l-18.5 6v-12zm-16.5 3.26l10.03-3.26-10.03-3.26z" stroke="#e81313" stroke-width=".05" fill="#e81313"/><g><use xlink:href="#E" transform="matrix(1,0,0,1,523.0856655960542,885.7093658349181) translate(0 14.222222222222223)"/></g><path d="M985 958.3v45.7a6 6 0 0 1-6 6h-52.2" stroke="#000" stroke-width="4" fill="none"/><path d="M987 958.37h-4v-2.06h4z" stroke="#000" stroke-width=".05"/><path d="M910.54 1010l14.27-4.63v9.26z" stroke="#000" stroke-width="4"/><path d="M740 1044v11.26" stroke="#000" stroke-width="4" fill="none"/><path d="M742 1044.05h-4V1042h4z" stroke="#000" stroke-width=".05"/><path d="M740 1071.53l-4.63-14.27h9.26z" stroke="#000" stroke-width="4"/><defs><path d="M554-168C554 66 246 34 62-12l46-127c48 18 106 42 159 42 83 0 133-9 133-69 0-125-338-82-338-313 0-131 140-182 259-182 44 0 128 11 181 29l-46 127c-37-16-74-39-136-39-95 0-104 46-104 65 0 105 338 60 338 311" id="Q"/><path d="M515-529H344V0H191v-529H20v-118h495v118" id="R"/><path d="M678 0H510l-52-163H244L190 0H27l263-647h144zM419-278l-64-205-69 205h133" id="S"/><path d="M628 0H441L253-259h-9V0H92v-647h262c103 0 225 32 225 194 0 83-36 164-148 189zM425-453c0-43-18-77-66-77H244v154h116c40 0 65-32 65-77" id="T"/><g id="a"><use transform="matrix(0.017777777777777778,0,0,0.017777777777777778,0,0)" xlink:href="#Q"/><use transform="matrix(0.017777777777777778,0,0,0.017777777777777778,10.95111111111111,0)" xlink:href="#R"/><use transform="matrix(0.017777777777777778,0,0,0.017777777777777778,19.537777777777777,0)" xlink:href="#S"/><use transform="matrix(0.017777777777777778,0,0,0.017777777777777778,32.07111111111111,0)" xlink:href="#T"/><use transform="matrix(0.017777777777777778,0,0,0.017777777777777778,43.98222222222222,0)" xlink:href="#R"/></g><path d="M498 0H92v-647h397v117H244v137h224v117H244v159h254V0" id="U"/><path d="M638-326C638-86 539 0 329 0H92v-647h237c202 0 309 84 309 321zm-157 1c0-205-87-205-152-205h-85v413h94c74 0 143-18 143-208" id="V"/><g id="b"><use transform="matrix(0.017777777777777778,0,0,0.017777777777777778,0,0)" xlink:href="#T"/><use transform="matrix(0.017777777777777778,0,0,0.017777777777777778,11.911111111111111,0)" xlink:href="#U"/><use transform="matrix(0.017777777777777778,0,0,0.017777777777777778,22.63111111111111,0)" xlink:href="#S"/><use transform="matrix(0.017777777777777778,0,0,0.017777777777777778,35.16444444444444,0)" xlink:href="#V"/></g><path d="M766 0H629v-290c0-68-20-78-47-78-52 0-84 50-101 96V0H344v-290c0-72-15-78-55-78-43 0-76 68-88 90V0H64c-5-152 11-325-13-457h127l19 57c14-20 67-72 119-72 78 0 101 10 148 65 26-42 74-65 140-65 110 0 162 58 162 180V0" id="W"/><path d="M498-170H184c30 121 146 87 240 44l45 104C413 3 341 14 275 14 122 14 41-97 41-224c0-106 49-247 227-247 174 0 230 92 230 301zM361-271c-7-76-47-95-92-95-20 0-81 5-84 95h176" id="X"/><path d="M311-1l-51 111C165 74 80 17 80-115v-237H11v-106h69v-125h136v125h88v106h-88v251c0 59 26 80 95 100" id="Y"/><path d="M387-460l-46 111c-17-15-34-19-57-19-50 0-73 71-83 97V0H64c-5-148 12-331-13-457h127l20 63c16-27 54-78 100-78 40 0 69 6 89 12" id="Z"/><g id="c"><use transform="matrix(0.017777777777777778,0,0,0.017777777777777778,0,0)" xlink:href="#W"/><use transform="matrix(0.017777777777777778,0,0,0.017777777777777778,14.755555555555556,0)" xlink:href="#X"/><use transform="matrix(0.017777777777777778,0,0,0.017777777777777778,24.373333333333335,0)" xlink:href="#Y"/><use transform="matrix(0.017777777777777778,0,0,0.017777777777777778,30.026666666666667,0)" xlink:href="#X"/><use transform="matrix(0.017777777777777778,0,0,0.017777777777777778,39.644444444444446,0)" xlink:href="#Z"/></g><path d="M485 0H348v-297c0-32 0-71-56-71-41 0-68 47-91 91V0H64v-360c0-38-8-67-13-97h127l20 56c20-19 59-71 119-71 140 0 168 79 168 184V0" id="aa"/><path d="M491 0H364l-20-56c-20 19-55 71-115 71C97 15 64-64 64-169v-288h137v297c0 31 2 71 53 71 41 0 64-47 87-91v-277h137v360c0 38 8 67 13 97" id="ab"/><path d="M510-231c0 131-73 245-211 245-58 0-91-37-101-56L178 0H51c7-53 13-82 13-140v-517h137v256c28-37 63-70 117-70 138 0 192 113 192 240zm-140 2c0-117-40-137-82-137-36 0-60 43-89 93v111c17 41 41 71 76 71 41 0 95-17 95-138" id="ac"/><g id="d"><use transform="matrix(0.017777777777777778,0,0,0.017777777777777778,0,0)" xlink:href="#aa"/><use transform="matrix(0.017777777777777778,0,0,0.017777777777777778,9.76,0)" xlink:href="#ab"/><use transform="matrix(0.017777777777777778,0,0,0.017777777777777778,19.39555555555555,0)" xlink:href="#W"/><use transform="matrix(0.017777777777777778,0,0,0.017777777777777778,34.151111111111106,0)" xlink:href="#ac"/><use transform="matrix(0.017777777777777778,0,0,0.017777777777777778,43.94666666666666,0)" xlink:href="#X"/><use transform="matrix(0.017777777777777778,0,0,0.017777777777777778,53.56444444444443,0)" xlink:href="#Z"/></g><path d="M488 0H357c-1 0-18-42-18-42-26 20-68 56-114 56C97 14 41-35 41-120c0-93 59-172 254-172h35c-1-35 7-74-52-74-63 0-129 19-173 40L58-438c147-44 411-75 410 113 0 123-5 219 20 325zM331-141v-53c-90-4-148 17-148 68 0 33 40 35 70 35 29 0 61-31 78-50" id="ad"/><path d="M500 0H373l-20-42c-10 19-43 56-101 56C94 14 41-100 41-231c0-126 57-240 190-240 53 0 91 33 119 70v-256h137v517c0 58 6 87 13 140zM352-162v-111c-29-48-53-93-90-93-43 0-81 18-81 137 0 121 38 138 95 138 35 0 59-30 76-71" id="ae"/><g id="e"><use transform="matrix(0.017777777777777778,0,0,0.017777777777777778,0,0)" xlink:href="#ad"/><use transform="matrix(0.017777777777777778,0,0,0.017777777777777778,9.653333333333334,0)" xlink:href="#aa"/><use transform="matrix(0.017777777777777778,0,0,0.017777777777777778,19.413333333333334,0)" xlink:href="#ae"/></g><path d="M204-539H62v-108h142v108zM201 0H65v-457h136V0" id="af"/><path d="M430-126C430-12 321 15 219 15 166 15 89-1 36-18l47-112c49 17 86 41 138 41 68-1 69-18 69-36 0-50-242-15-242-208 0-117 105-139 204-139 40 0 101 9 164 28l-46 111c-46-21-75-35-117-35-48 0-65 10-65 32 0 66 242 31 242 210" id="ag"/><g id="f"><use transform="matrix(0.017777777777777778,0,0,0.017777777777777778,0,0)" xlink:href="#ab"/><use transform="matrix(0.017777777777777778,0,0,0.017777777777777778,9.635555555555555,0)" xlink:href="#aa"/><use transform="matrix(0.017777777777777778,0,0,0.017777777777777778,19.39555555555555,0)" xlink:href="#af"/><use transform="matrix(0.017777777777777778,0,0,0.017777777777777778,24.124444444444446,0)" xlink:href="#Y"/><use transform="matrix(0.017777777777777778,0,0,0.017777777777777778,29.777777777777775,0)" xlink:href="#ag"/></g><path d="M445-19C410-2 314 14 279 14 124 14 41-85 41-225c0-148 81-246 241-246 41 0 125 20 158 33l-47 112c-93-51-219-84-212 101 6 176 117 146 217 94" id="ah"/><path d="M516-231c0 131-67 246-237 246C108 15 41-99 41-231c0-127 68-241 238-241 173 0 237 108 237 241zm-140 0c0-112-34-137-97-137-60 0-98 25-98 137 0 100 36 142 98 142 53 0 97-31 97-142" id="ai"/><g id="g"><use transform="matrix(0.017777777777777778,0,0,0.017777777777777778,0,0)" xlink:href="#ah"/><use transform="matrix(0.017777777777777778,0,0,0.017777777777777778,8.48,0)" xlink:href="#ai"/><use transform="matrix(0.017777777777777778,0,0,0.017777777777777778,18.382222222222225,0)" xlink:href="#aa"/><use transform="matrix(0.017777777777777778,0,0,0.017777777777777778,28.142222222222223,0)" xlink:href="#ag"/><use transform="matrix(0.017777777777777778,0,0,0.017777777777777778,36.48,0)" xlink:href="#ab"/><use transform="matrix(0.017777777777777778,0,0,0.017777777777777778,46.11555555555555,0)" xlink:href="#W"/><use transform="matrix(0.017777777777777778,0,0,0.017777777777777778,60.87111111111112,0)" xlink:href="#X"/><use transform="matrix(0.017777777777777778,0,0,0.017777777777777778,70.4888888888889,0)" xlink:href="#ae"/></g><path d="M247-491c4-58-16-131 34-141 82-16 176-39 255-55 40-8 54-21 55-68 2-89-94-75-175-63-118 17-292 45-359 106-23 21-20 70-5 98 12 11 43 7 43 25 0 45 0 79-2 117-13 22-33 46-32 81 30 86 13 210 13 321 0 45 55 52 97 50 59-25 38-242 50-304 5-22 30-20 56-26 78-17 169-21 238-43 27-8 39-31 39-61 0-46-28-69-84-69-71 0-156 16-210 32h-13" id="aj"/><path d="M50-194C40-28 200 0 338-54c94-37 183-73 272-114 29-13 41-37 41-62 0-44-32-91-71-89-30 3-148 61-190 76l1-1c-45 16-110 45-165 45 1 0 0-5-3-15l1 1-3-11c27-168 60-333 82-502 10-75-103-138-147-64-8 14-17 32-20 54l1-1c-6 17-8 35-12 54l1-2C92-532 60-361 50-194" id="ak"/><path d="M776-292c25-58 39-113 39-189 0-186-105-335-289-347-115-8-264 80-335 176-54 72-128 174-130 306-17 72 19 171 60 209C155-80 284-35 371-30c125 8 185-36 261-79 69-40 112-103 145-184zM507-656c91 0 151 106 151 197 0 107-87 221-167 253-29 11-88 21-133 13l1 1c-87-19-148-53-141-159 8-119 91-193 166-254 44-35 86-51 123-51" id="al"/><path d="M801-816c-117 0-37 170-64 263l1-1c-15 67-25 131-43 194-17 60-32 90-42 90-80-84-72-255-129-356-25-43-100-46-123 6-3 9-10 16-13 25l1-1c-8 20-18 38-27 56h3c-37 81-75 146-113 224-14 27-22 40-25 40-20-121-1-292-18-429-7-54-40-79-81-79-96 0-69 186-67 280 4 147 38 414 86 451 74 56 110 33 172-59 29-43 113-203 127-220 48 94 116 279 229 289 100-11 151-212 184-307 29-83 39-155 39-263 0-135-32-203-97-203" id="am"/><path d="M603-651c0-97-31-172-120-170-102 1-164 75-214 132-81 91-127 171-181 277-30 59-52 189-20 259C104-74 204-5 336-32c36-8 99-21 126-45 137-73 206-137 206-191 0-71-82-87-131-48-77 62-149 135-266 145-97 8-92-125-54-190 41-69 89-162 136-217 46-53 83-81 115-81 30 22 11 105 74 105 41 0 61-32 61-97" id="an"/><path d="M211-150c2-56-6-121 2-175-6-57 39-29 77-42l99-9c10 81-7 183-7 268 0 63 24 95 79 97 39 2 67-28 71-64 21-214 34-430 47-645 5-79-45-113-114-95-24 14-42 35-54 58-5 60-4 122-9 186-4 49 4 36-56 43-40 4-81 13-122 10 3-61 9-119 11-180 2-53-31-103-77-103-110 0-98 263-98 399 0 91-21 189-9 280-5 25 0 47 13 66 72 60 142 31 147-94zm10-369c0-2 1 0 1 0h-1" id="ao"/><path d="M70-181C36-106 39-36 121-28c46 4 59-41 69-68 14-40 27-86 43-123 28-31 91-34 132-52 22-9 42-12 57-14 23 70 34 146 54 220 8 29 38 43 83 43 40 0 60-20 60-60 0-87-40-149-50-230 28-18 51-84 14-113-11-9-44-19-50-27-27-105-52-214-82-316-19-65-108-61-136-9-73 134-133 295-189 435-24 59-31 107-56 161zm286-369c8 39 19 86 26 125-22 9-48 16-78 17 14-39 32-102 52-142" id="ap"/><path d="M173-13c102-20 79-163 100-261 0-7 2-19 3-27-8-47 57-27 68-2 40 53 67 131 101 192l-1-1c19 54 59 97 104 92 43-5 70-16 73-58 13-23 7-37-3-71-6-23-15-54-34-88-35-66-68-105-104-161 56-50 105-104 147-170 6-29 17-55 20-85 6-72-103-151-170-159l2 1c-139-21-303 2-392 48-38 20-46 85-18 123 36 48 34 126 35 220 2 188-7 191-22 334-6 57 41 80 92 72zm83-631c46-6 199-69 222 5-8 54-52 92-132 119-94 31-95 61-95-72 0-28 2-45 5-52zm67 321l-3-1c1 1 2 1 3 1" id="aq"/><path d="M450-642c81-9 156-10 231-4 26-13 36-35 36-67 0-81-74-112-168-99-140 19-319-7-450 25-32 17-54 46-55 91v-3c-8 40 21 48 42 67 65 10 127-7 202-2-4 181-23 372-21 564 20 34 93 71 130 26 41-30 19-113 21-180 3-100 12-190 18-284l-1 1c5-43-7-105 15-135" id="ar"/><g id="h"><use transform="matrix(0.024444444444444442,0,0,0.024444444444444442,0,0)" xlink:href="#aj"/><use transform="matrix(0.024444444444444442,0,0,0.024444444444444442,13.59111111111111,0)" xlink:href="#ak"/><use transform="matrix(0.024444444444444442,0,0,0.024444444444444442,28.673333333333332,0)" xlink:href="#al"/><use transform="matrix(0.024444444444444442,0,0,0.024444444444444442,48.30222222222222,0)" xlink:href="#am"/><use transform="matrix(0.024444444444444442,0,0,0.024444444444444442,69.54444444444444,0)" xlink:href="#an"/><use transform="matrix(0.024444444444444442,0,0,0.024444444444444442,85.06666666666666,0)" xlink:href="#ao"/><use transform="matrix(0.024444444444444442,0,0,0.024444444444444442,98.33999999999999,0)" xlink:href="#ap"/><use transform="matrix(0.024444444444444442,0,0,0.024444444444444442,112.73777777777777,0)" xlink:href="#aq"/><use transform="matrix(0.024444444444444442,0,0,0.024444444444444442,127.86888888888888,0)" xlink:href="#ar"/></g><path d="M247-491c4-58-16-131 34-141 82-16 176-39 255-55 40-8 54-21 55-68 2-89-94-75-175-63-118 17-292 45-359 106-23 21-20 70-5 98 12 11 43 7 43 25 0 45 0 79-2 117-13 22-33 46-32 81 30 86 13 210 13 321 0 45 55 52 97 50 59-25 38-242 50-304 5-22 30-20 56-26 78-17 169-21 238-43 27-8 39-31 39-61 0-46-28-69-84-69-71 0-156 16-210 32h-13" id="as"/><g id="i"><use transform="matrix(0.024444444444444442,0,0,0.024444444444444442,0,0)" xlink:href="#as"/><use transform="matrix(0.024444444444444442,0,0,0.024444444444444442,13.59111111111111,0)" xlink:href="#al"/><use transform="matrix(0.024444444444444442,0,0,0.024444444444444442,33.22,0)" xlink:href="#aq"/></g><path d="M633-32c99 0 53-140 53-231 0-160 17-350-41-466-13-25-59-60-90-60-48-2-72 81-86 122-47 132-74 199-82 202-15-90-57-183-81-259-17-55-61-93-116-93-21 0-40 12-48 39-59 200-67 431-92 658C43-58 89 6 151-27c16-9 25-11 33-23 14-128 27-256 35-392 34 77 71 239 153 252 64-12 80-94 111-139 24-35 42-76 62-112 2 86 2 175 2 264 0 97 29 145 86 145" id="at"/><path d="M42-70c0 87 115 70 183 54l-1 1c168-29 298-46 412-66 37-61 31-107-28-144-59 12-120 13-178 22 6-108 31-217 31-327 0-55 4-92 13-111 33-5 63-9 97-17 108 2 116-84 54-143-115-14-235 13-335 17-9 1-17 2-25 5l1-1c-26 5-56 8-80 15l1-1c-64 12-112 20-118 81-8 89 119 84 199 63-6 0 1-1 3-1 14-2 24 0 41-3 2 126-16 240-31 354-4 28-1 78-21 91-30 19-88 18-126 30l1-1c-53 5-93 24-93 82" id="au"/><path d="M216-409c9 8 16 19 19 30-1 9 8 9 10 13 37 63 77 111 116 172 37 57 163 169 227 172 23 0 40-11 52-32 33-170 13-434 6-619-3-83-39-143-107-149-45-4-69 31-66 79 10 146 31 283 13 439-51-61-104-153-152-217-31-42-51-96-76-155l1 1c-28-66-40-134-124-136-97-1-69 150-80 250-17 150 12 295 5 444-2 50 15 62 51 88 19 2 42 3 59 3 35 2 66-46 57-86l1 1c-10-94-14-194-12-298zm39 2c4 1 2 2 0 3v-3zm229 115c0-2 0-3 1-4-1 1-1 3-1 4" id="av"/><g id="j"><use transform="matrix(0.024444444444444442,0,0,0.024444444444444442,0,0)" xlink:href="#at"/><use transform="matrix(0.024444444444444442,0,0,0.024444444444444442,16.45111111111111,0)" xlink:href="#ap"/><use transform="matrix(0.024444444444444442,0,0,0.024444444444444442,30.848888888888887,0)" xlink:href="#au"/><use transform="matrix(0.024444444444444442,0,0,0.024444444444444442,46.419999999999995,0)" xlink:href="#av"/></g><path d="M615-24c62 1 58-78 47-128 24-171 55-356 55-541 0-64-23-96-70-96-71-1-99 44-94 123-15 114-18 275-42 381-6 28-34 35-58 44-76 27-135 58-212 58-42 0-27-72-25-115 4-84 25-172 38-251l-1 1c12-62 61-162-1-204l2 1c-43-49-114-25-124 36-27 163-69 328-78 509-3 62 15 122 50 146 37 26 87 40 150 40 41 0 198-44 262-67 14 13 28 28 43 46 26 11 45 17 58 17" id="aw"/><path d="M134-345c49 1 97-57 97-108 0-47-47-85-91-85-59 0-87 37-87 93s29 99 81 100zm-2 282c73 0 133-118 63-170-59-44-144-14-144 71 0 55 27 99 81 99" id="ax"/><g id="k"><use transform="matrix(0.024444444444444442,0,0,0.024444444444444442,0,0)" xlink:href="#as"/><use transform="matrix(0.024444444444444442,0,0,0.024444444444444442,13.59111111111111,0)" xlink:href="#aw"/><use transform="matrix(0.024444444444444442,0,0,0.024444444444444442,30.77555555555555,0)" xlink:href="#av"/><use transform="matrix(0.024444444444444442,0,0,0.024444444444444442,46.468888888888884,0)" xlink:href="#an"/><use transform="matrix(0.024444444444444442,0,0,0.024444444444444442,61.9911111111111,0)" xlink:href="#ar"/><use transform="matrix(0.024444444444444442,0,0,0.024444444444444442,79.56666666666666,0)" xlink:href="#au"/><use transform="matrix(0.024444444444444442,0,0,0.024444444444444442,95.13777777777777,0)" xlink:href="#al"/><use transform="matrix(0.024444444444444442,0,0,0.024444444444444442,114.76666666666665,0)" xlink:href="#av"/><use transform="matrix(0.024444444444444442,0,0,0.024444444444444442,130.45999999999998,0)" xlink:href="#ax"/></g><path d="M201 0H64v-657h137V0" id="ay"/><g id="l"><use transform="matrix(0.017777777777777778,0,0,0.017777777777777778,0,0)" xlink:href="#Y"/><use transform="matrix(0.017777777777777778,0,0,0.017777777777777778,5.653333333333333,0)" xlink:href="#ai"/><use transform="matrix(0.017777777777777778,0,0,0.017777777777777778,15.555555555555557,0)" xlink:href="#Y"/><use transform="matrix(0.017777777777777778,0,0,0.017777777777777778,21.20888888888889,0)" xlink:href="#ad"/><use transform="matrix(0.017777777777777778,0,0,0.017777777777777778,30.862222222222222,0)" xlink:href="#ay"/></g><g id="m"><use transform="matrix(0.017777777777777778,0,0,0.017777777777777778,0,0)" xlink:href="#ad"/><use transform="matrix(0.017777777777777778,0,0,0.017777777777777778,9.653333333333334,0)" xlink:href="#W"/><use transform="matrix(0.017777777777777778,0,0,0.017777777777777778,24.40888888888889,0)" xlink:href="#ai"/><use transform="matrix(0.017777777777777778,0,0,0.017777777777777778,34.31111111111111,0)" xlink:href="#ab"/><use transform="matrix(0.017777777777777778,0,0,0.017777777777777778,43.946666666666665,0)" xlink:href="#aa"/><use transform="matrix(0.017777777777777778,0,0,0.017777777777777778,53.70666666666666,0)" xlink:href="#Y"/></g><path d="M506-174H339V0H227v-174H60v-101h167v-159h112v159h167v101" id="az"/><path d="M516-228H50v-100h466v100zm0 173H50v-100h466v100" id="aA"/><g id="n"><use transform="matrix(0.017777777777777778,0,0,0.017777777777777778,0,0)" xlink:href="#az"/><use transform="matrix(0.017777777777777778,0,0,0.017777777777777778,10.062222222222223,0)" xlink:href="#aA"/></g><path d="M441-462l-153 36-1 11 100 132-64 45-87-136h-12l-91 138-64-50 102-129-4-11L8-463l26-79 153 56 10-8-7-157h77l-6 160 9 6 151-55" id="aB"/><path d="M528-308c0 211-62 326-247 326C98 18 38-95 38-308c0-214 74-314 244-314 183 0 246 104 246 314zm-152 0c0-139-11-201-94-201-87 0-92 83-92 201 0 141 6 213 91 213 80 0 95-79 95-213" id="aC"/><path d="M212 0H71v-124h141V0" id="aD"/><path d="M528-158c0 133-99 176-246 176C137 18 39-23 39-158c0-89 51-144 145-162-33-12-124-38-124-133 0-104 71-170 227-170 168 0 226 56 226 169 0 93-91 128-130 135 93 21 145 65 145 161zM365-447c0-29-1-64-78-64-74 0-80 31-80 64 0 49 41 63 76 76 40-15 82-32 82-76zm14 285c0-60-39-85-94-104-58 21-98 40-98 104 0 31 18 68 95 68 79 0 97-34 97-68" id="aE"/><g id="o"><use transform="matrix(0.017777777777777778,0,0,0.017777777777777778,0,0)" xlink:href="#ab"/><use transform="matrix(0.017777777777777778,0,0,0.017777777777777778,9.635555555555555,0)" xlink:href="#aa"/><use transform="matrix(0.017777777777777778,0,0,0.017777777777777778,19.39555555555555,0)" xlink:href="#af"/><use transform="matrix(0.017777777777777778,0,0,0.017777777777777778,24.124444444444446,0)" xlink:href="#Y"/><use transform="matrix(0.017777777777777778,0,0,0.017777777777777778,29.777777777777775,0)" xlink:href="#ag"/><use transform="matrix(0.017777777777777778,0,0,0.017777777777777778,38.11555555555555,0)" xlink:href="#aB"/><use transform="matrix(0.017777777777777778,0,0,0.017777777777777778,46.11555555555555,0)" xlink:href="#aC"/><use transform="matrix(0.017777777777777778,0,0,0.017777777777777778,56.17777777777778,0)" xlink:href="#aD"/><use transform="matrix(0.017777777777777778,0,0,0.017777777777777778,61.208888888888886,0)" xlink:href="#aE"/></g><path d="M232 0H80v-647h152V0" id="aF"/><g id="p"><use transform="matrix(0.017777777777777778,0,0,0.017777777777777778,0,0)" xlink:href="#aF"/><use transform="matrix(0.017777777777777778,0,0,0.017777777777777778,5.546666666666667,0)" xlink:href="#Q"/></g><g id="q"><use transform="matrix(0.017777777777777778,0,0,0.017777777777777778,0,0)" xlink:href="#ab"/><use transform="matrix(0.017777777777777778,0,0,0.017777777777777778,9.635555555555555,0)" xlink:href="#aa"/><use transform="matrix(0.017777777777777778,0,0,0.017777777777777778,19.39555555555555,0)" xlink:href="#af"/><use transform="matrix(0.017777777777777778,0,0,0.017777777777777778,24.124444444444446,0)" xlink:href="#Y"/><use transform="matrix(0.017777777777777778,0,0,0.017777777777777778,29.777777777777775,0)" xlink:href="#ag"/></g><g id="r"><use transform="matrix(0.017777777777777778,0,0,0.017777777777777778,0,0)" xlink:href="#ay"/><use transform="matrix(0.017777777777777778,0,0,0.017777777777777778,4.711111111111111,0)" xlink:href="#X"/><use transform="matrix(0.017777777777777778,0,0,0.017777777777777778,14.32888888888889,0)" xlink:href="#ag"/><use transform="matrix(0.017777777777777778,0,0,0.017777777777777778,22.666666666666668,0)" xlink:href="#ag"/></g><path d="M485 0H348v-304c0-28-2-64-56-64-39 0-65 45-91 91V0H64v-657h137v256c13-13 51-71 115-71 140 0 169 77 169 187V0" id="aG"/><g id="s"><use transform="matrix(0.017777777777777778,0,0,0.017777777777777778,0,0)" xlink:href="#Y"/><use transform="matrix(0.017777777777777778,0,0,0.017777777777777778,5.653333333333333,0)" xlink:href="#aG"/><use transform="matrix(0.017777777777777778,0,0,0.017777777777777778,15.342222222222222,0)" xlink:href="#ad"/><use transform="matrix(0.017777777777777778,0,0,0.017777777777777778,24.995555555555555,0)" xlink:href="#aa"/></g><g id="t"><use transform="matrix(0.017777777777777778,0,0,0.017777777777777778,0,0)" xlink:href="#ai"/><use transform="matrix(0.017777777777777778,0,0,0.017777777777777778,9.902222222222223,0)" xlink:href="#Z"/></g><path d="M500-457c-7 56-13 80-13 142v495H350V-41c-27 37-83 56-118 56C86 15 41-99 41-226c0-132 63-246 200-246 57 0 91 46 110 71l22-56h127zM352-164v-114c-22-42-43-90-74-90-60 0-97 17-97 140 0 119 39 139 81 139 30 0 65-26 90-75" id="aH"/><g id="u"><use transform="matrix(0.017777777777777778,0,0,0.017777777777777778,0,0)" xlink:href="#X"/><use transform="matrix(0.017777777777777778,0,0,0.017777777777777778,9.617777777777778,0)" xlink:href="#aH"/><use transform="matrix(0.017777777777777778,0,0,0.017777777777777778,19.413333333333334,0)" xlink:href="#ab"/><use transform="matrix(0.017777777777777778,0,0,0.017777777777777778,29.04888888888889,0)" xlink:href="#ad"/><use transform="matrix(0.017777777777777778,0,0,0.017777777777777778,38.702222222222225,0)" xlink:href="#ay"/></g><g id="v"><use transform="matrix(0.017777777777777778,0,0,0.017777777777777778,0,0)" xlink:href="#Y"/><use transform="matrix(0.017777777777777778,0,0,0.017777777777777778,5.653333333333333,0)" xlink:href="#ai"/></g><path d="M526 0H94L53-124c98-62 310-195 310-288 0-83-44-98-85-98-40 0-85 12-159 52L76-581c113-37 132-42 204-42 110 0 234 40 234 207 0 121-158 250-256 304h268V0" id="aI"/><path d="M454-483c0 119-167 142-167 227v74H153v-79c0-136 155-145 155-222 0-37-11-57-68-57-37 0-135 17-171 35L51-627c43-15 141-30 189-30 78 0 214 9 214 174zM290 0H150v-123h140V0" id="aJ"/><g id="w"><use transform="matrix(0.017777777777777778,0,0,0.017777777777777778,0,0)" xlink:href="#aI"/><use transform="matrix(0.017777777777777778,0,0,0.017777777777777778,10.062222222222223,0)" xlink:href="#aC"/><use transform="matrix(0.017777777777777778,0,0,0.017777777777777778,20.124444444444446,0)" xlink:href="#aC"/><use transform="matrix(0.017777777777777778,0,0,0.017777777777777778,30.186666666666667,0)" xlink:href="#aJ"/></g><path d="M635-647L397-291V0H245v-287L13-647h173l141 226 142-226h166" id="aK"/><g id="x"><use transform="matrix(0.017777777777777778,0,0,0.017777777777777778,0,0)" xlink:href="#aK"/><use transform="matrix(0.017777777777777778,0,0,0.017777777777777778,11.093333333333334,0)" xlink:href="#X"/><use transform="matrix(0.017777777777777778,0,0,0.017777777777777778,20.711111111111112,0)" xlink:href="#ag"/></g><path d="M661 0H431L238-467V0H92v-647h228l191 467v-467h150V0" id="aL"/><g id="y"><use transform="matrix(0.017777777777777778,0,0,0.017777777777777778,0,0)" xlink:href="#aL"/><use transform="matrix(0.017777777777777778,0,0,0.017777777777777778,13.386666666666667,0)" xlink:href="#ai"/></g><g id="z"><use transform="matrix(0.017777777777777778,0,0,0.017777777777777778,0,0)" xlink:href="#aI"/><use transform="matrix(0.017777777777777778,0,0,0.017777777777777778,10.062222222222223,0)" xlink:href="#aC"/><use transform="matrix(0.017777777777777778,0,0,0.017777777777777778,20.124444444444446,0)" xlink:href="#aC"/><use transform="matrix(0.017777777777777778,0,0,0.017777777777777778,30.186666666666667,0)" xlink:href="#aB"/><use transform="matrix(0.017777777777777778,0,0,0.017777777777777778,38.18666666666667,0)" xlink:href="#aC"/><use transform="matrix(0.017777777777777778,0,0,0.017777777777777778,48.24888888888889,0)" xlink:href="#aD"/><use transform="matrix(0.017777777777777778,0,0,0.017777777777777778,53.28,0)" xlink:href="#aE"/></g><path d="M285 128H160C75-19 54-104 54-254c0-183 31-267 101-393h125c-71 131-91 224-91 393 0 139 15 234 96 382" id="aM"/><path d="M336-160H26v-112h310v112" id="aN"/><path d="M285-254c0 150-21 235-106 382H55c81-148 96-243 96-382 0-169-20-262-91-393h124c70 126 101 210 101 393" id="aO"/><path d="M521-322c0 160-74 340-279 340-37 0-114-9-155-20l43-123c32 17 69 30 107 30 117 0 141-99 141-163-28 53-99 61-116 61-146 0-215-78-215-227 0-125 122-199 230-199 207 0 244 153 244 301zm-152-50c0-122-42-138-93-138-47 0-79 40-79 113 0 36 8 87 78 87 58 0 80-26 94-62" id="aP"/><g id="A"><use transform="matrix(0.017777777777777778,0,0,0.017777777777777778,0,0)" xlink:href="#aM"/><use transform="matrix(0.017777777777777778,0,0,0.017777777777777778,5.955555555555556,0)" xlink:href="#ab"/><use transform="matrix(0.017777777777777778,0,0,0.017777777777777778,15.591111111111111,0)" xlink:href="#aa"/><use transform="matrix(0.017777777777777778,0,0,0.017777777777777778,25.351111111111113,0)" xlink:href="#af"/><use transform="matrix(0.017777777777777778,0,0,0.017777777777777778,30.08,0)" xlink:href="#Y"/><use transform="matrix(0.017777777777777778,0,0,0.017777777777777778,35.733333333333334,0)" xlink:href="#ag"/><use transform="matrix(0.017777777777777778,0,0,0.017777777777777778,44.07111111111111,0)" xlink:href="#aN"/><use transform="matrix(0.017777777777777778,0,0,0.017777777777777778,50.50666666666666,0)" xlink:href="#aI"/><use transform="matrix(0.017777777777777778,0,0,0.017777777777777778,60.568888888888885,0)" xlink:href="#aC"/><use transform="matrix(0.017777777777777778,0,0,0.017777777777777778,70.63111111111111,0)" xlink:href="#aC"/><use transform="matrix(0.017777777777777778,0,0,0.017777777777777778,80.69333333333333,0)" xlink:href="#aO"/><use transform="matrix(0.017777777777777778,0,0,0.017777777777777778,86.64888888888888,0)" xlink:href="#aB"/><use transform="matrix(0.017777777777777778,0,0,0.017777777777777778,94.64888888888888,0)" xlink:href="#aC"/><use transform="matrix(0.017777777777777778,0,0,0.017777777777777778,104.7111111111111,0)" xlink:href="#aD"/><use transform="matrix(0.017777777777777778,0,0,0.017777777777777778,109.74222222222221,0)" xlink:href="#aP"/></g><path d="M425 1H273v-468l-113 87-45-107 162-120h148V1" id="aQ"/><g id="B"><use transform="matrix(0.017777777777777778,0,0,0.017777777777777778,0,0)" xlink:href="#aQ"/><use transform="matrix(0.017777777777777778,0,0,0.017777777777777778,10.062222222222223,0)" xlink:href="#aC"/><use transform="matrix(0.017777777777777778,0,0,0.017777777777777778,20.124444444444446,0)" xlink:href="#aC"/><use transform="matrix(0.017777777777777778,0,0,0.017777777777777778,30.186666666666667,0)" xlink:href="#aB"/><use transform="matrix(0.017777777777777778,0,0,0.017777777777777778,38.18666666666667,0)" xlink:href="#aC"/><use transform="matrix(0.017777777777777778,0,0,0.017777777777777778,48.24888888888889,0)" xlink:href="#aD"/><use transform="matrix(0.017777777777777778,0,0,0.017777777777777778,53.28,0)" xlink:href="#aP"/></g><path d="M497-176C497-20 357 18 246 18c-68 0-146-7-204-27l44-123c11 8 97 37 163 37 71 0 96-48 96-82 0-82-71-86-189-86v-112c105 0 174 4 174-71 0-41-28-64-77-64-48 0-111 25-156 47L53-586c44-22 156-37 206-37 150 0 223 60 223 175 0 80-68 119-139 128 70 11 154 51 154 144" id="aR"/><g id="C"><use transform="matrix(0.017777777777777778,0,0,0.017777777777777778,0,0)" xlink:href="#aM"/><use transform="matrix(0.017777777777777778,0,0,0.017777777777777778,5.955555555555556,0)" xlink:href="#ab"/><use transform="matrix(0.017777777777777778,0,0,0.017777777777777778,15.591111111111111,0)" xlink:href="#aa"/><use transform="matrix(0.017777777777777778,0,0,0.017777777777777778,25.351111111111113,0)" xlink:href="#af"/><use transform="matrix(0.017777777777777778,0,0,0.017777777777777778,30.08,0)" xlink:href="#Y"/><use transform="matrix(0.017777777777777778,0,0,0.017777777777777778,35.733333333333334,0)" xlink:href="#ag"/><use transform="matrix(0.017777777777777778,0,0,0.017777777777777778,44.07111111111111,0)" xlink:href="#aN"/><use transform="matrix(0.017777777777777778,0,0,0.017777777777777778,50.50666666666666,0)" xlink:href="#aR"/><use transform="matrix(0.017777777777777778,0,0,0.017777777777777778,60.568888888888885,0)" xlink:href="#aC"/><use transform="matrix(0.017777777777777778,0,0,0.017777777777777778,70.63111111111111,0)" xlink:href="#aC"/><use transform="matrix(0.017777777777777778,0,0,0.017777777777777778,80.69333333333333,0)" xlink:href="#aO"/></g><path d="M221-124c-5 68 57 122 114 88 56-69 74-227 103-315 43-131 137-218 258-350 11-10 13-24 13-44 0-51-23-76-70-76-24 0-64 28-115 76-59 54-122 144-170 207-38-22-100-93-118-140l2 2c-5-9-14-22-18-32l2 3c-24-42-35-120-100-120-46 0-72 39-72 84 30 138 114 263 217 331 10 7 14 13 14 18" id="aS"/><path d="M562-231c-119 0-201 32-308 40-14 1-42-3-40-14 7-43 5-108 16-155 15-24 58-17 92-28 55-18 122-10 191-10 29 0 63-18 62-50l-1 1c9-54-30-90-85-89l2 1c-79-20-172-1-247 10 3-27 1-57 6-86 80-35 193-36 303-41 17-1 37-7 58-16 38-58-8-126-51-147l1 1c-50-22-116-3-173 4-55 6-120 24-173 38l1-1c-58 17-141 13-134 97 6 67 3 142 3 213 0 107-34 195-34 299 0 91 55 147 155 140 120-8 214-45 346-45 28 0 55-3 82-5h-6c53-8 92-74 55-130-9-16-23-28-41-35-26 5-52 8-80 8zM242-525v-1 1" id="aT"/><path d="M57-191C48-107 192-27 280-27c97 0 254-99 310-169 39-50 65-83 62-166-5-159-71-204-245-204-43 0-128 16-175 9 33-54 156-102 224-125 50-17 39 63 85 49 7-1 26-9 26-8 27 1 48-28 46-55-5-57-86-138-163-130-107 11-177 44-249 89-64 40-151 103-160 192 11 108 88 147 219 147 67 0 156-12 208 7 20 7 30 17 30 30 0 34-38 77-114 130 1-1 0-1 1-1-43 46-146 46-193 1-15-15-43-32-65-30-41 4-67 29-70 70" id="aU"/><g id="D"><use transform="matrix(0.017777777777777778,0,0,0.017777777777777778,0,0)" xlink:href="#aS"/><use transform="matrix(0.017777777777777778,0,0,0.017777777777777778,11.982222222222223,0)" xlink:href="#aT"/><use transform="matrix(0.017777777777777778,0,0,0.017777777777777778,23.840000000000003,0)" xlink:href="#aU"/></g><path d="M216-409c9 8 16 19 19 30-1 9 8 9 10 13 37 63 77 111 116 172 37 57 163 169 227 172 23 0 40-11 52-32 33-170 13-434 6-619-3-83-39-143-107-149-45-4-69 31-66 79 10 146 31 283 13 439-51-61-104-153-152-217-31-42-51-96-76-155l1 1c-28-66-40-134-124-136-97-1-69 150-80 250-17 150 12 295 5 444-2 50 15 62 51 88 19 2 42 3 59 3 35 2 66-46 57-86l1 1c-10-94-14-194-12-298zm39 2c4 1 2 2 0 3v-3zm229 115c0-2 0-3 1-4-1 1-1 3-1 4" id="aV"/><g id="E"><use transform="matrix(0.017777777777777778,0,0,0.017777777777777778,0,0)" xlink:href="#aV"/><use transform="matrix(0.017777777777777778,0,0,0.017777777777777778,11.413333333333334,0)" xlink:href="#al"/></g><g id="F"><use transform="matrix(0.017777777777777778,0,0,0.017777777777777778,0,0)" xlink:href="#Y"/><use transform="matrix(0.017777777777777778,0,0,0.017777777777777778,5.653333333333333,0)" xlink:href="#ai"/><use transform="matrix(0.017777777777777778,0,0,0.017777777777777778,15.555555555555557,0)" xlink:href="#Y"/><use transform="matrix(0.017777777777777778,0,0,0.017777777777777778,21.20888888888889,0)" xlink:href="#ad"/><use transform="matrix(0.017777777777777778,0,0,0.017777777777777778,30.862222222222222,0)" xlink:href="#ay"/></g><path d="M544-476l-33 89h-52c15 18 42 55 42 93 0 75-41 176-219 176-13 0-75-4-102-15-10 1-18 11-18 27 0 24 23 30 136 38C492-54 533-16 533 69c0 104-128 135-245 135C95 204 38 149 38 72c0-54 42-73 63-83-81-39-64-136 3-172-11-14-43-56-43-113 0-53 26-175 219-175 34 0 49 4 77 8 37-3 139-11 187-13zM364-298c0-42-21-71-82-71-29 0-84 2-84 75 0 62 46 73 85 73 62 0 81-45 81-77zm30 367c0-16-39-36-204-37-47 54 35 75 98 75 84 0 106-7 106-38" id="aW"/><g id="G"><use transform="matrix(0.017777777777777778,0,0,0.017777777777777778,0,0)" xlink:href="#aW"/><use transform="matrix(0.017777777777777778,0,0,0.017777777777777778,10.115555555555556,0)" xlink:href="#Z"/><use transform="matrix(0.017777777777777778,0,0,0.017777777777777778,17.26222222222222,0)" xlink:href="#X"/><use transform="matrix(0.017777777777777778,0,0,0.017777777777777778,26.88,0)" xlink:href="#ad"/><use transform="matrix(0.017777777777777778,0,0,0.017777777777777778,36.53333333333333,0)" xlink:href="#Y"/><use transform="matrix(0.017777777777777778,0,0,0.017777777777777778,42.18666666666667,0)" xlink:href="#X"/><use transform="matrix(0.017777777777777778,0,0,0.017777777777777778,51.80444444444444,0)" xlink:href="#Z"/></g><path d="M544-158h-96V0H298v-158H56L7-272l272-335h169v335h96v114zM298-272v-203L131-272h167" id="aX"/><g id="H"><use transform="matrix(0.017777777777777778,0,0,0.017777777777777778,0,0)" xlink:href="#aX"/><use transform="matrix(0.017777777777777778,0,0,0.017777777777777778,10.062222222222223,0)" xlink:href="#aC"/><use transform="matrix(0.017777777777777778,0,0,0.017777777777777778,20.124444444444446,0)" xlink:href="#aC"/><use transform="matrix(0.017777777777777778,0,0,0.017777777777777778,30.186666666666667,0)" xlink:href="#aJ"/></g><g id="I"><use transform="matrix(0.017777777777777778,0,0,0.017777777777777778,0,0)" xlink:href="#aM"/><use transform="matrix(0.017777777777777778,0,0,0.017777777777777778,5.955555555555556,0)" xlink:href="#Y"/><use transform="matrix(0.017777777777777778,0,0,0.017777777777777778,11.608888888888888,0)" xlink:href="#ai"/><use transform="matrix(0.017777777777777778,0,0,0.017777777777777778,21.511111111111113,0)" xlink:href="#Y"/><use transform="matrix(0.017777777777777778,0,0,0.017777777777777778,27.164444444444445,0)" xlink:href="#ad"/><use transform="matrix(0.017777777777777778,0,0,0.017777777777777778,36.81777777777778,0)" xlink:href="#ay"/></g><path d="M515-199C515 22 247 51 44-7l43-123c45 18 120 35 168 35 100 0 110-58 110-106 0-135-167-73-202-40l-94-35v-331h421v113H219v107c24-11 47-11 80-11 121 0 216 57 216 199" id="aY"/><g id="J"><use transform="matrix(0.017777777777777778,0,0,0.017777777777777778,0,0)" xlink:href="#ad"/><use transform="matrix(0.017777777777777778,0,0,0.017777777777777778,9.653333333333334,0)" xlink:href="#W"/><use transform="matrix(0.017777777777777778,0,0,0.017777777777777778,24.40888888888889,0)" xlink:href="#ai"/><use transform="matrix(0.017777777777777778,0,0,0.017777777777777778,34.31111111111111,0)" xlink:href="#ab"/><use transform="matrix(0.017777777777777778,0,0,0.017777777777777778,43.946666666666665,0)" xlink:href="#aa"/><use transform="matrix(0.017777777777777778,0,0,0.017777777777777778,53.70666666666666,0)" xlink:href="#Y"/><use transform="matrix(0.017777777777777778,0,0,0.017777777777777778,59.36,0)" xlink:href="#aO"/><use transform="matrix(0.017777777777777778,0,0,0.017777777777777778,65.31555555555556,0)" xlink:href="#aB"/><use transform="matrix(0.017777777777777778,0,0,0.017777777777777778,73.31555555555556,0)" xlink:href="#aC"/><use transform="matrix(0.017777777777777778,0,0,0.017777777777777778,83.37777777777778,0)" xlink:href="#aD"/><use transform="matrix(0.017777777777777778,0,0,0.017777777777777778,88.40888888888888,0)" xlink:href="#aQ"/><use transform="matrix(0.017777777777777778,0,0,0.017777777777777778,98.47111111111111,0)" xlink:href="#aY"/></g><path d="M574-448c-1 196-143 215-330 205V0H92v-647c227 6 484-50 482 199zm-154 0c0-82-50-82-83-82h-93v170c94-3 176 24 176-88" id="aZ"/><path d="M500 0H92v-647h152v527h256V0" id="ba"/><g id="K"><use transform="matrix(0.01777777777777777,0,0,0.01777777777777777,0,0)" xlink:href="#V"/><use transform="matrix(0.01777777777777777,0,0,0.01777777777777777,12.35555555555555,0)" xlink:href="#aF"/><use transform="matrix(0.01777777777777777,0,0,0.01777777777777777,17.902222222222214,0)" xlink:href="#Q"/><use transform="matrix(0.01777777777777777,0,0,0.01777777777777777,28.85333333333332,0)" xlink:href="#aZ"/><use transform="matrix(0.01777777777777777,0,0,0.01777777777777777,39.9111111111111,0)" xlink:href="#ba"/><use transform="matrix(0.01777777777777777,0,0,0.01777777777777777,48.88888888888887,0)" xlink:href="#S"/><use transform="matrix(0.01777777777777777,0,0,0.01777777777777777,60.497777777777756,0)" xlink:href="#aK"/></g><g id="L"><use transform="matrix(0.01777777777777777,0,0,0.01777777777777777,0,0)" xlink:href="#Y"/><use transform="matrix(0.01777777777777777,0,0,0.01777777777777777,5.6533333333333315,0)" xlink:href="#ai"/><use transform="matrix(0.01777777777777777,0,0,0.01777777777777777,15.55555555555555,0)" xlink:href="#Y"/><use transform="matrix(0.01777777777777777,0,0,0.01777777777777777,21.20888888888888,0)" xlink:href="#ad"/><use transform="matrix(0.01777777777777777,0,0,0.01777777777777777,30.86222222222221,0)" xlink:href="#ay"/></g><g id="M"><use transform="matrix(0.01777777777777777,0,0,0.01777777777777777,0,0)" xlink:href="#ad"/><use transform="matrix(0.01777777777777777,0,0,0.01777777777777777,9.653333333333329,0)" xlink:href="#W"/><use transform="matrix(0.01777777777777777,0,0,0.01777777777777777,24.408888888888878,0)" xlink:href="#ai"/><use transform="matrix(0.01777777777777777,0,0,0.01777777777777777,34.311111111111096,0)" xlink:href="#ab"/><use transform="matrix(0.01777777777777777,0,0,0.01777777777777777,43.946666666666644,0)" xlink:href="#aa"/><use transform="matrix(0.01777777777777777,0,0,0.01777777777777777,53.70666666666664,0)" xlink:href="#Y"/></g><g id="N"><use transform="matrix(0.01777777777777777,0,0,0.01777777777777777,0,0)" xlink:href="#ad"/><use transform="matrix(0.01777777777777777,0,0,0.01777777777777777,9.653333333333329,0)" xlink:href="#aa"/><use transform="matrix(0.01777777777777777,0,0,0.01777777777777777,19.413333333333327,0)" xlink:href="#ae"/></g><g id="O"><use transform="matrix(0.01777777777777777,0,0,0.01777777777777777,0,0)" xlink:href="#W"/><use transform="matrix(0.01777777777777777,0,0,0.01777777777777777,14.75555555555555,0)" xlink:href="#X"/><use transform="matrix(0.01777777777777777,0,0,0.01777777777777777,24.373333333333324,0)" xlink:href="#Y"/><use transform="matrix(0.01777777777777777,0,0,0.01777777777777777,30.026666666666657,0)" xlink:href="#X"/><use transform="matrix(0.01777777777777777,0,0,0.01777777777777777,39.64444444444443,0)" xlink:href="#Z"/></g><g id="P"><use transform="matrix(0.01777777777777777,0,0,0.01777777777777777,0,0)" xlink:href="#aa"/><use transform="matrix(0.01777777777777777,0,0,0.01777777777777777,9.759999999999996,0)" xlink:href="#ab"/><use transform="matrix(0.01777777777777777,0,0,0.01777777777777777,19.395555555555546,0)" xlink:href="#W"/><use transform="matrix(0.01777777777777777,0,0,0.01777777777777777,34.15111111111109,0)" xlink:href="#ac"/><use transform="matrix(0.01777777777777777,0,0,0.01777777777777777,43.946666666666644,0)" xlink:href="#X"/><use transform="matrix(0.01777777777777777,0,0,0.01777777777777777,53.56444444444441,0)" xlink:href="#Z"/></g></defs></g></svg>